<?xml version="1.0" standalone="no"?>
<!DOCTYPE svg PUBLIC "-//W3C//DTD SVG 1.1//EN" "http://www.w3.org/Graphics/SVG/1.1/DTD/svg11.dtd" >
<svg xmlns="http://www.w3.org/2000/svg" xmlns:xlink="http://www.w3.org/1999/xlink" version="1.1">
<metadata>
Created by FontForge 20201107 at Thu Dec  8 20:55:09 2022
 By Unknown
Copyright 2011 The Alex Brush Project Authors (https://github.com/googlefonts/alex-brush)
</metadata>
<defs>
<font id="AlexBrush-Regular" horiz-adv-x="0" >
  <font-face 
    font-family="Alex Brush"
    font-weight="400"
    font-stretch="normal"
    units-per-em="1000"
    panose-1="0 0 0 0 0 0 0 0 0 0"
    ascent="800"
    descent="-200"
    x-height="297"
    cap-height="703"
    bbox="-501 -425 2040 962"
    underline-thickness="20"
    underline-position="-153"
    unicode-range="U+000D-FB02"
  />
<missing-glyph horiz-adv-x="499" 
d="M62 0v750h375v-750h-375zM124 63h250v625h-250v-625z" />
    <glyph glyph-name="f_f" unicode="ff" horiz-adv-x="484" 
d="M-170 -205q-30 0 -51 25t-22 54q3 12 9 12t7 -15.5t16 -30.5t30 -15q85 0 155 105q19 28 47 81.5t62 134.5l54 130q-100 1 -100 24q0 11 10 17.5t16 6.5v0v0q1 0 25 -0.5t69 -1.5q98 218 180 218q32 0 63 -30q8 -8 8 -21q0 -31 -18 -31q-5 0 -10 8q-4 7 -13 11.5t-17 4.5
q-30 0 -52.5 -22.5t-42 -58.5t-41.5 -79h12q109 0 145 3q4 -1 4 -4q0 -8 -71 -22q-28 -4 -55 -9t-55 -10q-13 -28 -32 -66.5t-43 -85.5q-47 -88 -77 -140t-42 -69q-87 -124 -170 -124zM72 -205q-30 0 -51 25t-22 54q3 12 9 12t7 -15.5t16 -30.5t30 -15q85 0 155 105
q19 28 47 81.5t62 134.5l54 130q-100 1 -100 24q0 11 10 17.5t16 6.5v0v0q1 0 25 -0.5t69 -1.5q98 218 180 218q32 0 63 -30q8 -8 8 -21q0 -31 -18 -31q-5 0 -10 8q-4 7 -13 11.5t-17 4.5q-30 0 -52.5 -22.5t-42 -58.5t-41.5 -79h12q109 0 145 3q4 -1 4 -4q0 -8 -71 -22
q-28 -4 -55 -9t-55 -10q-13 -28 -32 -66.5t-43 -85.5q-47 -88 -77 -140t-42 -69q-87 -124 -170 -124z" />
    <glyph glyph-name="f_f_i" unicode="ffi" horiz-adv-x="710" 
d="M-170 -205q-30 0 -51 25t-22 54q3 12 9 12t7 -15.5t16 -30.5t30 -15q85 0 155 105q19 28 47 81.5t62 134.5l54 130q-100 1 -100 24q0 11 10 17.5t16 6.5v0v0q1 0 25 -0.5t69 -1.5q98 218 180 218q32 0 63 -30q8 -8 8 -21q0 -31 -18 -31q-5 0 -10 8q-4 7 -13 11.5t-17 4.5
q-30 0 -52.5 -22.5t-42 -58.5t-41.5 -79h12q109 0 145 3q4 -1 4 -4q0 -8 -71 -22q-28 -4 -55 -9t-55 -10q-13 -28 -32 -66.5t-43 -85.5q-47 -88 -77 -140t-42 -69q-87 -124 -170 -124zM72 -205q-30 0 -51 25t-22 54q3 12 9 12t7 -15.5t16 -30.5t30 -15q85 0 155 105
q19 28 47 81.5t62 134.5l54 130q-100 1 -100 24q0 11 10 17.5t16 6.5v0v0q1 0 25 -0.5t69 -1.5q98 218 180 218q32 0 63 -30q8 -8 8 -21q0 -31 -18 -31q-5 0 -10 8q-4 7 -13 11.5t-17 4.5q-30 0 -52.5 -22.5t-42 -58.5t-41.5 -79h12q109 0 145 3q4 -1 4 -4q0 -8 -71 -22
q-28 -4 -55 -9t-55 -10q-13 -28 -32 -66.5t-43 -85.5q-47 -88 -77 -140t-42 -69q-87 -124 -170 -124zM705 344q-17 0 -29.5 11t-12.5 25q0 28 38 28q14 0 28 -9.5t14 -23.5q0 -12 -13 -21.5t-25 -9.5zM520 -11q-22 0 -36.5 14.5t-14.5 51.5q0 21 9.5 48.5t24 55.5t28.5 50
q56 91 92 92q9 0 22 -7.5t13 -16.5l-76 -98q-75 -97 -75 -138q0 -32 25 -32q16 0 41.5 13.5t53.5 34.5t53.5 45t41.5 44q10 13 17.5 18t9.5 5q4 0 4 -6q0 -5 -11.5 -20t-31.5 -35q-24 -24 -53 -52t-63 -47.5t-74 -19.5z" />
    <glyph glyph-name="f_f_l" unicode="ffl" horiz-adv-x="727" 
d="M-170 -205q-30 0 -51 25t-22 54q3 12 9 12t7 -15.5t16 -30.5t30 -15q85 0 155 105q19 28 47 81.5t62 134.5l54 130q-100 1 -100 24q0 11 10 17.5t16 6.5v0v0q1 0 25 -0.5t69 -1.5q98 218 180 218q32 0 63 -30q8 -8 8 -21q0 -31 -18 -31q-5 0 -10 8q-4 7 -13 11.5t-17 4.5
q-30 0 -52.5 -22.5t-42 -58.5t-41.5 -79h12q109 0 145 3q4 -1 4 -4q0 -8 -71 -22q-28 -4 -55 -9t-55 -10q-13 -28 -32 -66.5t-43 -85.5q-47 -88 -77 -140t-42 -69q-87 -124 -170 -124zM72 -205q-30 0 -51 25t-22 54q3 12 9 12t7 -15.5t16 -30.5t30 -15q85 0 155 105
q19 28 47 81.5t62 134.5l54 130q-100 1 -100 24q0 11 10 17.5t16 6.5v0v0q1 0 25 -0.5t69 -1.5q98 218 180 218q32 0 63 -30q8 -8 8 -21q0 -31 -18 -31q-5 0 -10 8q-4 7 -13 11.5t-17 4.5q-30 0 -52.5 -22.5t-42 -58.5t-41.5 -79h12q109 0 145 3q4 -1 4 -4q0 -8 -71 -22
q-28 -4 -55 -9t-55 -10q-13 -28 -32 -66.5t-43 -85.5q-47 -88 -77 -140t-42 -69q-87 -124 -170 -124zM560 -2q-29 0 -54 14.5t-25 48.5q0 47 33.5 112t76.5 135q117 190 166 190q10 0 20.5 -7.5t11.5 -16.5l-70 -94q-41 -55 -74 -101.5t-57 -83.5q-12 -19 -27 -43
t-26.5 -49.5t-11.5 -51.5q0 -12 7 -21.5t25 -9.5q32 0 84 34.5t103 95.5q5 6 11 11t10 5q5 0 5 -6q0 -3 -6.5 -11.5t-10.5 -13.5l-24 -27q-20 -22 -47.5 -48t-58 -44t-61.5 -18z" />
    <glyph glyph-name="fi" unicode="fi" horiz-adv-x="468" 
d="M-170 -205q-30 0 -51 25t-22 54q3 12 9 12t7 -15.5t16 -30.5t30 -15q85 0 155 105q19 28 46.5 82t62.5 134l54 130q-100 1 -100 24q0 10 11 18q8 6 15 6v0v0q1 0 24.5 -0.5t69.5 -1.5q98 218 180 218q32 0 63 -30q8 -8 8 -21q0 -31 -18 -31q-5 0 -10 8q-4 7 -13 11.5
t-17 4.5q-11 0 -19 -1.5t-22 -12.5q-14 -10 -26 -25.5t-19 -26.5t-19 -34.5t-31 -59.5h12q109 0 145 3q4 -1 4 -4q0 -8 -71 -22q-28 -4 -55 -9t-55 -10q-13 -28 -32 -66.5t-43 -85.5q-47 -88 -77 -140t-42 -69q-87 -124 -170 -124zM463 344q-17 0 -29.5 11t-12.5 25
q0 28 38 28q14 0 28 -9.5t14 -23.5q0 -12 -13 -21.5t-25 -9.5zM278 -11q-22 0 -36.5 14.5t-14.5 51.5q0 5 0.5 9.5t1.5 8.5q9 54 60 136q56 91 92 92q9 0 22 -7.5t13 -16.5l-76 -98q-75 -97 -75 -138q0 -32 25 -32q17 0 40.5 13t44.5 28t28 21q27 23 44.5 39.5t32.5 35.5
q10 13 17.5 18t9.5 5q4 0 4 -6q0 -5 -11.5 -20t-31.5 -35q-24 -24 -53 -52t-63 -47.5t-74 -19.5z" />
    <glyph glyph-name="fl" unicode="fl" horiz-adv-x="501" 
d="M-170 -205q-30 0 -51 25t-22 54q3 12 9 12t7 -15.5t16 -30.5t30 -15q85 0 155 105q19 28 46.5 82t62.5 134l54 130q-100 1 -100 24q0 10 11 18q8 6 15 6v0v0q1 0 24.5 -0.5t69.5 -1.5q98 218 180 218q32 0 63 -30q8 -8 8 -21q0 -31 -18 -31q-5 0 -10 8q-4 7 -13 11.5
t-17 4.5q-11 0 -19 -1.5t-22 -12.5q-14 -10 -26 -25.5t-19 -26.5t-19 -34.5t-31 -59.5h12q47 0 80 0.5t53 1.5q108 174 156 174q10 0 20.5 -7.5t11.5 -16.5l-70 -94q-41 -55 -74 -101.5t-57 -83.5q-12 -19 -27 -43t-26.5 -49.5t-11.5 -51.5q0 -12 7 -21.5t25 -9.5
q32 0 84 34.5t103 95.5q5 6 11 11t10 5q5 0 5 -6q0 -3 -6.5 -11.5t-10.5 -13.5l-24 -27q-20 -22 -47.5 -48t-58 -44t-61.5 -18q-29 0 -54 14.5t-25 48.5q0 19 5 39t12 37q13 30 36 73t57 98v1q-8 -2 -19.5 -5t-25.5 -5q-28 -4 -55 -9t-55 -10q-13 -28 -32 -66.5t-43 -85.5
q-47 -88 -77 -140t-42 -69q-87 -124 -170 -124z" />
    <glyph glyph-name=".notdef" horiz-adv-x="499" 
d="M62 0v750h375v-750h-375zM124 63h250v625h-250v-625z" />
    <glyph glyph-name="CR" unicode="&#xd;" horiz-adv-x="198" 
 />
    <glyph glyph-name="space" unicode=" " horiz-adv-x="198" 
 />
    <glyph glyph-name="A" unicode="A" horiz-adv-x="1020" 
d="M153 -116q-154 13 -154 158q0 86 54 182q32 58 80.5 113t106 99.5t118 70.5t116.5 26q99 0 99 -73q0 -49 -30 -109t-61 -76q-3 -1 -7 -1q-3 0 -3 2l33 54q34 56 34 98q0 30 -16 57t-57 27q-50 0 -102.5 -28t-101.5 -74t-89 -101.5t-64 -109.5q-51 -115 -51 -186
q0 -107 109 -107q104 0 282 134q41 31 105.5 87t151.5 136l-30 -2.5t-42 -5.5q-10 -2 -19 -3.5t-17 -1.5q-20 2 -17 10q4 37 38 37q31 -4 58.5 -6t52.5 -2q39 36 103.5 100.5t153.5 158.5q115 121 140 121q11 0 11 -20q0 -8 -2 -20t-6 -28q-10 -38 -21 -46
q-31 -22 -51.5 -56.5t-41.5 -76.5q-21 -43 -38.5 -76.5t-31.5 -59.5l97 2q36 0 36 -5q0 -1 -2 -3q-17 -11 -144 -20q-93 -181 -93 -248q0 -46 29 -46q11 0 28 14q16 13 20 13q0 2 1 1t-1 -1q-5 -18 -29.5 -32.5t-51.5 -14.5q-25 0 -33 16t-8 44q0 101 77 257l-120 -3
q-134 -131 -269 -230q-215 -156 -330 -146zM881 289q12 23 48 83.5t97 157.5l-256 -240z" />
    <glyph glyph-name="AE" unicode="&#xc6;" horiz-adv-x="1400" 
d="M153 -116q-154 13 -154 158q0 86 54 182q32 58 80.5 113t106 99.5t118 70.5t116.5 26q99 0 99 -73q0 -49 -30 -109t-61 -76q-3 -1 -7 -1q-3 0 -3 2l33 54q34 56 34 98q0 30 -16 57t-57 27q-50 0 -102.5 -28t-101.5 -74t-89 -101.5t-64 -109.5q-51 -115 -51 -186
q0 -107 109 -107q104 0 282 134q41 31 105.5 87t151.5 136l-30 -2.5t-42 -5.5q-22 -5 -36 -5q-20 0 -17 10q4 37 38 37q31 -4 58.5 -6t52.5 -2q39 36 103.5 100.5t153.5 158.5q115 121 140 121q11 0 11 -21q0 -19 -7 -42l16 8t17 8q47 20 95.5 31t98.5 11q62 0 94.5 -20
t32.5 -56q0 -25 -13.5 -46t-33.5 -33t-41 -12q-31 0 -31 15q0 9 13 9q4 0 10.5 -1.5t9.5 -1.5q21 0 37 22t16 44q0 32 -30 46t-69 14q-95 0 -186 -61q-96 -63 -96 -142q0 -29 20 -54q35 11 65.5 15.5t58.5 4.5q96 0 96 -37q0 -17 -14 -29.5t-35.5 -19t-43.5 -6.5
q-23 0 -51 6t-54 16t-44 23q-29 -8 -56.5 -21.5t-53.5 -26.5l-13 -26q-15 -31 -29.5 -68.5t-23.5 -75t-9 -68.5q0 -64 36.5 -90.5t88.5 -26.5q44 0 93 14.5t92 36.5t70 47q79 70 79 147q0 61 -59 61q-31 0 -69 -15.5t-71.5 -41.5t-55.5 -57t-22 -63t28 -39q10 -4 10 -10
q0 -8 -15 -8q-53 0 -53 59q0 39 23 74t59.5 62t79.5 42.5t83 15.5q41 0 70 -21t29 -66q0 -46 -25 -90.5t-78 -84.5q-28 -21 -70.5 -40t-91 -31t-96.5 -12t-90 15.5t-69 52.5t-30 99q-1 24 5 55t16.5 59.5t20.5 44.5q-5 0 -27 -0.5t-48 -1.5t-45 -1q-134 -131 -269 -230
q-215 -156 -330 -146zM881 289q12 23 48 83.5t97 157.5l-256 -240zM979 349q16 7 33.5 13.5t39.5 13.5q-24 26 -30 58l-6 -12q-10 -20 -19 -38.5t-18 -34.5zM1209 337q54 0 54 31q0 14 -54 14q-24 0 -49.5 -3t-51.5 -8q43 -34 101 -34z" />
    <glyph glyph-name="AEacute" unicode="&#x1fc;" horiz-adv-x="1400" 
d="M153 -116q-154 13 -154 158q0 86 54 182q32 58 80.5 113t106 99.5t118 70.5t116.5 26q99 0 99 -73q0 -49 -30 -109t-61 -76q-3 -1 -7 -1q-3 0 -3 2l33 54q34 56 34 98q0 30 -16 57t-57 27q-50 0 -102.5 -28t-101.5 -74t-89 -101.5t-64 -109.5q-51 -115 -51 -186
q0 -107 109 -107q104 0 282 134q41 31 105.5 87t151.5 136l-30 -2.5t-42 -5.5q-22 -5 -36 -5q-20 0 -17 10q4 37 38 37q31 -4 58.5 -6t52.5 -2q39 36 103.5 100.5t153.5 158.5q115 121 140 121q11 0 11 -21q0 -19 -7 -42l16 8t17 8q47 20 95.5 31t98.5 11q62 0 94.5 -20
t32.5 -56q0 -25 -13.5 -46t-33.5 -33t-41 -12q-31 0 -31 15q0 9 13 9q4 0 10.5 -1.5t9.5 -1.5q21 0 37 22t16 44q0 32 -30 46t-69 14q-95 0 -186 -61q-96 -63 -96 -142q0 -29 20 -54q35 11 65.5 15.5t58.5 4.5q96 0 96 -37q0 -17 -14 -29.5t-35.5 -19t-43.5 -6.5
q-23 0 -51 6t-54 16t-44 23q-29 -8 -56.5 -21.5t-53.5 -26.5l-13 -26q-15 -31 -29.5 -68.5t-23.5 -75t-9 -68.5q0 -64 36.5 -90.5t88.5 -26.5q44 0 93 14.5t92 36.5t70 47q79 70 79 147q0 61 -59 61q-31 0 -69 -15.5t-71.5 -41.5t-55.5 -57t-22 -63t28 -39q10 -4 10 -10
q0 -8 -15 -8q-53 0 -53 59q0 39 23 74t59.5 62t79.5 42.5t83 15.5q41 0 70 -21t29 -66q0 -46 -25 -90.5t-78 -84.5q-28 -21 -70.5 -40t-91 -31t-96.5 -12t-90 15.5t-69 52.5t-30 99q-1 24 5 55t16.5 59.5t20.5 44.5q-5 0 -27 -0.5t-48 -1.5t-45 -1q-134 -131 -269 -230
q-215 -156 -330 -146zM881 289q12 23 48 83.5t97 157.5l-256 -240zM979 349q16 7 33.5 13.5t39.5 13.5q-24 26 -30 58l-6 -12q-10 -20 -19 -38.5t-18 -34.5zM1209 337q54 0 54 31q0 14 -54 14q-24 0 -49.5 -3t-51.5 -8q43 -34 101 -34zM1216 713q-8 0 -8 6q0 5 10 9
q29 12 55 24t47 22q9 5 15 6t9 1q6 0 11 -8.5t5 -16.5q0 -7 -6.5 -11t-11.5 -6q-7 -3 -22 -8t-40 -10q-37 -8 -64 -8z" />
    <glyph glyph-name="Aacute" unicode="&#xc1;" horiz-adv-x="1020" 
d="M153 -116q-154 13 -154 158q0 86 54 182q32 58 80.5 113t106 99.5t118 70.5t116.5 26q99 0 99 -73q0 -49 -30 -109t-61 -76q-3 -1 -7 -1q-3 0 -3 2l33 54q34 56 34 98q0 30 -16 57t-57 27q-50 0 -102.5 -28t-101.5 -74t-89 -101.5t-64 -109.5q-51 -115 -51 -186
q0 -107 109 -107q104 0 282 134q41 31 105.5 87t151.5 136l-30 -2.5t-42 -5.5q-10 -2 -19 -3.5t-17 -1.5q-20 2 -17 10q4 37 38 37q31 -4 58.5 -6t52.5 -2q39 36 103.5 100.5t153.5 158.5q115 121 140 121q11 0 11 -20q0 -8 -2 -20t-6 -28q-10 -38 -21 -46
q-31 -22 -51.5 -56.5t-41.5 -76.5q-21 -43 -38.5 -76.5t-31.5 -59.5l97 2q36 0 36 -5q0 -1 -2 -3q-17 -11 -144 -20q-93 -181 -93 -248q0 -46 29 -46q11 0 28 14q16 13 20 13q0 2 1 1t-1 -1q-5 -18 -29.5 -32.5t-51.5 -14.5q-25 0 -33 16t-8 44q0 101 77 257l-120 -3
q-134 -131 -269 -230q-215 -156 -330 -146zM881 289q12 23 48 83.5t97 157.5l-256 -240zM1119 713q-8 0 -8 6q0 5 10 9q29 12 55 24t47 22q9 5 15 6t9 1q6 0 11 -8.5t5 -16.5q0 -7 -6.5 -11t-11.5 -6q-7 -3 -22 -8t-40 -10q-37 -8 -64 -8z" />
    <glyph glyph-name="Abreve" unicode="&#x102;" horiz-adv-x="1020" 
d="M153 -116q-154 13 -154 158q0 86 54 182q32 58 80.5 113t106 99.5t118 70.5t116.5 26q99 0 99 -73q0 -49 -30 -109t-61 -76q-3 -1 -7 -1q-3 0 -3 2l33 54q34 56 34 98q0 30 -16 57t-57 27q-50 0 -102.5 -28t-101.5 -74t-89 -101.5t-64 -109.5q-51 -115 -51 -186
q0 -107 109 -107q104 0 282 134q41 31 105.5 87t151.5 136l-30 -2.5t-42 -5.5q-10 -2 -19 -3.5t-17 -1.5q-20 2 -17 10q4 37 38 37q31 -4 58.5 -6t52.5 -2q39 36 103.5 100.5t153.5 158.5q115 121 140 121q11 0 11 -20q0 -8 -2 -20t-6 -28q-10 -38 -21 -46
q-31 -22 -51.5 -56.5t-41.5 -76.5q-21 -43 -38.5 -76.5t-31.5 -59.5l97 2q36 0 36 -5q0 -1 -2 -3q-17 -11 -144 -20q-93 -181 -93 -248q0 -46 29 -46q11 0 28 14q16 13 20 13q0 2 1 1t-1 -1q-5 -18 -29.5 -32.5t-51.5 -14.5q-25 0 -33 16t-8 44q0 101 77 257l-120 -3
q-134 -131 -269 -230q-215 -156 -330 -146zM881 289q12 23 48 83.5t97 157.5l-256 -240zM1145 716q-19 0 -33 10.5t-14 36.5q0 1 0.5 9t4 15.5t10.5 7.5q5 0 7 -5.5t4 -13.5q3 -12 9 -16.5t24 -4.5q17 0 32 5t37 23q5 5 16.5 13t11.5 0q0 -11 -11 -26q-16 -22 -43.5 -38
t-54.5 -16z" />
    <glyph glyph-name="uni1EAE" unicode="&#x1eae;" horiz-adv-x="1020" 
d="M153 -116q-154 13 -154 158q0 86 54 182q32 58 80.5 113t106 99.5t118 70.5t116.5 26q99 0 99 -73q0 -49 -30 -109t-61 -76q-3 -1 -7 -1q-3 0 -3 2l33 54q34 56 34 98q0 30 -16 57t-57 27q-50 0 -102.5 -28t-101.5 -74t-89 -101.5t-64 -109.5q-51 -115 -51 -186
q0 -107 109 -107q104 0 282 134q41 31 105.5 87t151.5 136l-30 -2.5t-42 -5.5q-10 -2 -19 -3.5t-17 -1.5q-20 2 -17 10q4 37 38 37q31 -4 58.5 -6t52.5 -2q39 36 103.5 100.5t153.5 158.5q115 121 140 121q11 0 11 -20q0 -8 -2 -20t-6 -28q-10 -38 -21 -46
q-31 -22 -51.5 -56.5t-41.5 -76.5q-21 -43 -38.5 -76.5t-31.5 -59.5l97 2q36 0 36 -5q0 -1 -2 -3q-17 -11 -144 -20q-93 -181 -93 -248q0 -46 29 -46q11 0 28 14q16 13 20 13q0 2 1 1t-1 -1q-5 -18 -29.5 -32.5t-51.5 -14.5q-25 0 -33 16t-8 44q0 101 77 257l-120 -3
q-134 -131 -269 -230q-215 -156 -330 -146zM881 289q12 23 48 83.5t97 157.5l-256 -240zM1145 716q-19 0 -33 10.5t-14 36.5q0 1 0.5 9t4 15.5t10.5 7.5q5 0 7 -5.5t4 -13.5q3 -12 9 -16.5t24 -4.5q17 0 32 5t37 23q5 5 16.5 13t11.5 0q0 -11 -11 -26q-16 -22 -43.5 -38
t-54.5 -16zM1153 813q-8 0 -8 6q0 5 10 9q29 12 55 24t47 22q9 5 15 6t9 1q6 0 11 -8.5t5 -16.5q0 -7 -6.5 -11t-11.5 -6q-7 -3 -22 -8t-40 -10q-37 -8 -64 -8z" />
    <glyph glyph-name="uni1EB6" unicode="&#x1eb6;" horiz-adv-x="1020" 
d="M153 -116q-154 13 -154 158q0 86 54 182q32 58 80.5 113t106 99.5t118 70.5t116.5 26q99 0 99 -73q0 -49 -30 -109t-61 -76q-3 -1 -7 -1q-3 0 -3 2l33 54q34 56 34 98q0 30 -16 57t-57 27q-50 0 -102.5 -28t-101.5 -74t-89 -101.5t-64 -109.5q-51 -115 -51 -186
q0 -107 109 -107q104 0 282 134q41 31 105.5 87t151.5 136l-30 -2.5t-42 -5.5q-10 -2 -19 -3.5t-17 -1.5q-20 2 -17 10q4 37 38 37q31 -4 58.5 -6t52.5 -2q39 36 103.5 100.5t153.5 158.5q115 121 140 121q11 0 11 -20q0 -8 -2 -20t-6 -28q-10 -38 -21 -46
q-31 -22 -51.5 -56.5t-41.5 -76.5q-21 -43 -38.5 -76.5t-31.5 -59.5l97 2q36 0 36 -5q0 -1 -2 -3q-17 -11 -144 -20q-93 -181 -93 -248q0 -46 29 -46q11 0 28 14q16 13 20 13q0 2 1 1t-1 -1q-5 -18 -29.5 -32.5t-51.5 -14.5q-25 0 -33 16t-8 44q0 101 77 257l-120 -3
q-134 -131 -269 -230q-215 -156 -330 -146zM881 289q12 23 48 83.5t97 157.5l-256 -240zM550 -139q-7 0 -14 10.5t-7 18.5q0 15 29 36q20 12 30 11t5 -9l-16 -40q-12 -27 -27 -27zM1145 716q-19 0 -33 10.5t-14 36.5q0 1 0.5 9t4 15.5t10.5 7.5q5 0 7 -5.5t4 -13.5
q3 -12 9 -16.5t24 -4.5q17 0 32 5t37 23q5 5 16.5 13t11.5 0q0 -11 -11 -26q-16 -22 -43.5 -38t-54.5 -16z" />
    <glyph glyph-name="uni1EB0" unicode="&#x1eb0;" horiz-adv-x="1020" 
d="M153 -116q-154 13 -154 158q0 86 54 182q32 58 80.5 113t106 99.5t118 70.5t116.5 26q99 0 99 -73q0 -49 -30 -109t-61 -76q-3 -1 -7 -1q-3 0 -3 2l33 54q34 56 34 98q0 30 -16 57t-57 27q-50 0 -102.5 -28t-101.5 -74t-89 -101.5t-64 -109.5q-51 -115 -51 -186
q0 -107 109 -107q104 0 282 134q41 31 105.5 87t151.5 136l-30 -2.5t-42 -5.5q-10 -2 -19 -3.5t-17 -1.5q-20 2 -17 10q4 37 38 37q31 -4 58.5 -6t52.5 -2q39 36 103.5 100.5t153.5 158.5q115 121 140 121q11 0 11 -20q0 -8 -2 -20t-6 -28q-10 -38 -21 -46
q-31 -22 -51.5 -56.5t-41.5 -76.5q-21 -43 -38.5 -76.5t-31.5 -59.5l97 2q36 0 36 -5q0 -1 -2 -3q-17 -11 -144 -20q-93 -181 -93 -248q0 -46 29 -46q11 0 28 14q16 13 20 13q0 2 1 1t-1 -1q-5 -18 -29.5 -32.5t-51.5 -14.5q-25 0 -33 16t-8 44q0 101 77 257l-120 -3
q-134 -131 -269 -230q-215 -156 -330 -146zM881 289q12 23 48 83.5t97 157.5l-256 -240zM1145 716q-19 0 -33 10.5t-14 36.5q0 1 0.5 9t4 15.5t10.5 7.5q5 0 7 -5.5t4 -13.5q3 -12 9 -16.5t24 -4.5q17 0 32 5t37 23q5 5 16.5 13t11.5 0q0 -11 -11 -26q-16 -22 -43.5 -38
t-54.5 -16zM1246 813q-27 0 -64 8q-25 5 -40 10t-22 8q-5 2 -11.5 6t-6.5 11q0 8 5 16.5t11 8.5q3 0 9 -1t15 -6q21 -10 47 -22t55 -24q10 -4 10 -9q0 -6 -8 -6z" />
    <glyph glyph-name="uni1EB2" unicode="&#x1eb2;" horiz-adv-x="1020" 
d="M153 -116q-154 13 -154 158q0 86 54 182q32 58 80.5 113t106 99.5t118 70.5t116.5 26q99 0 99 -73q0 -49 -30 -109t-61 -76q-3 -1 -7 -1q-3 0 -3 2l33 54q34 56 34 98q0 30 -16 57t-57 27q-50 0 -102.5 -28t-101.5 -74t-89 -101.5t-64 -109.5q-51 -115 -51 -186
q0 -107 109 -107q104 0 282 134q41 31 105.5 87t151.5 136l-30 -2.5t-42 -5.5q-10 -2 -19 -3.5t-17 -1.5q-20 2 -17 10q4 37 38 37q31 -4 58.5 -6t52.5 -2q39 36 103.5 100.5t153.5 158.5q115 121 140 121q11 0 11 -20q0 -8 -2 -20t-6 -28q-10 -38 -21 -46
q-31 -22 -51.5 -56.5t-41.5 -76.5q-21 -43 -38.5 -76.5t-31.5 -59.5l97 2q36 0 36 -5q0 -1 -2 -3q-17 -11 -144 -20q-93 -181 -93 -248q0 -46 29 -46q11 0 28 14q16 13 20 13q0 2 1 1t-1 -1q-5 -18 -29.5 -32.5t-51.5 -14.5q-25 0 -33 16t-8 44q0 101 77 257l-120 -3
q-134 -131 -269 -230q-215 -156 -330 -146zM881 289q12 23 48 83.5t97 157.5l-256 -240zM1145 716q-19 0 -33 10.5t-14 36.5q0 1 0.5 9t4 15.5t10.5 7.5q5 0 7 -5.5t4 -13.5q3 -12 9 -16.5t24 -4.5q17 0 32 5t37 23q5 5 16.5 13t11.5 0q0 -11 -11 -26q-16 -22 -43.5 -38
t-54.5 -16zM1170 784q-4 0 -5 3t1 4q20 14 36 25.5t16 27.5q0 15 -17 15q-10 0 -24.5 -6t-25.5 -17l-0.5 -0.5t-1.5 -0.5t-2 2t0 4q8 23 28.5 35t46.5 10q13 -1 20 -10.5t7 -20.5q0 -15 -7.5 -26t-20.5 -19q-19 -12 -31 -19t-17 -7h-3z" />
    <glyph glyph-name="uni1EB4" unicode="&#x1eb4;" horiz-adv-x="1020" 
d="M153 -116q-154 13 -154 158q0 86 54 182q32 58 80.5 113t106 99.5t118 70.5t116.5 26q99 0 99 -73q0 -49 -30 -109t-61 -76q-3 -1 -7 -1q-3 0 -3 2l33 54q34 56 34 98q0 30 -16 57t-57 27q-50 0 -102.5 -28t-101.5 -74t-89 -101.5t-64 -109.5q-51 -115 -51 -186
q0 -107 109 -107q104 0 282 134q41 31 105.5 87t151.5 136l-30 -2.5t-42 -5.5q-10 -2 -19 -3.5t-17 -1.5q-20 2 -17 10q4 37 38 37q31 -4 58.5 -6t52.5 -2q39 36 103.5 100.5t153.5 158.5q115 121 140 121q11 0 11 -20q0 -8 -2 -20t-6 -28q-10 -38 -21 -46
q-31 -22 -51.5 -56.5t-41.5 -76.5q-21 -43 -38.5 -76.5t-31.5 -59.5l97 2q36 0 36 -5q0 -1 -2 -3q-17 -11 -144 -20q-93 -181 -93 -248q0 -46 29 -46q11 0 28 14q16 13 20 13q0 2 1 1t-1 -1q-5 -18 -29.5 -32.5t-51.5 -14.5q-25 0 -33 16t-8 44q0 101 77 257l-120 -3
q-134 -131 -269 -230q-215 -156 -330 -146zM881 289q12 23 48 83.5t97 157.5l-256 -240zM1145 716q-19 0 -33 10.5t-14 36.5q0 1 0.5 9t4 15.5t10.5 7.5q5 0 7 -5.5t4 -13.5q3 -12 9 -16.5t24 -4.5q17 0 32 5t37 23q5 5 16.5 13t11.5 0q0 -11 -11 -26q-16 -22 -43.5 -38
t-54.5 -16zM1165 808q-8 0 -20 3.5t-28 10.5q-30 15 -45 15q-7 0 -15.5 -3t-16.5 -11q-14 -14 -20 -14q-1 1 -1 2q0 17 41 45q14 11 34 11q15 0 45 -12q15 -6 26 -8.5t18 -2.5q22 0 40 23q5 0 5 -4q0 -18 -37 -46q-12 -9 -26 -9z" />
    <glyph glyph-name="uni01CD" unicode="&#x1cd;" horiz-adv-x="1020" 
d="M153 -116q-154 13 -154 158q0 86 54 182q32 58 80.5 113t106 99.5t118 70.5t116.5 26q99 0 99 -73q0 -49 -30 -109t-61 -76q-3 -1 -7 -1q-3 0 -3 2l33 54q34 56 34 98q0 30 -16 57t-57 27q-50 0 -102.5 -28t-101.5 -74t-89 -101.5t-64 -109.5q-51 -115 -51 -186
q0 -107 109 -107q104 0 282 134q41 31 105.5 87t151.5 136l-30 -2.5t-42 -5.5q-10 -2 -19 -3.5t-17 -1.5q-20 2 -17 10q4 37 38 37q31 -4 58.5 -6t52.5 -2q39 36 103.5 100.5t153.5 158.5q115 121 140 121q11 0 11 -20q0 -8 -2 -20t-6 -28q-10 -38 -21 -46
q-31 -22 -51.5 -56.5t-41.5 -76.5q-21 -43 -38.5 -76.5t-31.5 -59.5l97 2q36 0 36 -5q0 -1 -2 -3q-17 -11 -144 -20q-93 -181 -93 -248q0 -46 29 -46q11 0 28 14q16 13 20 13q0 2 1 1t-1 -1q-5 -18 -29.5 -32.5t-51.5 -14.5q-25 0 -33 16t-8 44q0 101 77 257l-120 -3
q-134 -131 -269 -230q-215 -156 -330 -146zM881 289q12 23 48 83.5t97 157.5l-256 -240zM1098 804q5 0 11.5 -10t17.5 -25q5 -5 7 -11.5t5 -12.5q17 8 43 22.5t42 21.5q8 4 21.5 9.5t20.5 5.5q10 0 10 -6q0 -4 -6.5 -11t-12.5 -11q-22 -10 -50 -25t-51 -26.5t-30 -11.5
q-12 0 -20.5 12t-16.5 29q-2 7 -4 13.5t-2 13.5q0 23 15 23z" />
    <glyph glyph-name="Acircumflex" unicode="&#xc2;" horiz-adv-x="1020" 
d="M153 -116q-154 13 -154 158q0 86 54 182q32 58 80.5 113t106 99.5t118 70.5t116.5 26q99 0 99 -73q0 -49 -30 -109t-61 -76q-3 -1 -7 -1q-3 0 -3 2l33 54q34 56 34 98q0 30 -16 57t-57 27q-50 0 -102.5 -28t-101.5 -74t-89 -101.5t-64 -109.5q-51 -115 -51 -186
q0 -107 109 -107q104 0 282 134q41 31 105.5 87t151.5 136l-30 -2.5t-42 -5.5q-10 -2 -19 -3.5t-17 -1.5q-20 2 -17 10q4 37 38 37q31 -4 58.5 -6t52.5 -2q39 36 103.5 100.5t153.5 158.5q115 121 140 121q11 0 11 -20q0 -8 -2 -20t-6 -28q-10 -38 -21 -46
q-31 -22 -51.5 -56.5t-41.5 -76.5q-21 -43 -38.5 -76.5t-31.5 -59.5l97 2q36 0 36 -5q0 -1 -2 -3q-17 -11 -144 -20q-93 -181 -93 -248q0 -46 29 -46q11 0 28 14q16 13 20 13q0 2 1 1t-1 -1q-5 -18 -29.5 -32.5t-51.5 -14.5q-25 0 -33 16t-8 44q0 101 77 257l-120 -3
q-134 -131 -269 -230q-215 -156 -330 -146zM881 289q12 23 48 83.5t97 157.5l-256 -240zM1083 699q-2 0 -4 6t2 8q5 4 17 12.5t28 19.5q23 14 37.5 24.5t24.5 10.5q9 0 15 -6t13 -14l14.5 -14.5l13.5 -13.5q5 -5 10 -11t5 -12q0 -4 -4.5 -8.5t-14.5 -5.5q-7 0 -13.5 5
t-14.5 12q-8 8 -17 18t-16 18q-15 -8 -46 -25q-17 -10 -29.5 -17t-20.5 -7z" />
    <glyph glyph-name="uni1EA4" unicode="&#x1ea4;" horiz-adv-x="1020" 
d="M153 -116q-154 13 -154 158q0 86 54 182q32 58 80.5 113t106 99.5t118 70.5t116.5 26q99 0 99 -73q0 -49 -30 -109t-61 -76q-3 -1 -7 -1q-3 0 -3 2l33 54q34 56 34 98q0 30 -16 57t-57 27q-50 0 -102.5 -28t-101.5 -74t-89 -101.5t-64 -109.5q-51 -115 -51 -186
q0 -107 109 -107q104 0 282 134q41 31 105.5 87t151.5 136l-30 -2.5t-42 -5.5q-10 -2 -19 -3.5t-17 -1.5q-20 2 -17 10q4 37 38 37q31 -4 58.5 -6t52.5 -2q39 36 103.5 100.5t153.5 158.5q115 121 140 121q11 0 11 -20q0 -8 -2 -20t-6 -28q-10 -38 -21 -46
q-31 -22 -51.5 -56.5t-41.5 -76.5q-21 -43 -38.5 -76.5t-31.5 -59.5l97 2q36 0 36 -5q0 -1 -2 -3q-17 -11 -144 -20q-93 -181 -93 -248q0 -46 29 -46q11 0 28 14q16 13 20 13q0 2 1 1t-1 -1q-5 -18 -29.5 -32.5t-51.5 -14.5q-25 0 -33 16t-8 44q0 101 77 257l-120 -3
q-134 -131 -269 -230q-215 -156 -330 -146zM881 289q12 23 48 83.5t97 157.5l-256 -240zM1083 699q-2 0 -4 6t2 8q5 4 17 12.5t28 19.5q23 14 37.5 24.5t24.5 10.5q9 0 15 -6t13 -14l14.5 -14.5l13.5 -13.5q5 -5 10 -11t5 -12q0 -4 -4.5 -8.5t-14.5 -5.5q-7 0 -13.5 5
t-14.5 12q-8 8 -17 18t-16 18q-15 -8 -46 -25q-17 -10 -29.5 -17t-20.5 -7zM1125 800q-8 0 -8 6q0 5 10 9q29 12 55 24t47 22q9 5 15 6t9 1q6 0 11 -8.5t5 -16.5q0 -7 -6.5 -11t-11.5 -6q-7 -3 -22 -8t-40 -10q-37 -8 -64 -8z" />
    <glyph glyph-name="uni1EAC" unicode="&#x1eac;" horiz-adv-x="1020" 
d="M153 -116q-154 13 -154 158q0 86 54 182q32 58 80.5 113t106 99.5t118 70.5t116.5 26q99 0 99 -73q0 -49 -30 -109t-61 -76q-3 -1 -7 -1q-3 0 -3 2l33 54q34 56 34 98q0 30 -16 57t-57 27q-50 0 -102.5 -28t-101.5 -74t-89 -101.5t-64 -109.5q-51 -115 -51 -186
q0 -107 109 -107q104 0 282 134q41 31 105.5 87t151.5 136l-30 -2.5t-42 -5.5q-10 -2 -19 -3.5t-17 -1.5q-20 2 -17 10q4 37 38 37q31 -4 58.5 -6t52.5 -2q39 36 103.5 100.5t153.5 158.5q115 121 140 121q11 0 11 -20q0 -8 -2 -20t-6 -28q-10 -38 -21 -46
q-31 -22 -51.5 -56.5t-41.5 -76.5q-21 -43 -38.5 -76.5t-31.5 -59.5l97 2q36 0 36 -5q0 -1 -2 -3q-17 -11 -144 -20q-93 -181 -93 -248q0 -46 29 -46q11 0 28 14q16 13 20 13q0 2 1 1t-1 -1q-5 -18 -29.5 -32.5t-51.5 -14.5q-25 0 -33 16t-8 44q0 101 77 257l-120 -3
q-134 -131 -269 -230q-215 -156 -330 -146zM881 289q12 23 48 83.5t97 157.5l-256 -240zM550 -139q-7 0 -14 10.5t-7 18.5q0 15 29 36q20 12 30 11t5 -9l-16 -40q-12 -27 -27 -27zM1083 699q-2 0 -4 6t2 8q5 4 17 12.5t28 19.5q23 14 37.5 24.5t24.5 10.5q9 0 15 -6t13 -14
l14.5 -14.5l13.5 -13.5q5 -5 10 -11t5 -12q0 -4 -4.5 -8.5t-14.5 -5.5q-7 0 -13.5 5t-14.5 12q-8 8 -17 18t-16 18q-15 -8 -46 -25q-17 -10 -29.5 -17t-20.5 -7z" />
    <glyph glyph-name="uni1EA6" unicode="&#x1ea6;" horiz-adv-x="1020" 
d="M153 -116q-154 13 -154 158q0 86 54 182q32 58 80.5 113t106 99.5t118 70.5t116.5 26q99 0 99 -73q0 -49 -30 -109t-61 -76q-3 -1 -7 -1q-3 0 -3 2l33 54q34 56 34 98q0 30 -16 57t-57 27q-50 0 -102.5 -28t-101.5 -74t-89 -101.5t-64 -109.5q-51 -115 -51 -186
q0 -107 109 -107q104 0 282 134q41 31 105.5 87t151.5 136l-30 -2.5t-42 -5.5q-10 -2 -19 -3.5t-17 -1.5q-20 2 -17 10q4 37 38 37q31 -4 58.5 -6t52.5 -2q39 36 103.5 100.5t153.5 158.5q115 121 140 121q11 0 11 -20q0 -8 -2 -20t-6 -28q-10 -38 -21 -46
q-31 -22 -51.5 -56.5t-41.5 -76.5q-21 -43 -38.5 -76.5t-31.5 -59.5l97 2q36 0 36 -5q0 -1 -2 -3q-17 -11 -144 -20q-93 -181 -93 -248q0 -46 29 -46q11 0 28 14q16 13 20 13q0 2 1 1t-1 -1q-5 -18 -29.5 -32.5t-51.5 -14.5q-25 0 -33 16t-8 44q0 101 77 257l-120 -3
q-134 -131 -269 -230q-215 -156 -330 -146zM881 289q12 23 48 83.5t97 157.5l-256 -240zM1083 699q-2 0 -4 6t2 8q5 4 17 12.5t28 19.5q23 14 37.5 24.5t24.5 10.5q9 0 15 -6t13 -14l14.5 -14.5l13.5 -13.5q5 -5 10 -11t5 -12q0 -4 -4.5 -8.5t-14.5 -5.5q-7 0 -13.5 5
t-14.5 12q-8 8 -17 18t-16 18q-15 -8 -46 -25q-17 -10 -29.5 -17t-20.5 -7zM1273 808q-27 0 -64 8q-25 5 -40 10t-22 8q-5 2 -11.5 6t-6.5 11q0 8 5 16.5t11 8.5q3 0 9 -1t15 -6q21 -10 47 -22t55 -24q10 -4 10 -9q0 -6 -8 -6z" />
    <glyph glyph-name="uni1EA8" unicode="&#x1ea8;" horiz-adv-x="1020" 
d="M153 -116q-154 13 -154 158q0 86 54 182q32 58 80.5 113t106 99.5t118 70.5t116.5 26q99 0 99 -73q0 -49 -30 -109t-61 -76q-3 -1 -7 -1q-3 0 -3 2l33 54q34 56 34 98q0 30 -16 57t-57 27q-50 0 -102.5 -28t-101.5 -74t-89 -101.5t-64 -109.5q-51 -115 -51 -186
q0 -107 109 -107q104 0 282 134q41 31 105.5 87t151.5 136l-30 -2.5t-42 -5.5q-10 -2 -19 -3.5t-17 -1.5q-20 2 -17 10q4 37 38 37q31 -4 58.5 -6t52.5 -2q39 36 103.5 100.5t153.5 158.5q115 121 140 121q11 0 11 -20q0 -8 -2 -20t-6 -28q-10 -38 -21 -46
q-31 -22 -51.5 -56.5t-41.5 -76.5q-21 -43 -38.5 -76.5t-31.5 -59.5l97 2q36 0 36 -5q0 -1 -2 -3q-17 -11 -144 -20q-93 -181 -93 -248q0 -46 29 -46q11 0 28 14q16 13 20 13q0 2 1 1t-1 -1q-5 -18 -29.5 -32.5t-51.5 -14.5q-25 0 -33 16t-8 44q0 101 77 257l-120 -3
q-134 -131 -269 -230q-215 -156 -330 -146zM881 289q12 23 48 83.5t97 157.5l-256 -240zM1083 699q-2 0 -4 6t2 8q5 4 17 12.5t28 19.5q23 14 37.5 24.5t24.5 10.5q9 0 15 -6t13 -14l14.5 -14.5l13.5 -13.5q5 -5 10 -11t5 -12q0 -4 -4.5 -8.5t-14.5 -5.5q-7 0 -13.5 5
t-14.5 12q-8 8 -17 18t-16 18q-15 -8 -46 -25q-17 -10 -29.5 -17t-20.5 -7zM1310 770q-4 0 -5 3t1 4q20 14 36 25.5t16 27.5q0 15 -17 15q-10 0 -24.5 -6t-25.5 -17l-0.5 -0.5t-1.5 -0.5t-2 2t0 4q8 23 28.5 35t46.5 10q13 -1 20 -10.5t7 -20.5q0 -15 -7.5 -26t-20.5 -19
q-19 -12 -31 -19t-17 -7h-3z" />
    <glyph glyph-name="uni1EAA" unicode="&#x1eaa;" horiz-adv-x="1020" 
d="M153 -116q-154 13 -154 158q0 86 54 182q32 58 80.5 113t106 99.5t118 70.5t116.5 26q99 0 99 -73q0 -49 -30 -109t-61 -76q-3 -1 -7 -1q-3 0 -3 2l33 54q34 56 34 98q0 30 -16 57t-57 27q-50 0 -102.5 -28t-101.5 -74t-89 -101.5t-64 -109.5q-51 -115 -51 -186
q0 -107 109 -107q104 0 282 134q41 31 105.5 87t151.5 136l-30 -2.5t-42 -5.5q-10 -2 -19 -3.5t-17 -1.5q-20 2 -17 10q4 37 38 37q31 -4 58.5 -6t52.5 -2q39 36 103.5 100.5t153.5 158.5q115 121 140 121q11 0 11 -20q0 -8 -2 -20t-6 -28q-10 -38 -21 -46
q-31 -22 -51.5 -56.5t-41.5 -76.5q-21 -43 -38.5 -76.5t-31.5 -59.5l97 2q36 0 36 -5q0 -1 -2 -3q-17 -11 -144 -20q-93 -181 -93 -248q0 -46 29 -46q11 0 28 14q16 13 20 13q0 2 1 1t-1 -1q-5 -18 -29.5 -32.5t-51.5 -14.5q-25 0 -33 16t-8 44q0 101 77 257l-120 -3
q-134 -131 -269 -230q-215 -156 -330 -146zM881 289q12 23 48 83.5t97 157.5l-256 -240zM1083 699q-2 0 -4 6t2 8q5 4 17 12.5t28 19.5q23 14 37.5 24.5t24.5 10.5q9 0 15 -6t13 -14l14.5 -14.5l13.5 -13.5q5 -5 10 -11t5 -12q0 -4 -4.5 -8.5t-14.5 -5.5q-7 0 -13.5 5
t-14.5 12q-8 8 -17 18t-16 18q-15 -8 -46 -25q-17 -10 -29.5 -17t-20.5 -7zM1248 802q-8 0 -20 3.5t-28 10.5q-30 15 -45 15q-7 0 -15.5 -3t-16.5 -11q-14 -14 -20 -14q-1 1 -1 2q0 17 41 45q14 11 34 11q15 0 45 -12q15 -6 26 -8.5t18 -2.5q22 0 40 23q5 0 5 -4
q0 -18 -37 -46q-12 -9 -26 -9z" />
    <glyph glyph-name="uni0200" unicode="&#x200;" horiz-adv-x="1020" 
d="M153 -116q-154 13 -154 158q0 86 54 182q32 58 80.5 113t106 99.5t118 70.5t116.5 26q99 0 99 -73q0 -49 -30 -109t-61 -76q-3 -1 -7 -1q-3 0 -3 2l33 54q34 56 34 98q0 30 -16 57t-57 27q-50 0 -102.5 -28t-101.5 -74t-89 -101.5t-64 -109.5q-51 -115 -51 -186
q0 -107 109 -107q104 0 282 134q41 31 105.5 87t151.5 136l-30 -2.5t-42 -5.5q-10 -2 -19 -3.5t-17 -1.5q-20 2 -17 10q4 37 38 37q31 -4 58.5 -6t52.5 -2q39 36 103.5 100.5t153.5 158.5q115 121 140 121q11 0 11 -20q0 -8 -2 -20t-6 -28q-10 -38 -21 -46
q-31 -22 -51.5 -56.5t-41.5 -76.5q-21 -43 -38.5 -76.5t-31.5 -59.5l97 2q36 0 36 -5q0 -1 -2 -3q-17 -11 -144 -20q-93 -181 -93 -248q0 -46 29 -46q11 0 28 14q16 13 20 13q0 2 1 1t-1 -1q-5 -18 -29.5 -32.5t-51.5 -14.5q-25 0 -33 16t-8 44q0 101 77 257l-120 -3
q-134 -131 -269 -230q-215 -156 -330 -146zM881 289q12 23 48 83.5t97 157.5l-256 -240zM1245 708q-6 2 -19.5 10t-38.5 25q-20 15 -31.5 26t-16.5 18q-3 4 -6.5 9.5t-2.5 10.5q1 7 10 13.5t13 5.5q6 -1 15 -12l82 -94q3 -2 3 -7q-2 -8 -8 -5zM1145 708l-21 7t-42 18
q-22 11 -36 20t-19 14l-8.5 8.5t-4.5 10.5q0 7 8 14.5t12 7.5q7 0 17 -9l97 -78q4 -3 4 -7q0 -8 -7 -6z" />
    <glyph glyph-name="Adieresis" unicode="&#xc4;" horiz-adv-x="1020" 
d="M1095 737q-7 0 -14 10.5t-7 18.5q0 15 29 36q30 21 46 21q1 0 1.5 -0.5t1.5 -0.5q-1 0 -14 -18l-16 -40q-12 -27 -27 -27zM1216 737q-7 0 -14 10.5t-7 18.5q0 15 29 36q30 21 46 21q1 0 1.5 -0.5t1.5 -0.5q-1 0 -14 -18l-16 -40q-12 -27 -27 -27zM153 -116
q-154 13 -154 158q0 86 54 182q72 128 198 220q124 89 223 89t99 -73q0 -49 -30 -109t-61 -76q-3 -1 -7 -1q-3 0 -3 2l33 54q34 53 34 98q0 30 -16 57t-57 27q-78 0 -182 -83q-113 -91 -175 -230q-51 -115 -51 -186q0 -107 109 -107q104 0 282 134q41 31 105.5 87t151.5 136
l-30 -2.5t-42 -5.5q-10 -2 -19 -3.5t-17 -1.5q-20 2 -17 10q4 37 38 37q31 -4 58.5 -6t52.5 -2q39 36 103.5 100.5t153.5 158.5q115 121 140 121q11 0 11 -20q0 -8 -2 -20t-6 -28q-10 -38 -21 -46q-23 -16 -49 -51q-14 -20 -44 -82q-21 -43 -38.5 -76.5t-31.5 -59.5l97 2
q36 0 36 -5q0 -1 -2 -3q-17 -11 -144 -20q-93 -181 -93 -248q0 -46 29 -46q11 0 28 14q16 13 20 13q3 0 3 -5q-5 -18 -31 -30t-53 -12q-4 0 -8.5 0.5t-8.5 1.5q-24 9 -24 58q0 101 77 257q-10 0 -26.5 -0.5t-39.5 -1.5t-36.5 -1h-17.5q-134 -131 -269 -230
q-215 -156 -330 -146zM881 289q12 23 48 83.5t97 157.5l-256 -240h59q16 -1 29 -1h23z" />
    <glyph glyph-name="uni1EA0" unicode="&#x1ea0;" horiz-adv-x="1020" 
d="M153 -116q-154 13 -154 158q0 86 54 182q32 58 80.5 113t106 99.5t118 70.5t116.5 26q99 0 99 -73q0 -49 -30 -109t-61 -76q-3 -1 -7 -1q-3 0 -3 2l33 54q34 56 34 98q0 30 -16 57t-57 27q-50 0 -102.5 -28t-101.5 -74t-89 -101.5t-64 -109.5q-51 -115 -51 -186
q0 -107 109 -107q104 0 282 134q41 31 105.5 87t151.5 136l-30 -2.5t-42 -5.5q-10 -2 -19 -3.5t-17 -1.5q-20 2 -17 10q4 37 38 37q31 -4 58.5 -6t52.5 -2q39 36 103.5 100.5t153.5 158.5q115 121 140 121q11 0 11 -20q0 -8 -2 -20t-6 -28q-10 -38 -21 -46
q-31 -22 -51.5 -56.5t-41.5 -76.5q-21 -43 -38.5 -76.5t-31.5 -59.5l97 2q36 0 36 -5q0 -1 -2 -3q-17 -11 -144 -20q-93 -181 -93 -248q0 -46 29 -46q11 0 28 14q16 13 20 13q0 2 1 1t-1 -1q-5 -18 -29.5 -32.5t-51.5 -14.5q-25 0 -33 16t-8 44q0 101 77 257l-120 -3
q-134 -131 -269 -230q-215 -156 -330 -146zM881 289q12 23 48 83.5t97 157.5l-256 -240zM550 -139q-7 0 -14 10.5t-7 18.5q0 15 29 36q20 12 30 11t5 -9l-16 -40q-12 -27 -27 -27z" />
    <glyph glyph-name="Agrave" unicode="&#xc0;" horiz-adv-x="1020" 
d="M153 -116q-154 13 -154 158q0 86 54 182q32 58 80.5 113t106 99.5t118 70.5t116.5 26q99 0 99 -73q0 -49 -30 -109t-61 -76q-3 -1 -7 -1q-3 0 -3 2l33 54q34 56 34 98q0 30 -16 57t-57 27q-50 0 -102.5 -28t-101.5 -74t-89 -101.5t-64 -109.5q-51 -115 -51 -186
q0 -107 109 -107q104 0 282 134q41 31 105.5 87t151.5 136l-30 -2.5t-42 -5.5q-10 -2 -19 -3.5t-17 -1.5q-20 2 -17 10q4 37 38 37q31 -4 58.5 -6t52.5 -2q39 36 103.5 100.5t153.5 158.5q115 121 140 121q11 0 11 -20q0 -8 -2 -20t-6 -28q-10 -38 -21 -46
q-31 -22 -51.5 -56.5t-41.5 -76.5q-21 -43 -38.5 -76.5t-31.5 -59.5l97 2q36 0 36 -5q0 -1 -2 -3q-17 -11 -144 -20q-93 -181 -93 -248q0 -46 29 -46q11 0 28 14q16 13 20 13q0 2 1 1t-1 -1q-5 -18 -29.5 -32.5t-51.5 -14.5q-25 0 -33 16t-8 44q0 101 77 257l-120 -3
q-134 -131 -269 -230q-215 -156 -330 -146zM881 289q12 23 48 83.5t97 157.5l-256 -240zM1212 713q-27 0 -64 8q-25 5 -40 10t-22 8q-5 2 -11.5 6t-6.5 11q0 8 5 16.5t11 8.5q3 0 9 -1t15 -6q21 -10 47 -22t55 -24q10 -4 10 -9q0 -6 -8 -6z" />
    <glyph glyph-name="uni1EA2" unicode="&#x1ea2;" horiz-adv-x="1020" 
d="M153 -116q-154 13 -154 158q0 86 54 182q32 58 80.5 113t106 99.5t118 70.5t116.5 26q99 0 99 -73q0 -49 -30 -109t-61 -76q-3 -1 -7 -1q-3 0 -3 2l33 54q34 56 34 98q0 30 -16 57t-57 27q-50 0 -102.5 -28t-101.5 -74t-89 -101.5t-64 -109.5q-51 -115 -51 -186
q0 -107 109 -107q104 0 282 134q41 31 105.5 87t151.5 136l-30 -2.5t-42 -5.5q-10 -2 -19 -3.5t-17 -1.5q-20 2 -17 10q4 37 38 37q31 -4 58.5 -6t52.5 -2q39 36 103.5 100.5t153.5 158.5q115 121 140 121q11 0 11 -20q0 -8 -2 -20t-6 -28q-10 -38 -21 -46
q-31 -22 -51.5 -56.5t-41.5 -76.5q-21 -43 -38.5 -76.5t-31.5 -59.5l97 2q36 0 36 -5q0 -1 -2 -3q-17 -11 -144 -20q-93 -181 -93 -248q0 -46 29 -46q11 0 28 14q16 13 20 13q0 2 1 1t-1 -1q-5 -18 -29.5 -32.5t-51.5 -14.5q-25 0 -33 16t-8 44q0 101 77 257l-120 -3
q-134 -131 -269 -230q-215 -156 -330 -146zM881 289q12 23 48 83.5t97 157.5l-256 -240zM1136 711q-4 0 -5 3t1 4q20 14 36 25.5t16 27.5q0 15 -17 15q-10 0 -24.5 -6t-25.5 -17l-0.5 -0.5t-1.5 -0.5t-2 2t0 4q8 23 28.5 35t46.5 10q13 -1 20 -10.5t7 -20.5q0 -15 -7.5 -26
t-20.5 -19q-19 -12 -31 -19t-17 -7h-3z" />
    <glyph glyph-name="uni0202" unicode="&#x202;" horiz-adv-x="1020" 
d="M153 -116q-154 13 -154 158q0 86 54 182q32 58 80.5 113t106 99.5t118 70.5t116.5 26q99 0 99 -73q0 -49 -30 -109t-61 -76q-3 -1 -7 -1q-3 0 -3 2l33 54q34 56 34 98q0 30 -16 57t-57 27q-50 0 -102.5 -28t-101.5 -74t-89 -101.5t-64 -109.5q-51 -115 -51 -186
q0 -107 109 -107q104 0 282 134q41 31 105.5 87t151.5 136l-30 -2.5t-42 -5.5q-10 -2 -19 -3.5t-17 -1.5q-20 2 -17 10q4 37 38 37q31 -4 58.5 -6t52.5 -2q39 36 103.5 100.5t153.5 158.5q115 121 140 121q11 0 11 -20q0 -8 -2 -20t-6 -28q-10 -38 -21 -46
q-31 -22 -51.5 -56.5t-41.5 -76.5q-21 -43 -38.5 -76.5t-31.5 -59.5l97 2q36 0 36 -5q0 -1 -2 -3q-17 -11 -144 -20q-93 -181 -93 -248q0 -46 29 -46q11 0 28 14q16 13 20 13q0 2 1 1t-1 -1q-5 -18 -29.5 -32.5t-51.5 -14.5q-25 0 -33 16t-8 44q0 101 77 257l-120 -3
q-134 -131 -269 -230q-215 -156 -330 -146zM881 289q12 23 48 83.5t97 157.5l-256 -240zM1221 828q29 0 42.5 -16.5t11.5 -44.5q-1 -12 -5 -24.5t-14 -12.5q-7 0 -9 6.5t-2 12.5q-3 40 -42 40q-26 0 -53 -11t-51 -31q-21 -17 -27 -17q-5 0 -5 4q0 2 6 9.5t22 23.5
q24 24 57.5 42.5t68.5 18.5z" />
    <glyph glyph-name="Amacron" unicode="&#x100;" horiz-adv-x="1020" 
d="M153 -116q-154 13 -154 158q0 86 54 182q32 58 80.5 113t106 99.5t118 70.5t116.5 26q99 0 99 -73q0 -49 -30 -109t-61 -76q-3 -1 -7 -1q-3 0 -3 2l33 54q34 56 34 98q0 30 -16 57t-57 27q-50 0 -102.5 -28t-101.5 -74t-89 -101.5t-64 -109.5q-51 -115 -51 -186
q0 -107 109 -107q104 0 282 134q41 31 105.5 87t151.5 136l-30 -2.5t-42 -5.5q-10 -2 -19 -3.5t-17 -1.5q-20 2 -17 10q4 37 38 37q31 -4 58.5 -6t52.5 -2q39 36 103.5 100.5t153.5 158.5q115 121 140 121q11 0 11 -20q0 -8 -2 -20t-6 -28q-10 -38 -21 -46
q-31 -22 -51.5 -56.5t-41.5 -76.5q-21 -43 -38.5 -76.5t-31.5 -59.5l97 2q36 0 36 -5q0 -1 -2 -3q-17 -11 -144 -20q-93 -181 -93 -248q0 -46 29 -46q11 0 28 14q16 13 20 13q0 2 1 1t-1 -1q-5 -18 -29.5 -32.5t-51.5 -14.5q-25 0 -33 16t-8 44q0 101 77 257l-120 -3
q-134 -131 -269 -230q-215 -156 -330 -146zM881 289q12 23 48 83.5t97 157.5l-256 -240zM1070 718q-5 0 -12.5 11.5t-8.5 17.5l2 1q10 5 34.5 6t62.5 1q82 0 106 -12q3 -1 3 -3t-1.5 -6t-4.5 -4q-31 0 -91 -6t-90 -6z" />
    <glyph glyph-name="Aogonek" unicode="&#x104;" horiz-adv-x="1020" 
d="M153 -116q-154 13 -154 158q0 86 54 182q32 58 80.5 113t106 99.5t118 70.5t116.5 26q99 0 99 -73q0 -49 -30 -109t-61 -76q-3 -1 -7 -1q-3 0 -3 2l33 54q34 56 34 98q0 30 -16 57t-57 27q-50 0 -102.5 -28t-101.5 -74t-89 -101.5t-64 -109.5q-51 -115 -51 -186
q0 -107 109 -107q104 0 282 134q41 31 105.5 87t151.5 136l-30 -2.5t-42 -5.5q-10 -2 -19 -3.5t-17 -1.5q-20 2 -17 10q4 37 38 37q31 -4 58.5 -6t52.5 -2q39 36 103.5 100.5t153.5 158.5q115 121 140 121q11 0 11 -20q0 -8 -2 -20t-6 -28q-10 -38 -21 -46
q-31 -22 -51.5 -56.5t-41.5 -76.5q-21 -43 -38.5 -76.5t-31.5 -59.5l97 2q36 0 36 -5q0 -1 -2 -3q-17 -11 -144 -20q-93 -181 -93 -248q0 -46 29 -46q11 0 28 14q16 13 20 13q0 2 1 1t-1 -1q-5 -18 -29.5 -32.5t-51.5 -14.5q-25 0 -33 16t-8 44q0 101 77 257l-120 -3
q-134 -131 -269 -230q-215 -156 -330 -146zM881 289q12 23 48 83.5t97 157.5l-256 -240zM932 -155q0 -29 -48 -45q-20 -7 -35 -9t-25 -2q-55 0 -55 42q0 27 19 69q22 48 44 49l3 -3q-34 -47 -34 -88t45 -41q23 0 49.5 11t36.5 17z" />
    <glyph glyph-name="Aring" unicode="&#xc5;" horiz-adv-x="1020" 
d="M153 -116q-154 13 -154 158q0 86 54 182q72 128 198 220q124 89 223 89t99 -73q0 -49 -30 -109t-61 -76q-3 -1 -7 -1q-3 0 -3 2l33 54q34 53 34 98q0 30 -16 57t-57 27q-78 0 -182 -83q-113 -91 -175 -230q-51 -115 -51 -186q0 -107 109 -107q104 0 282 134
q41 31 105.5 87t151.5 136l-30 -2.5t-42 -5.5q-10 -2 -19 -3.5t-17 -1.5q-20 2 -17 10q4 37 38 37q31 -4 58.5 -6t52.5 -2q39 36 103.5 100.5t153.5 158.5q87 92 123 114q-16 9 -16 33q0 23 10 44q12 27 29 32q17 32 51 32q19 0 31 -15.5t12 -36.5q0 -36 -28 -65
q-29 -29 -62 -29q1 -3 1 -8q0 -8 -2 -20t-6 -28q-10 -38 -21 -46q-23 -16 -49 -51q-14 -20 -44 -82q-21 -43 -38.5 -76.5t-31.5 -59.5l97 2q36 0 36 -5q0 -1 -2 -3q-17 -11 -144 -20q-93 -181 -93 -248q0 -46 29 -46q11 0 28 14q16 13 20 13q3 0 3 -5q-5 -18 -31 -30
t-53 -12q-4 0 -8.5 0.5t-8.5 1.5q-24 9 -24 58q0 101 77 257q-10 0 -26.5 -0.5t-39.5 -1.5t-36.5 -1h-17.5q-134 -131 -269 -230q-215 -156 -330 -146zM1146 676q24 0 40.5 24t16.5 49q0 36 -22 36q-12 0 -29 -13l11 -6q-1 -4 -6.5 -11.5t-13.5 -20.5q-12 -18 -12 -38
t15 -20zM881 289q12 23 48 83.5t97 157.5l-256 -240h59q16 -1 29 -1h23z" />
    <glyph glyph-name="Aringacute" unicode="&#x1fa;" horiz-adv-x="1020" 
d="M153 -116q-154 13 -154 158q0 86 54 182q32 58 80.5 113t106 99.5t118 70.5t116.5 26q99 0 99 -73q0 -49 -30 -109t-61 -76q-3 -1 -7 -1q-3 0 -3 2l33 54q34 56 34 98q0 30 -16 57t-57 27q-50 0 -102.5 -28t-101.5 -74t-89 -101.5t-64 -109.5q-51 -115 -51 -186
q0 -107 109 -107q104 0 282 134q41 31 105.5 87t151.5 136l-30 -2.5t-42 -5.5q-10 -2 -19 -3.5t-17 -1.5q-20 2 -17 10q4 37 38 37q31 -4 58.5 -6t52.5 -2q39 36 103.5 100.5t153.5 158.5q115 121 140 121q11 0 11 -20q0 -8 -2 -20t-6 -28q-10 -38 -21 -46
q-31 -22 -51.5 -56.5t-41.5 -76.5q-21 -43 -38.5 -76.5t-31.5 -59.5l97 2q36 0 36 -5q0 -1 -2 -3q-17 -11 -144 -20q-93 -181 -93 -248q0 -46 29 -46q11 0 28 14q16 13 20 13q0 2 1 1t-1 -1q-5 -18 -29.5 -32.5t-51.5 -14.5q-25 0 -33 16t-8 44q0 101 77 257l-120 -3
q-134 -131 -269 -230q-215 -156 -330 -146zM881 289q12 23 48 83.5t97 157.5l-256 -240zM1143 709q-41 0 -41 38q0 23 10 44q12 27 29 32q17 32 51 32q19 0 31 -15.5t12 -36.5q0 -36 -28 -65q-29 -29 -64 -29zM1154 728q24 0 40.5 24t16.5 49q0 36 -22 36q-12 0 -29 -13
l11 -6q-1 -4 -6.5 -11.5t-13.5 -20.5q-12 -18 -12 -38t15 -20zM1154 894q-8 0 -8 6q0 5 10 9q29 12 55 24t47 22q9 5 15 6t9 1q6 0 11 -8.5t5 -16.5q0 -7 -6.5 -11t-11.5 -6q-7 -3 -22 -8t-40 -10q-37 -8 -64 -8z" />
    <glyph glyph-name="Atilde" unicode="&#xc3;" horiz-adv-x="1020" 
d="M153 -116q-154 13 -154 158q0 86 54 182q32 58 80.5 113t106 99.5t118 70.5t116.5 26q99 0 99 -73q0 -49 -30 -109t-61 -76q-3 -1 -7 -1q-3 0 -3 2l33 54q34 56 34 98q0 30 -16 57t-57 27q-50 0 -102.5 -28t-101.5 -74t-89 -101.5t-64 -109.5q-51 -115 -51 -186
q0 -107 109 -107q104 0 282 134q41 31 105.5 87t151.5 136l-30 -2.5t-42 -5.5q-10 -2 -19 -3.5t-17 -1.5q-20 2 -17 10q4 37 38 37q31 -4 58.5 -6t52.5 -2q39 36 103.5 100.5t153.5 158.5q115 121 140 121q11 0 11 -20q0 -8 -2 -20t-6 -28q-10 -38 -21 -46
q-31 -22 -51.5 -56.5t-41.5 -76.5q-21 -43 -38.5 -76.5t-31.5 -59.5l97 2q36 0 36 -5q0 -1 -2 -3q-17 -11 -144 -20q-93 -181 -93 -248q0 -46 29 -46q11 0 28 14q16 13 20 13q0 2 1 1t-1 -1q-5 -18 -29.5 -32.5t-51.5 -14.5q-25 0 -33 16t-8 44q0 101 77 257l-120 -3
q-134 -131 -269 -230q-215 -156 -330 -146zM881 289q12 23 48 83.5t97 157.5l-256 -240zM1210 716q-8 0 -20 3.5t-28 10.5q-30 15 -45 15q-7 0 -15.5 -3t-16.5 -11q-14 -14 -20 -14q-1 1 -1 2q0 17 41 45q14 11 34 11q15 0 45 -12q15 -6 26 -8.5t18 -2.5q22 0 40 23
q5 0 5 -4q0 -18 -37 -46q-12 -9 -26 -9z" />
    <glyph glyph-name="B" unicode="B" horiz-adv-x="819" 
d="M424 -47q-158 0 -215 108q-103 -86 -147 -86q-21 0 -32.5 20t-11.5 45q0 60 46 140q20 35 44 64t54 29q29 0 44 -48l30 -96q16 17 35.5 41.5t43.5 57.5l89 120q164 213 215 233q18 7 36 7q20 0 32.5 -8.5t12.5 -19.5q0 -18 -29 -21q-30 -17 -117 -101
q-40 -39 -64.5 -64.5t-33.5 -38.5q-112 -156 -207 -240q61 -121 183 -121q46 0 93.5 19.5t88 51.5t65.5 71.5t25 78.5q0 41 -29 74t-71 47l-15 2t-46 6q-47 6 -47 19q0 9 11.5 16t23.5 7q9 0 21 -4t21.5 -7.5l9.5 -3.5q8 -1 18 -1.5t20 -0.5q66 0 120 21q52 21 76 58t24 86
q0 50 -31.5 79t-83 41.5t-111.5 12.5q-117 0 -222.5 -34t-182.5 -113q-59 -61 -59 -102q0 -29 15 -49q4 -5 9 -10t12 -10q5 -3 -6 -3q-62 14 -62 83t70 130q54 47 123.5 76t147 42t153.5 13q54 0 104 -8t90 -26.5t63.5 -48.5t23.5 -74q0 -62 -33 -99t-89 -57
q-66 -23 -142 -24q42 -2 73.5 -22t49 -52t17.5 -70q0 -51 -30.5 -94.5t-81.5 -75t-112 -49t-122 -17.5zM75 -2q32 0 123 91l-3 4q-40 133 -64 133q-1 0 -5 -2q-74 -107 -74 -172q0 -14 5.5 -34t17.5 -20z" />
    <glyph glyph-name="C" unicode="C" horiz-adv-x="726" 
d="M263 -65q-111 0 -171.5 59t-60.5 153q0 86 42.5 168t107.5 151q53 56 121.5 97t144 64t147.5 23q57 0 103 -15.5t73 -48.5t27 -86q0 -47 -22.5 -87.5t-60 -70.5t-82.5 -47t-91 -17q-60 0 -101 27.5t-41 69.5q0 54 69 106q12 9 19 9q5 0 5 -4q0 -10 -16 -16
q-56 -45 -56 -91q0 -33 30 -55.5t75 -22.5q40 0 80.5 17t74.5 46t54.5 65.5t20.5 76.5q0 65 -44 95t-112 30q-77 0 -152.5 -29t-141.5 -80t-118 -117q-104 -131 -104 -246q0 -61 28 -103.5t77.5 -64.5t113.5 -22q95 0 184 41.5t152 111.5q17 18 25 18q6 0 6 -9
q0 -12 -11 -23q-34 -36 -81 -67t-100.5 -55t-108.5 -37.5t-105 -13.5z" />
    <glyph glyph-name="Cacute" unicode="&#x106;" horiz-adv-x="726" 
d="M263 -65q-111 0 -171.5 59t-60.5 153q0 86 42.5 168t107.5 151q53 56 121.5 97t144 64t147.5 23q57 0 103 -15.5t73 -48.5t27 -86q0 -47 -22.5 -87.5t-60 -70.5t-82.5 -47t-91 -17q-60 0 -101 27.5t-41 69.5q0 54 69 106q12 9 19 9q5 0 5 -4q0 -10 -16 -16
q-56 -45 -56 -91q0 -33 30 -55.5t75 -22.5q40 0 80.5 17t74.5 46t54.5 65.5t20.5 76.5q0 65 -44 95t-112 30q-77 0 -152.5 -29t-141.5 -80t-118 -117q-104 -131 -104 -246q0 -61 28 -103.5t77.5 -64.5t113.5 -22q95 0 184 41.5t152 111.5q17 18 25 18q6 0 6 -9
q0 -12 -11 -23q-34 -36 -81 -67t-100.5 -55t-108.5 -37.5t-105 -13.5zM586 694q-7 -2 -7 6q0 4 4 7l97 78q11 9 17 9q5 0 12.5 -6.5t7.5 -13.5t-4 -11.5t-9 -8.5q-6 -4 -20 -12.5t-40 -21.5q-23 -11 -37.5 -17.5t-20.5 -8.5z" />
    <glyph glyph-name="Ccaron" unicode="&#x10c;" horiz-adv-x="726" 
d="M263 -65q-111 0 -171.5 59t-60.5 153q0 86 42.5 168t107.5 151q53 56 121.5 97t144 64t147.5 23q57 0 103 -15.5t73 -48.5t27 -86q0 -47 -22.5 -87.5t-60 -70.5t-82.5 -47t-91 -17q-60 0 -101 27.5t-41 69.5q0 54 69 106q12 9 19 9q5 0 5 -4q0 -10 -16 -16
q-56 -45 -56 -91q0 -33 30 -55.5t75 -22.5q40 0 80.5 17t74.5 46t54.5 65.5t20.5 76.5q0 65 -44 95t-112 30q-77 0 -152.5 -29t-141.5 -80t-118 -117q-104 -131 -104 -246q0 -61 28 -103.5t77.5 -64.5t113.5 -22q95 0 184 41.5t152 111.5q17 18 25 18q6 0 6 -9
q0 -12 -11 -23q-34 -36 -81 -67t-100.5 -55t-108.5 -37.5t-105 -13.5zM558 785q5 0 11.5 -10t17.5 -25q5 -5 7 -11.5t5 -12.5q17 8 43 22.5t42 21.5q8 4 21.5 9.5t20.5 5.5q10 0 10 -6q0 -4 -6.5 -11t-12.5 -11q-22 -10 -50 -25t-51 -26.5t-30 -11.5q-12 0 -20.5 12
t-16.5 29q-2 7 -4 13.5t-2 13.5q0 23 15 23z" />
    <glyph glyph-name="Ccedilla" unicode="&#xc7;" horiz-adv-x="726" 
d="M263 -65q-111 0 -171.5 59t-60.5 153q0 86 42.5 168t107.5 151q53 56 121.5 97t144 64t147.5 23q57 0 103 -15.5t73 -48.5t27 -86q0 -47 -22.5 -87.5t-60 -70.5t-82.5 -47t-91 -17q-60 0 -101 27.5t-41 69.5q0 54 69 106q12 9 19 9q5 0 5 -4q0 -10 -16 -16
q-56 -45 -56 -91q0 -33 30 -55.5t75 -22.5q40 0 80.5 17t74.5 46t54.5 65.5t20.5 76.5q0 65 -44 95t-112 30q-77 0 -152.5 -29t-141.5 -80t-118 -117q-104 -131 -104 -246q0 -61 28 -103.5t77.5 -64.5t113.5 -22q95 0 184 41.5t152 111.5q17 18 25 18q6 0 6 -9
q0 -12 -11 -23q-34 -36 -81 -67t-100.5 -55t-108.5 -37.5t-105 -13.5zM256 -59q-7 -8 -10.5 -14.5t-3.5 -17.5q0 -9 30 -44q30 -34 30 -58q0 -42 -55 -68q-45 -20 -98 -20q-10 0 -10 9q0 6 10 7q18 3 36.5 5.5t37.5 4.5q36 9 36 52q0 7 -7 18t-20 27q-27 33 -27 51
q0 20 11.5 38t30.5 18q7 0 8 -3t1 -5z" />
    <glyph glyph-name="Ccircumflex" unicode="&#x108;" horiz-adv-x="726" 
d="M263 -65q-111 0 -171.5 59t-60.5 153q0 86 42.5 168t107.5 151q53 56 121.5 97t144 64t147.5 23q57 0 103 -15.5t73 -48.5t27 -86q0 -47 -22.5 -87.5t-60 -70.5t-82.5 -47t-91 -17q-60 0 -101 27.5t-41 69.5q0 54 69 106q12 9 19 9q5 0 5 -4q0 -10 -16 -16
q-56 -45 -56 -91q0 -33 30 -55.5t75 -22.5q40 0 80.5 17t74.5 46t54.5 65.5t20.5 76.5q0 65 -44 95t-112 30q-77 0 -152.5 -29t-141.5 -80t-118 -117q-104 -131 -104 -246q0 -61 28 -103.5t77.5 -64.5t113.5 -22q95 0 184 41.5t152 111.5q17 18 25 18q6 0 6 -9
q0 -12 -11 -23q-34 -36 -81 -67t-100.5 -55t-108.5 -37.5t-105 -13.5zM543 680q-2 0 -4 6t2 8q5 4 17 12.5t28 19.5q23 14 37.5 24.5t24.5 10.5q9 0 15 -6t13 -14l14.5 -14.5l13.5 -13.5q5 -5 10 -11t5 -12q0 -4 -4.5 -8.5t-14.5 -5.5q-7 0 -13.5 5t-14.5 12q-8 8 -17 18
t-16 18q-15 -8 -46 -25q-17 -10 -29.5 -17t-20.5 -7z" />
    <glyph glyph-name="Cdotaccent" unicode="&#x10a;" horiz-adv-x="726" 
d="M263 -65q-111 0 -171.5 59t-60.5 153q0 86 42.5 168t107.5 151q53 56 121.5 97t144 64t147.5 23q57 0 103 -15.5t73 -48.5t27 -86q0 -47 -22.5 -87.5t-60 -70.5t-82.5 -47t-91 -17q-60 0 -101 27.5t-41 69.5q0 54 69 106q12 9 19 9q5 0 5 -4q0 -10 -16 -16
q-56 -45 -56 -91q0 -33 30 -55.5t75 -22.5q40 0 80.5 17t74.5 46t54.5 65.5t20.5 76.5q0 65 -44 95t-112 30q-77 0 -152.5 -29t-141.5 -80t-118 -117q-104 -131 -104 -246q0 -61 28 -103.5t77.5 -64.5t113.5 -22q95 0 184 41.5t152 111.5q17 18 25 18q6 0 6 -9
q0 -12 -11 -23q-34 -36 -81 -67t-100.5 -55t-108.5 -37.5t-105 -13.5zM601 692q-7 0 -14 10.5t-7 18.5q0 15 30 36t46 21q2 0 3 -1q-1 0 -14 -18l-17 -40q-12 -27 -27 -27z" />
    <glyph glyph-name="D" unicode="D" horiz-adv-x="921" 
d="M427 -58q-167 -8 -240 83q-88 -68 -129 -68q-22 0 -32.5 21.5t-10.5 46.5q0 48 37 138q44 102 81 102q19 0 29 -60q17 -90 31 -124q33 35 82.5 95t114.5 145q162 213 215 233q18 7 36 7q20 0 32.5 -8.5t12.5 -19.5q0 -17 -29 -20q-21 -11 -51.5 -38t-64 -61.5t-62.5 -68
t-47 -57.5q-107 -149 -214 -238l-6 -5q32 -47 77 -65t100 -18q91 0 173.5 27.5t149 82t109.5 133.5q47 86 47 164q0 53 -23 100.5t-61.5 81.5t-85.5 44q-55 12 -115 12q-154 0 -284 -71q-137 -75 -137 -168q0 -25 15 -43q12 -14 17 -16h-6q-28 5 -48 28t-20 51
q0 52 32.5 95.5t94.5 79.5q124 71 293 71q38 0 76 -4t75 -12q65 -14 118 -53t85 -95t32 -121q0 -75 -44 -155q-44 -81 -113.5 -135.5t-156.5 -83t-185 -33.5zM63 -25q43 19 104 79q-29 48 -38 81q-6 22 -9 67q-69 -99 -69 -173q0 -31 12 -54z" />
    <glyph glyph-name="Dcaron" unicode="&#x10e;" horiz-adv-x="921" 
d="M427 -58q-167 -8 -240 83q-88 -68 -129 -68q-22 0 -32.5 21.5t-10.5 46.5q0 48 37 138q44 102 81 102q19 0 29 -60q17 -90 31 -124q33 35 82.5 95t114.5 145q162 213 215 233q18 7 36 7q20 0 32.5 -8.5t12.5 -19.5q0 -17 -29 -20q-21 -11 -51.5 -38t-64 -61.5t-62.5 -68
t-47 -57.5q-107 -149 -214 -238l-6 -5q32 -47 77 -65t100 -18q91 0 173.5 27.5t149 82t109.5 133.5q47 86 47 164q0 53 -23 100.5t-61.5 81.5t-85.5 44q-55 12 -115 12q-154 0 -284 -71q-137 -75 -137 -168q0 -25 15 -43q12 -14 17 -16h-6q-28 5 -48 28t-20 51
q0 52 32.5 95.5t94.5 79.5q124 71 293 71q38 0 76 -4t75 -12q65 -14 118 -53t85 -95t32 -121q0 -75 -44 -155q-44 -81 -113.5 -135.5t-156.5 -83t-185 -33.5zM63 -25q43 19 104 79q-29 48 -38 81q-6 22 -9 67q-69 -99 -69 -173q0 -31 12 -54zM625 753q5 0 11.5 -10t17.5 -25
q5 -5 7 -11.5t5 -12.5q17 8 43 22.5t42 21.5q8 4 21.5 9.5t20.5 5.5q10 0 10 -6q0 -4 -6.5 -11t-12.5 -11q-22 -10 -50 -25t-51 -26.5t-30 -11.5q-12 0 -20.5 12t-16.5 29q-2 7 -4 13.5t-2 13.5q0 23 15 23z" />
    <glyph glyph-name="Dcroat" unicode="&#x110;" horiz-adv-x="921" 
d="M427 -58q-167 -8 -240 83q-88 -68 -129 -68q-22 0 -34 24q-9 20 -9 44q0 48 37 138q44 102 81 102q19 0 29 -60q17 -90 31 -124q23 24 54.5 61.5t70.5 86.5q-12 0 -27 3q-32 6 -32 21q0 11 9 17.5t16 6.5h3.5t6.5 1h26q8 0 17.5 0.5t19.5 -0.5l33 43q162 213 215 233
q18 7 36 7q20 0 32.5 -8.5t12.5 -19.5q0 -17 -29 -20q-35 -19 -108 -92q-37 -37 -66.5 -70.5t-50.5 -62.5l-8 -11q67 0 101 3q8 -17 -78 -32l-50 -7q-44 -58 -89.5 -106t-89.5 -85l-6 -5q56 -83 176 -83q10 0 19.5 0.5t19.5 1.5q278 26 394 241q47 86 47 164q0 90 -61 157
q-49 55 -109 69q-55 12 -115 12q-154 0 -284 -71t-137 -159q-3 -31 15 -52q12 -14 17 -16h-6q-26 5 -46 26q-23 27 -22 57q5 101 127 171q124 71 293 71q38 0 76 -4t75 -12q91 -20 158 -88q77 -80 77 -181q0 -75 -44 -155q-76 -138 -227 -202q-105 -44 -228 -50zM63 -25
q43 19 104 79q-29 48 -38 81q-6 22 -9 67q-69 -99 -69 -173q0 -31 12 -54z" />
    <glyph glyph-name="uni0394" unicode="&#x2206;" horiz-adv-x="452" 
d="M25 -2q18 33 41.5 73.5t49 83t49.5 81.5l137 223q2 4 8.5 16t15 26t16 24t11.5 10t4 -7q3 -53 10 -122t16.5 -143t21 -143t23.5 -122l-28.5 0.5t-77 1t-108.5 0.5h-93t-96 -2zM230 30q57 0 102 1.5t52 1.5q-1 13 -5 50t-10 87t-12 103.5t-12 99t-10 74t-6 28.5
q-3 0 -5 -5q-29 -47 -63 -102.5t-68.5 -112.5t-65.5 -110.5t-54 -98.5q-1 -2 -2 -4.5t-1 -4.5q0 -3 18.5 -4.5t45.5 -2t53.5 -0.5h42.5z" />
    <glyph glyph-name="uni01C5" unicode="&#x1c5;" horiz-adv-x="1307" 
d="M427 -58q-167 -8 -240 83q-88 -68 -129 -68q-22 0 -32.5 21.5t-10.5 46.5q0 48 37 138q44 102 81 102q19 0 29 -60q17 -90 31 -124q33 35 82.5 95t114.5 145q162 213 215 233q18 7 36 7q20 0 32.5 -8.5t12.5 -19.5q0 -17 -29 -20q-21 -11 -51.5 -38t-64 -61.5t-62.5 -68
t-47 -57.5q-107 -149 -214 -238l-6 -5q32 -47 77 -65t100 -18q91 0 173.5 27.5t149 82t109.5 133.5q47 86 47 164q0 53 -23 100.5t-61.5 81.5t-85.5 44q-55 12 -115 12q-154 0 -284 -71q-137 -75 -137 -168q0 -25 15 -43q12 -14 17 -16h-6q-28 5 -48 28t-20 51
q0 52 32.5 95.5t94.5 79.5q124 71 293 71q38 0 76 -4t75 -12q65 -14 118 -53t85 -95t32 -121q0 -75 -44 -155q-44 -81 -113.5 -135.5t-156.5 -83t-185 -33.5zM63 -25q43 19 104 79q-29 48 -38 81q-6 22 -9 67q-69 -99 -69 -173q0 -31 12 -54zM1152 -22q-29 0 -57.5 6
t-51.5 19q-7 4 -20.5 13t-34.5 25q-16 -11 -30 -19.5t-27 -8.5q-23 0 -23 25q0 8 5.5 21.5t12.5 13.5q5 0 5 -7q0 -5 -1 -8q0 -1 -0.5 -2.5t-0.5 -2.5q0 -10 10 -10q13 0 29 12l-38 29q-2 2 -2 5q0 7 10 16.5t18 9.5q3 0 46 -34q40 45 83 89q32 34 56.5 58t42.5 37
q-79 24 -117 24q-24 0 -39 -10.5t-15 -26.5q0 -13 14 -24q8 -6 8 -10q0 -6 -5 -6q-10 0 -27 20q-16 20 -16 41t15.5 32t38.5 15t45 4q32 0 70 -12t75 -24q14 8 30 8q42 0 42 -25q0 -10 -12.5 -18.5t-30.5 -8.5q-19 0 -34 7q-94 -58 -204 -186l36 -28q23 -17 50.5 -22.5
t54.5 -5.5q44 0 75 16t31 48q0 13 -4 22q-2 6 -2 7q0 7 10 7q5 0 7 -5q8 -18 8 -34q0 -40 -37.5 -66t-98.5 -26zM1146 455q5 0 11.5 -10t17.5 -25q5 -5 7 -11.5t5 -12.5q17 8 43 22.5t42 21.5q8 4 21.5 9.5t20.5 5.5q10 0 10 -6q0 -4 -6.5 -11t-12.5 -11q-22 -10 -50 -25
t-51 -26.5t-30 -11.5q-12 0 -20.5 12t-16.5 29q-2 7 -4 13.5t-2 13.5q0 23 15 23z" />
    <glyph glyph-name="E" unicode="E" horiz-adv-x="691" 
d="M256 -80q-67 0 -124.5 17t-93 52t-35.5 88q0 41 26 82q92 146 314 217q-33 38 -33 86q0 39 21 67q41 56 124 93q47 20 95.5 31t98.5 11q62 0 94.5 -20t32.5 -56q0 -25 -13.5 -45.5t-33.5 -33t-41 -12.5q-31 0 -31 15q0 9 13 9q4 0 10.5 -1.5t9.5 -1.5q21 0 37 22t16 44
q0 32 -30.5 46t-68.5 14q-95 0 -186 -61q-96 -63 -96 -142q0 -29 20 -54q35 11 65.5 15.5t58.5 4.5q96 0 96 -37q0 -17 -14 -29.5t-35.5 -19t-43.5 -6.5q-23 0 -51 6t-54 16t-44 23q-94 -27 -166.5 -83.5t-107.5 -126.5q-19 -38 -19 -74q0 -44 25 -72t66.5 -41t91.5 -13
q83 0 165 26.5t140 78.5q79 70 79 147q0 61 -59 61q-31 0 -69 -15.5t-71.5 -41.5t-55.5 -57t-22 -63t28 -39q10 -4 10 -10q0 -8 -15 -8q-53 0 -53 59q0 39 23 74t59.5 62t79.5 42.5t83 15.5q47 0 73 -20.5t26 -66.5q0 -93 -103 -175q-65 -53 -144 -76.5t-168 -23.5zM500 337
q54 0 54 31q0 14 -54 14q-24 0 -49.5 -3t-51.5 -8q43 -34 101 -34z" />
    <glyph glyph-name="Eacute" unicode="&#xc9;" horiz-adv-x="691" 
d="M256 -80q-67 0 -124.5 17t-93 52t-35.5 88q0 41 26 82q92 146 314 217q-33 38 -33 86q0 39 21 67q41 56 124 93q47 20 95.5 31t98.5 11q62 0 94.5 -20t32.5 -56q0 -25 -13.5 -45.5t-33.5 -33t-41 -12.5q-31 0 -31 15q0 9 13 9q4 0 10.5 -1.5t9.5 -1.5q21 0 37 22t16 44
q0 32 -30.5 46t-68.5 14q-95 0 -186 -61q-96 -63 -96 -142q0 -29 20 -54q35 11 65.5 15.5t58.5 4.5q96 0 96 -37q0 -17 -14 -29.5t-35.5 -19t-43.5 -6.5q-23 0 -51 6t-54 16t-44 23q-94 -27 -166.5 -83.5t-107.5 -126.5q-19 -38 -19 -74q0 -44 25 -72t66.5 -41t91.5 -13
q83 0 165 26.5t140 78.5q79 70 79 147q0 61 -59 61q-31 0 -69 -15.5t-71.5 -41.5t-55.5 -57t-22 -63t28 -39q10 -4 10 -10q0 -8 -15 -8q-53 0 -53 59q0 39 23 74t59.5 62t79.5 42.5t83 15.5q47 0 73 -20.5t26 -66.5q0 -93 -103 -175q-65 -53 -144 -76.5t-168 -23.5zM500 337
q54 0 54 31q0 14 -54 14q-24 0 -49.5 -3t-51.5 -8q43 -34 101 -34zM609 714q-8 0 -8 6q0 5 10 9q29 12 55 24t47 22q9 5 15 6t9 1q6 0 11 -8.5t5 -16.5q0 -7 -6.5 -11t-11.5 -6q-7 -3 -22 -8t-40 -10q-37 -8 -64 -8z" />
    <glyph glyph-name="Ebreve" unicode="&#x114;" horiz-adv-x="691" 
d="M256 -80q-67 0 -124.5 17t-93 52t-35.5 88q0 41 26 82q92 146 314 217q-33 38 -33 86q0 39 21 67q41 56 124 93q47 20 95.5 31t98.5 11q62 0 94.5 -20t32.5 -56q0 -25 -13.5 -45.5t-33.5 -33t-41 -12.5q-31 0 -31 15q0 9 13 9q4 0 10.5 -1.5t9.5 -1.5q21 0 37 22t16 44
q0 32 -30.5 46t-68.5 14q-95 0 -186 -61q-96 -63 -96 -142q0 -29 20 -54q35 11 65.5 15.5t58.5 4.5q96 0 96 -37q0 -17 -14 -29.5t-35.5 -19t-43.5 -6.5q-23 0 -51 6t-54 16t-44 23q-94 -27 -166.5 -83.5t-107.5 -126.5q-19 -38 -19 -74q0 -44 25 -72t66.5 -41t91.5 -13
q83 0 165 26.5t140 78.5q79 70 79 147q0 61 -59 61q-31 0 -69 -15.5t-71.5 -41.5t-55.5 -57t-22 -63t28 -39q10 -4 10 -10q0 -8 -15 -8q-53 0 -53 59q0 39 23 74t59.5 62t79.5 42.5t83 15.5q47 0 73 -20.5t26 -66.5q0 -93 -103 -175q-65 -53 -144 -76.5t-168 -23.5zM500 337
q54 0 54 31q0 14 -54 14q-24 0 -49.5 -3t-51.5 -8q43 -34 101 -34zM635 717q-19 0 -33 10.5t-14 36.5q0 1 0.5 9t4 15.5t10.5 7.5q5 0 7 -5.5t4 -13.5q3 -12 9 -16.5t24 -4.5q17 0 32 5t37 23q5 5 16.5 13t11.5 0q0 -11 -11 -26q-16 -22 -43.5 -38t-54.5 -16z" />
    <glyph glyph-name="Ecaron" unicode="&#x11a;" horiz-adv-x="691" 
d="M256 -80q-67 0 -124.5 17t-93 52t-35.5 88q0 41 26 82q92 146 314 217q-33 38 -33 86q0 39 21 67q41 56 124 93q47 20 95.5 31t98.5 11q62 0 94.5 -20t32.5 -56q0 -25 -13.5 -45.5t-33.5 -33t-41 -12.5q-31 0 -31 15q0 9 13 9q4 0 10.5 -1.5t9.5 -1.5q21 0 37 22t16 44
q0 32 -30.5 46t-68.5 14q-95 0 -186 -61q-96 -63 -96 -142q0 -29 20 -54q35 11 65.5 15.5t58.5 4.5q96 0 96 -37q0 -17 -14 -29.5t-35.5 -19t-43.5 -6.5q-23 0 -51 6t-54 16t-44 23q-94 -27 -166.5 -83.5t-107.5 -126.5q-19 -38 -19 -74q0 -44 25 -72t66.5 -41t91.5 -13
q83 0 165 26.5t140 78.5q79 70 79 147q0 61 -59 61q-31 0 -69 -15.5t-71.5 -41.5t-55.5 -57t-22 -63t28 -39q10 -4 10 -10q0 -8 -15 -8q-53 0 -53 59q0 39 23 74t59.5 62t79.5 42.5t83 15.5q47 0 73 -20.5t26 -66.5q0 -93 -103 -175q-65 -53 -144 -76.5t-168 -23.5zM500 337
q54 0 54 31q0 14 -54 14q-24 0 -49.5 -3t-51.5 -8q43 -34 101 -34zM588 805q5 0 11.5 -10t17.5 -25q5 -5 7 -11.5t5 -12.5q17 8 43 22.5t42 21.5q8 4 21.5 9.5t20.5 5.5q10 0 10 -6q0 -4 -6.5 -11t-12.5 -11q-22 -10 -50 -25t-51 -26.5t-30 -11.5q-12 0 -20.5 12t-16.5 29
q-2 7 -4 13.5t-2 13.5q0 23 15 23z" />
    <glyph glyph-name="Ecircumflex" unicode="&#xca;" horiz-adv-x="691" 
d="M256 -80q-67 0 -124.5 17t-93 52t-35.5 88q0 41 26 82q92 146 314 217q-33 38 -33 86q0 39 21 67q41 56 124 93q47 20 95.5 31t98.5 11q62 0 94.5 -20t32.5 -56q0 -25 -13.5 -45.5t-33.5 -33t-41 -12.5q-31 0 -31 15q0 9 13 9q4 0 10.5 -1.5t9.5 -1.5q21 0 37 22t16 44
q0 32 -30.5 46t-68.5 14q-95 0 -186 -61q-96 -63 -96 -142q0 -29 20 -54q35 11 65.5 15.5t58.5 4.5q96 0 96 -37q0 -17 -14 -29.5t-35.5 -19t-43.5 -6.5q-23 0 -51 6t-54 16t-44 23q-94 -27 -166.5 -83.5t-107.5 -126.5q-19 -38 -19 -74q0 -44 25 -72t66.5 -41t91.5 -13
q83 0 165 26.5t140 78.5q79 70 79 147q0 61 -59 61q-31 0 -69 -15.5t-71.5 -41.5t-55.5 -57t-22 -63t28 -39q10 -4 10 -10q0 -8 -15 -8q-53 0 -53 59q0 39 23 74t59.5 62t79.5 42.5t83 15.5q47 0 73 -20.5t26 -66.5q0 -93 -103 -175q-65 -53 -144 -76.5t-168 -23.5zM500 337
q54 0 54 31q0 14 -54 14q-24 0 -49.5 -3t-51.5 -8q43 -34 101 -34zM573 700q-2 0 -4 6t2 8q5 4 17 12.5t28 19.5q23 14 37.5 24.5t24.5 10.5q9 0 15 -6t13 -14l14.5 -14.5l13.5 -13.5q5 -5 10 -11t5 -12q0 -4 -4.5 -8.5t-14.5 -5.5q-7 0 -13.5 5t-14.5 12q-8 8 -17 18
t-16 18q-15 -8 -46 -25q-17 -10 -29.5 -17t-20.5 -7z" />
    <glyph glyph-name="uni1EBE" unicode="&#x1ebe;" horiz-adv-x="691" 
d="M256 -80q-67 0 -124.5 17t-93 52t-35.5 88q0 41 26 82q92 146 314 217q-33 38 -33 86q0 39 21 67q41 56 124 93q47 20 95.5 31t98.5 11q62 0 94.5 -20t32.5 -56q0 -25 -13.5 -45.5t-33.5 -33t-41 -12.5q-31 0 -31 15q0 9 13 9q4 0 10.5 -1.5t9.5 -1.5q21 0 37 22t16 44
q0 32 -30.5 46t-68.5 14q-95 0 -186 -61q-96 -63 -96 -142q0 -29 20 -54q35 11 65.5 15.5t58.5 4.5q96 0 96 -37q0 -17 -14 -29.5t-35.5 -19t-43.5 -6.5q-23 0 -51 6t-54 16t-44 23q-94 -27 -166.5 -83.5t-107.5 -126.5q-19 -38 -19 -74q0 -44 25 -72t66.5 -41t91.5 -13
q83 0 165 26.5t140 78.5q79 70 79 147q0 61 -59 61q-31 0 -69 -15.5t-71.5 -41.5t-55.5 -57t-22 -63t28 -39q10 -4 10 -10q0 -8 -15 -8q-53 0 -53 59q0 39 23 74t59.5 62t79.5 42.5t83 15.5q47 0 73 -20.5t26 -66.5q0 -93 -103 -175q-65 -53 -144 -76.5t-168 -23.5zM500 337
q54 0 54 31q0 14 -54 14q-24 0 -49.5 -3t-51.5 -8q43 -34 101 -34zM573 700q-2 0 -4 6t2 8q5 4 17 12.5t28 19.5q23 14 37.5 24.5t24.5 10.5q9 0 15 -6t13 -14l14.5 -14.5l13.5 -13.5q5 -5 10 -11t5 -12q0 -4 -4.5 -8.5t-14.5 -5.5q-7 0 -13.5 5t-14.5 12q-8 8 -17 18
t-16 18q-15 -8 -46 -25q-17 -10 -29.5 -17t-20.5 -7zM615 801q-8 0 -8 6q0 5 10 9q29 12 55 24t47 22q9 5 15 6t9 1q6 0 11 -8.5t5 -16.5q0 -7 -6.5 -11t-11.5 -6q-7 -3 -22 -8t-40 -10q-37 -8 -64 -8z" />
    <glyph glyph-name="uni1EC6" unicode="&#x1ec6;" horiz-adv-x="691" 
d="M256 -80q-67 0 -124.5 17t-93 52t-35.5 88q0 41 26 82q92 146 314 217q-33 38 -33 86q0 39 21 67q41 56 124 93q47 20 95.5 31t98.5 11q62 0 94.5 -20t32.5 -56q0 -25 -13.5 -45.5t-33.5 -33t-41 -12.5q-31 0 -31 15q0 9 13 9q4 0 10.5 -1.5t9.5 -1.5q21 0 37 22t16 44
q0 32 -30.5 46t-68.5 14q-95 0 -186 -61q-96 -63 -96 -142q0 -29 20 -54q35 11 65.5 15.5t58.5 4.5q96 0 96 -37q0 -17 -14 -29.5t-35.5 -19t-43.5 -6.5q-23 0 -51 6t-54 16t-44 23q-94 -27 -166.5 -83.5t-107.5 -126.5q-19 -38 -19 -74q0 -44 25 -72t66.5 -41t91.5 -13
q83 0 165 26.5t140 78.5q79 70 79 147q0 61 -59 61q-31 0 -69 -15.5t-71.5 -41.5t-55.5 -57t-22 -63t28 -39q10 -4 10 -10q0 -8 -15 -8q-53 0 -53 59q0 39 23 74t59.5 62t79.5 42.5t83 15.5q47 0 73 -20.5t26 -66.5q0 -93 -103 -175q-65 -53 -144 -76.5t-168 -23.5zM500 337
q54 0 54 31q0 14 -54 14q-24 0 -49.5 -3t-51.5 -8q43 -34 101 -34zM172 -199q-7 0 -14 10.5t-7 18.5q0 15 29 36q20 12 30 11t5 -9l-16 -40q-12 -27 -27 -27zM573 700q-2 0 -4 6t2 8q5 4 17 12.5t28 19.5q23 14 37.5 24.5t24.5 10.5q9 0 15 -6t13 -14l14.5 -14.5l13.5 -13.5
q5 -5 10 -11t5 -12q0 -4 -4.5 -8.5t-14.5 -5.5q-7 0 -13.5 5t-14.5 12q-8 8 -17 18t-16 18q-15 -8 -46 -25q-17 -10 -29.5 -17t-20.5 -7z" />
    <glyph glyph-name="uni1EC0" unicode="&#x1ec0;" horiz-adv-x="691" 
d="M256 -80q-67 0 -124.5 17t-93 52t-35.5 88q0 41 26 82q92 146 314 217q-33 38 -33 86q0 39 21 67q41 56 124 93q47 20 95.5 31t98.5 11q62 0 94.5 -20t32.5 -56q0 -25 -13.5 -45.5t-33.5 -33t-41 -12.5q-31 0 -31 15q0 9 13 9q4 0 10.5 -1.5t9.5 -1.5q21 0 37 22t16 44
q0 32 -30.5 46t-68.5 14q-95 0 -186 -61q-96 -63 -96 -142q0 -29 20 -54q35 11 65.5 15.5t58.5 4.5q96 0 96 -37q0 -17 -14 -29.5t-35.5 -19t-43.5 -6.5q-23 0 -51 6t-54 16t-44 23q-94 -27 -166.5 -83.5t-107.5 -126.5q-19 -38 -19 -74q0 -44 25 -72t66.5 -41t91.5 -13
q83 0 165 26.5t140 78.5q79 70 79 147q0 61 -59 61q-31 0 -69 -15.5t-71.5 -41.5t-55.5 -57t-22 -63t28 -39q10 -4 10 -10q0 -8 -15 -8q-53 0 -53 59q0 39 23 74t59.5 62t79.5 42.5t83 15.5q47 0 73 -20.5t26 -66.5q0 -93 -103 -175q-65 -53 -144 -76.5t-168 -23.5zM500 337
q54 0 54 31q0 14 -54 14q-24 0 -49.5 -3t-51.5 -8q43 -34 101 -34zM573 700q-2 0 -4 6t2 8q5 4 17 12.5t28 19.5q23 14 37.5 24.5t24.5 10.5q9 0 15 -6t13 -14l14.5 -14.5l13.5 -13.5q5 -5 10 -11t5 -12q0 -4 -4.5 -8.5t-14.5 -5.5q-7 0 -13.5 5t-14.5 12q-8 8 -17 18
t-16 18q-15 -8 -46 -25q-17 -10 -29.5 -17t-20.5 -7zM763 809q-27 0 -64 8q-25 5 -40 10t-22 8q-5 2 -11.5 6t-6.5 11q0 8 5 16.5t11 8.5q3 0 9 -1t15 -6q21 -10 47 -22t55 -24q10 -4 10 -9q0 -6 -8 -6z" />
    <glyph glyph-name="uni1EC2" unicode="&#x1ec2;" horiz-adv-x="691" 
d="M256 -80q-67 0 -124.5 17t-93 52t-35.5 88q0 41 26 82q92 146 314 217q-33 38 -33 86q0 39 21 67q41 56 124 93q47 20 95.5 31t98.5 11q62 0 94.5 -20t32.5 -56q0 -25 -13.5 -45.5t-33.5 -33t-41 -12.5q-31 0 -31 15q0 9 13 9q4 0 10.5 -1.5t9.5 -1.5q21 0 37 22t16 44
q0 32 -30.5 46t-68.5 14q-95 0 -186 -61q-96 -63 -96 -142q0 -29 20 -54q35 11 65.5 15.5t58.5 4.5q96 0 96 -37q0 -17 -14 -29.5t-35.5 -19t-43.5 -6.5q-23 0 -51 6t-54 16t-44 23q-94 -27 -166.5 -83.5t-107.5 -126.5q-19 -38 -19 -74q0 -44 25 -72t66.5 -41t91.5 -13
q83 0 165 26.5t140 78.5q79 70 79 147q0 61 -59 61q-31 0 -69 -15.5t-71.5 -41.5t-55.5 -57t-22 -63t28 -39q10 -4 10 -10q0 -8 -15 -8q-53 0 -53 59q0 39 23 74t59.5 62t79.5 42.5t83 15.5q47 0 73 -20.5t26 -66.5q0 -93 -103 -175q-65 -53 -144 -76.5t-168 -23.5zM500 337
q54 0 54 31q0 14 -54 14q-24 0 -49.5 -3t-51.5 -8q43 -34 101 -34zM573 700q-2 0 -4 6t2 8q5 4 17 12.5t28 19.5q23 14 37.5 24.5t24.5 10.5q9 0 15 -6t13 -14l14.5 -14.5l13.5 -13.5q5 -5 10 -11t5 -12q0 -4 -4.5 -8.5t-14.5 -5.5q-7 0 -13.5 5t-14.5 12q-8 8 -17 18
t-16 18q-15 -8 -46 -25q-17 -10 -29.5 -17t-20.5 -7zM800 771q-4 0 -5 3t1 4q20 14 36 25.5t16 27.5q0 15 -17 15q-10 0 -24.5 -6t-25.5 -17l-0.5 -0.5t-1.5 -0.5t-2 2t0 4q8 23 28.5 35t46.5 10q13 -1 20 -10.5t7 -20.5q0 -15 -7.5 -26t-20.5 -19q-19 -12 -31 -19t-17 -7
h-3z" />
    <glyph glyph-name="uni1EC4" unicode="&#x1ec4;" horiz-adv-x="691" 
d="M256 -80q-67 0 -124.5 17t-93 52t-35.5 88q0 41 26 82q92 146 314 217q-33 38 -33 86q0 39 21 67q41 56 124 93q47 20 95.5 31t98.5 11q62 0 94.5 -20t32.5 -56q0 -25 -13.5 -45.5t-33.5 -33t-41 -12.5q-31 0 -31 15q0 9 13 9q4 0 10.5 -1.5t9.5 -1.5q21 0 37 22t16 44
q0 32 -30.5 46t-68.5 14q-95 0 -186 -61q-96 -63 -96 -142q0 -29 20 -54q35 11 65.5 15.5t58.5 4.5q96 0 96 -37q0 -17 -14 -29.5t-35.5 -19t-43.5 -6.5q-23 0 -51 6t-54 16t-44 23q-94 -27 -166.5 -83.5t-107.5 -126.5q-19 -38 -19 -74q0 -44 25 -72t66.5 -41t91.5 -13
q83 0 165 26.5t140 78.5q79 70 79 147q0 61 -59 61q-31 0 -69 -15.5t-71.5 -41.5t-55.5 -57t-22 -63t28 -39q10 -4 10 -10q0 -8 -15 -8q-53 0 -53 59q0 39 23 74t59.5 62t79.5 42.5t83 15.5q47 0 73 -20.5t26 -66.5q0 -93 -103 -175q-65 -53 -144 -76.5t-168 -23.5zM500 337
q54 0 54 31q0 14 -54 14q-24 0 -49.5 -3t-51.5 -8q43 -34 101 -34zM573 700q-2 0 -4 6t2 8q5 4 17 12.5t28 19.5q23 14 37.5 24.5t24.5 10.5q9 0 15 -6t13 -14l14.5 -14.5l13.5 -13.5q5 -5 10 -11t5 -12q0 -4 -4.5 -8.5t-14.5 -5.5q-7 0 -13.5 5t-14.5 12q-8 8 -17 18
t-16 18q-15 -8 -46 -25q-17 -10 -29.5 -17t-20.5 -7zM738 803q-8 0 -20 3.5t-28 10.5q-30 15 -45 15q-7 0 -15.5 -3t-16.5 -11q-14 -14 -20 -14q-1 1 -1 2q0 17 41 45q14 11 34 11q15 0 45 -12q15 -6 26 -8.5t18 -2.5q22 0 40 23q5 0 5 -4q0 -18 -37 -46q-12 -9 -26 -9z" />
    <glyph glyph-name="uni0204" unicode="&#x204;" horiz-adv-x="691" 
d="M256 -80q-67 0 -124.5 17t-93 52t-35.5 88q0 41 26 82q92 146 314 217q-33 38 -33 86q0 39 21 67q41 56 124 93q47 20 95.5 31t98.5 11q62 0 94.5 -20t32.5 -56q0 -25 -13.5 -45.5t-33.5 -33t-41 -12.5q-31 0 -31 15q0 9 13 9q4 0 10.5 -1.5t9.5 -1.5q21 0 37 22t16 44
q0 32 -30.5 46t-68.5 14q-95 0 -186 -61q-96 -63 -96 -142q0 -29 20 -54q35 11 65.5 15.5t58.5 4.5q96 0 96 -37q0 -17 -14 -29.5t-35.5 -19t-43.5 -6.5q-23 0 -51 6t-54 16t-44 23q-94 -27 -166.5 -83.5t-107.5 -126.5q-19 -38 -19 -74q0 -44 25 -72t66.5 -41t91.5 -13
q83 0 165 26.5t140 78.5q79 70 79 147q0 61 -59 61q-31 0 -69 -15.5t-71.5 -41.5t-55.5 -57t-22 -63t28 -39q10 -4 10 -10q0 -8 -15 -8q-53 0 -53 59q0 39 23 74t59.5 62t79.5 42.5t83 15.5q47 0 73 -20.5t26 -66.5q0 -93 -103 -175q-65 -53 -144 -76.5t-168 -23.5zM500 337
q54 0 54 31q0 14 -54 14q-24 0 -49.5 -3t-51.5 -8q43 -34 101 -34zM735 709q-6 2 -19.5 10t-38.5 25q-20 15 -31.5 26t-16.5 18q-3 4 -6.5 9.5t-2.5 10.5q1 7 10 13.5t13 5.5q6 -1 15 -12l82 -94q3 -2 3 -7q-2 -8 -8 -5zM635 709l-21 7t-42 18q-22 11 -36 20t-19 14
l-8.5 8.5t-4.5 10.5q0 7 8 14.5t12 7.5q7 0 17 -9l97 -78q4 -3 4 -7q0 -8 -7 -6z" />
    <glyph glyph-name="Edieresis" unicode="&#xcb;" horiz-adv-x="691" 
d="M641 708q-7 0 -14 10.5t-7 18.5q0 15 29 36q30 21 46 21q1 0 1.5 -0.5t1.5 -0.5q-1 0 -14 -18l-16 -40q-12 -27 -27 -27zM762 708q-7 0 -14 10.5t-7 18.5q0 15 29 36q30 21 46 21q1 0 1.5 -0.5t1.5 -0.5q-1 0 -14 -18l-16 -40q-12 -27 -27 -27zM293 -79q-144 -7 -222 42
q-68 44 -68 114q0 41 26 82q92 146 314 217q-33 38 -33 86q0 39 21 67q41 56 124 93q81 35 166 41q79 5 118 -16.5t37 -63.5q-2 -35 -29 -60q-28 -26 -59 -26t-31 15q0 9 13 9q4 0 10.5 -1.5t9.5 -1.5q21 0 37 22t16 44q0 34 -39 50q-31 12 -78 9q-85 -4 -168 -60
q-96 -63 -96 -142q0 -29 20 -54q37 11 70 16t62 4q88 -1 88 -37q0 -7 -6 -18q-24 -37 -87 -37q-41 0 -86 15q-40 14 -63 30q-94 -27 -166.5 -83.5t-107.5 -126.5q-19 -38 -19 -74q0 -56 44 -89q49 -37 139 -37q25 0 52 3q159 17 253 102q79 70 79 147q0 61 -59 61
q-71 0 -163 -76q-23 -19 -39 -48t-16 -53q0 -32 28 -39q10 -4 10 -10q0 -10 -20 -8q-48 2 -48 59q0 66 63 120q86 74 182 74q72 0 91 -45q8 -21 8 -42q0 -93 -103 -175q-112 -91 -275 -99zM500 337q54 0 54 31q0 14 -54 14q-24 0 -49.5 -3t-51.5 -8q20 -16 41 -23
q30 -11 60 -11z" />
    <glyph glyph-name="Edotaccent" unicode="&#x116;" horiz-adv-x="691" 
d="M256 -80q-67 0 -124.5 17t-93 52t-35.5 88q0 41 26 82q92 146 314 217q-33 38 -33 86q0 39 21 67q41 56 124 93q47 20 95.5 31t98.5 11q62 0 94.5 -20t32.5 -56q0 -25 -13.5 -45.5t-33.5 -33t-41 -12.5q-31 0 -31 15q0 9 13 9q4 0 10.5 -1.5t9.5 -1.5q21 0 37 22t16 44
q0 32 -30.5 46t-68.5 14q-95 0 -186 -61q-96 -63 -96 -142q0 -29 20 -54q35 11 65.5 15.5t58.5 4.5q96 0 96 -37q0 -17 -14 -29.5t-35.5 -19t-43.5 -6.5q-23 0 -51 6t-54 16t-44 23q-94 -27 -166.5 -83.5t-107.5 -126.5q-19 -38 -19 -74q0 -44 25 -72t66.5 -41t91.5 -13
q83 0 165 26.5t140 78.5q79 70 79 147q0 61 -59 61q-31 0 -69 -15.5t-71.5 -41.5t-55.5 -57t-22 -63t28 -39q10 -4 10 -10q0 -8 -15 -8q-53 0 -53 59q0 39 23 74t59.5 62t79.5 42.5t83 15.5q47 0 73 -20.5t26 -66.5q0 -93 -103 -175q-65 -53 -144 -76.5t-168 -23.5zM500 337
q54 0 54 31q0 14 -54 14q-24 0 -49.5 -3t-51.5 -8q43 -34 101 -34zM631 712q-7 0 -14 10.5t-7 18.5q0 15 30 36t46 21q2 0 3 -1q-1 0 -14 -18l-17 -40q-12 -27 -27 -27z" />
    <glyph glyph-name="uni1EB8" unicode="&#x1eb8;" horiz-adv-x="691" 
d="M256 -80q-67 0 -124.5 17t-93 52t-35.5 88q0 41 26 82q92 146 314 217q-33 38 -33 86q0 39 21 67q41 56 124 93q47 20 95.5 31t98.5 11q62 0 94.5 -20t32.5 -56q0 -25 -13.5 -45.5t-33.5 -33t-41 -12.5q-31 0 -31 15q0 9 13 9q4 0 10.5 -1.5t9.5 -1.5q21 0 37 22t16 44
q0 32 -30.5 46t-68.5 14q-95 0 -186 -61q-96 -63 -96 -142q0 -29 20 -54q35 11 65.5 15.5t58.5 4.5q96 0 96 -37q0 -17 -14 -29.5t-35.5 -19t-43.5 -6.5q-23 0 -51 6t-54 16t-44 23q-94 -27 -166.5 -83.5t-107.5 -126.5q-19 -38 -19 -74q0 -44 25 -72t66.5 -41t91.5 -13
q83 0 165 26.5t140 78.5q79 70 79 147q0 61 -59 61q-31 0 -69 -15.5t-71.5 -41.5t-55.5 -57t-22 -63t28 -39q10 -4 10 -10q0 -8 -15 -8q-53 0 -53 59q0 39 23 74t59.5 62t79.5 42.5t83 15.5q47 0 73 -20.5t26 -66.5q0 -93 -103 -175q-65 -53 -144 -76.5t-168 -23.5zM500 337
q54 0 54 31q0 14 -54 14q-24 0 -49.5 -3t-51.5 -8q43 -34 101 -34zM172 -199q-7 0 -14 10.5t-7 18.5q0 15 29 36q20 12 30 11t5 -9l-16 -40q-12 -27 -27 -27z" />
    <glyph glyph-name="Egrave" unicode="&#xc8;" horiz-adv-x="691" 
d="M256 -80q-67 0 -124.5 17t-93 52t-35.5 88q0 41 26 82q92 146 314 217q-33 38 -33 86q0 39 21 67q41 56 124 93q47 20 95.5 31t98.5 11q62 0 94.5 -20t32.5 -56q0 -25 -13.5 -45.5t-33.5 -33t-41 -12.5q-31 0 -31 15q0 9 13 9q4 0 10.5 -1.5t9.5 -1.5q21 0 37 22t16 44
q0 32 -30.5 46t-68.5 14q-95 0 -186 -61q-96 -63 -96 -142q0 -29 20 -54q35 11 65.5 15.5t58.5 4.5q96 0 96 -37q0 -17 -14 -29.5t-35.5 -19t-43.5 -6.5q-23 0 -51 6t-54 16t-44 23q-94 -27 -166.5 -83.5t-107.5 -126.5q-19 -38 -19 -74q0 -44 25 -72t66.5 -41t91.5 -13
q83 0 165 26.5t140 78.5q79 70 79 147q0 61 -59 61q-31 0 -69 -15.5t-71.5 -41.5t-55.5 -57t-22 -63t28 -39q10 -4 10 -10q0 -8 -15 -8q-53 0 -53 59q0 39 23 74t59.5 62t79.5 42.5t83 15.5q47 0 73 -20.5t26 -66.5q0 -93 -103 -175q-65 -53 -144 -76.5t-168 -23.5zM500 337
q54 0 54 31q0 14 -54 14q-24 0 -49.5 -3t-51.5 -8q43 -34 101 -34zM702 714q-27 0 -64 8q-25 5 -40 10t-22 8q-5 2 -11.5 6t-6.5 11q0 8 5 16.5t11 8.5q3 0 9 -1t15 -6q21 -10 47 -22t55 -24q10 -4 10 -9q0 -6 -8 -6z" />
    <glyph glyph-name="uni1EBA" unicode="&#x1eba;" horiz-adv-x="691" 
d="M256 -80q-67 0 -124.5 17t-93 52t-35.5 88q0 41 26 82q92 146 314 217q-33 38 -33 86q0 39 21 67q41 56 124 93q47 20 95.5 31t98.5 11q62 0 94.5 -20t32.5 -56q0 -25 -13.5 -45.5t-33.5 -33t-41 -12.5q-31 0 -31 15q0 9 13 9q4 0 10.5 -1.5t9.5 -1.5q21 0 37 22t16 44
q0 32 -30.5 46t-68.5 14q-95 0 -186 -61q-96 -63 -96 -142q0 -29 20 -54q35 11 65.5 15.5t58.5 4.5q96 0 96 -37q0 -17 -14 -29.5t-35.5 -19t-43.5 -6.5q-23 0 -51 6t-54 16t-44 23q-94 -27 -166.5 -83.5t-107.5 -126.5q-19 -38 -19 -74q0 -44 25 -72t66.5 -41t91.5 -13
q83 0 165 26.5t140 78.5q79 70 79 147q0 61 -59 61q-31 0 -69 -15.5t-71.5 -41.5t-55.5 -57t-22 -63t28 -39q10 -4 10 -10q0 -8 -15 -8q-53 0 -53 59q0 39 23 74t59.5 62t79.5 42.5t83 15.5q47 0 73 -20.5t26 -66.5q0 -93 -103 -175q-65 -53 -144 -76.5t-168 -23.5zM500 337
q54 0 54 31q0 14 -54 14q-24 0 -49.5 -3t-51.5 -8q43 -34 101 -34zM626 712q-4 0 -5 3t1 4q20 14 36 25.5t16 27.5q0 15 -17 15q-10 0 -24.5 -6t-25.5 -17l-0.5 -0.5t-1.5 -0.5t-2 2t0 4q8 23 28.5 35t46.5 10q13 -1 20 -10.5t7 -20.5q0 -15 -7.5 -26t-20.5 -19
q-19 -12 -31 -19t-17 -7h-3z" />
    <glyph glyph-name="uni0206" unicode="&#x206;" horiz-adv-x="691" 
d="M256 -80q-67 0 -124.5 17t-93 52t-35.5 88q0 41 26 82q92 146 314 217q-33 38 -33 86q0 39 21 67q41 56 124 93q47 20 95.5 31t98.5 11q62 0 94.5 -20t32.5 -56q0 -25 -13.5 -45.5t-33.5 -33t-41 -12.5q-31 0 -31 15q0 9 13 9q4 0 10.5 -1.5t9.5 -1.5q21 0 37 22t16 44
q0 32 -30.5 46t-68.5 14q-95 0 -186 -61q-96 -63 -96 -142q0 -29 20 -54q35 11 65.5 15.5t58.5 4.5q96 0 96 -37q0 -17 -14 -29.5t-35.5 -19t-43.5 -6.5q-23 0 -51 6t-54 16t-44 23q-94 -27 -166.5 -83.5t-107.5 -126.5q-19 -38 -19 -74q0 -44 25 -72t66.5 -41t91.5 -13
q83 0 165 26.5t140 78.5q79 70 79 147q0 61 -59 61q-31 0 -69 -15.5t-71.5 -41.5t-55.5 -57t-22 -63t28 -39q10 -4 10 -10q0 -8 -15 -8q-53 0 -53 59q0 39 23 74t59.5 62t79.5 42.5t83 15.5q47 0 73 -20.5t26 -66.5q0 -93 -103 -175q-65 -53 -144 -76.5t-168 -23.5zM500 337
q54 0 54 31q0 14 -54 14q-24 0 -49.5 -3t-51.5 -8q43 -34 101 -34zM711 829q29 0 42.5 -16.5t11.5 -44.5q-1 -12 -5 -24.5t-14 -12.5q-7 0 -9 6.5t-2 12.5q-3 40 -42 40q-26 0 -53 -11t-51 -31q-21 -17 -27 -17q-5 0 -5 4q0 2 6 9.5t22 23.5q24 24 57.5 42.5t68.5 18.5z" />
    <glyph glyph-name="Emacron" unicode="&#x112;" horiz-adv-x="691" 
d="M256 -80q-67 0 -124.5 17t-93 52t-35.5 88q0 41 26 82q92 146 314 217q-33 38 -33 86q0 39 21 67q41 56 124 93q47 20 95.5 31t98.5 11q62 0 94.5 -20t32.5 -56q0 -25 -13.5 -45.5t-33.5 -33t-41 -12.5q-31 0 -31 15q0 9 13 9q4 0 10.5 -1.5t9.5 -1.5q21 0 37 22t16 44
q0 32 -30.5 46t-68.5 14q-95 0 -186 -61q-96 -63 -96 -142q0 -29 20 -54q35 11 65.5 15.5t58.5 4.5q96 0 96 -37q0 -17 -14 -29.5t-35.5 -19t-43.5 -6.5q-23 0 -51 6t-54 16t-44 23q-94 -27 -166.5 -83.5t-107.5 -126.5q-19 -38 -19 -74q0 -44 25 -72t66.5 -41t91.5 -13
q83 0 165 26.5t140 78.5q79 70 79 147q0 61 -59 61q-31 0 -69 -15.5t-71.5 -41.5t-55.5 -57t-22 -63t28 -39q10 -4 10 -10q0 -8 -15 -8q-53 0 -53 59q0 39 23 74t59.5 62t79.5 42.5t83 15.5q47 0 73 -20.5t26 -66.5q0 -93 -103 -175q-65 -53 -144 -76.5t-168 -23.5zM500 337
q54 0 54 31q0 14 -54 14q-24 0 -49.5 -3t-51.5 -8q43 -34 101 -34zM560 719q-5 0 -12.5 11.5t-8.5 17.5l2 1q10 5 34.5 6t62.5 1q82 0 106 -12q3 -1 3 -3t-1.5 -6t-4.5 -4q-31 0 -91 -6t-90 -6z" />
    <glyph glyph-name="Eng" unicode="&#x14a;" horiz-adv-x="925" 
d="M353 -287q-7 23 -6 42t0 26q2 4 5 4q8 0 17.5 -15.5t18.5 -42.5q14 -44 32 -61t37.5 -13.5t39.5 20.5t38.5 41t34.5 49q10 15 29.5 50.5t45.5 83.5t53.5 99.5t52.5 99.5t43 84q18 35 47.5 87.5t66.5 112t77 115.5q-133 -12 -344 -210q-83 -79 -139 -136.5t-89 -111.5
q-10 -17 -19.5 -31.5t-21.5 -28.5q-6 -6 -16 -9t-20 -3q-18 0 -23.5 6.5t-2.5 11.5q5 11 27 44t53 79q52 75 85 128t49 81q68 122 68 193q0 28 -11 52q-16 36 -82 36q-119 0 -253 -109q-50 -41 -89.5 -84.5t-67.5 -89.5q-50 -85 -50 -152q0 -96 89 -98q124 -3 187 83
q24 33 24 62q0 17 -11 23q-1 1 -1 3q0 4 6 4q26 0 26 -34q0 -21 -17 -53q-23 -40 -69 -68q-58 -36 -128 -36q-65 0 -104 39t-39 105q0 156 214 328q54 43 140 72q87 29 158 29q70 0 102 -29q26 -24 26 -71q0 -71 -58 -188q-13 -26 -33 -60t-47 -75q31 39 101 99
q126 106 233 174.5t195 100.5q9 4 20 4q38 0 48 -43q5 -17 -48 -71q-42 -42 -80.5 -95.5t-73 -110.5t-65.5 -110q-1 -3 -15 -28t-35 -64.5t-45.5 -86t-49 -92t-44.5 -83t-31.5 -59t-10.5 -19.5q-22 -41 -51.5 -60.5t-61 -22t-60.5 8t-49.5 30.5t-27.5 44z" />
    <glyph glyph-name="Eogonek" unicode="&#x118;" horiz-adv-x="691" 
d="M256 -80q-67 0 -124.5 17t-93 52t-35.5 88q0 41 26 82q92 146 314 217q-33 38 -33 86q0 39 21 67q41 56 124 93q47 20 95.5 31t98.5 11q62 0 94.5 -20t32.5 -56q0 -25 -13.5 -45.5t-33.5 -33t-41 -12.5q-31 0 -31 15q0 9 13 9q4 0 10.5 -1.5t9.5 -1.5q21 0 37 22t16 44
q0 32 -30.5 46t-68.5 14q-95 0 -186 -61q-96 -63 -96 -142q0 -29 20 -54q35 11 65.5 15.5t58.5 4.5q96 0 96 -37q0 -17 -14 -29.5t-35.5 -19t-43.5 -6.5q-23 0 -51 6t-54 16t-44 23q-94 -27 -166.5 -83.5t-107.5 -126.5q-19 -38 -19 -74q0 -44 25 -72t66.5 -41t91.5 -13
q83 0 165 26.5t140 78.5q79 70 79 147q0 61 -59 61q-31 0 -69 -15.5t-71.5 -41.5t-55.5 -57t-22 -63t28 -39q10 -4 10 -10q0 -8 -15 -8q-53 0 -53 59q0 39 23 74t59.5 62t79.5 42.5t83 15.5q47 0 73 -20.5t26 -66.5q0 -93 -103 -175q-65 -53 -144 -76.5t-168 -23.5zM500 337
q54 0 54 31q0 14 -54 14q-24 0 -49.5 -3t-51.5 -8q43 -34 101 -34zM337 -184q0 -29 -48 -45q-20 -7 -35 -9t-25 -2q-55 0 -55 42q0 27 19 69q22 48 44 49l3 -3q-34 -47 -34 -88t45 -41q23 0 49.5 11t36.5 17z" />
    <glyph glyph-name="Eth" unicode="&#xd0;" horiz-adv-x="921" 
d="M427 -58q-167 -8 -240 83q-88 -68 -129 -68q-22 0 -34 24q-9 20 -9 44q0 48 37 138q44 102 81 102q19 0 29 -60q17 -90 31 -124q23 24 54.5 61.5t70.5 86.5q-12 0 -27 3q-32 6 -32 21q0 11 9 17.5t16 6.5h3.5t6.5 1h26q8 0 17.5 0.5t19.5 -0.5l33 43q162 213 215 233
q18 7 36 7q20 0 32.5 -8.5t12.5 -19.5q0 -17 -29 -20q-35 -19 -108 -92q-37 -37 -66.5 -70.5t-50.5 -62.5l-8 -11q67 0 101 3q8 -17 -78 -32l-50 -7q-44 -58 -89.5 -106t-89.5 -85l-6 -5q56 -83 176 -83q10 0 19.5 0.5t19.5 1.5q278 26 394 241q47 86 47 164q0 90 -61 157
q-49 55 -109 69q-55 12 -115 12q-154 0 -284 -71t-137 -159q-3 -31 15 -52q12 -14 17 -16h-6q-26 5 -46 26q-23 27 -22 57q5 101 127 171q124 71 293 71q38 0 76 -4t75 -12q91 -20 158 -88q77 -80 77 -181q0 -75 -44 -155q-76 -138 -227 -202q-105 -44 -228 -50zM63 -25
q43 19 104 79q-29 48 -38 81q-6 22 -9 67q-69 -99 -69 -173q0 -31 12 -54z" />
    <glyph glyph-name="uni1EBC" unicode="&#x1ebc;" horiz-adv-x="691" 
d="M256 -80q-67 0 -124.5 17t-93 52t-35.5 88q0 41 26 82q92 146 314 217q-33 38 -33 86q0 39 21 67q41 56 124 93q47 20 95.5 31t98.5 11q62 0 94.5 -20t32.5 -56q0 -25 -13.5 -45.5t-33.5 -33t-41 -12.5q-31 0 -31 15q0 9 13 9q4 0 10.5 -1.5t9.5 -1.5q21 0 37 22t16 44
q0 32 -30.5 46t-68.5 14q-95 0 -186 -61q-96 -63 -96 -142q0 -29 20 -54q35 11 65.5 15.5t58.5 4.5q96 0 96 -37q0 -17 -14 -29.5t-35.5 -19t-43.5 -6.5q-23 0 -51 6t-54 16t-44 23q-94 -27 -166.5 -83.5t-107.5 -126.5q-19 -38 -19 -74q0 -44 25 -72t66.5 -41t91.5 -13
q83 0 165 26.5t140 78.5q79 70 79 147q0 61 -59 61q-31 0 -69 -15.5t-71.5 -41.5t-55.5 -57t-22 -63t28 -39q10 -4 10 -10q0 -8 -15 -8q-53 0 -53 59q0 39 23 74t59.5 62t79.5 42.5t83 15.5q47 0 73 -20.5t26 -66.5q0 -93 -103 -175q-65 -53 -144 -76.5t-168 -23.5zM500 337
q54 0 54 31q0 14 -54 14q-24 0 -49.5 -3t-51.5 -8q43 -34 101 -34zM700 717q-8 0 -20 3.5t-28 10.5q-30 15 -45 15q-7 0 -15.5 -3t-16.5 -11q-14 -14 -20 -14q-1 1 -1 2q0 17 41 45q14 11 34 11q15 0 45 -12q15 -6 26 -8.5t18 -2.5q22 0 40 23q5 0 5 -4q0 -18 -37 -46
q-12 -9 -26 -9z" />
    <glyph glyph-name="F" unicode="F" horiz-adv-x="632" 
d="M254 -89q-19 0 -19 11q0 22 71 123q32 44 68.5 90.5t76.5 94.5q-37 -7 -65 -10t-45 -3q-4 1 -4 5q0 7 12 17t20 10h14.5t34.5 1h51q15 20 52.5 73t98.5 139q48 69 48 114q0 70 -104 70q-63 0 -133.5 -23t-138 -61.5t-120.5 -83.5q-65 -55 -103 -117.5t-38 -111.5
q0 -85 111 -78q61 5 119 73q56 67 50 114q26 -5 26 -31q0 -43 -54 -99q-37 -37 -82.5 -59t-95.5 -22q-56 0 -86.5 29.5t-30.5 78.5q0 118 144 238q63 52 136 90.5t150 60t151 21.5q73 0 116 -24.5t43 -71.5q0 -43 -39 -99q-13 -20 -53 -75t-108 -144l58 -2q23 -1 36 -1.5
t15 0.5h6q18 0 18 -7q0 -14 -39 -14h-10.5t-26.5 1q-15 1 -27 1h-21q-26 -2 -31 -5q-22 -28 -48.5 -63t-56.5 -77q-79 -109 -79 -128q0 -6 7.5 -2t10.5 6q11 0 11 -3q0 -5 -22 -15l-28 -15q-19 -16 -47 -16z" />
    <glyph glyph-name="G" unicode="G" horiz-adv-x="828" 
d="M509 -154q-8 0 -8 13q0 18 14.5 51.5t41.5 83.5l70 131q-64 -55 -158 -99q-60 -29 -127 -47t-129 -18q-108 0 -168 50t-60 132q0 153 185 311q45 38 102 72t120 59.5t126 40t119 14.5q47 0 88.5 -13t68 -37.5t26.5 -60.5q0 -30 -20 -59t-51.5 -52t-68 -37t-70.5 -14
q-91 0 -93 98q-2 50 17 50q17 0 13 -43q-10 -82 69 -82q27 0 58 10t57.5 28t43.5 40t17 46q0 30 -21.5 48.5t-55 27.5t-71.5 9q-81 0 -163 -25.5t-158 -71t-138 -105.5q-143 -140 -143 -257q0 -70 52.5 -111.5t137.5 -41.5q68 0 139 26t135 63q130 73 195 155l29 43
q-13 0 -50.5 -3t-101.5 -8q-67 -5 -105.5 -9.5t-48.5 -6.5q-12 -3 -24 -3q-33 0 -33 16q0 25 88 44q31 7 96 10.5t164 3.5q166 0 224 -14q9 -1 9 -5q0 -10 -69 -16l-49 -4q-28 -3 -39 -3q-102 -133 -264 -414q-9 -16 -18 -16z" />
    <glyph glyph-name="Gbreve" unicode="&#x11e;" horiz-adv-x="828" 
d="M509 -154q-8 0 -8 13q0 18 14.5 51.5t41.5 83.5l70 131q-64 -55 -158 -99q-60 -29 -127 -47t-129 -18q-108 0 -168 50t-60 132q0 153 185 311q45 38 102 72t120 59.5t126 40t119 14.5q47 0 88.5 -13t68 -37.5t26.5 -60.5q0 -30 -20 -59t-51.5 -52t-68 -37t-70.5 -14
q-91 0 -93 98q-2 50 17 50q17 0 13 -43q-10 -82 69 -82q27 0 58 10t57.5 28t43.5 40t17 46q0 30 -21.5 48.5t-55 27.5t-71.5 9q-81 0 -163 -25.5t-158 -71t-138 -105.5q-143 -140 -143 -257q0 -70 52.5 -111.5t137.5 -41.5q68 0 139 26t135 63q130 73 195 155l29 43
q-13 0 -50.5 -3t-101.5 -8q-67 -5 -105.5 -9.5t-48.5 -6.5q-12 -3 -24 -3q-33 0 -33 16q0 25 88 44q31 7 96 10.5t164 3.5q166 0 224 -14q9 -1 9 -5q0 -10 -69 -16l-49 -4q-28 -3 -39 -3q-102 -133 -264 -414q-9 -16 -18 -16zM647 699q-28 0 -43 16t-15 43q0 12 3.5 24.5
t13.5 12.5q8 0 9.5 -6.5t2.5 -12.5q6 -38 45 -38q23 0 50 12.5t58 44.5q8 8 18 13.5t10 -0.5q0 -4 -8 -15q-35 -46 -72.5 -70t-71.5 -24z" />
    <glyph glyph-name="Gcaron" unicode="&#x1e6;" horiz-adv-x="828" 
d="M509 -154q-8 0 -8 13q0 18 14.5 51.5t41.5 83.5l70 131q-64 -55 -158 -99q-60 -29 -127 -47t-129 -18q-108 0 -168 50t-60 132q0 153 185 311q45 38 102 72t120 59.5t126 40t119 14.5q47 0 88.5 -13t68 -37.5t26.5 -60.5q0 -30 -20 -59t-51.5 -52t-68 -37t-70.5 -14
q-91 0 -93 98q-2 50 17 50q17 0 13 -43q-10 -82 69 -82q27 0 58 10t57.5 28t43.5 40t17 46q0 30 -21.5 48.5t-55 27.5t-71.5 9q-81 0 -163 -25.5t-158 -71t-138 -105.5q-143 -140 -143 -257q0 -70 52.5 -111.5t137.5 -41.5q68 0 139 26t135 63q130 73 195 155l29 43
q-13 0 -50.5 -3t-101.5 -8q-67 -5 -105.5 -9.5t-48.5 -6.5q-12 -3 -24 -3q-33 0 -33 16q0 25 88 44q31 7 96 10.5t164 3.5q166 0 224 -14q9 -1 9 -5q0 -10 -69 -16l-49 -4q-28 -3 -39 -3q-102 -133 -264 -414q-9 -16 -18 -16zM589 787q5 0 11.5 -10t17.5 -25q5 -5 7 -11.5
t5 -12.5q17 8 43 22.5t42 21.5q8 4 21.5 9.5t20.5 5.5q10 0 10 -6q0 -4 -6.5 -11t-12.5 -11q-22 -10 -50 -25t-51 -26.5t-30 -11.5q-12 0 -20.5 12t-16.5 29q-2 7 -4 13.5t-2 13.5q0 23 15 23z" />
    <glyph glyph-name="Gcircumflex" unicode="&#x11c;" horiz-adv-x="828" 
d="M509 -154q-8 0 -8 13q0 18 14.5 51.5t41.5 83.5l70 131q-64 -55 -158 -99q-60 -29 -127 -47t-129 -18q-108 0 -168 50t-60 132q0 153 185 311q45 38 102 72t120 59.5t126 40t119 14.5q47 0 88.5 -13t68 -37.5t26.5 -60.5q0 -30 -20 -59t-51.5 -52t-68 -37t-70.5 -14
q-91 0 -93 98q-2 50 17 50q17 0 13 -43q-10 -82 69 -82q27 0 58 10t57.5 28t43.5 40t17 46q0 30 -21.5 48.5t-55 27.5t-71.5 9q-81 0 -163 -25.5t-158 -71t-138 -105.5q-143 -140 -143 -257q0 -70 52.5 -111.5t137.5 -41.5q68 0 139 26t135 63q130 73 195 155l29 43
q-13 0 -50.5 -3t-101.5 -8q-67 -5 -105.5 -9.5t-48.5 -6.5q-12 -3 -24 -3q-33 0 -33 16q0 25 88 44q31 7 96 10.5t164 3.5q166 0 224 -14q9 -1 9 -5q0 -10 -69 -16l-49 -4q-28 -3 -39 -3q-102 -133 -264 -414q-9 -16 -18 -16zM574 682q-2 0 -4 6t2 8q5 4 17 12.5t28 19.5
q23 14 37.5 24.5t24.5 10.5q9 0 15 -6t13 -14l14.5 -14.5l13.5 -13.5q5 -5 10 -11t5 -12q0 -4 -4.5 -8.5t-14.5 -5.5q-7 0 -13.5 5t-14.5 12q-8 8 -17 18t-16 18q-15 -8 -46 -25q-17 -10 -29.5 -17t-20.5 -7z" />
    <glyph glyph-name="uni0122" unicode="&#x122;" horiz-adv-x="828" 
d="M509 -154q-8 0 -8 13q0 18 14.5 51.5t41.5 83.5l70 131q-64 -55 -158 -99q-60 -29 -127 -47t-129 -18q-108 0 -168 50t-60 132q0 153 185 311q45 38 102 72t120 59.5t126 40t119 14.5q47 0 88.5 -13t68 -37.5t26.5 -60.5q0 -30 -20 -59t-51.5 -52t-68 -37t-70.5 -14
q-91 0 -93 98q-2 50 17 50q17 0 13 -43q-10 -82 69 -82q27 0 58 10t57.5 28t43.5 40t17 46q0 30 -21.5 48.5t-55 27.5t-71.5 9q-81 0 -163 -25.5t-158 -71t-138 -105.5q-143 -140 -143 -257q0 -70 52.5 -111.5t137.5 -41.5q68 0 139 26t135 63q130 73 195 155l29 43
q-13 0 -50.5 -3t-101.5 -8q-67 -5 -105.5 -9.5t-48.5 -6.5q-12 -3 -24 -3q-33 0 -33 16q0 25 88 44q31 7 96 10.5t164 3.5q166 0 224 -14q9 -1 9 -5q0 -10 -69 -16l-49 -4q-28 -3 -39 -3q-102 -133 -264 -414q-9 -16 -18 -16zM132 -220q-4 1 -4 3q0 1 23 27t20 46
q-1 11 -14 19.5t-13 17.5q0 30 29 30q14 0 28 -9.5t14 -24.5q0 -42 -35 -80q-32 -33 -48 -29z" />
    <glyph glyph-name="Gdotaccent" unicode="&#x120;" horiz-adv-x="828" 
d="M509 -154q-8 0 -8 13q0 18 14.5 51.5t41.5 83.5l70 131q-64 -55 -158 -99q-60 -29 -127 -47t-129 -18q-108 0 -168 50t-60 132q0 153 185 311q45 38 102 72t120 59.5t126 40t119 14.5q47 0 88.5 -13t68 -37.5t26.5 -60.5q0 -30 -20 -59t-51.5 -52t-68 -37t-70.5 -14
q-91 0 -93 98q-2 50 17 50q17 0 13 -43q-10 -82 69 -82q27 0 58 10t57.5 28t43.5 40t17 46q0 30 -21.5 48.5t-55 27.5t-71.5 9q-81 0 -163 -25.5t-158 -71t-138 -105.5q-143 -140 -143 -257q0 -70 52.5 -111.5t137.5 -41.5q68 0 139 26t135 63q130 73 195 155l29 43
q-13 0 -50.5 -3t-101.5 -8q-67 -5 -105.5 -9.5t-48.5 -6.5q-12 -3 -24 -3q-33 0 -33 16q0 25 88 44q31 7 96 10.5t164 3.5q166 0 224 -14q9 -1 9 -5q0 -10 -69 -16l-49 -4q-28 -3 -39 -3q-102 -133 -264 -414q-9 -16 -18 -16zM632 694q-7 0 -14 10.5t-7 18.5q0 15 30 36
t46 21q2 0 3 -1q-1 0 -14 -18l-17 -40q-12 -27 -27 -27z" />
    <glyph glyph-name="uni1E9E" unicode="&#x1e9e;" horiz-adv-x="581" 
d="M597 566q-3 -37 -29.5 -64t-65 -47.5t-78.5 -40.5q-20 -9 -44 -21t-41 -29.5t-17 -44.5q0 -38 65 -56q50 -10 76 -17.5t38.5 -12.5t19.5 -11q19 -15 25.5 -32t4.5 -34q-5 -34 -28.5 -62t-59 -50.5t-76 -38.5t-78.5 -24t-67 -8q-22 0 -48 7t-48 22t-32 39q-8 22 -8 36
q2 14 12 26.5t25 12.5q16 0 14 -22q-1 -4 -1 -8v-8q0 -19 6.5 -39t25.5 -33t54 -13q39 0 83 14t82.5 37t63 50.5t24.5 54.5q0 14 -11 27t-35 19l-106 27q-30 8 -47.5 27.5t-17.5 44.5q0 34 21.5 58.5t53 43.5t59.5 35t57.5 36.5t51 44t23.5 46.5q4 44 -14.5 64t-49.5 20
q-23 0 -50 -16.5t-53.5 -43.5t-48.5 -58q-43 -61 -90 -138.5t-100 -173.5q-38 -70 -75 -135.5t-76 -114.5t-84 -73q-18 -9 -35 -13t-30 -4q-24 0 -24 8q0 10 36 21q33 11 66 47t65.5 86.5t62 104.5t54.5 100q49 88 93 178t95 161q26 35 61 56t73 30t71 9q47 0 79 -26t27 -81
z" />
    <glyph glyph-name="H" unicode="H" horiz-adv-x="951" 
d="M756 -66q-28 0 -43 22t-15 52q0 58 53 158q-37 -3 -74 -3q-27 0 -102 3l-128 4q-70 -112 -114 -204q-13 -27 -35 -27q-15 0 -15 14q0 10 6 22q17 37 44.5 86t64.5 110q-82 0 -109 -7q-45 -11 -67 -45q-8 -11 -13 -12q-6 -1 -6 5q0 5 4 9q38 51 77 71q40 21 139 18
q62 93 171 276q41 77 41 125q0 78 -105 78q-128 0 -238 -67q-58 -36 -109 -90.5t-82 -116t-31 -120.5q0 -93 87 -93q39 0 69 18.5t53 47.5q45 56 45 111q0 31 -16 51q-2 2 -2 5q0 7 8 7q5 0 6 -3q20 -26 20 -62q0 -61 -50 -125q-31 -38 -63.5 -55.5t-74.5 -17.5
q-63 0 -98 39.5t-35 101.5q0 84 50.5 159t127.5 129q152 107 339 102q40 -1 75 -14.5t56.5 -39t21.5 -63.5q0 -23 -8.5 -50t-28.5 -57l-181 -278q20 -1 52 -3.5t76 -7.5q37 -4 62 -5.5t38 -1.5h39.5t26.5 1l38 63q50 83 104.5 157.5t113.5 140.5q134 148 229 182q3 1 7 1
q6 0 6 -8q0 -3 -3 -5q-31 -17 -75.5 -59.5t-103.5 -110.5q-62 -72 -115 -144t-96 -145l-39 -66q46 6 66 23q4 3 7 -3q3 -7 -1 -10q-30 -23 -85 -33q-70 -130 -70 -183q0 -34 29 -34q20 0 46.5 13.5t42.5 30.5q2 2 3 2q3 0 3 -6q-1 -7 -5 -11q-12 -12 -32 -24t-41.5 -20
t-37.5 -8z" />
    <glyph glyph-name="Hbar" unicode="&#x126;" horiz-adv-x="951" 
d="M756 -66q-28 0 -43 22t-15 52q0 58 53 158q-37 -3 -74 -3q-27 0 -102 3l-128 4q-70 -112 -114 -204q-13 -27 -35 -27q-15 0 -15 14q0 10 6 22q17 37 44.5 86t64.5 110q-82 0 -109 -7q-45 -11 -67 -45q-8 -11 -13 -12q-6 -1 -6 5q0 5 4 9q38 51 77 71q40 21 139 18
q62 93 171 276q41 77 41 125q0 78 -105 78q-128 0 -238 -67q-58 -36 -109 -90.5t-82 -116t-31 -120.5q0 -93 87 -93q39 0 69 18.5t53 47.5q45 56 45 111q0 31 -16 51q-2 2 -2 5q0 7 8 7q5 0 6 -3q20 -26 20 -62q0 -61 -50 -125q-31 -38 -63.5 -55.5t-74.5 -17.5
q-63 0 -98 39.5t-35 101.5q0 84 50.5 159t127.5 129q152 107 339 102q40 -1 75 -14.5t56.5 -39t21.5 -63.5q0 -23 -8.5 -50t-28.5 -57l-181 -278q20 -1 52 -3.5t76 -7.5q37 -4 62 -5.5t38 -1.5h39.5t26.5 1l38 63q50 83 104.5 157.5t113.5 140.5q134 148 229 182q3 1 7 1
q6 0 6 -8q0 -3 -3 -5q-31 -17 -75.5 -59.5t-103.5 -110.5q-62 -72 -115 -144t-96 -145l-39 -66q46 6 66 23q4 3 7 -3q3 -7 -1 -10q-30 -23 -85 -33q-70 -130 -70 -183q0 -34 29 -34q20 0 46.5 13.5t42.5 30.5q2 2 3 2q3 0 3 -6q-1 -7 -5 -11q-12 -12 -32 -24t-41.5 -20
t-37.5 -8zM647 422q-18 -2 -43.5 -1.5t-56.5 2.5q-73 6 -73 21q0 11 21 17.5t36 6.5h7.5t15.5 1h59q50 1 128 0q116 -1 201 -0.5t138 2.5q17 -17 -178 -32q-63 -4 -127.5 -8t-127.5 -9z" />
    <glyph glyph-name="Hcircumflex" unicode="&#x124;" horiz-adv-x="951" 
d="M756 -66q-28 0 -43 22t-15 52q0 58 53 158q-37 -3 -74 -3q-27 0 -102 3l-128 4q-70 -112 -114 -204q-13 -27 -35 -27q-15 0 -15 14q0 10 6 22q17 37 44.5 86t64.5 110q-82 0 -109 -7q-45 -11 -67 -45q-8 -11 -13 -12q-6 -1 -6 5q0 5 4 9q38 51 77 71q40 21 139 18
q62 93 171 276q41 77 41 125q0 78 -105 78q-128 0 -238 -67q-58 -36 -109 -90.5t-82 -116t-31 -120.5q0 -93 87 -93q39 0 69 18.5t53 47.5q45 56 45 111q0 31 -16 51q-2 2 -2 5q0 7 8 7q5 0 6 -3q20 -26 20 -62q0 -61 -50 -125q-31 -38 -63.5 -55.5t-74.5 -17.5
q-63 0 -98 39.5t-35 101.5q0 84 50.5 159t127.5 129q152 107 339 102q40 -1 75 -14.5t56.5 -39t21.5 -63.5q0 -23 -8.5 -50t-28.5 -57l-181 -278q20 -1 52 -3.5t76 -7.5q37 -4 62 -5.5t38 -1.5h39.5t26.5 1l38 63q50 83 104.5 157.5t113.5 140.5q134 148 229 182q3 1 7 1
q6 0 6 -8q0 -3 -3 -5q-31 -17 -75.5 -59.5t-103.5 -110.5q-62 -72 -115 -144t-96 -145l-39 -66q46 6 66 23q4 3 7 -3q3 -7 -1 -10q-30 -23 -85 -33q-70 -130 -70 -183q0 -34 29 -34q20 0 46.5 13.5t42.5 30.5q2 2 3 2q3 0 3 -6q-1 -7 -5 -11q-12 -12 -32 -24t-41.5 -20
t-37.5 -8zM837 730q-2 0 -4 6t2 8q5 4 17 12.5t28 19.5q23 14 37.5 24.5t24.5 10.5q9 0 15 -6t13 -14l14.5 -14.5l13.5 -13.5q5 -5 10 -11t5 -12q0 -4 -4.5 -8.5t-14.5 -5.5q-7 0 -13.5 5t-14.5 12q-8 8 -17 18t-16 18q-15 -8 -46 -25q-17 -10 -29.5 -17t-20.5 -7z" />
    <glyph glyph-name="I" unicode="I" horiz-adv-x="576" 
d="M177 -69q-156 0 -156 184q0 152 81 245q68 80 156 80q49 0 77.5 -26t28.5 -75q0 -78 -60 -158q-62 -83 -126 -83q-37 0 -54.5 22t-17.5 53q0 20 8 44q11 29 23 29q9 0 9 -9q0 -5 -9 -26q-7 -15 -7 -31q0 -21 13.5 -33.5t35.5 -12.5q59 0 111 75q49 70 49 139
q0 36 -17.5 55.5t-47.5 19.5q-71 0 -142 -98q-73 -105 -69 -231q2 -56 30.5 -95t76.5 -39q135 0 345 359q-110 33 -110 130q0 65 35 117.5t96 88.5q83 48 162 48q43 0 83.5 -10.5t67.5 -33t27 -58.5q0 -12 -5.5 -23t-11.5 -11q1 0 -9 6.5t-22 6.5q-85 0 -233 -253q4 -1 8 -1
h8q25 0 48.5 9t39 25t15.5 36q0 8 -3.5 16.5t-3.5 10.5q0 8 8 8q4 0 8 -3q23 -17 23 -42t-19 -44t-48.5 -29.5t-59.5 -10.5q-17 0 -34 3q-69 -127 -168 -234q-132 -140 -240 -140zM532 344q55 90 134 171q95 98 153 98q15 0 26 -7q-1 19 -18 34.5t-40.5 24.5t-44.5 10
q-66 3 -140 -30q-63 -28 -103.5 -84.5t-40.5 -130.5q0 -72 74 -86z" />
    <glyph glyph-name="IJ" unicode="&#x132;" horiz-adv-x="1374" 
d="M717 -130q-93 0 -141 50q-42 44 -42 109q0 50 22 91q53 102 153 159q79 46 145 43q64 -3 100.5 -34.5t36.5 -81.5q0 -12 -3 -26q-8 -40 -37 -72q-25 -28 -40 -28q-4 0 -4 4q0 3 3 9q36 53 36 102q0 42 -25.5 70.5t-67.5 31.5q-55 4 -121 -40q-75 -49 -123 -147
q-25 -49 -25 -95q0 -59 39 -92q43 -36 120 -32q248 14 516 446q166 266 170 326l-59 3q-48 1 -118 -23q-80 -29 -102 -67q-9 -15 -9 -29q0 -22 19 -44t19 -26q0 -5 -12 -7q-25 -4 -48 18q-22 22 -22 54q0 27 18 51q38 52 127 74q32 8 66.5 12.5t69.5 3.5q9 0 49 -3
q-2 13 10.5 24.5t28.5 11.5q30 0 29 -43q108 -19 114 -58q5 -35 -10 -35q-12 0 -8 24q-25 37 -99 52q-18 -81 -188 -352q-113 -178 -263 -298q-172 -136 -324 -136zM177 -69q-159 0 -156 191q1 146 81 238q68 80 156 80q13 0 24.5 -2t22.5 -6q59 -23 59 -93q0 -78 -60 -158
q-62 -83 -126 -83q-36 0 -53 20q-16 17 -18 45.5t7 53.5q11 29 23 29q9 0 9 -9q0 -5 -9 -26q-9 -19 -9 -35q0 -14 16 -28t35 -14q59 0 111 75q49 70 49 139q0 53 -38 70q-13 5 -27 5q-71 0 -142 -98q-73 -105 -69 -231q1 -53 27 -91q29 -42 75 -43q135 -7 350 359
q-110 33 -110 130q0 65 35 117.5t96 88.5q86 50 167 48q29 -1 55 -5.5t49 -14.5q69 -27 69 -82q0 -12 -5.5 -23t-11.5 -11q1 0 -9 6.5t-22 6.5q-85 0 -233 -253q44 -5 81 16q38 23 38 53q0 8 -3.5 16.5t-3.5 10.5q0 8 8 8q4 0 8 -3q23 -17 23 -42q0 -31 -35 -57
q-37 -27 -92 -27q-17 0 -34 3q-69 -127 -168 -234q-132 -140 -240 -140zM532 344q55 90 134 171q95 98 153 98q15 0 26 -7q-1 28 -39 49q-16 10 -32 14.5t-32 5.5q-66 3 -140 -30q-63 -28 -103.5 -84.5t-40.5 -130.5q0 -72 74 -86z" />
    <glyph glyph-name="Iacute" unicode="&#xcd;" horiz-adv-x="576" 
d="M177 -69q-156 0 -156 184q0 152 81 245q68 80 156 80q49 0 77.5 -26t28.5 -75q0 -78 -60 -158q-62 -83 -126 -83q-37 0 -54.5 22t-17.5 53q0 20 8 44q11 29 23 29q9 0 9 -9q0 -5 -9 -26q-7 -15 -7 -31q0 -21 13.5 -33.5t35.5 -12.5q59 0 111 75q49 70 49 139
q0 36 -17.5 55.5t-47.5 19.5q-71 0 -142 -98q-73 -105 -69 -231q2 -56 30.5 -95t76.5 -39q135 0 345 359q-110 33 -110 130q0 65 35 117.5t96 88.5q83 48 162 48q43 0 83.5 -10.5t67.5 -33t27 -58.5q0 -12 -5.5 -23t-11.5 -11q1 0 -9 6.5t-22 6.5q-85 0 -233 -253q4 -1 8 -1
h8q25 0 48.5 9t39 25t15.5 36q0 8 -3.5 16.5t-3.5 10.5q0 8 8 8q4 0 8 -3q23 -17 23 -42t-19 -44t-48.5 -29.5t-59.5 -10.5q-17 0 -34 3q-69 -127 -168 -234q-132 -140 -240 -140zM532 344q55 90 134 171q95 98 153 98q15 0 26 -7q-1 19 -18 34.5t-40.5 24.5t-44.5 10
q-66 3 -140 -30q-63 -28 -103.5 -84.5t-40.5 -130.5q0 -72 74 -86zM768 747q-8 0 -8 6q0 5 10 9q29 12 55 24t47 22q9 5 15 6t9 1q6 0 11 -8.5t5 -16.5q0 -7 -6.5 -11t-11.5 -6q-7 -3 -22 -8t-40 -10q-37 -8 -64 -8z" />
    <glyph glyph-name="Ibreve" unicode="&#x12c;" horiz-adv-x="576" 
d="M177 -69q-156 0 -156 184q0 152 81 245q68 80 156 80q49 0 77.5 -26t28.5 -75q0 -78 -60 -158q-62 -83 -126 -83q-37 0 -54.5 22t-17.5 53q0 20 8 44q11 29 23 29q9 0 9 -9q0 -5 -9 -26q-7 -15 -7 -31q0 -21 13.5 -33.5t35.5 -12.5q59 0 111 75q49 70 49 139
q0 36 -17.5 55.5t-47.5 19.5q-71 0 -142 -98q-73 -105 -69 -231q2 -56 30.5 -95t76.5 -39q135 0 345 359q-110 33 -110 130q0 65 35 117.5t96 88.5q83 48 162 48q43 0 83.5 -10.5t67.5 -33t27 -58.5q0 -12 -5.5 -23t-11.5 -11q1 0 -9 6.5t-22 6.5q-85 0 -233 -253q4 -1 8 -1
h8q25 0 48.5 9t39 25t15.5 36q0 8 -3.5 16.5t-3.5 10.5q0 8 8 8q4 0 8 -3q23 -17 23 -42t-19 -44t-48.5 -29.5t-59.5 -10.5q-17 0 -34 3q-69 -127 -168 -234q-132 -140 -240 -140zM532 344q55 90 134 171q95 98 153 98q15 0 26 -7q-1 19 -18 34.5t-40.5 24.5t-44.5 10
q-66 3 -140 -30q-63 -28 -103.5 -84.5t-40.5 -130.5q0 -72 74 -86zM794 750q-19 0 -33 10.5t-14 36.5q0 1 0.5 9t4 15.5t10.5 7.5q5 0 7 -5.5t4 -13.5q3 -12 9 -16.5t24 -4.5q17 0 32 5t37 23q5 5 16.5 13t11.5 0q0 -11 -11 -26q-16 -22 -43.5 -38t-54.5 -16z" />
    <glyph glyph-name="Icircumflex" unicode="&#xce;" horiz-adv-x="576" 
d="M896 709q-7 0 -59 47q-18 17 -40 30q-11 -7 -32 -20t-53 -34q-24 -16 -32 -17q-13 -4 -20 1t8 18q29 18 46.5 29.5t31 21.5t29.5 22q11 8 21.5 15t23.5 -4q8 -7 18.5 -16.5t23.5 -24.5q23 -25 33 -37.5t10 -20.5q0 -10 -9 -10zM177 -69q-159 0 -156 191q1 146 81 238
q68 80 156 80q13 0 24.5 -2t22.5 -6q59 -23 59 -93q0 -78 -60 -158q-62 -83 -126 -83q-36 0 -53 20q-16 17 -18 45.5t7 53.5q11 29 23 29q9 0 9 -9q0 -5 -9 -26q-9 -19 -9 -35q0 -14 16 -28t35 -14q59 0 111 75q49 70 49 139q0 53 -38 70q-13 5 -27 5q-71 0 -142 -98
q-73 -105 -69 -231q1 -53 27 -91q29 -42 75 -43q135 -7 350 359q-110 33 -110 130q0 65 35 117.5t96 88.5q86 50 167 48q29 -1 55 -5.5t49 -14.5q69 -27 69 -82q0 -12 -5.5 -23t-11.5 -11q1 0 -9 6.5t-22 6.5q-85 0 -233 -253q44 -5 81 16q38 23 38 53q0 8 -3.5 16.5
t-3.5 10.5q0 8 8 8q4 0 8 -3q23 -17 23 -42q0 -31 -35 -57q-37 -27 -92 -27q-17 0 -34 3q-69 -127 -168 -234q-132 -140 -240 -140zM532 344q55 90 134 171q95 98 153 98q15 0 26 -7q-1 28 -39 49q-16 10 -32 14.5t-32 5.5q-66 3 -140 -30q-63 -28 -103.5 -84.5
t-40.5 -130.5q0 -72 74 -86z" />
    <glyph glyph-name="uni0208" unicode="&#x208;" horiz-adv-x="576" 
d="M177 -69q-156 0 -156 184q0 152 81 245q68 80 156 80q49 0 77.5 -26t28.5 -75q0 -78 -60 -158q-62 -83 -126 -83q-37 0 -54.5 22t-17.5 53q0 20 8 44q11 29 23 29q9 0 9 -9q0 -5 -9 -26q-7 -15 -7 -31q0 -21 13.5 -33.5t35.5 -12.5q59 0 111 75q49 70 49 139
q0 36 -17.5 55.5t-47.5 19.5q-71 0 -142 -98q-73 -105 -69 -231q2 -56 30.5 -95t76.5 -39q135 0 345 359q-110 33 -110 130q0 65 35 117.5t96 88.5q83 48 162 48q43 0 83.5 -10.5t67.5 -33t27 -58.5q0 -12 -5.5 -23t-11.5 -11q1 0 -9 6.5t-22 6.5q-85 0 -233 -253q4 -1 8 -1
h8q25 0 48.5 9t39 25t15.5 36q0 8 -3.5 16.5t-3.5 10.5q0 8 8 8q4 0 8 -3q23 -17 23 -42t-19 -44t-48.5 -29.5t-59.5 -10.5q-17 0 -34 3q-69 -127 -168 -234q-132 -140 -240 -140zM532 344q55 90 134 171q95 98 153 98q15 0 26 -7q-1 19 -18 34.5t-40.5 24.5t-44.5 10
q-66 3 -140 -30q-63 -28 -103.5 -84.5t-40.5 -130.5q0 -72 74 -86zM894 742q-6 2 -19.5 10t-38.5 25q-20 15 -31.5 26t-16.5 18q-3 4 -6.5 9.5t-2.5 10.5q1 7 10 13.5t13 5.5q6 -1 15 -12l82 -94q3 -2 3 -7q-2 -8 -8 -5zM794 742l-21 7t-42 18q-22 11 -36 20t-19 14
l-8.5 8.5t-4.5 10.5q0 7 8 14.5t12 7.5q7 0 17 -9l97 -78q4 -3 4 -7q0 -8 -7 -6z" />
    <glyph glyph-name="Idieresis" unicode="&#xcf;" horiz-adv-x="576" 
d="M700 739q-7 0 -14 10.5t-7 18.5q0 15 29 36q30 21 46 21q1 0 1.5 -0.5t1.5 -0.5q-1 0 -14 -18l-16 -40q-12 -27 -27 -27zM821 739q-7 0 -14 10.5t-7 18.5q0 15 29 36q30 21 46 21q1 0 1.5 -0.5t1.5 -0.5q-1 0 -14 -18l-16 -40q-12 -27 -27 -27zM177 -69q-159 0 -156 191
q1 146 81 238q68 80 156 80q13 0 24.5 -2t22.5 -6q59 -23 59 -93q0 -78 -60 -158q-62 -83 -126 -83q-36 0 -53 20q-16 17 -18 45.5t7 53.5q11 29 23 29q9 0 9 -9q0 -5 -9 -26q-9 -19 -9 -35q0 -14 16 -28t35 -14q59 0 111 75q49 70 49 139q0 53 -38 70q-13 5 -27 5
q-71 0 -142 -98q-73 -105 -69 -231q1 -53 27 -91q29 -42 75 -43q135 -7 350 359q-110 33 -110 130q0 65 35 117.5t96 88.5q86 50 167 48q29 -1 55 -5.5t49 -14.5q69 -27 69 -82q0 -12 -5.5 -23t-11.5 -11q1 0 -9 6.5t-22 6.5q-85 0 -233 -253q44 -5 81 16q38 23 38 53
q0 8 -3.5 16.5t-3.5 10.5q0 8 8 8q4 0 8 -3q23 -17 23 -42q0 -31 -35 -57q-37 -27 -92 -27q-17 0 -34 3q-69 -127 -168 -234q-132 -140 -240 -140zM532 344q55 90 134 171q95 98 153 98q15 0 26 -7q-1 28 -39 49q-16 10 -32 14.5t-32 5.5q-66 3 -140 -30
q-63 -28 -103.5 -84.5t-40.5 -130.5q0 -72 74 -86z" />
    <glyph glyph-name="Idotaccent" unicode="&#x130;" horiz-adv-x="576" 
d="M177 -69q-156 0 -156 184q0 152 81 245q68 80 156 80q49 0 77.5 -26t28.5 -75q0 -78 -60 -158q-62 -83 -126 -83q-37 0 -54.5 22t-17.5 53q0 20 8 44q11 29 23 29q9 0 9 -9q0 -5 -9 -26q-7 -15 -7 -31q0 -21 13.5 -33.5t35.5 -12.5q59 0 111 75q49 70 49 139
q0 36 -17.5 55.5t-47.5 19.5q-71 0 -142 -98q-73 -105 -69 -231q2 -56 30.5 -95t76.5 -39q135 0 345 359q-110 33 -110 130q0 65 35 117.5t96 88.5q83 48 162 48q43 0 83.5 -10.5t67.5 -33t27 -58.5q0 -12 -5.5 -23t-11.5 -11q1 0 -9 6.5t-22 6.5q-85 0 -233 -253q4 -1 8 -1
h8q25 0 48.5 9t39 25t15.5 36q0 8 -3.5 16.5t-3.5 10.5q0 8 8 8q4 0 8 -3q23 -17 23 -42t-19 -44t-48.5 -29.5t-59.5 -10.5q-17 0 -34 3q-69 -127 -168 -234q-132 -140 -240 -140zM532 344q55 90 134 171q95 98 153 98q15 0 26 -7q-1 19 -18 34.5t-40.5 24.5t-44.5 10
q-66 3 -140 -30q-63 -28 -103.5 -84.5t-40.5 -130.5q0 -72 74 -86zM790 745q-7 0 -14 10.5t-7 18.5q0 15 30 36t46 21q2 0 3 -1q-1 0 -14 -18l-17 -40q-12 -27 -27 -27z" />
    <glyph glyph-name="uni1ECA" unicode="&#x1eca;" horiz-adv-x="576" 
d="M177 -69q-156 0 -156 184q0 152 81 245q68 80 156 80q49 0 77.5 -26t28.5 -75q0 -78 -60 -158q-62 -83 -126 -83q-37 0 -54.5 22t-17.5 53q0 20 8 44q11 29 23 29q9 0 9 -9q0 -5 -9 -26q-7 -15 -7 -31q0 -21 13.5 -33.5t35.5 -12.5q59 0 111 75q49 70 49 139
q0 36 -17.5 55.5t-47.5 19.5q-71 0 -142 -98q-73 -105 -69 -231q2 -56 30.5 -95t76.5 -39q135 0 345 359q-110 33 -110 130q0 65 35 117.5t96 88.5q83 48 162 48q43 0 83.5 -10.5t67.5 -33t27 -58.5q0 -12 -5.5 -23t-11.5 -11q1 0 -9 6.5t-22 6.5q-85 0 -233 -253q4 -1 8 -1
h8q25 0 48.5 9t39 25t15.5 36q0 8 -3.5 16.5t-3.5 10.5q0 8 8 8q4 0 8 -3q23 -17 23 -42t-19 -44t-48.5 -29.5t-59.5 -10.5q-17 0 -34 3q-69 -127 -168 -234q-132 -140 -240 -140zM532 344q55 90 134 171q95 98 153 98q15 0 26 -7q-1 19 -18 34.5t-40.5 24.5t-44.5 10
q-66 3 -140 -30q-63 -28 -103.5 -84.5t-40.5 -130.5q0 -72 74 -86zM84 -227q-7 0 -14 10.5t-7 18.5q0 15 29 36q20 12 30 11t5 -9l-16 -40q-12 -27 -27 -27z" />
    <glyph glyph-name="Igrave" unicode="&#xcc;" horiz-adv-x="576" 
d="M177 -69q-156 0 -156 184q0 152 81 245q68 80 156 80q49 0 77.5 -26t28.5 -75q0 -78 -60 -158q-62 -83 -126 -83q-37 0 -54.5 22t-17.5 53q0 20 8 44q11 29 23 29q9 0 9 -9q0 -5 -9 -26q-7 -15 -7 -31q0 -21 13.5 -33.5t35.5 -12.5q59 0 111 75q49 70 49 139
q0 36 -17.5 55.5t-47.5 19.5q-71 0 -142 -98q-73 -105 -69 -231q2 -56 30.5 -95t76.5 -39q135 0 345 359q-110 33 -110 130q0 65 35 117.5t96 88.5q83 48 162 48q43 0 83.5 -10.5t67.5 -33t27 -58.5q0 -12 -5.5 -23t-11.5 -11q1 0 -9 6.5t-22 6.5q-85 0 -233 -253q4 -1 8 -1
h8q25 0 48.5 9t39 25t15.5 36q0 8 -3.5 16.5t-3.5 10.5q0 8 8 8q4 0 8 -3q23 -17 23 -42t-19 -44t-48.5 -29.5t-59.5 -10.5q-17 0 -34 3q-69 -127 -168 -234q-132 -140 -240 -140zM532 344q55 90 134 171q95 98 153 98q15 0 26 -7q-1 19 -18 34.5t-40.5 24.5t-44.5 10
q-66 3 -140 -30q-63 -28 -103.5 -84.5t-40.5 -130.5q0 -72 74 -86zM861 747q-27 0 -64 8q-25 5 -40 10t-22 8q-5 2 -11.5 6t-6.5 11q0 8 5 16.5t11 8.5q3 0 9 -1t15 -6q21 -10 47 -22t55 -24q10 -4 10 -9q0 -6 -8 -6z" />
    <glyph glyph-name="uni1EC8" unicode="&#x1ec8;" horiz-adv-x="576" 
d="M177 -69q-156 0 -156 184q0 152 81 245q68 80 156 80q49 0 77.5 -26t28.5 -75q0 -78 -60 -158q-62 -83 -126 -83q-37 0 -54.5 22t-17.5 53q0 20 8 44q11 29 23 29q9 0 9 -9q0 -5 -9 -26q-7 -15 -7 -31q0 -21 13.5 -33.5t35.5 -12.5q59 0 111 75q49 70 49 139
q0 36 -17.5 55.5t-47.5 19.5q-71 0 -142 -98q-73 -105 -69 -231q2 -56 30.5 -95t76.5 -39q135 0 345 359q-110 33 -110 130q0 65 35 117.5t96 88.5q83 48 162 48q43 0 83.5 -10.5t67.5 -33t27 -58.5q0 -12 -5.5 -23t-11.5 -11q1 0 -9 6.5t-22 6.5q-85 0 -233 -253q4 -1 8 -1
h8q25 0 48.5 9t39 25t15.5 36q0 8 -3.5 16.5t-3.5 10.5q0 8 8 8q4 0 8 -3q23 -17 23 -42t-19 -44t-48.5 -29.5t-59.5 -10.5q-17 0 -34 3q-69 -127 -168 -234q-132 -140 -240 -140zM532 344q55 90 134 171q95 98 153 98q15 0 26 -7q-1 19 -18 34.5t-40.5 24.5t-44.5 10
q-66 3 -140 -30q-63 -28 -103.5 -84.5t-40.5 -130.5q0 -72 74 -86zM785 745q-4 0 -5 3t1 4q20 14 36 25.5t16 27.5q0 15 -17 15q-10 0 -24.5 -6t-25.5 -17l-0.5 -0.5t-1.5 -0.5t-2 2t0 4q8 23 28.5 35t46.5 10q13 -1 20 -10.5t7 -20.5q0 -15 -7.5 -26t-20.5 -19
q-19 -12 -31 -19t-17 -7h-3z" />
    <glyph glyph-name="uni020A" unicode="&#x20a;" horiz-adv-x="576" 
d="M177 -69q-156 0 -156 184q0 152 81 245q68 80 156 80q49 0 77.5 -26t28.5 -75q0 -78 -60 -158q-62 -83 -126 -83q-37 0 -54.5 22t-17.5 53q0 20 8 44q11 29 23 29q9 0 9 -9q0 -5 -9 -26q-7 -15 -7 -31q0 -21 13.5 -33.5t35.5 -12.5q59 0 111 75q49 70 49 139
q0 36 -17.5 55.5t-47.5 19.5q-71 0 -142 -98q-73 -105 -69 -231q2 -56 30.5 -95t76.5 -39q135 0 345 359q-110 33 -110 130q0 65 35 117.5t96 88.5q83 48 162 48q43 0 83.5 -10.5t67.5 -33t27 -58.5q0 -12 -5.5 -23t-11.5 -11q1 0 -9 6.5t-22 6.5q-85 0 -233 -253q4 -1 8 -1
h8q25 0 48.5 9t39 25t15.5 36q0 8 -3.5 16.5t-3.5 10.5q0 8 8 8q4 0 8 -3q23 -17 23 -42t-19 -44t-48.5 -29.5t-59.5 -10.5q-17 0 -34 3q-69 -127 -168 -234q-132 -140 -240 -140zM532 344q55 90 134 171q95 98 153 98q15 0 26 -7q-1 19 -18 34.5t-40.5 24.5t-44.5 10
q-66 3 -140 -30q-63 -28 -103.5 -84.5t-40.5 -130.5q0 -72 74 -86zM870 862q29 0 42.5 -16.5t11.5 -44.5q-1 -12 -5 -24.5t-14 -12.5q-7 0 -9 6.5t-2 12.5q-3 40 -42 40q-26 0 -53 -11t-51 -31q-21 -17 -27 -17q-5 0 -5 4q0 2 6 9.5t22 23.5q24 24 57.5 42.5t68.5 18.5z" />
    <glyph glyph-name="Imacron" unicode="&#x12a;" horiz-adv-x="576" 
d="M177 -69q-156 0 -156 184q0 152 81 245q68 80 156 80q49 0 77.5 -26t28.5 -75q0 -78 -60 -158q-62 -83 -126 -83q-37 0 -54.5 22t-17.5 53q0 20 8 44q11 29 23 29q9 0 9 -9q0 -5 -9 -26q-7 -15 -7 -31q0 -21 13.5 -33.5t35.5 -12.5q59 0 111 75q49 70 49 139
q0 36 -17.5 55.5t-47.5 19.5q-71 0 -142 -98q-73 -105 -69 -231q2 -56 30.5 -95t76.5 -39q135 0 345 359q-110 33 -110 130q0 65 35 117.5t96 88.5q83 48 162 48q43 0 83.5 -10.5t67.5 -33t27 -58.5q0 -12 -5.5 -23t-11.5 -11q1 0 -9 6.5t-22 6.5q-85 0 -233 -253q4 -1 8 -1
h8q25 0 48.5 9t39 25t15.5 36q0 8 -3.5 16.5t-3.5 10.5q0 8 8 8q4 0 8 -3q23 -17 23 -42t-19 -44t-48.5 -29.5t-59.5 -10.5q-17 0 -34 3q-69 -127 -168 -234q-132 -140 -240 -140zM532 344q55 90 134 171q95 98 153 98q15 0 26 -7q-1 19 -18 34.5t-40.5 24.5t-44.5 10
q-66 3 -140 -30q-63 -28 -103.5 -84.5t-40.5 -130.5q0 -72 74 -86zM719 752q-5 0 -12.5 11.5t-8.5 17.5l2 1q10 5 34.5 6t62.5 1q82 0 106 -12q3 -1 3 -3t-1.5 -6t-4.5 -4q-31 0 -91 -6t-90 -6z" />
    <glyph glyph-name="Iogonek" unicode="&#x12e;" horiz-adv-x="576" 
d="M177 -69q-156 0 -156 184q0 152 81 245q68 80 156 80q49 0 77.5 -26t28.5 -75q0 -78 -60 -158q-62 -83 -126 -83q-37 0 -54.5 22t-17.5 53q0 20 8 44q11 29 23 29q9 0 9 -9q0 -5 -9 -26q-7 -15 -7 -31q0 -21 13.5 -33.5t35.5 -12.5q59 0 111 75q49 70 49 139
q0 36 -17.5 55.5t-47.5 19.5q-71 0 -142 -98q-73 -105 -69 -231q2 -56 30.5 -95t76.5 -39q135 0 345 359q-110 33 -110 130q0 65 35 117.5t96 88.5q83 48 162 48q43 0 83.5 -10.5t67.5 -33t27 -58.5q0 -12 -5.5 -23t-11.5 -11q1 0 -9 6.5t-22 6.5q-85 0 -233 -253q4 -1 8 -1
h8q25 0 48.5 9t39 25t15.5 36q0 8 -3.5 16.5t-3.5 10.5q0 8 8 8q4 0 8 -3q23 -17 23 -42t-19 -44t-48.5 -29.5t-59.5 -10.5q-17 0 -34 3q-69 -127 -168 -234q-132 -140 -240 -140zM532 344q55 90 134 171q95 98 153 98q15 0 26 -7q-1 19 -18 34.5t-40.5 24.5t-44.5 10
q-66 3 -140 -30q-63 -28 -103.5 -84.5t-40.5 -130.5q0 -72 74 -86zM223 -164q0 -29 -48 -45q-20 -7 -35 -9t-25 -2q-55 0 -55 42q0 27 19 69q22 48 44 49l3 -3q-34 -47 -34 -88t45 -41q23 0 49.5 11t36.5 17z" />
    <glyph glyph-name="Itilde" unicode="&#x128;" horiz-adv-x="576" 
d="M177 -69q-156 0 -156 184q0 152 81 245q68 80 156 80q49 0 77.5 -26t28.5 -75q0 -78 -60 -158q-62 -83 -126 -83q-37 0 -54.5 22t-17.5 53q0 20 8 44q11 29 23 29q9 0 9 -9q0 -5 -9 -26q-7 -15 -7 -31q0 -21 13.5 -33.5t35.5 -12.5q59 0 111 75q49 70 49 139
q0 36 -17.5 55.5t-47.5 19.5q-71 0 -142 -98q-73 -105 -69 -231q2 -56 30.5 -95t76.5 -39q135 0 345 359q-110 33 -110 130q0 65 35 117.5t96 88.5q83 48 162 48q43 0 83.5 -10.5t67.5 -33t27 -58.5q0 -12 -5.5 -23t-11.5 -11q1 0 -9 6.5t-22 6.5q-85 0 -233 -253q4 -1 8 -1
h8q25 0 48.5 9t39 25t15.5 36q0 8 -3.5 16.5t-3.5 10.5q0 8 8 8q4 0 8 -3q23 -17 23 -42t-19 -44t-48.5 -29.5t-59.5 -10.5q-17 0 -34 3q-69 -127 -168 -234q-132 -140 -240 -140zM532 344q55 90 134 171q95 98 153 98q15 0 26 -7q-1 19 -18 34.5t-40.5 24.5t-44.5 10
q-66 3 -140 -30q-63 -28 -103.5 -84.5t-40.5 -130.5q0 -72 74 -86zM859 750q-8 0 -20 3.5t-28 10.5q-30 15 -45 15q-7 0 -15.5 -3t-16.5 -11q-14 -14 -20 -14q-1 1 -1 2q0 17 41 45q14 11 34 11q15 0 45 -12q15 -6 26 -8.5t18 -2.5q22 0 40 23q5 0 5 -4q0 -18 -37 -46
q-12 -9 -26 -9z" />
    <glyph glyph-name="J" unicode="J" horiz-adv-x="822" 
d="M222 -130q-83 0 -133 42.5t-50 116.5q0 50 22 91q28 55 76 100.5t104.5 73.5t109.5 28q68 0 106.5 -32t38.5 -84q0 -28 -11.5 -54t-28.5 -44q-25 -28 -40 -28q-4 0 -4 4q0 3 3 9q36 53 36 102q0 44 -28 73t-75 29q-45 0 -90 -26.5t-82.5 -69t-61.5 -91.5q-25 -49 -25 -95
q0 -61 39.5 -92.5t103.5 -31.5q255 0 532 446q166 266 170 326l-59 3q-24 1 -57 -5.5t-66 -18.5t-59.5 -29t-37.5 -37q-9 -15 -9 -29q0 -22 19 -44t19 -26q0 -5 -12 -7q-3 -1 -8 -1q-21 0 -40 19q-22 22 -22 53q0 28 18 52q25 34 69.5 54t96 28.5t97.5 7.5q9 0 49 -3
q-2 13 10.5 24.5t28.5 11.5q30 0 29 -43q108 -19 114 -58q1 -4 1 -8v-7q0 -20 -11 -20q-9 0 -9 13v5t1 6q-25 37 -99 52q-18 -81 -188 -352q-52 -83 -120 -160.5t-145 -139.5t-159 -98t-163 -36z" />
    <glyph glyph-name="Jcircumflex" unicode="&#x134;" horiz-adv-x="822" 
d="M222 -130q-83 0 -133 42.5t-50 116.5q0 50 22 91q28 55 76 100.5t104.5 73.5t109.5 28q68 0 106.5 -32t38.5 -84q0 -28 -11.5 -54t-28.5 -44q-25 -28 -40 -28q-4 0 -4 4q0 3 3 9q36 53 36 102q0 44 -28 73t-75 29q-45 0 -90 -26.5t-82.5 -69t-61.5 -91.5q-25 -49 -25 -95
q0 -61 39.5 -92.5t103.5 -31.5q255 0 532 446q166 266 170 326l-59 3q-24 1 -57 -5.5t-66 -18.5t-59.5 -29t-37.5 -37q-9 -15 -9 -29q0 -22 19 -44t19 -26q0 -5 -12 -7q-3 -1 -8 -1q-21 0 -40 19q-22 22 -22 53q0 28 18 52q25 34 69.5 54t96 28.5t97.5 7.5q9 0 49 -3
q-2 13 10.5 24.5t28.5 11.5q30 0 29 -43q108 -19 114 -58q1 -4 1 -8v-7q0 -20 -11 -20q-9 0 -9 13v5t1 6q-25 37 -99 52q-18 -81 -188 -352q-52 -83 -120 -160.5t-145 -139.5t-159 -98t-163 -36zM899 746q-2 0 -4 6t2 8q5 4 17 12.5t28 19.5q23 14 37.5 24.5t24.5 10.5
q9 0 15 -6t13 -14l14.5 -14.5l13.5 -13.5q5 -5 10 -11t5 -12q0 -4 -4.5 -8.5t-14.5 -5.5q-7 0 -13.5 5t-14.5 12q-8 8 -17 18t-16 18q-15 -8 -46 -25q-17 -10 -29.5 -17t-20.5 -7z" />
    <glyph glyph-name="K" unicode="K" horiz-adv-x="936" 
d="M1033 -129q-39 0 -69 14q-43 21 -85 58.5t-80 84.5t-68 99t-50 101q-55 -32 -91 -35q-28 -36 -71 -82t-95.5 -89t-112 -70.5t-120.5 -27.5q-78 0 -123.5 39.5t-45.5 124.5q0 47 23 93t62 83t85 56q57 25 119 25q35 0 56 -18.5t21 -47.5q0 -13 -4 -17q-1 -1 -3 -1
q-3 0 -8 8q-16 31 -32 41t-45 10q-44 0 -85.5 -21.5t-75 -57.5t-53.5 -80.5t-20 -89.5q0 -108 122 -122q46 -4 121 39q112 64 239 220q-23 21 -23 60q0 43 29 78q32 38 85 38q15 0 28 -3q27 46 52 93t48 95q44 91 44 106q0 2 -1 2q-3 2 -24 -7.5t-49 -23t-52 -26.5t-33 -19
q-34 -22 -68 -56q-44 -44 -44 -68q0 -11 10 -18q21 -15 62 -15q5 -2 5 -4q0 -5 -32 -10t-50 -3q-25 6 -25 29q0 35 43 84t94 77q149 80 189 80q10 0 17 -4q4 -3 4 -11q0 -61 -168 -349q3 -12 8.5 -27.5t13.5 -35.5l298 227q75 57 137 103t118.5 78t114 49t124.5 17
q37 0 68 -12q19 -7 19 -28q0 -17 -10 -17q-5 0 -10 6q-9 10 -38 10q-16 0 -42 -4t-63 -12q-57 -13 -120.5 -41t-133.5 -71q-88 -55 -240 -171q-77 -59 -130.5 -97.5t-82.5 -57.5q22 -46 53.5 -95t68.5 -94.5t78 -81t81 -53.5q39 -18 71 -18q48 0 48 37v5t-1 5q0 2 -0.5 3.5
t-0.5 2.5q0 10 5 17.5t11 7.5q13 0 17 -31q1 -2 1 -5v-5q0 -24 -17 -40.5t-43 -24.5t-55 -8zM576 249l7 10q8 12 21.5 31t30.5 45q-12 5 -21 5q-21 0 -35 -18t-14 -40q0 -19 11 -33zM620 232q10 0 13 1q13 2 40 16q-4 12 -7.5 22t-5.5 18q-7 -11 -17 -25.5t-23 -31.5z" />
    <glyph glyph-name="uni0136" unicode="&#x136;" horiz-adv-x="936" 
d="M1033 -129q-39 0 -69 14q-43 21 -85 58.5t-80 84.5t-68 99t-50 101q-55 -32 -91 -35q-28 -36 -71 -82t-95.5 -89t-112 -70.5t-120.5 -27.5q-78 0 -123.5 39.5t-45.5 124.5q0 47 23 93t62 83t85 56q57 25 119 25q35 0 56 -18.5t21 -47.5q0 -13 -4 -17q-1 -1 -3 -1
q-3 0 -8 8q-16 31 -32 41t-45 10q-44 0 -85.5 -21.5t-75 -57.5t-53.5 -80.5t-20 -89.5q0 -108 122 -122q46 -4 121 39q112 64 239 220q-23 21 -23 60q0 43 29 78q32 38 85 38q15 0 28 -3q27 46 52 93t48 95q44 91 44 106q0 2 -1 2q-3 2 -24 -7.5t-49 -23t-52 -26.5t-33 -19
q-34 -22 -68 -56q-44 -44 -44 -68q0 -11 10 -18q21 -15 62 -15q5 -2 5 -4q0 -5 -32 -10t-50 -3q-25 6 -25 29q0 35 43 84t94 77q149 80 189 80q10 0 17 -4q4 -3 4 -11q0 -61 -168 -349q3 -12 8.5 -27.5t13.5 -35.5l298 227q75 57 137 103t118.5 78t114 49t124.5 17
q37 0 68 -12q19 -7 19 -28q0 -17 -10 -17q-5 0 -10 6q-9 10 -38 10q-16 0 -42 -4t-63 -12q-57 -13 -120.5 -41t-133.5 -71q-88 -55 -240 -171q-77 -59 -130.5 -97.5t-82.5 -57.5q22 -46 53.5 -95t68.5 -94.5t78 -81t81 -53.5q39 -18 71 -18q48 0 48 37v5t-1 5q0 2 -0.5 3.5
t-0.5 2.5q0 10 5 17.5t11 7.5q13 0 17 -31q1 -2 1 -5v-5q0 -24 -17 -40.5t-43 -24.5t-55 -8zM576 249l7 10q8 12 21.5 31t30.5 45q-12 5 -21 5q-21 0 -35 -18t-14 -40q0 -19 11 -33zM620 232q10 0 13 1q13 2 40 16q-4 12 -7.5 22t-5.5 18q-7 -11 -17 -25.5t-23 -31.5z
M527 -203q-4 1 -4 3q0 1 23 27t20 46q-1 11 -14 19.5t-13 17.5q0 30 29 30q14 0 28 -9.5t14 -24.5q0 -42 -35 -80q-32 -33 -48 -29z" />
    <glyph glyph-name="L" unicode="L" horiz-adv-x="658" 
d="M545 -109q-56 0 -115 16.5t-111.5 48.5t-90.5 76q-80 -80 -152 -80q-37 0 -55 21.5t-18 55.5q0 63 48 148q45 80 72 84q20 0 41 -41l63 -122q53 71 111 153q-82 37 -82 107q0 30 14.5 55.5t37.5 41.5t47 16q33 0 48 -31q2 -3 0.5 -6t-3.5 -2q-7 8 -20 14t-24 6
q-21 0 -38.5 -16.5t-27 -38.5t-7.5 -39q0 -51 72 -89q17 25 37 54.5t43 63.5q199 292 331 292q93 0 93 -87q0 -79 -77 -186q-38 -53 -96 -95t-122.5 -66.5t-124.5 -24.5q-14 0 -27.5 1.5t-24.5 5.5q-26 -34 -60 -76t-75 -93q18 -25 51.5 -50t75.5 -44.5t83 -31.5t74 -12
q38 0 70 8.5t52 27t20 48.5v8t-1 8q0 2 -0.5 3t-0.5 2q0 10 6 10q10 0 16 -15.5t6 -24.5q0 -31 -24 -54.5t-60.5 -36.5t-74.5 -13zM432 246q51 0 109 23.5t109.5 62t83.5 83.5q91 127 91 193q0 28 -16 41t-39 13q-50 0 -124 -84q-23 -27 -60.5 -77.5t-88.5 -124.5
q-20 -29 -44 -61t-50 -66q14 -3 29 -3zM78 -21q19 0 42.5 13.5t45.5 33.5t36 39q-14 20 -30 48t-35 65q-23 48 -35 43q-18 -3 -39 -64t-21 -114q0 -64 36 -64z" />
    <glyph glyph-name="uni01C7" unicode="&#x1c7;" horiz-adv-x="1480" 
d="M545 -109q-56 0 -115 16.5t-111.5 48.5t-90.5 76q-80 -80 -152 -80q-37 0 -55 21.5t-18 55.5q0 63 48 148q45 80 72 84q20 0 41 -41l63 -122q53 71 111 153q-82 37 -82 107q0 30 14.5 55.5t37.5 41.5t47 16q33 0 48 -31q2 -3 0.5 -6t-3.5 -2q-7 8 -20 14t-24 6
q-21 0 -38.5 -16.5t-27 -38.5t-7.5 -39q0 -51 72 -89q17 25 37 54.5t43 63.5q199 292 331 292q93 0 93 -87q0 -79 -77 -186q-38 -53 -96 -95t-122.5 -66.5t-124.5 -24.5q-14 0 -27.5 1.5t-24.5 5.5q-26 -34 -60 -76t-75 -93q18 -25 51.5 -50t75.5 -44.5t83 -31.5t74 -12
q38 0 70 8.5t52 27t20 48.5v8t-1 8q0 2 -0.5 3t-0.5 2q0 10 6 10q10 0 16 -15.5t6 -24.5q0 -31 -24 -54.5t-60.5 -36.5t-74.5 -13zM432 246q51 0 109 23.5t109.5 62t83.5 83.5q91 127 91 193q0 28 -16 41t-39 13q-50 0 -124 -84q-23 -27 -60.5 -77.5t-88.5 -124.5
q-20 -29 -44 -61t-50 -66q14 -3 29 -3zM78 -21q19 0 42.5 13.5t45.5 33.5t36 39q-14 20 -30 48t-35 65q-23 48 -35 43q-18 -3 -39 -64t-21 -114q0 -64 36 -64zM880 -130q-83 0 -133 42.5t-50 116.5q0 50 22 91q28 55 76 100.5t104.5 73.5t109.5 28q68 0 106.5 -32t38.5 -84
q0 -28 -11.5 -54t-28.5 -44q-25 -28 -40 -28q-4 0 -4 4q0 3 3 9q36 53 36 102q0 44 -28 73t-75 29q-45 0 -90 -26.5t-82.5 -69t-61.5 -91.5q-25 -49 -25 -95q0 -61 39.5 -92.5t103.5 -31.5q255 0 532 446q166 266 170 326l-59 3q-24 1 -57 -5.5t-66 -18.5t-59.5 -29
t-37.5 -37q-9 -15 -9 -29q0 -22 19 -44t19 -26q0 -5 -12 -7q-3 -1 -8 -1q-21 0 -40 19q-22 22 -22 53q0 28 18 52q25 34 69.5 54t96 28.5t97.5 7.5q9 0 49 -3q-2 13 10.5 24.5t28.5 11.5q30 0 29 -43q108 -19 114 -58q1 -4 1 -8v-7q0 -20 -11 -20q-9 0 -9 13v5t1 6
q-25 37 -99 52q-18 -81 -188 -352q-52 -83 -120 -160.5t-145 -139.5t-159 -98t-163 -36z" />
    <glyph glyph-name="Lacute" unicode="&#x139;" horiz-adv-x="658" 
d="M545 -109q-56 0 -115 16.5t-111.5 48.5t-90.5 76q-80 -80 -152 -80q-37 0 -55 21.5t-18 55.5q0 63 48 148q45 80 72 84q20 0 41 -41l63 -122q53 71 111 153q-82 37 -82 107q0 30 14.5 55.5t37.5 41.5t47 16q33 0 48 -31q2 -3 0.5 -6t-3.5 -2q-7 8 -20 14t-24 6
q-21 0 -38.5 -16.5t-27 -38.5t-7.5 -39q0 -51 72 -89q17 25 37 54.5t43 63.5q199 292 331 292q93 0 93 -87q0 -79 -77 -186q-38 -53 -96 -95t-122.5 -66.5t-124.5 -24.5q-14 0 -27.5 1.5t-24.5 5.5q-26 -34 -60 -76t-75 -93q18 -25 51.5 -50t75.5 -44.5t83 -31.5t74 -12
q38 0 70 8.5t52 27t20 48.5v8t-1 8q0 2 -0.5 3t-0.5 2q0 10 6 10q10 0 16 -15.5t6 -24.5q0 -31 -24 -54.5t-60.5 -36.5t-74.5 -13zM432 246q51 0 109 23.5t109.5 62t83.5 83.5q91 127 91 193q0 28 -16 41t-39 13q-50 0 -124 -84q-23 -27 -60.5 -77.5t-88.5 -124.5
q-20 -29 -44 -61t-50 -66q14 -3 29 -3zM78 -21q19 0 42.5 13.5t45.5 33.5t36 39q-14 20 -30 48t-35 65q-23 48 -35 43q-18 -3 -39 -64t-21 -114q0 -64 36 -64zM798 744q-7 -2 -7 6q0 4 4 7l97 78q11 9 17 9q5 0 12.5 -6.5t7.5 -13.5t-4 -11.5t-9 -8.5q-6 -4 -20 -12.5
t-40 -21.5q-23 -11 -37.5 -17.5t-20.5 -8.5z" />
    <glyph glyph-name="Lcaron" unicode="&#x13d;" horiz-adv-x="658" 
d="M545 -109q-56 0 -115 16.5t-111.5 48.5t-90.5 76q-80 -80 -152 -80q-37 0 -55 21.5t-18 55.5q0 63 48 148q45 80 72 84q20 0 41 -41l63 -122q53 71 111 153q-82 37 -82 107q0 30 14.5 55.5t37.5 41.5t47 16q33 0 48 -31q2 -3 0.5 -6t-3.5 -2q-7 8 -20 14t-24 6
q-21 0 -38.5 -16.5t-27 -38.5t-7.5 -39q0 -51 72 -89q17 25 37 54.5t43 63.5q199 292 331 292q93 0 93 -87q0 -79 -77 -186q-38 -53 -96 -95t-122.5 -66.5t-124.5 -24.5q-14 0 -27.5 1.5t-24.5 5.5q-26 -34 -60 -76t-75 -93q18 -25 51.5 -50t75.5 -44.5t83 -31.5t74 -12
q38 0 70 8.5t52 27t20 48.5v8t-1 8q0 2 -0.5 3t-0.5 2q0 10 6 10q10 0 16 -15.5t6 -24.5q0 -31 -24 -54.5t-60.5 -36.5t-74.5 -13zM432 246q51 0 109 23.5t109.5 62t83.5 83.5q91 127 91 193q0 28 -16 41t-39 13q-50 0 -124 -84q-23 -27 -60.5 -77.5t-88.5 -124.5
q-20 -29 -44 -61t-50 -66q14 -3 29 -3zM78 -21q19 0 42.5 13.5t45.5 33.5t36 39q-14 20 -30 48t-35 65q-23 48 -35 43q-18 -3 -39 -64t-21 -114q0 -64 36 -64zM770 835q5 0 11.5 -10t17.5 -25q5 -5 7 -11.5t5 -12.5q17 8 43 22.5t42 21.5q8 4 21.5 9.5t20.5 5.5q10 0 10 -6
q0 -4 -6.5 -11t-12.5 -11q-22 -10 -50 -25t-51 -26.5t-30 -11.5q-12 0 -20.5 12t-16.5 29q-2 7 -4 13.5t-2 13.5q0 23 15 23z" />
    <glyph glyph-name="uni013B" unicode="&#x13b;" horiz-adv-x="658" 
d="M545 -109q-56 0 -115 16.5t-111.5 48.5t-90.5 76q-80 -80 -152 -80q-37 0 -55 21.5t-18 55.5q0 63 48 148q45 80 72 84q20 0 41 -41l63 -122q53 71 111 153q-82 37 -82 107q0 30 14.5 55.5t37.5 41.5t47 16q33 0 48 -31q2 -3 0.5 -6t-3.5 -2q-7 8 -20 14t-24 6
q-21 0 -38.5 -16.5t-27 -38.5t-7.5 -39q0 -51 72 -89q17 25 37 54.5t43 63.5q199 292 331 292q93 0 93 -87q0 -79 -77 -186q-38 -53 -96 -95t-122.5 -66.5t-124.5 -24.5q-14 0 -27.5 1.5t-24.5 5.5q-26 -34 -60 -76t-75 -93q18 -25 51.5 -50t75.5 -44.5t83 -31.5t74 -12
q38 0 70 8.5t52 27t20 48.5v8t-1 8q0 2 -0.5 3t-0.5 2q0 10 6 10q10 0 16 -15.5t6 -24.5q0 -31 -24 -54.5t-60.5 -36.5t-74.5 -13zM432 246q51 0 109 23.5t109.5 62t83.5 83.5q91 127 91 193q0 28 -16 41t-39 13q-50 0 -124 -84q-23 -27 -60.5 -77.5t-88.5 -124.5
q-20 -29 -44 -61t-50 -66q14 -3 29 -3zM78 -21q19 0 42.5 13.5t45.5 33.5t36 39q-14 20 -30 48t-35 65q-23 48 -35 43q-18 -3 -39 -64t-21 -114q0 -64 36 -64zM155 -263q-4 1 -4 3q0 1 23 27t20 46q-1 11 -14 19.5t-13 17.5q0 30 29 30q14 0 28 -9.5t14 -24.5q0 -42 -35 -80
q-32 -33 -48 -29z" />
    <glyph glyph-name="Ldot" unicode="&#x13f;" horiz-adv-x="658" 
d="M545 -109q-56 0 -115 16.5t-111.5 48.5t-90.5 76q-80 -80 -152 -80q-37 0 -55 21.5t-18 55.5q0 63 48 148q45 80 72 84q20 0 41 -41l63 -122q53 71 111 153q-82 37 -82 107q0 30 14.5 55.5t37.5 41.5t47 16q33 0 48 -31q2 -3 0.5 -6t-3.5 -2q-7 8 -20 14t-24 6
q-21 0 -38.5 -16.5t-27 -38.5t-7.5 -39q0 -51 72 -89q17 25 37 54.5t43 63.5q199 292 331 292q93 0 93 -87q0 -79 -77 -186q-38 -53 -96 -95t-122.5 -66.5t-124.5 -24.5q-14 0 -27.5 1.5t-24.5 5.5q-26 -34 -60 -76t-75 -93q18 -25 51.5 -50t75.5 -44.5t83 -31.5t74 -12
q38 0 70 8.5t52 27t20 48.5v8t-1 8q0 2 -0.5 3t-0.5 2q0 10 6 10q10 0 16 -15.5t6 -24.5q0 -31 -24 -54.5t-60.5 -36.5t-74.5 -13zM432 246q51 0 109 23.5t109.5 62t83.5 83.5q91 127 91 193q0 28 -16 41t-39 13q-50 0 -124 -84q-23 -27 -60.5 -77.5t-88.5 -124.5
q-20 -29 -44 -61t-50 -66q14 -3 29 -3zM78 -21q19 0 42.5 13.5t45.5 33.5t36 39q-14 20 -30 48t-35 65q-23 48 -35 43q-18 -3 -39 -64t-21 -114q0 -64 36 -64zM559 105q-17 0 -29.5 10.5t-12.5 24.5q0 29 38 29q14 0 28 -9.5t14 -24.5q0 -12 -13 -21t-25 -9z" />
    <glyph glyph-name="Lslash" unicode="&#x141;" horiz-adv-x="658" 
d="M545 -109q-56 0 -115 16.5t-111.5 48.5t-90.5 76q-80 -80 -152 -80q-22 0 -38 8q-35 20 -35 69q0 63 48 148q45 80 72 84q18 0 41 -41l63 -122l46 62q-2 0 -4 0.5t-4 0.5q-60 5 -60 14q0 8 6.5 12t10.5 4q-1 0 6 0t20 1h48q11 14 21 29t21 30q-82 37 -82 107q0 23 10 46
q11 28 37 47.5t52 19.5q33 0 48 -31q2 -3 0.5 -6t-3.5 -2q-7 8 -19.5 14t-23.5 6q-21 1 -39 -15.5t-27.5 -39t-7.5 -39.5q0 -51 72 -89q17 25 37 54.5t43 63.5q199 292 331 292q93 0 93 -87q0 -79 -77 -186q-60 -84 -164 -137q-95 -49 -179 -49q-14 0 -27.5 1.5t-24.5 5.5
l-27 -35h1q35 -1 60 -0.5t41 1.5q5 -11 -53 -21l-75 -12l-82 -102q18 -25 51.5 -50t75.5 -44.5t83 -31.5t74 -12q24 0 51 3.5t47 14.5q23 12 33.5 29.5t10.5 36.5v8t-1 8q-1 8 1 11.5t4 3.5q10 0 16 -15.5t6 -24.5q0 -35 -37 -66q-47 -38 -122 -38zM432 246q70 0 156 46
q94 50 146 123q91 127 91 193q0 40 -35 51q-9 3 -20 3q-50 0 -124 -84q-23 -27 -60.5 -77.5t-88.5 -124.5q-20 -29 -44 -61t-50 -66q14 -3 29 -3zM78 -21q26 0 64 28q35 26 60 58q-14 20 -30 48t-35 65q-23 48 -35 43q-18 -3 -39 -64t-21 -114q0 -64 36 -64z" />
    <glyph glyph-name="M" unicode="M" horiz-adv-x="1136" 
d="M945 -67q-18 0 -24 9q-18 26 -18 63q0 86 92 247q59 101 182 272q-52 -43 -113 -99t-131 -124q-91 -89 -148.5 -156.5t-82.5 -111.5q-26 -47 -63 -47q-17 0 -17 12q0 4 3 8q17 27 44 71.5t64 106.5q108 188 155 299q17 42 17 61q0 16 -11 16q-15 0 -47 -27
q-111 -93 -249 -259q-58 -69 -101.5 -127.5t-73.5 -105.5q-24 -37 -24 -53q0 -6 4.5 -8.5l4.5 -2.5q0 -1 -18 -15q-16 -8 -36 -8q-41 0 -35 19q14 45 93 163q103 153 134 209q67 121 67 193q0 50 -26 71t-79 21q-117 0 -242 -101q-54 -44 -101 -99.5t-76 -115.5t-29 -118
q0 -104 98 -104q115 0 178 83q24 33 24 62q0 17 -10 23q-1 1 -1 3q0 4 6 4q26 0 26 -34q0 -21 -18 -53q-23 -40 -69 -68q-58 -36 -128 -36q-68 0 -109 43t-41 113q0 158 206 323q38 30 90.5 51.5t108.5 33t103 11.5q68 0 103.5 -22.5t35.5 -78.5q0 -70 -57 -189
q-18 -37 -81 -135l77 98q29 38 78 90t116 118q29 28 66 48t63 20q36 0 36 -38q0 -33 -27 -90q-36 -76 -90 -177q-17 -31 -23 -53t-8 -25q4 5 19.5 23.5t43.5 50.5q34 38 81 83.5t108 97.5l160 132q19 16 34 16q14 0 20.5 -16.5t13.5 -42.5q5 -17 -48 -71
q-125 -128 -216 -286q-83 -146 -83 -211q0 -29 19 -29q12 0 60 21q42 19 55 22q5 -2 5 -5q0 -15 -53 -42q-52 -27 -87 -27z" />
    <glyph glyph-name="N" unicode="N" horiz-adv-x="925" 
d="M753 -96q-25 0 -33.5 24t-8.5 48q0 86 92 247q59 101 182 272q-133 -12 -344 -210q-168 -159 -239 -273q-24 -37 -24 -53q0 -7 4.5 -9l4.5 -2q0 -2 -19 -15q-14 -8 -35 -8q-42 0 -36 19q14 44 93 162q103 153 134 209q68 122 68 193q0 50 -24.5 69t-68.5 19
q-119 0 -253 -109q-55 -45 -102 -99.5t-76 -112.5t-29 -114q0 -96 89 -98q124 -3 187 83q24 33 24 62q0 17 -11 23q-1 1 -1 3q0 4 6 4q26 0 26 -34q0 -21 -17 -53q-28 -48 -83 -76t-114 -28q-65 0 -104 39t-39 105q0 156 214 328q36 29 88 52t107.5 36t102.5 13
q59 0 93.5 -22.5t34.5 -77.5q0 -71 -58 -188q-13 -26 -33 -60t-47 -75q31 39 101 99q126 106 233 174.5t195 100.5q9 4 20 4q38 0 48 -43q5 -17 -48 -71q-125 -128 -216 -286q-83 -146 -83 -212q0 -28 19 -28q12 0 60 21q42 19 55 22q5 -2 5 -5q0 -15 -53 -42
q-52 -27 -87 -27z" />
    <glyph glyph-name="uni01CA" unicode="&#x1ca;" horiz-adv-x="1747" 
d="M753 -96q-25 0 -33.5 24t-8.5 48q0 86 92 247q59 101 182 272q-133 -12 -344 -210q-168 -159 -239 -273q-24 -37 -24 -53q0 -7 4.5 -9l4.5 -2q0 -2 -19 -15q-14 -8 -35 -8q-42 0 -36 19q14 44 93 162q103 153 134 209q68 122 68 193q0 50 -24.5 69t-68.5 19
q-119 0 -253 -109q-55 -45 -102 -99.5t-76 -112.5t-29 -114q0 -96 89 -98q124 -3 187 83q24 33 24 62q0 17 -11 23q-1 1 -1 3q0 4 6 4q26 0 26 -34q0 -21 -17 -53q-28 -48 -83 -76t-114 -28q-65 0 -104 39t-39 105q0 156 214 328q36 29 88 52t107.5 36t102.5 13
q59 0 93.5 -22.5t34.5 -77.5q0 -71 -58 -188q-13 -26 -33 -60t-47 -75q31 39 101 99q126 106 233 174.5t195 100.5q9 4 20 4q38 0 48 -43q5 -17 -48 -71q-125 -128 -216 -286q-83 -146 -83 -212q0 -28 19 -28q12 0 60 21q42 19 55 22q5 -2 5 -5q0 -15 -53 -42
q-52 -27 -87 -27zM1147 -130q-83 0 -133 42.5t-50 116.5q0 50 22 91q28 55 76 100.5t104.5 73.5t109.5 28q68 0 106.5 -32t38.5 -84q0 -28 -11.5 -54t-28.5 -44q-25 -28 -40 -28q-4 0 -4 4q0 3 3 9q36 53 36 102q0 44 -28 73t-75 29q-45 0 -90 -26.5t-82.5 -69t-61.5 -91.5
q-25 -49 -25 -95q0 -61 39.5 -92.5t103.5 -31.5q255 0 532 446q166 266 170 326l-59 3q-24 1 -57 -5.5t-66 -18.5t-59.5 -29t-37.5 -37q-9 -15 -9 -29q0 -22 19 -44t19 -26q0 -5 -12 -7q-3 -1 -8 -1q-21 0 -40 19q-22 22 -22 53q0 28 18 52q25 34 69.5 54t96 28.5t97.5 7.5
q9 0 49 -3q-2 13 10.5 24.5t28.5 11.5q30 0 29 -43q108 -19 114 -58q1 -4 1 -8v-7q0 -20 -11 -20q-9 0 -9 13v5t1 6q-25 37 -99 52q-18 -81 -188 -352q-52 -83 -120 -160.5t-145 -139.5t-159 -98t-163 -36z" />
    <glyph glyph-name="Nacute" unicode="&#x143;" horiz-adv-x="925" 
d="M753 -96q-25 0 -33.5 24t-8.5 48q0 86 92 247q59 101 182 272q-133 -12 -344 -210q-168 -159 -239 -273q-24 -37 -24 -53q0 -7 4.5 -9l4.5 -2q0 -2 -19 -15q-14 -8 -35 -8q-42 0 -36 19q14 44 93 162q103 153 134 209q68 122 68 193q0 50 -24.5 69t-68.5 19
q-119 0 -253 -109q-55 -45 -102 -99.5t-76 -112.5t-29 -114q0 -96 89 -98q124 -3 187 83q24 33 24 62q0 17 -11 23q-1 1 -1 3q0 4 6 4q26 0 26 -34q0 -21 -17 -53q-28 -48 -83 -76t-114 -28q-65 0 -104 39t-39 105q0 156 214 328q36 29 88 52t107.5 36t102.5 13
q59 0 93.5 -22.5t34.5 -77.5q0 -71 -58 -188q-13 -26 -33 -60t-47 -75q31 39 101 99q126 106 233 174.5t195 100.5q9 4 20 4q38 0 48 -43q5 -17 -48 -71q-125 -128 -216 -286q-83 -146 -83 -212q0 -28 19 -28q12 0 60 21q42 19 55 22q5 -2 5 -5q0 -15 -53 -42
q-52 -27 -87 -27zM782 667q-7 -2 -7 6q0 4 4 7l97 78q11 9 17 9q5 0 12.5 -6.5t7.5 -13.5t-4 -11.5t-9 -8.5q-6 -4 -20 -12.5t-40 -21.5q-23 -11 -37.5 -17.5t-20.5 -8.5z" />
    <glyph glyph-name="Ncaron" unicode="&#x147;" horiz-adv-x="925" 
d="M753 -96q-25 0 -33.5 24t-8.5 48q0 86 92 247q59 101 182 272q-133 -12 -344 -210q-168 -159 -239 -273q-24 -37 -24 -53q0 -7 4.5 -9l4.5 -2q0 -2 -19 -15q-14 -8 -35 -8q-42 0 -36 19q14 44 93 162q103 153 134 209q68 122 68 193q0 50 -24.5 69t-68.5 19
q-119 0 -253 -109q-55 -45 -102 -99.5t-76 -112.5t-29 -114q0 -96 89 -98q124 -3 187 83q24 33 24 62q0 17 -11 23q-1 1 -1 3q0 4 6 4q26 0 26 -34q0 -21 -17 -53q-28 -48 -83 -76t-114 -28q-65 0 -104 39t-39 105q0 156 214 328q36 29 88 52t107.5 36t102.5 13
q59 0 93.5 -22.5t34.5 -77.5q0 -71 -58 -188q-13 -26 -33 -60t-47 -75q31 39 101 99q126 106 233 174.5t195 100.5q9 4 20 4q38 0 48 -43q5 -17 -48 -71q-125 -128 -216 -286q-83 -146 -83 -212q0 -28 19 -28q12 0 60 21q42 19 55 22q5 -2 5 -5q0 -15 -53 -42
q-52 -27 -87 -27zM754 758q5 0 11.5 -10t17.5 -25q5 -5 7 -11.5t5 -12.5q17 8 43 22.5t42 21.5q8 4 21.5 9.5t20.5 5.5q10 0 10 -6q0 -4 -6.5 -11t-12.5 -11q-22 -10 -50 -25t-51 -26.5t-30 -11.5q-12 0 -20.5 12t-16.5 29q-2 7 -4 13.5t-2 13.5q0 23 15 23z" />
    <glyph glyph-name="uni0145" unicode="&#x145;" horiz-adv-x="925" 
d="M753 -96q-25 0 -33.5 24t-8.5 48q0 86 92 247q59 101 182 272q-133 -12 -344 -210q-168 -159 -239 -273q-24 -37 -24 -53q0 -7 4.5 -9l4.5 -2q0 -2 -19 -15q-14 -8 -35 -8q-42 0 -36 19q14 44 93 162q103 153 134 209q68 122 68 193q0 50 -24.5 69t-68.5 19
q-119 0 -253 -109q-55 -45 -102 -99.5t-76 -112.5t-29 -114q0 -96 89 -98q124 -3 187 83q24 33 24 62q0 17 -11 23q-1 1 -1 3q0 4 6 4q26 0 26 -34q0 -21 -17 -53q-28 -48 -83 -76t-114 -28q-65 0 -104 39t-39 105q0 156 214 328q36 29 88 52t107.5 36t102.5 13
q59 0 93.5 -22.5t34.5 -77.5q0 -71 -58 -188q-13 -26 -33 -60t-47 -75q31 39 101 99q126 106 233 174.5t195 100.5q9 4 20 4q38 0 48 -43q5 -17 -48 -71q-125 -128 -216 -286q-83 -146 -83 -212q0 -28 19 -28q12 0 60 21q42 19 55 22q5 -2 5 -5q0 -15 -53 -42
q-52 -27 -87 -27zM474 -203q-4 1 -4 3q0 1 23 27t20 46q-1 11 -14 19.5t-13 17.5q0 30 29 30q14 0 28 -9.5t14 -24.5q0 -42 -35 -80q-32 -33 -48 -29z" />
    <glyph glyph-name="Ntilde" unicode="&#xd1;" horiz-adv-x="925" 
d="M753 -96q-25 0 -33.5 24t-8.5 48q0 86 92 247q59 101 182 272q-133 -12 -344 -210q-168 -159 -239 -273q-24 -37 -24 -53q0 -7 4.5 -9l4.5 -2q0 -2 -19 -15q-14 -8 -35 -8q-42 0 -36 19q14 44 93 162q103 153 134 209q68 122 68 193q0 50 -24.5 69t-68.5 19
q-119 0 -253 -109q-55 -45 -102 -99.5t-76 -112.5t-29 -114q0 -96 89 -98q124 -3 187 83q24 33 24 62q0 17 -11 23q-1 1 -1 3q0 4 6 4q26 0 26 -34q0 -21 -17 -53q-28 -48 -83 -76t-114 -28q-65 0 -104 39t-39 105q0 156 214 328q36 29 88 52t107.5 36t102.5 13
q59 0 93.5 -22.5t34.5 -77.5q0 -71 -58 -188q-13 -26 -33 -60t-47 -75q31 39 101 99q126 106 233 174.5t195 100.5q9 4 20 4q38 0 48 -43q5 -17 -48 -71q-125 -128 -216 -286q-83 -146 -83 -212q0 -28 19 -28q12 0 60 21q42 19 55 22q5 -2 5 -5q0 -15 -53 -42
q-52 -27 -87 -27zM866 670q-8 0 -20 3.5t-28 10.5q-30 15 -45 15q-7 0 -15.5 -3t-16.5 -11q-14 -14 -20 -14q-1 1 -1 2q0 17 41 45q14 11 34 11q15 0 45 -12q15 -6 26 -8.5t18 -2.5q22 0 40 23q5 0 5 -4q0 -18 -37 -46q-12 -9 -26 -9z" />
    <glyph glyph-name="O" unicode="O" horiz-adv-x="784" 
d="M245 -59h-22t-22 1q-79 4 -128 52t-49 131q0 72 41 163q52 115 196 218q83 59 177 94.5t190 35.5q56 0 102.5 -15t74 -45t27.5 -76q0 -16 -4 -33.5t-13 -34.5l-11 -21q8 -27 8 -55q0 -125 -128 -239q-196 -176 -439 -176zM239 -39q197 0 375 159q128 114 138 217
q-52 -57 -180 -136l-8 -2q-8 0 26 28l56 46q36 30 62 56t43 47q-7 56 -54 96q-40 35 -96 52q-28 7 -92 9q-53 2 -53 5q0 1 2 3q47 15 90 15q20 0 44 -3t52 -10q105 -25 147 -102q10 24 10 49q0 41 -23.5 69t-63 42t-87.5 14q-151 0 -290 -97q-129 -90 -204 -232
q-55 -103 -55 -185q0 -132 133 -139q7 -1 14 -1h14z" />
    <glyph glyph-name="OE" unicode="&#x152;" horiz-adv-x="1324" 
d="M926 -79q-144 -7 -222 42q-68 44 -68 114q-180 -136 -393 -136h-20.5t-21.5 1q-79 4 -128 52t-49 131q0 72 41 163q52 115 196 218q159 114 327 128q10 1 20 1.5t20 0.5q100 0 153 -40q51 -37 51 -96q0 -32 -17 -68l-11 -21q8 -27 8 -55q0 -15 -2 -29.5t-5 -28.5
q72 47 171 78q-33 38 -33 86q0 39 21 67q41 56 124 93q81 35 166 41q79 5 118 -16.5t37 -63.5q-2 -35 -29 -60q-28 -26 -59 -26t-31 15q0 9 13 9q4 0 10.5 -1.5t9.5 -1.5q21 0 37 22t16 44q0 34 -39 50q-31 12 -78 9q-85 -4 -168 -60q-96 -63 -96 -142q0 -29 20 -54
q37 11 70 16t62 4q88 -1 88 -37q0 -7 -6 -18q-24 -37 -87 -37q-41 0 -86 15q-40 14 -63 30q-64 -19 -118 -51t-95 -74q-23 -43 -60 -83q-1 -1 -1 -1.5v-0.5q-19 -38 -19 -74q0 -56 44 -89q49 -37 139 -37q25 0 52 3q159 17 253 102q79 70 79 147q0 61 -59 61q-71 0 -163 -76
q-23 -19 -39 -48t-16 -53q0 -32 28 -39q10 -4 10 -10q0 -10 -20 -8q-48 2 -48 59q0 66 63 120q86 74 182 74q72 0 91 -45q8 -21 8 -42q0 -93 -103 -175q-112 -91 -275 -99zM211 -38q212 -12 403 158q128 114 138 217q-52 -57 -180 -136l-8 -2q-8 0 26 28l56 46
q35 31 61.5 56.5t43.5 46.5q-7 56 -54 96q-40 35 -96 52q-28 7 -92 9q-53 2 -53 5q0 1 2 3q47 15 90 15q20 0 44 -3t52 -10q105 -25 147 -102q10 24 10 49q0 34 -22 65q-43 60 -152 60q-151 0 -290 -97q-129 -90 -204 -232q-55 -103 -55 -185q0 -132 133 -139zM1133 337
q54 0 54 31q0 14 -54 14q-24 0 -49.5 -3t-51.5 -8q20 -16 41 -23q30 -11 60 -11z" />
    <glyph glyph-name="Oacute" unicode="&#xd3;" horiz-adv-x="784" 
d="M245 -59h-22t-22 1q-79 4 -128 52t-49 131q0 72 41 163q52 115 196 218q83 59 177 94.5t190 35.5q56 0 102.5 -15t74 -45t27.5 -76q0 -16 -4 -33.5t-13 -34.5l-11 -21q8 -27 8 -55q0 -125 -128 -239q-196 -176 -439 -176zM239 -39q197 0 375 159q128 114 138 217
q-52 -57 -180 -136l-8 -2q-8 0 26 28l56 46q36 30 62 56t43 47q-7 56 -54 96q-40 35 -96 52q-28 7 -92 9q-53 2 -53 5q0 1 2 3q47 15 90 15q20 0 44 -3t52 -10q105 -25 147 -102q10 24 10 49q0 41 -23.5 69t-63 42t-87.5 14q-151 0 -290 -97q-129 -90 -204 -232
q-55 -103 -55 -185q0 -132 133 -139q7 -1 14 -1h14zM603 680q-8 0 -8 6q0 5 10 9q29 12 55 24t47 22q9 5 15 6t9 1q6 0 11 -8.5t5 -16.5q0 -7 -6.5 -11t-11.5 -6q-7 -3 -22 -8t-40 -10q-37 -8 -64 -8z" />
    <glyph glyph-name="Obreve" unicode="&#x14e;" horiz-adv-x="784" 
d="M245 -59h-22t-22 1q-79 4 -128 52t-49 131q0 72 41 163q52 115 196 218q83 59 177 94.5t190 35.5q56 0 102.5 -15t74 -45t27.5 -76q0 -16 -4 -33.5t-13 -34.5l-11 -21q8 -27 8 -55q0 -125 -128 -239q-196 -176 -439 -176zM239 -39q197 0 375 159q128 114 138 217
q-52 -57 -180 -136l-8 -2q-8 0 26 28l56 46q36 30 62 56t43 47q-7 56 -54 96q-40 35 -96 52q-28 7 -92 9q-53 2 -53 5q0 1 2 3q47 15 90 15q20 0 44 -3t52 -10q105 -25 147 -102q10 24 10 49q0 41 -23.5 69t-63 42t-87.5 14q-151 0 -290 -97q-129 -90 -204 -232
q-55 -103 -55 -185q0 -132 133 -139q7 -1 14 -1h14zM629 683q-19 0 -33 10.5t-14 36.5q0 1 0.5 9t4 15.5t10.5 7.5q5 0 7 -5.5t4 -13.5q3 -12 9 -16.5t24 -4.5q17 0 32 5t37 23q5 5 16.5 13t11.5 0q0 -11 -11 -26q-16 -22 -43.5 -38t-54.5 -16z" />
    <glyph glyph-name="Ocircumflex" unicode="&#xd4;" horiz-adv-x="784" 
d="M245 -59h-22t-22 1q-79 4 -128 52t-49 131q0 72 41 163q52 115 196 218q83 59 177 94.5t190 35.5q56 0 102.5 -15t74 -45t27.5 -76q0 -16 -4 -33.5t-13 -34.5l-11 -21q8 -27 8 -55q0 -125 -128 -239q-196 -176 -439 -176zM239 -39q197 0 375 159q128 114 138 217
q-52 -57 -180 -136l-8 -2q-8 0 26 28l56 46q36 30 62 56t43 47q-7 56 -54 96q-40 35 -96 52q-28 7 -92 9q-53 2 -53 5q0 1 2 3q47 15 90 15q20 0 44 -3t52 -10q105 -25 147 -102q10 24 10 49q0 41 -23.5 69t-63 42t-87.5 14q-151 0 -290 -97q-129 -90 -204 -232
q-55 -103 -55 -185q0 -132 133 -139q7 -1 14 -1h14zM567 666q-2 0 -4 6t2 8q5 4 17 12.5t28 19.5q23 14 37.5 24.5t24.5 10.5q9 0 15 -6t13 -14l14.5 -14.5l13.5 -13.5q5 -5 10 -11t5 -12q0 -4 -4.5 -8.5t-14.5 -5.5q-7 0 -13.5 5t-14.5 12q-8 8 -17 18t-16 18
q-15 -8 -46 -25q-17 -10 -29.5 -17t-20.5 -7z" />
    <glyph glyph-name="uni1ED0" unicode="&#x1ed0;" horiz-adv-x="784" 
d="M245 -59h-22t-22 1q-79 4 -128 52t-49 131q0 72 41 163q52 115 196 218q83 59 177 94.5t190 35.5q56 0 102.5 -15t74 -45t27.5 -76q0 -16 -4 -33.5t-13 -34.5l-11 -21q8 -27 8 -55q0 -125 -128 -239q-196 -176 -439 -176zM239 -39q197 0 375 159q128 114 138 217
q-52 -57 -180 -136l-8 -2q-8 0 26 28l56 46q36 30 62 56t43 47q-7 56 -54 96q-40 35 -96 52q-28 7 -92 9q-53 2 -53 5q0 1 2 3q47 15 90 15q20 0 44 -3t52 -10q105 -25 147 -102q10 24 10 49q0 41 -23.5 69t-63 42t-87.5 14q-151 0 -290 -97q-129 -90 -204 -232
q-55 -103 -55 -185q0 -132 133 -139q7 -1 14 -1h14zM567 666q-2 0 -4 6t2 8q5 4 17 12.5t28 19.5q23 14 37.5 24.5t24.5 10.5q9 0 15 -6t13 -14l14.5 -14.5l13.5 -13.5q5 -5 10 -11t5 -12q0 -4 -4.5 -8.5t-14.5 -5.5q-7 0 -13.5 5t-14.5 12q-8 8 -17 18t-16 18
q-15 -8 -46 -25q-17 -10 -29.5 -17t-20.5 -7zM609 767q-8 0 -8 6q0 5 10 9q29 12 55 24t47 22q9 5 15 6t9 1q6 0 11 -8.5t5 -16.5q0 -7 -6.5 -11t-11.5 -6q-7 -3 -22 -8t-40 -10q-37 -8 -64 -8z" />
    <glyph glyph-name="uni1ED8" unicode="&#x1ed8;" horiz-adv-x="784" 
d="M245 -59h-22t-22 1q-79 4 -128 52t-49 131q0 72 41 163q52 115 196 218q83 59 177 94.5t190 35.5q56 0 102.5 -15t74 -45t27.5 -76q0 -16 -4 -33.5t-13 -34.5l-11 -21q8 -27 8 -55q0 -125 -128 -239q-196 -176 -439 -176zM239 -39q197 0 375 159q128 114 138 217
q-52 -57 -180 -136l-8 -2q-8 0 26 28l56 46q36 30 62 56t43 47q-7 56 -54 96q-40 35 -96 52q-28 7 -92 9q-53 2 -53 5q0 1 2 3q47 15 90 15q20 0 44 -3t52 -10q105 -25 147 -102q10 24 10 49q0 41 -23.5 69t-63 42t-87.5 14q-151 0 -290 -97q-129 -90 -204 -232
q-55 -103 -55 -185q0 -132 133 -139q7 -1 14 -1h14zM120 -192q-7 0 -14 10.5t-7 18.5q0 15 29 36q20 12 30 11t5 -9l-16 -40q-12 -27 -27 -27zM567 666q-2 0 -4 6t2 8q5 4 17 12.5t28 19.5q23 14 37.5 24.5t24.5 10.5q9 0 15 -6t13 -14l14.5 -14.5l13.5 -13.5q5 -5 10 -11
t5 -12q0 -4 -4.5 -8.5t-14.5 -5.5q-7 0 -13.5 5t-14.5 12q-8 8 -17 18t-16 18q-15 -8 -46 -25q-17 -10 -29.5 -17t-20.5 -7z" />
    <glyph glyph-name="uni1ED2" unicode="&#x1ed2;" horiz-adv-x="784" 
d="M245 -59h-22t-22 1q-79 4 -128 52t-49 131q0 72 41 163q52 115 196 218q83 59 177 94.5t190 35.5q56 0 102.5 -15t74 -45t27.5 -76q0 -16 -4 -33.5t-13 -34.5l-11 -21q8 -27 8 -55q0 -125 -128 -239q-196 -176 -439 -176zM239 -39q197 0 375 159q128 114 138 217
q-52 -57 -180 -136l-8 -2q-8 0 26 28l56 46q36 30 62 56t43 47q-7 56 -54 96q-40 35 -96 52q-28 7 -92 9q-53 2 -53 5q0 1 2 3q47 15 90 15q20 0 44 -3t52 -10q105 -25 147 -102q10 24 10 49q0 41 -23.5 69t-63 42t-87.5 14q-151 0 -290 -97q-129 -90 -204 -232
q-55 -103 -55 -185q0 -132 133 -139q7 -1 14 -1h14zM567 666q-2 0 -4 6t2 8q5 4 17 12.5t28 19.5q23 14 37.5 24.5t24.5 10.5q9 0 15 -6t13 -14l14.5 -14.5l13.5 -13.5q5 -5 10 -11t5 -12q0 -4 -4.5 -8.5t-14.5 -5.5q-7 0 -13.5 5t-14.5 12q-8 8 -17 18t-16 18
q-15 -8 -46 -25q-17 -10 -29.5 -17t-20.5 -7zM757 775q-27 0 -64 8q-25 5 -40 10t-22 8q-5 2 -11.5 6t-6.5 11q0 8 5 16.5t11 8.5q3 0 9 -1t15 -6q21 -10 47 -22t55 -24q10 -4 10 -9q0 -6 -8 -6z" />
    <glyph glyph-name="uni1ED4" unicode="&#x1ed4;" horiz-adv-x="784" 
d="M245 -59h-22t-22 1q-79 4 -128 52t-49 131q0 72 41 163q52 115 196 218q83 59 177 94.5t190 35.5q56 0 102.5 -15t74 -45t27.5 -76q0 -16 -4 -33.5t-13 -34.5l-11 -21q8 -27 8 -55q0 -125 -128 -239q-196 -176 -439 -176zM239 -39q197 0 375 159q128 114 138 217
q-52 -57 -180 -136l-8 -2q-8 0 26 28l56 46q36 30 62 56t43 47q-7 56 -54 96q-40 35 -96 52q-28 7 -92 9q-53 2 -53 5q0 1 2 3q47 15 90 15q20 0 44 -3t52 -10q105 -25 147 -102q10 24 10 49q0 41 -23.5 69t-63 42t-87.5 14q-151 0 -290 -97q-129 -90 -204 -232
q-55 -103 -55 -185q0 -132 133 -139q7 -1 14 -1h14zM567 666q-2 0 -4 6t2 8q5 4 17 12.5t28 19.5q23 14 37.5 24.5t24.5 10.5q9 0 15 -6t13 -14l14.5 -14.5l13.5 -13.5q5 -5 10 -11t5 -12q0 -4 -4.5 -8.5t-14.5 -5.5q-7 0 -13.5 5t-14.5 12q-8 8 -17 18t-16 18
q-15 -8 -46 -25q-17 -10 -29.5 -17t-20.5 -7zM794 737q-4 0 -5 3t1 4q20 14 36 25.5t16 27.5q0 15 -17 15q-10 0 -24.5 -6t-25.5 -17l-0.5 -0.5t-1.5 -0.5t-2 2t0 4q8 23 28.5 35t46.5 10q13 -1 20 -10.5t7 -20.5q0 -15 -7.5 -26t-20.5 -19q-19 -12 -31 -19t-17 -7h-3z" />
    <glyph glyph-name="uni1ED6" unicode="&#x1ed6;" horiz-adv-x="784" 
d="M245 -59h-22t-22 1q-79 4 -128 52t-49 131q0 72 41 163q52 115 196 218q83 59 177 94.5t190 35.5q56 0 102.5 -15t74 -45t27.5 -76q0 -16 -4 -33.5t-13 -34.5l-11 -21q8 -27 8 -55q0 -125 -128 -239q-196 -176 -439 -176zM239 -39q197 0 375 159q128 114 138 217
q-52 -57 -180 -136l-8 -2q-8 0 26 28l56 46q36 30 62 56t43 47q-7 56 -54 96q-40 35 -96 52q-28 7 -92 9q-53 2 -53 5q0 1 2 3q47 15 90 15q20 0 44 -3t52 -10q105 -25 147 -102q10 24 10 49q0 41 -23.5 69t-63 42t-87.5 14q-151 0 -290 -97q-129 -90 -204 -232
q-55 -103 -55 -185q0 -132 133 -139q7 -1 14 -1h14zM567 666q-2 0 -4 6t2 8q5 4 17 12.5t28 19.5q23 14 37.5 24.5t24.5 10.5q9 0 15 -6t13 -14l14.5 -14.5l13.5 -13.5q5 -5 10 -11t5 -12q0 -4 -4.5 -8.5t-14.5 -5.5q-7 0 -13.5 5t-14.5 12q-8 8 -17 18t-16 18
q-15 -8 -46 -25q-17 -10 -29.5 -17t-20.5 -7zM732 769q-8 0 -20 3.5t-28 10.5q-30 15 -45 15q-7 0 -15.5 -3t-16.5 -11q-14 -14 -20 -14q-1 1 -1 2q0 17 41 45q14 11 34 11q15 0 45 -12q15 -6 26 -8.5t18 -2.5q22 0 40 23q5 0 5 -4q0 -18 -37 -46q-12 -9 -26 -9z" />
    <glyph glyph-name="uni020C" unicode="&#x20c;" horiz-adv-x="784" 
d="M245 -59h-22t-22 1q-79 4 -128 52t-49 131q0 72 41 163q52 115 196 218q83 59 177 94.5t190 35.5q56 0 102.5 -15t74 -45t27.5 -76q0 -16 -4 -33.5t-13 -34.5l-11 -21q8 -27 8 -55q0 -125 -128 -239q-196 -176 -439 -176zM239 -39q197 0 375 159q128 114 138 217
q-52 -57 -180 -136l-8 -2q-8 0 26 28l56 46q36 30 62 56t43 47q-7 56 -54 96q-40 35 -96 52q-28 7 -92 9q-53 2 -53 5q0 1 2 3q47 15 90 15q20 0 44 -3t52 -10q105 -25 147 -102q10 24 10 49q0 41 -23.5 69t-63 42t-87.5 14q-151 0 -290 -97q-129 -90 -204 -232
q-55 -103 -55 -185q0 -132 133 -139q7 -1 14 -1h14zM729 675q-6 2 -19.5 10t-38.5 25q-20 15 -31.5 26t-16.5 18q-3 4 -6.5 9.5t-2.5 10.5q1 7 10 13.5t13 5.5q6 -1 15 -12l82 -94q3 -2 3 -7q-2 -8 -8 -5zM629 675l-21 7t-42 18q-22 11 -36 20t-19 14l-8.5 8.5t-4.5 10.5
q0 7 8 14.5t12 7.5q7 0 17 -9l97 -78q4 -3 4 -7q0 -8 -7 -6z" />
    <glyph glyph-name="Odieresis" unicode="&#xd6;" horiz-adv-x="784" 
d="M245 -59h-22t-22 1q-79 4 -128 52t-49 131q0 72 41 163q52 115 196 218q83 59 177 94.5t190 35.5q56 0 102.5 -15t74 -45t27.5 -76q0 -16 -4 -33.5t-13 -34.5l-11 -21q8 -27 8 -55q0 -125 -128 -239q-196 -176 -439 -176zM239 -39q197 0 375 159q128 114 138 217
q-52 -57 -180 -136l-8 -2q-8 0 26 28l56 46q36 30 62 56t43 47q-7 56 -54 96q-40 35 -96 52q-28 7 -92 9q-53 2 -53 5q0 1 2 3q47 15 90 15q20 0 44 -3t52 -10q105 -25 147 -102q10 24 10 49q0 41 -23.5 69t-63 42t-87.5 14q-151 0 -290 -97q-129 -90 -204 -232
q-55 -103 -55 -185q0 -132 133 -139q7 -1 14 -1h14zM717 677q-7 0 -14 10.5t-7 18.5q0 15 29 36q14 12 27.5 12.5t7.5 -10.5l-16 -40q-10 -27 -27 -27zM596 677q-7 0 -14 10.5t-7 18.5q0 15 29 36q20 12 30 11t5 -9l-16 -40q-10 -27 -27 -27z" />
    <glyph glyph-name="uni022A" unicode="&#x22a;" horiz-adv-x="784" 
d="M245 -59h-22t-22 1q-79 4 -128 52t-49 131q0 72 41 163q52 115 196 218q83 59 177 94.5t190 35.5q56 0 102.5 -15t74 -45t27.5 -76q0 -16 -4 -33.5t-13 -34.5l-11 -21q8 -27 8 -55q0 -125 -128 -239q-196 -176 -439 -176zM239 -39q197 0 375 159q128 114 138 217
q-52 -57 -180 -136l-8 -2q-8 0 26 28l56 46q36 30 62 56t43 47q-7 56 -54 96q-40 35 -96 52q-28 7 -92 9q-53 2 -53 5q0 1 2 3q47 15 90 15q20 0 44 -3t52 -10q105 -25 147 -102q10 24 10 49q0 41 -23.5 69t-63 42t-87.5 14q-151 0 -290 -97q-129 -90 -204 -232
q-55 -103 -55 -185q0 -132 133 -139q7 -1 14 -1h14zM717 677q-7 0 -14 10.5t-7 18.5q0 15 29 36q14 12 27.5 12.5t7.5 -10.5l-16 -40q-10 -27 -27 -27zM596 677q-7 0 -14 10.5t-7 18.5q0 15 29 36q20 12 30 11t5 -9l-16 -40q-10 -27 -27 -27zM604 785q-5 0 -12.5 11.5
t-8.5 17.5l2 1q10 5 34.5 6t62.5 1q82 0 106 -12q3 -1 3 -3t-1.5 -6t-4.5 -4q-31 0 -91 -6t-90 -6z" />
    <glyph glyph-name="uni0230" unicode="&#x230;" horiz-adv-x="784" 
d="M245 -59h-22t-22 1q-79 4 -128 52t-49 131q0 72 41 163q52 115 196 218q83 59 177 94.5t190 35.5q56 0 102.5 -15t74 -45t27.5 -76q0 -16 -4 -33.5t-13 -34.5l-11 -21q8 -27 8 -55q0 -125 -128 -239q-196 -176 -439 -176zM239 -39q197 0 375 159q128 114 138 217
q-52 -57 -180 -136l-8 -2q-8 0 26 28l56 46q36 30 62 56t43 47q-7 56 -54 96q-40 35 -96 52q-28 7 -92 9q-53 2 -53 5q0 1 2 3q47 15 90 15q20 0 44 -3t52 -10q105 -25 147 -102q10 24 10 49q0 41 -23.5 69t-63 42t-87.5 14q-151 0 -290 -97q-129 -90 -204 -232
q-55 -103 -55 -185q0 -132 133 -139q7 -1 14 -1h14zM625 678q-7 0 -14 10.5t-7 18.5q0 15 30 36t46 21q2 0 3 -1q-1 0 -14 -18l-17 -40q-12 -27 -27 -27zM580 794q-5 0 -12.5 11.5t-8.5 17.5l2 1q10 5 34.5 6t62.5 1q82 0 106 -12q3 -1 3 -3t-1.5 -6t-4.5 -4q-31 0 -91 -6
t-90 -6z" />
    <glyph glyph-name="uni1ECC" unicode="&#x1ecc;" horiz-adv-x="784" 
d="M245 -59h-22t-22 1q-79 4 -128 52t-49 131q0 72 41 163q52 115 196 218q83 59 177 94.5t190 35.5q56 0 102.5 -15t74 -45t27.5 -76q0 -16 -4 -33.5t-13 -34.5l-11 -21q8 -27 8 -55q0 -125 -128 -239q-196 -176 -439 -176zM239 -39q197 0 375 159q128 114 138 217
q-52 -57 -180 -136l-8 -2q-8 0 26 28l56 46q36 30 62 56t43 47q-7 56 -54 96q-40 35 -96 52q-28 7 -92 9q-53 2 -53 5q0 1 2 3q47 15 90 15q20 0 44 -3t52 -10q105 -25 147 -102q10 24 10 49q0 41 -23.5 69t-63 42t-87.5 14q-151 0 -290 -97q-129 -90 -204 -232
q-55 -103 -55 -185q0 -132 133 -139q7 -1 14 -1h14zM120 -192q-7 0 -14 10.5t-7 18.5q0 15 29 36q20 12 30 11t5 -9l-16 -40q-12 -27 -27 -27z" />
    <glyph glyph-name="Ograve" unicode="&#xd2;" horiz-adv-x="784" 
d="M245 -59h-22t-22 1q-79 4 -128 52t-49 131q0 72 41 163q52 115 196 218q83 59 177 94.5t190 35.5q56 0 102.5 -15t74 -45t27.5 -76q0 -16 -4 -33.5t-13 -34.5l-11 -21q8 -27 8 -55q0 -125 -128 -239q-196 -176 -439 -176zM239 -39q197 0 375 159q128 114 138 217
q-52 -57 -180 -136l-8 -2q-8 0 26 28l56 46q36 30 62 56t43 47q-7 56 -54 96q-40 35 -96 52q-28 7 -92 9q-53 2 -53 5q0 1 2 3q47 15 90 15q20 0 44 -3t52 -10q105 -25 147 -102q10 24 10 49q0 41 -23.5 69t-63 42t-87.5 14q-151 0 -290 -97q-129 -90 -204 -232
q-55 -103 -55 -185q0 -132 133 -139q7 -1 14 -1h14zM696 680q-27 0 -64 8q-25 5 -40 10t-22 8q-5 2 -11.5 6t-6.5 11q0 8 5 16.5t11 8.5q3 0 9 -1t15 -6q21 -10 47 -22t55 -24q10 -4 10 -9q0 -6 -8 -6z" />
    <glyph glyph-name="uni1ECE" unicode="&#x1ece;" horiz-adv-x="784" 
d="M245 -59h-22t-22 1q-79 4 -128 52t-49 131q0 72 41 163q52 115 196 218q83 59 177 94.5t190 35.5q56 0 102.5 -15t74 -45t27.5 -76q0 -16 -4 -33.5t-13 -34.5l-11 -21q8 -27 8 -55q0 -125 -128 -239q-196 -176 -439 -176zM239 -39q197 0 375 159q128 114 138 217
q-52 -57 -180 -136l-8 -2q-8 0 26 28l56 46q36 30 62 56t43 47q-7 56 -54 96q-40 35 -96 52q-28 7 -92 9q-53 2 -53 5q0 1 2 3q47 15 90 15q20 0 44 -3t52 -10q105 -25 147 -102q10 24 10 49q0 41 -23.5 69t-63 42t-87.5 14q-151 0 -290 -97q-129 -90 -204 -232
q-55 -103 -55 -185q0 -132 133 -139q7 -1 14 -1h14zM620 678q-4 0 -5 3t1 4q20 14 36 25.5t16 27.5q0 15 -17 15q-10 0 -24.5 -6t-25.5 -17l-0.5 -0.5t-1.5 -0.5t-2 2t0 4q8 23 28.5 35t46.5 10q13 -1 20 -10.5t7 -20.5q0 -15 -7.5 -26t-20.5 -19q-19 -12 -31 -19t-17 -7h-3
z" />
    <glyph glyph-name="Ohorn" unicode="&#x1a0;" horiz-adv-x="784" 
d="M245 -59h-22t-22 1q-79 4 -128 52t-49 131q0 72 41 163q52 115 196 218q83 59 177 94.5t190 35.5q56 0 102.5 -15t74 -45t27.5 -76q0 -16 -4 -33.5t-13 -34.5l-11 -21q8 -27 8 -55q0 -125 -128 -239q-196 -176 -439 -176zM239 -39q197 0 375 159q128 114 138 217
q-52 -57 -180 -136l-8 -2q-8 0 26 28l56 46q36 30 62 56t43 47q-7 56 -54 96q-40 35 -96 52q-28 7 -92 9q-53 2 -53 5q0 1 2 3q47 15 90 15q20 0 44 -3t52 -10q105 -25 147 -102q10 24 10 49q0 41 -23.5 69t-63 42t-87.5 14q-151 0 -290 -97q-129 -90 -204 -232
q-55 -103 -55 -185q0 -132 133 -139q7 -1 14 -1h14zM782 575l1 19q17 0 34 6t17 22q0 11 -6.5 16t-17.5 8q-10 3 -10 10q0 12 19 12q18 0 31 -11.5t13 -30.5q0 -20 -14 -31t-32.5 -15.5t-34.5 -4.5z" />
    <glyph glyph-name="uni1EDA" unicode="&#x1eda;" horiz-adv-x="784" 
d="M245 -59h-22t-22 1q-79 4 -128 52t-49 131q0 72 41 163q52 115 196 218q83 59 177 94.5t190 35.5q56 0 102.5 -15t74 -45t27.5 -76q0 -16 -4 -33.5t-13 -34.5l-11 -21q8 -27 8 -55q0 -125 -128 -239q-196 -176 -439 -176zM239 -39q197 0 375 159q128 114 138 217
q-52 -57 -180 -136l-8 -2q-8 0 26 28l56 46q36 30 62 56t43 47q-7 56 -54 96q-40 35 -96 52q-28 7 -92 9q-53 2 -53 5q0 1 2 3q47 15 90 15q20 0 44 -3t52 -10q105 -25 147 -102q10 24 10 49q0 41 -23.5 69t-63 42t-87.5 14q-151 0 -290 -97q-129 -90 -204 -232
q-55 -103 -55 -185q0 -132 133 -139q7 -1 14 -1h14zM782 575l1 19q17 0 34 6t17 22q0 11 -6.5 16t-17.5 8q-10 3 -10 10q0 12 19 12q18 0 31 -11.5t13 -30.5q0 -20 -14 -31t-32.5 -15.5t-34.5 -4.5zM603 680q-8 0 -8 6q0 5 10 9q29 12 55 24t47 22q9 5 15 6t9 1q6 0 11 -8.5
t5 -16.5q0 -7 -6.5 -11t-11.5 -6q-7 -3 -22 -8t-40 -10q-37 -8 -64 -8z" />
    <glyph glyph-name="uni1EE2" unicode="&#x1ee2;" horiz-adv-x="784" 
d="M245 -59h-22t-22 1q-79 4 -128 52t-49 131q0 72 41 163q52 115 196 218q83 59 177 94.5t190 35.5q56 0 102.5 -15t74 -45t27.5 -76q0 -16 -4 -33.5t-13 -34.5l-11 -21q8 -27 8 -55q0 -125 -128 -239q-196 -176 -439 -176zM239 -39q197 0 375 159q128 114 138 217
q-52 -57 -180 -136l-8 -2q-8 0 26 28l56 46q36 30 62 56t43 47q-7 56 -54 96q-40 35 -96 52q-28 7 -92 9q-53 2 -53 5q0 1 2 3q47 15 90 15q20 0 44 -3t52 -10q105 -25 147 -102q10 24 10 49q0 41 -23.5 69t-63 42t-87.5 14q-151 0 -290 -97q-129 -90 -204 -232
q-55 -103 -55 -185q0 -132 133 -139q7 -1 14 -1h14zM782 575l1 19q17 0 34 6t17 22q0 11 -6.5 16t-17.5 8q-10 3 -10 10q0 12 19 12q18 0 31 -11.5t13 -30.5q0 -20 -14 -31t-32.5 -15.5t-34.5 -4.5zM120 -192q-7 0 -14 10.5t-7 18.5q0 15 29 36q20 12 30 11t5 -9l-16 -40
q-12 -27 -27 -27z" />
    <glyph glyph-name="uni1EDC" unicode="&#x1edc;" horiz-adv-x="784" 
d="M245 -59h-22t-22 1q-79 4 -128 52t-49 131q0 72 41 163q52 115 196 218q83 59 177 94.5t190 35.5q56 0 102.5 -15t74 -45t27.5 -76q0 -16 -4 -33.5t-13 -34.5l-11 -21q8 -27 8 -55q0 -125 -128 -239q-196 -176 -439 -176zM239 -39q197 0 375 159q128 114 138 217
q-52 -57 -180 -136l-8 -2q-8 0 26 28l56 46q36 30 62 56t43 47q-7 56 -54 96q-40 35 -96 52q-28 7 -92 9q-53 2 -53 5q0 1 2 3q47 15 90 15q20 0 44 -3t52 -10q105 -25 147 -102q10 24 10 49q0 41 -23.5 69t-63 42t-87.5 14q-151 0 -290 -97q-129 -90 -204 -232
q-55 -103 -55 -185q0 -132 133 -139q7 -1 14 -1h14zM782 575l1 19q17 0 34 6t17 22q0 11 -6.5 16t-17.5 8q-10 3 -10 10q0 12 19 12q18 0 31 -11.5t13 -30.5q0 -20 -14 -31t-32.5 -15.5t-34.5 -4.5zM696 680q-27 0 -64 8q-25 5 -40 10t-22 8q-5 2 -11.5 6t-6.5 11
q0 8 5 16.5t11 8.5q3 0 9 -1t15 -6q21 -10 47 -22t55 -24q10 -4 10 -9q0 -6 -8 -6z" />
    <glyph glyph-name="uni1EDE" unicode="&#x1ede;" horiz-adv-x="784" 
d="M245 -59h-22t-22 1q-79 4 -128 52t-49 131q0 72 41 163q52 115 196 218q83 59 177 94.5t190 35.5q56 0 102.5 -15t74 -45t27.5 -76q0 -16 -4 -33.5t-13 -34.5l-11 -21q8 -27 8 -55q0 -125 -128 -239q-196 -176 -439 -176zM239 -39q197 0 375 159q128 114 138 217
q-52 -57 -180 -136l-8 -2q-8 0 26 28l56 46q36 30 62 56t43 47q-7 56 -54 96q-40 35 -96 52q-28 7 -92 9q-53 2 -53 5q0 1 2 3q47 15 90 15q20 0 44 -3t52 -10q105 -25 147 -102q10 24 10 49q0 41 -23.5 69t-63 42t-87.5 14q-151 0 -290 -97q-129 -90 -204 -232
q-55 -103 -55 -185q0 -132 133 -139q7 -1 14 -1h14zM782 575l1 19q17 0 34 6t17 22q0 11 -6.5 16t-17.5 8q-10 3 -10 10q0 12 19 12q18 0 31 -11.5t13 -30.5q0 -20 -14 -31t-32.5 -15.5t-34.5 -4.5zM620 678q-4 0 -5 3t1 4q20 14 36 25.5t16 27.5q0 15 -17 15
q-10 0 -24.5 -6t-25.5 -17l-0.5 -0.5t-1.5 -0.5t-2 2t0 4q8 23 28.5 35t46.5 10q13 -1 20 -10.5t7 -20.5q0 -15 -7.5 -26t-20.5 -19q-19 -12 -31 -19t-17 -7h-3z" />
    <glyph glyph-name="uni1EE0" unicode="&#x1ee0;" horiz-adv-x="784" 
d="M245 -59h-22t-22 1q-79 4 -128 52t-49 131q0 72 41 163q52 115 196 218q83 59 177 94.5t190 35.5q56 0 102.5 -15t74 -45t27.5 -76q0 -16 -4 -33.5t-13 -34.5l-11 -21q8 -27 8 -55q0 -125 -128 -239q-196 -176 -439 -176zM239 -39q197 0 375 159q128 114 138 217
q-52 -57 -180 -136l-8 -2q-8 0 26 28l56 46q36 30 62 56t43 47q-7 56 -54 96q-40 35 -96 52q-28 7 -92 9q-53 2 -53 5q0 1 2 3q47 15 90 15q20 0 44 -3t52 -10q105 -25 147 -102q10 24 10 49q0 41 -23.5 69t-63 42t-87.5 14q-151 0 -290 -97q-129 -90 -204 -232
q-55 -103 -55 -185q0 -132 133 -139q7 -1 14 -1h14zM782 575l1 19q17 0 34 6t17 22q0 11 -6.5 16t-17.5 8q-10 3 -10 10q0 12 19 12q18 0 31 -11.5t13 -30.5q0 -20 -14 -31t-32.5 -15.5t-34.5 -4.5zM694 683q-8 0 -20 3.5t-28 10.5q-30 15 -45 15q-7 0 -15.5 -3t-16.5 -11
q-14 -14 -20 -14q-1 1 -1 2q0 17 41 45q14 11 34 11q15 0 45 -12q15 -6 26 -8.5t18 -2.5q22 0 40 23q5 0 5 -4q0 -18 -37 -46q-12 -9 -26 -9z" />
    <glyph glyph-name="Ohungarumlaut" unicode="&#x150;" horiz-adv-x="784" 
d="M245 -59h-22t-22 1q-79 4 -128 52t-49 131q0 72 41 163q52 115 196 218q83 59 177 94.5t190 35.5q56 0 102.5 -15t74 -45t27.5 -76q0 -16 -4 -33.5t-13 -34.5l-11 -21q8 -27 8 -55q0 -125 -128 -239q-196 -176 -439 -176zM239 -39q197 0 375 159q128 114 138 217
q-52 -57 -180 -136l-8 -2q-8 0 26 28l56 46q36 30 62 56t43 47q-7 56 -54 96q-40 35 -96 52q-28 7 -92 9q-53 2 -53 5q0 1 2 3q47 15 90 15q20 0 44 -3t52 -10q105 -25 147 -102q10 24 10 49q0 41 -23.5 69t-63 42t-87.5 14q-151 0 -290 -97q-129 -90 -204 -232
q-55 -103 -55 -185q0 -132 133 -139q7 -1 14 -1h14zM664 676q-4 0 -7 6q-2 3 -2 7l27 81q2 9 6 9q6 0 13 -13q6 -11 4 -19q-1 -4 -6.5 -14t-13.5 -26q-16 -31 -21 -31zM583 676q-4 0 -7 6q-3 4 -1 7l26 81q2 9 6 9q6 0 13 -13q6 -11 4 -19q-1 -4 -6.5 -14t-13.5 -26
q-16 -31 -21 -31z" />
    <glyph glyph-name="uni020E" unicode="&#x20e;" horiz-adv-x="784" 
d="M245 -59h-22t-22 1q-79 4 -128 52t-49 131q0 72 41 163q52 115 196 218q83 59 177 94.5t190 35.5q56 0 102.5 -15t74 -45t27.5 -76q0 -16 -4 -33.5t-13 -34.5l-11 -21q8 -27 8 -55q0 -125 -128 -239q-196 -176 -439 -176zM239 -39q197 0 375 159q128 114 138 217
q-52 -57 -180 -136l-8 -2q-8 0 26 28l56 46q36 30 62 56t43 47q-7 56 -54 96q-40 35 -96 52q-28 7 -92 9q-53 2 -53 5q0 1 2 3q47 15 90 15q20 0 44 -3t52 -10q105 -25 147 -102q10 24 10 49q0 41 -23.5 69t-63 42t-87.5 14q-151 0 -290 -97q-129 -90 -204 -232
q-55 -103 -55 -185q0 -132 133 -139q7 -1 14 -1h14zM705 795q29 0 42.5 -16.5t11.5 -44.5q-1 -12 -5 -24.5t-14 -12.5q-7 0 -9 6.5t-2 12.5q-3 40 -42 40q-26 0 -53 -11t-51 -31q-21 -17 -27 -17q-5 0 -5 4q0 2 6 9.5t22 23.5q24 24 57.5 42.5t68.5 18.5z" />
    <glyph glyph-name="Omacron" unicode="&#x14c;" horiz-adv-x="784" 
d="M245 -59h-22t-22 1q-79 4 -128 52t-49 131q0 72 41 163q52 115 196 218q83 59 177 94.5t190 35.5q56 0 102.5 -15t74 -45t27.5 -76q0 -16 -4 -33.5t-13 -34.5l-11 -21q8 -27 8 -55q0 -125 -128 -239q-196 -176 -439 -176zM239 -39q197 0 375 159q128 114 138 217
q-52 -57 -180 -136l-8 -2q-8 0 26 28l56 46q36 30 62 56t43 47q-7 56 -54 96q-40 35 -96 52q-28 7 -92 9q-53 2 -53 5q0 1 2 3q47 15 90 15q20 0 44 -3t52 -10q105 -25 147 -102q10 24 10 49q0 41 -23.5 69t-63 42t-87.5 14q-151 0 -290 -97q-129 -90 -204 -232
q-55 -103 -55 -185q0 -132 133 -139q7 -1 14 -1h14zM554 685q-5 0 -12.5 11.5t-8.5 17.5l2 1q10 5 34.5 6t62.5 1q82 0 106 -12q3 -1 3 -3t-1.5 -6t-4.5 -4q-31 0 -91 -6t-90 -6z" />
    <glyph glyph-name="uni03A9" unicode="&#x2126;" horiz-adv-x="678" 
d="M216 -1q-32 0 -76.5 0.5t-82.5 0.5q-15 0 -24.5 2t-9.5 7q0 8 5 16.5t15 9.5q23 2 52.5 2h59t49.5 1q-31 32 -47.5 81.5t-16.5 105.5q0 72 26 140t71 122t105 86t127 32q57 0 91.5 -23t50 -63t15.5 -90q0 -81 -28 -157t-74.5 -137t-102.5 -99q13 0 39.5 0.5t57.5 0.5
t58.5 0.5t42.5 0.5q18 0 17 -9t-9 -18.5t-12 -9.5q-28 -1 -65.5 -1.5t-75.5 0t-68 0.5q-14 0 -26.5 1.5t-12.5 6.5q1 5 2.5 14.5t16.5 16.5q34 16 65.5 53t58 87t44 105t24 107.5t-1.5 95.5t-33.5 68.5t-72.5 25.5q-48 0 -94 -26.5t-84 -71.5t-64.5 -101.5t-37.5 -116.5
t-2.5 -117t41.5 -102q9 -7 12 -11t3 -7q0 -15 -5.5 -22t-22.5 -7z" />
    <glyph glyph-name="uni01EA" unicode="&#x1ea;" horiz-adv-x="784" 
d="M245 -59h-22t-22 1q-79 4 -128 52t-49 131q0 72 41 163q52 115 196 218q83 59 177 94.5t190 35.5q56 0 102.5 -15t74 -45t27.5 -76q0 -16 -4 -33.5t-13 -34.5l-11 -21q8 -27 8 -55q0 -125 -128 -239q-196 -176 -439 -176zM239 -39q197 0 375 159q128 114 138 217
q-52 -57 -180 -136l-8 -2q-8 0 26 28l56 46q36 30 62 56t43 47q-7 56 -54 96q-40 35 -96 52q-28 7 -92 9q-53 2 -53 5q0 1 2 3q47 15 90 15q20 0 44 -3t52 -10q105 -25 147 -102q10 24 10 49q0 41 -23.5 69t-63 42t-87.5 14q-151 0 -290 -97q-129 -90 -204 -232
q-55 -103 -55 -185q0 -132 133 -139q7 -1 14 -1h14zM274 -152q0 -29 -48 -45q-20 -7 -35 -9t-25 -2q-55 0 -55 42q0 27 19 69q22 48 44 49l3 -3q-34 -47 -34 -88t45 -41q23 0 49.5 11t36.5 17z" />
    <glyph glyph-name="Oslash" unicode="&#xd8;" horiz-adv-x="784" 
d="M209 -124q-17 0 -17 29q0 8 1 18t3 20q-76 5 -124 52.5t-48 129.5q0 72 41 163q52 115 196 218q159 114 327 128q10 1 20 1.5t20 0.5h17t16 -1q54 63 65 63t19 -8q12 -11 -4 -30l-29 -33q42 -11 69 -31q51 -37 51 -96q0 -16 -4 -33.5t-13 -34.5l-11 -21q8 -27 8 -55
q0 -125 -128 -239q-197 -176 -441 -176h-22q-1 -5 -1.5 -10.5t-0.5 -10.5q0 -19 11 -25q5 -1 0 -9q-7 -10 -21 -10zM201 -37q2 9 5.5 19t7.5 20q31 85 261 394q29 38 54 71t47 61q-13 2 -30 3t-37 2q-53 2 -53 5q0 1 2 3q47 15 90 15q11 0 22.5 -1t24.5 -3q14 18 26.5 33.5
t22.5 28.5q-4 1 -8 1h-9q-151 0 -290 -97q-129 -90 -204 -232q-55 -103 -55 -185q0 -126 123 -138zM791 441q10 24 10 49q0 34 -22 65q-28 39 -83 52q-13 -15 -26 -31t-27 -33h1q54 0 90 -32t57 -70zM228 -38q204 -5 386 158q128 114 138 217q-52 -57 -180 -136l-8 -2
q-8 0 26 28l56 46q36 30 62 56t43 47q-7 56 -54 96q-33 29 -76 45q-42 -52 -85.5 -109t-90.5 -119q-179 -238 -217 -327z" />
    <glyph glyph-name="Oslashacute" unicode="&#x1fe;" horiz-adv-x="784" 
d="M209 -124q-17 0 -17 29q0 8 1 18t3 20q-76 5 -124 52.5t-48 129.5q0 72 41 163q52 115 196 218q159 114 327 128q10 1 20 1.5t20 0.5h17t16 -1q54 63 65 63t19 -8q12 -11 -4 -30l-29 -33q42 -11 69 -31q51 -37 51 -96q0 -16 -4 -33.5t-13 -34.5l-11 -21q8 -27 8 -55
q0 -125 -128 -239q-197 -176 -441 -176h-22q-1 -5 -1.5 -10.5t-0.5 -10.5q0 -19 11 -25q5 -1 0 -9q-7 -10 -21 -10zM201 -37q2 9 5.5 19t7.5 20q31 85 261 394q29 38 54 71t47 61q-13 2 -30 3t-37 2q-53 2 -53 5q0 1 2 3q47 15 90 15q11 0 22.5 -1t24.5 -3q14 18 26.5 33.5
t22.5 28.5q-4 1 -8 1h-9q-151 0 -290 -97q-129 -90 -204 -232q-55 -103 -55 -185q0 -126 123 -138zM791 441q10 24 10 49q0 34 -22 65q-28 39 -83 52q-13 -15 -26 -31t-27 -33h1q54 0 90 -32t57 -70zM228 -38q204 -5 386 158q128 114 138 217q-52 -57 -180 -136l-8 -2
q-8 0 26 28l56 46q36 30 62 56t43 47q-7 56 -54 96q-33 29 -76 45q-42 -52 -85.5 -109t-90.5 -119q-179 -238 -217 -327zM583 700q-8 0 -8 6q0 5 10 9q29 12 55 24t47 22q9 5 15 6t9 1q6 0 11 -8.5t5 -16.5q0 -7 -6.5 -11t-11.5 -6q-7 -3 -22 -8t-40 -10q-37 -8 -64 -8z" />
    <glyph glyph-name="Otilde" unicode="&#xd5;" horiz-adv-x="784" 
d="M245 -59h-22t-22 1q-79 4 -128 52t-49 131q0 72 41 163q52 115 196 218q83 59 177 94.5t190 35.5q56 0 102.5 -15t74 -45t27.5 -76q0 -16 -4 -33.5t-13 -34.5l-11 -21q8 -27 8 -55q0 -125 -128 -239q-196 -176 -439 -176zM239 -39q197 0 375 159q128 114 138 217
q-52 -57 -180 -136l-8 -2q-8 0 26 28l56 46q36 30 62 56t43 47q-7 56 -54 96q-40 35 -96 52q-28 7 -92 9q-53 2 -53 5q0 1 2 3q47 15 90 15q20 0 44 -3t52 -10q105 -25 147 -102q10 24 10 49q0 41 -23.5 69t-63 42t-87.5 14q-151 0 -290 -97q-129 -90 -204 -232
q-55 -103 -55 -185q0 -132 133 -139q7 -1 14 -1h14zM694 683q-8 0 -20 3.5t-28 10.5q-30 15 -45 15q-7 0 -15.5 -3t-16.5 -11q-14 -14 -20 -14q-1 1 -1 2q0 17 41 45q14 11 34 11q15 0 45 -12q15 -6 26 -8.5t18 -2.5q22 0 40 23q5 0 5 -4q0 -18 -37 -46q-12 -9 -26 -9z" />
    <glyph glyph-name="uni022C" unicode="&#x22c;" horiz-adv-x="784" 
d="M245 -59h-22t-22 1q-79 4 -128 52t-49 131q0 72 41 163q52 115 196 218q83 59 177 94.5t190 35.5q56 0 102.5 -15t74 -45t27.5 -76q0 -16 -4 -33.5t-13 -34.5l-11 -21q8 -27 8 -55q0 -125 -128 -239q-196 -176 -439 -176zM239 -39q197 0 375 159q128 114 138 217
q-52 -57 -180 -136l-8 -2q-8 0 26 28l56 46q36 30 62 56t43 47q-7 56 -54 96q-40 35 -96 52q-28 7 -92 9q-53 2 -53 5q0 1 2 3q47 15 90 15q20 0 44 -3t52 -10q105 -25 147 -102q10 24 10 49q0 41 -23.5 69t-63 42t-87.5 14q-151 0 -290 -97q-129 -90 -204 -232
q-55 -103 -55 -185q0 -132 133 -139q7 -1 14 -1h14zM694 683q-8 0 -20 3.5t-28 10.5q-30 15 -45 15q-7 0 -15.5 -3t-16.5 -11q-14 -14 -20 -14q-1 1 -1 2q0 17 41 45q14 11 34 11q15 0 45 -12q15 -6 26 -8.5t18 -2.5q22 0 40 23q5 0 5 -4q0 -18 -37 -46q-12 -9 -26 -9z
M603 777q-5 0 -12.5 11.5t-8.5 17.5l2 1q10 5 34.5 6t62.5 1q82 0 106 -12q3 -1 3 -3t-1.5 -6t-4.5 -4q-31 0 -91 -6t-90 -6z" />
    <glyph glyph-name="P" unicode="P" horiz-adv-x="1057" 
d="M213 -108q-78 0 -124 36.5t-46 105.5q0 50 21.5 94.5t58.5 79.5t84.5 55t99.5 20q53 0 83.5 -24t30.5 -65q0 -30 -39 -78t-39 -32q0 4 3 8q32 47 32 88q0 37 -23.5 59t-61.5 22q-42 0 -80.5 -20.5t-68.5 -54.5t-47 -75t-17 -81q0 -55 35.5 -83.5t93.5 -28.5
q59 0 113.5 21.5t97.5 61.5q51 48 103 140l87 157q34 54 71 130.5t78 175.5q-144 2 -280 -28q-145 -31 -215 -86q-30 -22 -30 -46q0 -21 23.5 -34.5t59.5 -13.5q21 0 50 6t56 16.5t41 23.5q10 8 14 8q8 0 3 -8q-21 -25 -54.5 -42t-70.5 -25.5t-69 -8.5q-49 0 -76.5 19.5
t-27.5 50.5q0 36 36 70q68 66 243 98q68 12 146 17.5t166 4.5q22 19 42 19t15 -21q63 -4 127.5 -16t118 -33.5t86.5 -53t33 -74.5q0 -46 -30.5 -87.5t-78 -73.5t-99.5 -51q-48 -17 -102.5 -27t-107.5 -10q-40 0 -76.5 6t-66.5 19q-61 -89 -101.5 -145t-62.5 -78
q-108 -108 -258 -108zM753 222q37 0 73.5 7.5t78.5 20.5q42 14 85 35.5t79 49t58 59t22 63.5q0 36 -30 62.5t-79 43.5t-106 26.5t-110 12.5l-32 -100q-17 -43 -48 -100t-76 -128l-22 -34q7 -4 15.5 -6.5t18.5 -4.5q19 -4 37 -5.5t36 -1.5z" />
    <glyph glyph-name="Q" unicode="Q" horiz-adv-x="797" 
d="M712 -206q-104 0 -331 161q-81 -19 -180 -13q-45 3 -83 21q-13 -45 -21 -45q-10 0 -11 28q-1 11 0 19.5t2 15.5q-43 34 -56.5 83.5t-3 107.5t36.5 116q52 115 196 218q83 59 177 94.5t190 35.5q56 0 102.5 -15t74 -45t27.5 -76q0 -32 -17 -68l-11 -21q8 -27 8 -55
q0 -125 -128 -239q-114 -102 -241 -144q203 -146 274 -146q15 0 28.5 8t13.5 22q0 10 -7 20q-3 8 -3 11q0 14 17 -5q18 -19 18 -40q0 -20 -20 -34.5t-52 -14.5zM411 -5q55 20 105.5 51.5t97.5 73.5q127 112 138 217q-52 -57 -180 -136l-8 -2q-8 0 26 28l56 46
q35 31 61.5 56.5t43.5 46.5q-7 56 -54 96q-40 35 -96 52q-28 7 -92 9q-53 2 -53 5q0 1 2 3q47 15 90 15q20 0 44 -3t52 -10q105 -25 147 -102q10 24 10 49q0 41 -23.5 69t-63 42t-87.5 14q-151 0 -290 -97q-129 -90 -204 -232q-25 -46 -40.5 -96t-15 -95t22.5 -78
q11 27 27 49q26 36 67 36q40 0 88 -27.5t112 -68.5zM211 -38q67 -3 139 14q-115 70 -163 70q-36 0 -51 -32l-10 -24q34 -27 85 -28z" />
    <glyph glyph-name="R" unicode="R" horiz-adv-x="752" 
d="M638 -112q-40 0 -68.5 32t-49.5 82t-37 103q-37 121 -31 144q-59 -79 -102 -131.5t-70 -78.5q-118 -114 -239 -114q-36 0 -59.5 15t-23.5 50q0 22 10 47.5t25 48.5t30 38q33 33 55 33q4 0 4 -2q0 -5 -15 -17q-35 -28 -58 -64.5t-23 -66.5q0 -56 79 -53q129 5 358 312
q13 17 22 24l-16 6q-13 -5 -21 -5q-21 0 -21 17q0 23 31 30q19 5 49 -17q39 44 75.5 84t66.5 65.5t48 25.5q24 0 24 -22q0 -9 -4.5 -18.5t-10.5 -9.5q-6 -1 -6 6q0 5 6 12v4q0 6 -4 9q-26 17 -160 -169q11 -1 23.5 -1.5t26.5 -0.5q232 0 290 120q12 26 12 48q0 44 -41 77
q-37 30 -97.5 40.5t-120.5 10.5q-133 0 -283 -73q-182 -89 -182 -209q0 -39 51 -39q47 0 106 38q51 34 70 69q7 13 13 13q7 0 4 -8q-19 -56 -85 -96q-64 -39 -132 -39q-81 0 -75 52q15 131 161 223q145 91 350 91q78 0 151.5 -14t119.5 -52q48 -40 48 -94q0 -23 -11 -50
q-17 -39 -52 -66.5t-81 -44.5t-97 -25t-99 -8q-26 0 -49.5 2t-43.5 6q6 -19 21 -69t38 -130q7 -22 19.5 -48t28.5 -49t34.5 -38t37.5 -15q42 0 70 85q5 20 11 20q5 0 9 -19q1 -3 1 -8q0 -26 -28 -64q-37 -55 -83 -55z" />
    <glyph glyph-name="Racute" unicode="&#x154;" horiz-adv-x="752" 
d="M638 -112q-40 0 -68.5 32t-49.5 82t-37 103q-37 121 -31 144q-59 -79 -102 -131.5t-70 -78.5q-118 -114 -239 -114q-36 0 -59.5 15t-23.5 50q0 22 10 47.5t25 48.5t30 38q33 33 55 33q4 0 4 -2q0 -5 -15 -17q-35 -28 -58 -64.5t-23 -66.5q0 -56 79 -53q129 5 358 312
q13 17 22 24l-16 6q-13 -5 -21 -5q-21 0 -21 17q0 23 31 30q19 5 49 -17q39 44 75.5 84t66.5 65.5t48 25.5q24 0 24 -22q0 -9 -4.5 -18.5t-10.5 -9.5q-6 -1 -6 6q0 5 6 12v4q0 6 -4 9q-26 17 -160 -169q11 -1 23.5 -1.5t26.5 -0.5q232 0 290 120q12 26 12 48q0 44 -41 77
q-37 30 -97.5 40.5t-120.5 10.5q-133 0 -283 -73q-182 -89 -182 -209q0 -39 51 -39q47 0 106 38q51 34 70 69q7 13 13 13q7 0 4 -8q-19 -56 -85 -96q-64 -39 -132 -39q-81 0 -75 52q15 131 161 223q145 91 350 91q78 0 151.5 -14t119.5 -52q48 -40 48 -94q0 -23 -11 -50
q-17 -39 -52 -66.5t-81 -44.5t-97 -25t-99 -8q-26 0 -49.5 2t-43.5 6q6 -19 21 -69t38 -130q7 -22 19.5 -48t28.5 -49t34.5 -38t37.5 -15q42 0 70 85q5 20 11 20q5 0 9 -19q1 -3 1 -8q0 -26 -28 -64q-37 -55 -83 -55zM680 662q-7 -2 -7 6q0 4 4 7l97 78q11 9 17 9
q5 0 12.5 -6.5t7.5 -13.5t-4 -11.5t-9 -8.5q-6 -4 -20 -12.5t-40 -21.5q-23 -11 -37.5 -17.5t-20.5 -8.5z" />
    <glyph glyph-name="Rcaron" unicode="&#x158;" horiz-adv-x="752" 
d="M638 -112q-40 0 -68.5 32t-49.5 82t-37 103q-37 121 -31 144q-59 -79 -102 -131.5t-70 -78.5q-118 -114 -239 -114q-36 0 -59.5 15t-23.5 50q0 22 10 47.5t25 48.5t30 38q33 33 55 33q4 0 4 -2q0 -5 -15 -17q-35 -28 -58 -64.5t-23 -66.5q0 -56 79 -53q129 5 358 312
q13 17 22 24l-16 6q-13 -5 -21 -5q-21 0 -21 17q0 23 31 30q19 5 49 -17q39 44 75.5 84t66.5 65.5t48 25.5q24 0 24 -22q0 -9 -4.5 -18.5t-10.5 -9.5q-6 -1 -6 6q0 5 6 12v4q0 6 -4 9q-26 17 -160 -169q11 -1 23.5 -1.5t26.5 -0.5q232 0 290 120q12 26 12 48q0 44 -41 77
q-37 30 -97.5 40.5t-120.5 10.5q-133 0 -283 -73q-182 -89 -182 -209q0 -39 51 -39q47 0 106 38q51 34 70 69q7 13 13 13q7 0 4 -8q-19 -56 -85 -96q-64 -39 -132 -39q-81 0 -75 52q15 131 161 223q145 91 350 91q78 0 151.5 -14t119.5 -52q48 -40 48 -94q0 -23 -11 -50
q-17 -39 -52 -66.5t-81 -44.5t-97 -25t-99 -8q-26 0 -49.5 2t-43.5 6q6 -19 21 -69t38 -130q7 -22 19.5 -48t28.5 -49t34.5 -38t37.5 -15q42 0 70 85q5 20 11 20q5 0 9 -19q1 -3 1 -8q0 -26 -28 -64q-37 -55 -83 -55zM652 753q5 0 11.5 -10t17.5 -25q5 -5 7 -11.5t5 -12.5
q17 8 43 22.5t42 21.5q8 4 21.5 9.5t20.5 5.5q10 0 10 -6q0 -4 -6.5 -11t-12.5 -11q-22 -10 -50 -25t-51 -26.5t-30 -11.5q-12 0 -20.5 12t-16.5 29q-2 7 -4 13.5t-2 13.5q0 23 15 23z" />
    <glyph glyph-name="uni0156" unicode="&#x156;" horiz-adv-x="752" 
d="M638 -112q-40 0 -68.5 32t-49.5 82t-37 103q-37 121 -31 144q-59 -79 -102 -131.5t-70 -78.5q-118 -114 -239 -114q-36 0 -59.5 15t-23.5 50q0 22 10 47.5t25 48.5t30 38q33 33 55 33q4 0 4 -2q0 -5 -15 -17q-35 -28 -58 -64.5t-23 -66.5q0 -56 79 -53q129 5 358 312
q13 17 22 24l-16 6q-13 -5 -21 -5q-21 0 -21 17q0 23 31 30q19 5 49 -17q39 44 75.5 84t66.5 65.5t48 25.5q24 0 24 -22q0 -9 -4.5 -18.5t-10.5 -9.5q-6 -1 -6 6q0 5 6 12v4q0 6 -4 9q-26 17 -160 -169q11 -1 23.5 -1.5t26.5 -0.5q232 0 290 120q12 26 12 48q0 44 -41 77
q-37 30 -97.5 40.5t-120.5 10.5q-133 0 -283 -73q-182 -89 -182 -209q0 -39 51 -39q47 0 106 38q51 34 70 69q7 13 13 13q7 0 4 -8q-19 -56 -85 -96q-64 -39 -132 -39q-81 0 -75 52q15 131 161 223q145 91 350 91q78 0 151.5 -14t119.5 -52q48 -40 48 -94q0 -23 -11 -50
q-17 -39 -52 -66.5t-81 -44.5t-97 -25t-99 -8q-26 0 -49.5 2t-43.5 6q6 -19 21 -69t38 -130q7 -22 19.5 -48t28.5 -49t34.5 -38t37.5 -15q42 0 70 85q5 20 11 20q5 0 9 -19q1 -3 1 -8q0 -26 -28 -64q-37 -55 -83 -55zM303 -203q-4 1 -4 3q0 1 23 27t20 46q-1 11 -14 19.5
t-13 17.5q0 30 29 30q14 0 28 -9.5t14 -24.5q0 -42 -35 -80q-32 -33 -48 -29z" />
    <glyph glyph-name="uni0210" unicode="&#x210;" horiz-adv-x="752" 
d="M638 -112q-40 0 -68.5 32t-49.5 82t-37 103q-37 121 -31 144q-59 -79 -102 -131.5t-70 -78.5q-118 -114 -239 -114q-36 0 -59.5 15t-23.5 50q0 22 10 47.5t25 48.5t30 38q33 33 55 33q4 0 4 -2q0 -5 -15 -17q-35 -28 -58 -64.5t-23 -66.5q0 -56 79 -53q129 5 358 312
q13 17 22 24l-16 6q-13 -5 -21 -5q-21 0 -21 17q0 23 31 30q19 5 49 -17q39 44 75.5 84t66.5 65.5t48 25.5q24 0 24 -22q0 -9 -4.5 -18.5t-10.5 -9.5q-6 -1 -6 6q0 5 6 12v4q0 6 -4 9q-26 17 -160 -169q11 -1 23.5 -1.5t26.5 -0.5q232 0 290 120q12 26 12 48q0 44 -41 77
q-37 30 -97.5 40.5t-120.5 10.5q-133 0 -283 -73q-182 -89 -182 -209q0 -39 51 -39q47 0 106 38q51 34 70 69q7 13 13 13q7 0 4 -8q-19 -56 -85 -96q-64 -39 -132 -39q-81 0 -75 52q15 131 161 223q145 91 350 91q78 0 151.5 -14t119.5 -52q48 -40 48 -94q0 -23 -11 -50
q-17 -39 -52 -66.5t-81 -44.5t-97 -25t-99 -8q-26 0 -49.5 2t-43.5 6q6 -19 21 -69t38 -130q7 -22 19.5 -48t28.5 -49t34.5 -38t37.5 -15q42 0 70 85q5 20 11 20q5 0 9 -19q1 -3 1 -8q0 -26 -28 -64q-37 -55 -83 -55zM799 657q-6 2 -19.5 10t-38.5 25q-20 15 -31.5 26
t-16.5 18q-3 4 -6.5 9.5t-2.5 10.5q1 7 10 13.5t13 5.5q6 -1 15 -12l82 -94q3 -2 3 -7q-2 -8 -8 -5zM699 657l-21 7t-42 18q-22 11 -36 20t-19 14l-8.5 8.5t-4.5 10.5q0 7 8 14.5t12 7.5q7 0 17 -9l97 -78q4 -3 4 -7q0 -8 -7 -6z" />
    <glyph glyph-name="uni0212" unicode="&#x212;" horiz-adv-x="752" 
d="M638 -112q-40 0 -68.5 32t-49.5 82t-37 103q-37 121 -31 144q-59 -79 -102 -131.5t-70 -78.5q-118 -114 -239 -114q-36 0 -59.5 15t-23.5 50q0 22 10 47.5t25 48.5t30 38q33 33 55 33q4 0 4 -2q0 -5 -15 -17q-35 -28 -58 -64.5t-23 -66.5q0 -56 79 -53q129 5 358 312
q13 17 22 24l-16 6q-13 -5 -21 -5q-21 0 -21 17q0 23 31 30q19 5 49 -17q39 44 75.5 84t66.5 65.5t48 25.5q24 0 24 -22q0 -9 -4.5 -18.5t-10.5 -9.5q-6 -1 -6 6q0 5 6 12v4q0 6 -4 9q-26 17 -160 -169q11 -1 23.5 -1.5t26.5 -0.5q232 0 290 120q12 26 12 48q0 44 -41 77
q-37 30 -97.5 40.5t-120.5 10.5q-133 0 -283 -73q-182 -89 -182 -209q0 -39 51 -39q47 0 106 38q51 34 70 69q7 13 13 13q7 0 4 -8q-19 -56 -85 -96q-64 -39 -132 -39q-81 0 -75 52q15 131 161 223q145 91 350 91q78 0 151.5 -14t119.5 -52q48 -40 48 -94q0 -23 -11 -50
q-17 -39 -52 -66.5t-81 -44.5t-97 -25t-99 -8q-26 0 -49.5 2t-43.5 6q6 -19 21 -69t38 -130q7 -22 19.5 -48t28.5 -49t34.5 -38t37.5 -15q42 0 70 85q5 20 11 20q5 0 9 -19q1 -3 1 -8q0 -26 -28 -64q-37 -55 -83 -55zM775 777q29 0 42.5 -16.5t11.5 -44.5q-1 -12 -5 -24.5
t-14 -12.5q-7 0 -9 6.5t-2 12.5q-3 40 -42 40q-26 0 -53 -11t-51 -31q-21 -17 -27 -17q-5 0 -5 4q0 2 6 9.5t22 23.5q24 24 57.5 42.5t68.5 18.5z" />
    <glyph glyph-name="S" unicode="S" horiz-adv-x="748" 
d="M279 -95q-41 0 -102 49q-43 7 -73.5 18.5t-50.5 27.5q-28 24 -49 64t-21 77q0 28 13 50q30 53 76 53q35 0 41 -59q7 -55 11.5 -87.5t7.5 -42.5q15 -49 51 -83q42 -9 91 -9q108 0 207 41q42 18 82 47t66 64t26 68q0 47 -83 73l-176 40q-54 12 -86.5 42.5t-32.5 69.5
q0 60 75 120q38 31 89 52.5t107.5 33t108.5 11.5q74 0 126.5 -23t65.5 -67q3 -10 3 -22q0 -61 -61 -85q-37 -15 -63 -15q-16 0 -25 6q-2 2 -2 5q0 7 28 8q17 1 28 3t16 4q38 20 38 59q0 20 -11 42q-31 57 -155 57q-45 0 -93 -9.5t-91 -28t-73 -46.5q-52 -48 -52 -86
q0 -29 28.5 -51.5t86.5 -33.5l118 -22q68 -13 110 -38.5t42 -77.5q0 -46 -23 -86t-61.5 -71.5t-87.5 -52.5q-111 -49 -262 -49q-19 0 -38 1t-37 3q14 -8 35.5 -16t49.5 -15q3 -1 3 -4q0 -9 -21 -9zM147 -18q-27 30 -42 62q-22 50 -33 123q-8 53 -17 53q-8 0 -21.5 -12
t-13.5 -51q0 -76 54 -132q27 -28 73 -43z" />
    <glyph glyph-name="Sacute" unicode="&#x15a;" horiz-adv-x="748" 
d="M279 -95q-41 0 -102 49q-43 7 -73.5 18.5t-50.5 27.5q-28 24 -49 64t-21 77q0 28 13 50q30 53 76 53q35 0 41 -59q7 -55 11.5 -87.5t7.5 -42.5q15 -49 51 -83q42 -9 91 -9q108 0 207 41q42 18 82 47t66 64t26 68q0 47 -83 73l-176 40q-54 12 -86.5 42.5t-32.5 69.5
q0 60 75 120q38 31 89 52.5t107.5 33t108.5 11.5q74 0 126.5 -23t65.5 -67q3 -10 3 -22q0 -61 -61 -85q-37 -15 -63 -15q-16 0 -25 6q-2 2 -2 5q0 7 28 8q17 1 28 3t16 4q38 20 38 59q0 20 -11 42q-31 57 -155 57q-45 0 -93 -9.5t-91 -28t-73 -46.5q-52 -48 -52 -86
q0 -29 28.5 -51.5t86.5 -33.5l118 -22q68 -13 110 -38.5t42 -77.5q0 -46 -23 -86t-61.5 -71.5t-87.5 -52.5q-111 -49 -262 -49q-19 0 -38 1t-37 3q14 -8 35.5 -16t49.5 -15q3 -1 3 -4q0 -9 -21 -9zM147 -18q-27 30 -42 62q-22 50 -33 123q-8 53 -17 53q-8 0 -21.5 -12
t-13.5 -51q0 -76 54 -132q27 -28 73 -43zM649 669q-7 -2 -7 6q0 4 4 7l97 78q11 9 17 9q5 0 12.5 -6.5t7.5 -13.5t-4 -11.5t-9 -8.5q-6 -4 -20 -12.5t-40 -21.5q-23 -11 -37.5 -17.5t-20.5 -8.5z" />
    <glyph glyph-name="Scaron" unicode="&#x160;" horiz-adv-x="748" 
d="M279 -95q-41 0 -102 49q-43 7 -73.5 18.5t-50.5 27.5q-28 24 -49 64t-21 77q0 28 13 50q30 53 76 53q35 0 41 -59q7 -55 11.5 -87.5t7.5 -42.5q15 -49 51 -83q42 -9 91 -9q108 0 207 41q42 18 82 47t66 64t26 68q0 47 -83 73l-176 40q-54 12 -86.5 42.5t-32.5 69.5
q0 60 75 120q38 31 89 52.5t107.5 33t108.5 11.5q74 0 126.5 -23t65.5 -67q3 -10 3 -22q0 -61 -61 -85q-37 -15 -63 -15q-16 0 -25 6q-2 2 -2 5q0 7 28 8q17 1 28 3t16 4q38 20 38 59q0 20 -11 42q-31 57 -155 57q-45 0 -93 -9.5t-91 -28t-73 -46.5q-52 -48 -52 -86
q0 -29 28.5 -51.5t86.5 -33.5l118 -22q68 -13 110 -38.5t42 -77.5q0 -46 -23 -86t-61.5 -71.5t-87.5 -52.5q-111 -49 -262 -49q-19 0 -38 1t-37 3q14 -8 35.5 -16t49.5 -15q3 -1 3 -4q0 -9 -21 -9zM147 -18q-27 30 -42 62q-22 50 -33 123q-8 53 -17 53q-8 0 -21.5 -12
t-13.5 -51q0 -76 54 -132q27 -28 73 -43zM621 760q5 0 11.5 -10t17.5 -25q5 -5 7 -11.5t5 -12.5q17 8 43 22.5t42 21.5q8 4 21.5 9.5t20.5 5.5q10 0 10 -6q0 -4 -6.5 -11t-12.5 -11q-22 -10 -50 -25t-51 -26.5t-30 -11.5q-12 0 -20.5 12t-16.5 29q-2 7 -4 13.5t-2 13.5
q0 23 15 23z" />
    <glyph glyph-name="Scedilla" unicode="&#x15e;" horiz-adv-x="748" 
d="M279 -95q-41 0 -102 49q-43 7 -73.5 18.5t-50.5 27.5q-28 24 -49 64t-21 77q0 28 13 50q30 53 76 53q35 0 41 -59q7 -55 11.5 -87.5t7.5 -42.5q15 -49 51 -83q42 -9 91 -9q108 0 207 41q42 18 82 47t66 64t26 68q0 47 -83 73l-176 40q-54 12 -86.5 42.5t-32.5 69.5
q0 60 75 120q38 31 89 52.5t107.5 33t108.5 11.5q74 0 126.5 -23t65.5 -67q3 -10 3 -22q0 -61 -61 -85q-37 -15 -63 -15q-16 0 -25 6q-2 2 -2 5q0 7 28 8q17 1 28 3t16 4q38 20 38 59q0 20 -11 42q-31 57 -155 57q-45 0 -93 -9.5t-91 -28t-73 -46.5q-52 -48 -52 -86
q0 -29 28.5 -51.5t86.5 -33.5l118 -22q68 -13 110 -38.5t42 -77.5q0 -46 -23 -86t-61.5 -71.5t-87.5 -52.5q-111 -49 -262 -49q-19 0 -38 1t-37 3q14 -8 35.5 -16t49.5 -15q3 -1 3 -4q0 -9 -21 -9zM147 -18q-27 30 -42 62q-22 50 -33 123q-8 53 -17 53q-8 0 -21.5 -12
t-13.5 -51q0 -76 54 -132q27 -28 73 -43zM284 -46q-7 -8 -10.5 -14.5t-3.5 -17.5q0 -9 30 -44q30 -34 30 -58q0 -42 -55 -68q-45 -20 -98 -20q-10 0 -10 9q0 6 10 7q18 3 36.5 5.5t37.5 4.5q36 9 36 52q0 7 -7 18t-20 27q-27 33 -27 51q0 20 11.5 38t30.5 18q7 0 8 -3t1 -5z
" />
    <glyph glyph-name="uni018F" unicode="&#x18f;" horiz-adv-x="525" 
d="M67 463q37 63 89 106.5t110 66t112 22.5q51 0 92.5 -20.5t66.5 -62.5t25 -108q0 -73 -22.5 -143.5t-63 -132t-94.5 -108t-117 -73t-131 -26.5q-54 0 -88 26t-29 81q4 43 33 81.5t75.5 71.5t103.5 57.5t117 39t115 16.5h12q9 0 16 -1q18 65 18 124q0 80 -37.5 116.5
t-93.5 36.5q-46 0 -100 -23t-105 -65.5t-90 -101.5q-4 -6 -9.5 -8t-9.5 -2q-8 0 -8 9q1 4 5 9t8 12zM72 91q-4 -46 17.5 -67t55.5 -21q55 0 107.5 28t98 75.5t80 108t54.5 125.5q-8 -2 -19 -4q-66 -10 -133.5 -32.5t-125.5 -54.5t-94.5 -72t-40.5 -86z" />
    <glyph glyph-name="Scircumflex" unicode="&#x15c;" horiz-adv-x="748" 
d="M279 -95q-41 0 -102 49q-43 7 -73.5 18.5t-50.5 27.5q-28 24 -49 64t-21 77q0 28 13 50q30 53 76 53q35 0 41 -59q7 -55 11.5 -87.5t7.5 -42.5q15 -49 51 -83q42 -9 91 -9q108 0 207 41q42 18 82 47t66 64t26 68q0 47 -83 73l-176 40q-54 12 -86.5 42.5t-32.5 69.5
q0 60 75 120q38 31 89 52.5t107.5 33t108.5 11.5q74 0 126.5 -23t65.5 -67q3 -10 3 -22q0 -61 -61 -85q-37 -15 -63 -15q-16 0 -25 6q-2 2 -2 5q0 7 28 8q17 1 28 3t16 4q38 20 38 59q0 20 -11 42q-31 57 -155 57q-45 0 -93 -9.5t-91 -28t-73 -46.5q-52 -48 -52 -86
q0 -29 28.5 -51.5t86.5 -33.5l118 -22q68 -13 110 -38.5t42 -77.5q0 -46 -23 -86t-61.5 -71.5t-87.5 -52.5q-111 -49 -262 -49q-19 0 -38 1t-37 3q14 -8 35.5 -16t49.5 -15q3 -1 3 -4q0 -9 -21 -9zM147 -18q-27 30 -42 62q-22 50 -33 123q-8 53 -17 53q-8 0 -21.5 -12
t-13.5 -51q0 -76 54 -132q27 -28 73 -43zM606 655q-2 0 -4 6t2 8q5 4 17 12.5t28 19.5q23 14 37.5 24.5t24.5 10.5q9 0 15 -6t13 -14l14.5 -14.5l13.5 -13.5q5 -5 10 -11t5 -12q0 -4 -4.5 -8.5t-14.5 -5.5q-7 0 -13.5 5t-14.5 12q-8 8 -17 18t-16 18q-15 -8 -46 -25
q-17 -10 -29.5 -17t-20.5 -7z" />
    <glyph glyph-name="uni0218" unicode="&#x218;" horiz-adv-x="748" 
d="M279 -95q-41 0 -102 49q-43 7 -73.5 18.5t-50.5 27.5q-28 24 -49 64t-21 77q0 28 13 50q30 53 76 53q35 0 41 -59q7 -55 11.5 -87.5t7.5 -42.5q15 -49 51 -83q42 -9 91 -9q108 0 207 41q42 18 82 47t66 64t26 68q0 47 -83 73l-176 40q-54 12 -86.5 42.5t-32.5 69.5
q0 60 75 120q38 31 89 52.5t107.5 33t108.5 11.5q74 0 126.5 -23t65.5 -67q3 -10 3 -22q0 -61 -61 -85q-37 -15 -63 -15q-16 0 -25 6q-2 2 -2 5q0 7 28 8q17 1 28 3t16 4q38 20 38 59q0 20 -11 42q-31 57 -155 57q-45 0 -93 -9.5t-91 -28t-73 -46.5q-52 -48 -52 -86
q0 -29 28.5 -51.5t86.5 -33.5l118 -22q68 -13 110 -38.5t42 -77.5q0 -46 -23 -86t-61.5 -71.5t-87.5 -52.5q-111 -49 -262 -49q-19 0 -38 1t-37 3q14 -8 35.5 -16t49.5 -15q3 -1 3 -4q0 -9 -21 -9zM147 -18q-27 30 -42 62q-22 50 -33 123q-8 53 -17 53q-8 0 -21.5 -12
t-13.5 -51q0 -76 54 -132q27 -28 73 -43zM182 -250q-4 1 -4 3q0 1 23 27t20 46q-1 11 -14 19.5t-13 17.5q0 30 29 30q14 0 28 -9.5t14 -24.5q0 -42 -35 -80q-32 -33 -48 -29z" />
    <glyph glyph-name="T" unicode="T" horiz-adv-x="661" 
d="M169 -101q-79 0 -110 42t-31 124q0 110 64 216q-74 47 -74 139q0 111 98 197q110 97 284 97q55 0 97 -6.5t80.5 -19.5t82.5 -33t104 -48q146 -66 214 -66q33 0 57 15.5t24 38.5q0 15 -13 27q-7 10 -7 14q0 2 2 2q8 0 22 -17t14 -37q0 -22 -16.5 -38t-42 -24.5t-52.5 -8.5
q-75 0 -221 67q-54 25 -93 42.5t-72 29t-65.5 17t-72.5 5.5q-207 0 -326 -134q-13 -14 -25 -40.5t-19.5 -55.5t-7.5 -52q0 -58 41 -90q32 47 74.5 84.5t91.5 59.5t101 22q90 0 90 -70q0 -84 -99 -183q-98 -98 -182 -98q-54 0 -54 46q0 16 8.5 28t20.5 9q0 -5 -1 -12.5
t-1 -10.5q0 -15 46 -15q68 0 146 72q38 36 65.5 80t27.5 82q0 45 -58 45q-42 0 -84.5 -23t-80.5 -59.5t-69 -77.5q5 -2 13 -4t18 -4l60 -2q44 -2 44 -10q0 -14 -40 -14q-18 0 -34.5 1t-31.5 3q-11 2 -21.5 4.5t-20.5 6.5q-77 -118 -77 -217q0 -128 99 -128q112 0 233 156
l196 292q107 159 191 164l38 -9q18 -9 18 -36q0 -14 -10 -14q-3 0 -14.5 2.5t-17.5 2.5q-71 0 -177 -149l-199 -278q-128 -149 -245 -149z" />
    <glyph glyph-name="Tbar" unicode="&#x166;" horiz-adv-x="661" 
d="M169 -101q-79 0 -110 42t-31 124q0 110 64 216q-74 47 -74 139q0 111 98 197q110 97 284 97q55 0 97 -6.5t80.5 -19.5t82.5 -33t104 -48q146 -66 214 -66q33 0 57 15.5t24 38.5q0 15 -13 27q-7 10 -7 14q0 2 2 2q8 0 22 -17t14 -37q0 -22 -16.5 -38t-42 -24.5t-52.5 -8.5
q-75 0 -221 67q-54 25 -93 42.5t-72 29t-65.5 17t-72.5 5.5q-207 0 -326 -134q-13 -14 -25 -40.5t-19.5 -55.5t-7.5 -52q0 -58 41 -90q32 47 74.5 84.5t91.5 59.5t101 22q90 0 90 -70q0 -84 -99 -183q-98 -98 -182 -98q-54 0 -54 46q0 16 8.5 28t20.5 9q0 -5 -1 -12.5
t-1 -10.5q0 -15 46 -15q68 0 146 72q38 36 65.5 80t27.5 82q0 45 -58 45q-42 0 -84.5 -23t-80.5 -59.5t-69 -77.5q5 -2 13 -4t18 -4l60 -2q44 -2 44 -10q0 -14 -40 -14q-18 0 -34.5 1t-31.5 3q-11 2 -21.5 4.5t-20.5 6.5q-77 -118 -77 -217q0 -128 99 -128q112 0 233 156
l196 292q107 159 191 164l38 -9q18 -9 18 -36q0 -14 -10 -14q-3 0 -14.5 2.5t-17.5 2.5q-71 0 -177 -149l-199 -278q-128 -149 -245 -149zM584 365q-8 -2 -19 -1.5t-25 1.5q-32 4 -32 14q0 8 9 12t16 4h3.5t6.5 1h26q22 1 56 0q51 -1 88.5 -0.5t60.5 1.5q8 -11 -78 -21
q-28 -3 -56 -5.5t-56 -5.5z" />
    <glyph glyph-name="Tcaron" unicode="&#x164;" horiz-adv-x="661" 
d="M169 -101q-79 0 -110 42t-31 124q0 110 64 216q-74 47 -74 139q0 111 98 197q110 97 284 97q55 0 97 -6.5t80.5 -19.5t82.5 -33t104 -48q146 -66 214 -66q33 0 57 15.5t24 38.5q0 15 -13 27q-7 10 -7 14q0 2 2 2q8 0 22 -17t14 -37q0 -22 -16.5 -38t-42 -24.5t-52.5 -8.5
q-75 0 -221 67q-54 25 -93 42.5t-72 29t-65.5 17t-72.5 5.5q-207 0 -326 -134q-13 -14 -25 -40.5t-19.5 -55.5t-7.5 -52q0 -58 41 -90q32 47 74.5 84.5t91.5 59.5t101 22q90 0 90 -70q0 -84 -99 -183q-98 -98 -182 -98q-54 0 -54 46q0 16 8.5 28t20.5 9q0 -5 -1 -12.5
t-1 -10.5q0 -15 46 -15q68 0 146 72q38 36 65.5 80t27.5 82q0 45 -58 45q-42 0 -84.5 -23t-80.5 -59.5t-69 -77.5q5 -2 13 -4t18 -4l60 -2q44 -2 44 -10q0 -14 -40 -14q-18 0 -34.5 1t-31.5 3q-11 2 -21.5 4.5t-20.5 6.5q-77 -118 -77 -217q0 -128 99 -128q112 0 233 156
l196 292q107 159 191 164l38 -9q18 -9 18 -36q0 -14 -10 -14q-3 0 -14.5 2.5t-17.5 2.5q-71 0 -177 -149l-199 -278q-128 -149 -245 -149zM789 774q5 0 11.5 -10t17.5 -25q5 -5 7 -11.5t5 -12.5q17 8 43 22.5t42 21.5q8 4 21.5 9.5t20.5 5.5q10 0 10 -6q0 -4 -6.5 -11
t-12.5 -11q-22 -10 -50 -25t-51 -26.5t-30 -11.5q-12 0 -20.5 12t-16.5 29q-2 7 -4 13.5t-2 13.5q0 23 15 23z" />
    <glyph glyph-name="uni0162" unicode="&#x162;" horiz-adv-x="661" 
d="M169 -101q-79 0 -110 42t-31 124q0 110 64 216q-74 47 -74 139q0 111 98 197q110 97 284 97q55 0 97 -6.5t80.5 -19.5t82.5 -33t104 -48q146 -66 214 -66q33 0 57 15.5t24 38.5q0 15 -13 27q-7 10 -7 14q0 2 2 2q8 0 22 -17t14 -37q0 -22 -16.5 -38t-42 -24.5t-52.5 -8.5
q-75 0 -221 67q-54 25 -93 42.5t-72 29t-65.5 17t-72.5 5.5q-207 0 -326 -134q-13 -14 -25 -40.5t-19.5 -55.5t-7.5 -52q0 -58 41 -90q32 47 74.5 84.5t91.5 59.5t101 22q90 0 90 -70q0 -84 -99 -183q-98 -98 -182 -98q-54 0 -54 46q0 16 8.5 28t20.5 9q0 -5 -1 -12.5
t-1 -10.5q0 -15 46 -15q68 0 146 72q38 36 65.5 80t27.5 82q0 45 -58 45q-42 0 -84.5 -23t-80.5 -59.5t-69 -77.5q5 -2 13 -4t18 -4l60 -2q44 -2 44 -10q0 -14 -40 -14q-18 0 -34.5 1t-31.5 3q-11 2 -21.5 4.5t-20.5 6.5q-77 -118 -77 -217q0 -128 99 -128q112 0 233 156
l196 292q107 159 191 164l38 -9q18 -9 18 -36q0 -14 -10 -14q-3 0 -14.5 2.5t-17.5 2.5q-71 0 -177 -149l-199 -278q-128 -149 -245 -149zM68 -290q-4 1 -4 3q0 1 23 27t20 46q-1 11 -14 19.5t-13 17.5q0 30 29 30q14 0 28 -9.5t14 -24.5q0 -42 -35 -80q-32 -33 -48 -29z
" />
    <glyph glyph-name="uni021A" unicode="&#x21a;" horiz-adv-x="661" 
d="M169 -101q-79 0 -110 42t-31 124q0 110 64 216q-74 47 -74 139q0 111 98 197q110 97 284 97q55 0 97 -6.5t80.5 -19.5t82.5 -33t104 -48q146 -66 214 -66q33 0 57 15.5t24 38.5q0 15 -13 27q-7 10 -7 14q0 2 2 2q8 0 22 -17t14 -37q0 -22 -16.5 -38t-42 -24.5t-52.5 -8.5
q-75 0 -221 67q-54 25 -93 42.5t-72 29t-65.5 17t-72.5 5.5q-207 0 -326 -134q-13 -14 -25 -40.5t-19.5 -55.5t-7.5 -52q0 -58 41 -90q32 47 74.5 84.5t91.5 59.5t101 22q90 0 90 -70q0 -84 -99 -183q-98 -98 -182 -98q-54 0 -54 46q0 16 8.5 28t20.5 9q0 -5 -1 -12.5
t-1 -10.5q0 -15 46 -15q68 0 146 72q38 36 65.5 80t27.5 82q0 45 -58 45q-42 0 -84.5 -23t-80.5 -59.5t-69 -77.5q5 -2 13 -4t18 -4l60 -2q44 -2 44 -10q0 -14 -40 -14q-18 0 -34.5 1t-31.5 3q-11 2 -21.5 4.5t-20.5 6.5q-77 -118 -77 -217q0 -128 99 -128q112 0 233 156
l196 292q107 159 191 164l38 -9q18 -9 18 -36q0 -14 -10 -14q-3 0 -14.5 2.5t-17.5 2.5q-71 0 -177 -149l-199 -278q-128 -149 -245 -149zM68 -290q-4 1 -4 3q0 1 23 27t20 46q-1 11 -14 19.5t-13 17.5q0 30 29 30q14 0 28 -9.5t14 -24.5q0 -42 -35 -80q-32 -33 -48 -29z
" />
    <glyph glyph-name="Thorn" unicode="&#xde;" horiz-adv-x="475" 
d="M-13 -220q-35 0 -39 27t16.5 72t55.5 99l346 527q19 31 30.5 52.5t14.5 34.5q6 21 -12 21q-7 0 -19.5 -3.5t-17.5 -3.5q-6 0 -5 6q5 15 49 15q26 0 45.5 -12.5t11.5 -38.5q-2 -10 -13 -28.5t-37 -59.5q-6 -9 -17.5 -27.5t-25 -41t-26 -42.5t-20.5 -31q10 9 42 18
q15 5 26.5 7t18.5 3q41 2 68.5 -19.5t27.5 -56.5q0 -40 -22.5 -86.5t-71.5 -84.5q-44 -34 -84.5 -44.5t-74.5 -10.5q-45 0 -62 5q-20 6 -39 25q-37 -54 -72.5 -110t-62.5 -103t-37 -74q-8 -24 11 -24q7 0 18.5 5.5t15.5 5.5q3 0 1 -2q-2 -7 -17.5 -13.5t-22.5 -6.5zM241 100
q28 0 61.5 7.5t70.5 35.5q43 34 63 78.5t20 86.5q0 38 -47 38q-43 0 -80 -19q-6 -3 -17 -12t-27 -25q-28 -40 -59 -83.5t-61 -87.5q9 -8 26 -12q22 -7 50 -7z" />
    <glyph glyph-name="U" unicode="U" horiz-adv-x="801" 
d="M345 -19q-43 0 -43 29q0 52 145 257q59 83 96 136t52 76q61 94 61 128q0 19 -21.5 25t-47.5 6q-110 0 -281 -117q-45 -31 -90.5 -74.5t-83.5 -92.5t-61.5 -97.5t-23.5 -90.5q0 -34 18 -46.5t54 -12.5q51 0 105 33q27 16 68 53l18 6q-19 -36 -76 -71q-64 -39 -128 -39
q-47 0 -69.5 28t-22.5 69q0 157 296 369q39 28 90 52t104 39t97 15q23 0 45.5 -5.5t37 -18t14.5 -33.5q0 -30 -44 -100q-15 -24 -48.5 -71t-85.5 -118q-44 -59 -88 -134q-14 -24 -28.5 -51t-23.5 -50t-9 -37q0 -17 14 -17q27 0 101 56q176 134 414 435q38 48 61 48q9 0 9 -9
q0 -4 -3 -10q5 -24 -23 -63l-118 -167q-34 -47 -63.5 -93.5t-55.5 -90.5q-63 -106 -59 -122l18 6q18 10 45 30t42 35q13 10 16 10l2 -2q0 -9 -27 -38q-70 -61 -104 -61q-26 0 -26 19t40 92q36 67 82.5 141.5t102.5 157.5q-7 -9 -23 -27t-40 -44q-64 -65 -108 -109.5
t-69 -69.5q-92 -92 -118 -112q-73 -57 -136 -57z" />
    <glyph glyph-name="Uacute" unicode="&#xda;" horiz-adv-x="801" 
d="M345 -19q-43 0 -43 29q0 52 145 257q59 83 96 136t52 76q61 94 61 128q0 19 -21.5 25t-47.5 6q-110 0 -281 -117q-45 -31 -90.5 -74.5t-83.5 -92.5t-61.5 -97.5t-23.5 -90.5q0 -34 18 -46.5t54 -12.5q51 0 105 33q27 16 68 53l18 6q-19 -36 -76 -71q-64 -39 -128 -39
q-47 0 -69.5 28t-22.5 69q0 157 296 369q39 28 90 52t104 39t97 15q23 0 45.5 -5.5t37 -18t14.5 -33.5q0 -30 -44 -100q-15 -24 -48.5 -71t-85.5 -118q-44 -59 -88 -134q-14 -24 -28.5 -51t-23.5 -50t-9 -37q0 -17 14 -17q27 0 101 56q176 134 414 435q38 48 61 48q9 0 9 -9
q0 -4 -3 -10q5 -24 -23 -63l-118 -167q-34 -47 -63.5 -93.5t-55.5 -90.5q-63 -106 -59 -122l18 6q18 10 45 30t42 35q13 10 16 10l2 -2q0 -9 -27 -38q-70 -61 -104 -61q-26 0 -26 19t40 92q36 67 82.5 141.5t102.5 157.5q-7 -9 -23 -27t-40 -44q-64 -65 -108 -109.5
t-69 -69.5q-92 -92 -118 -112q-73 -57 -136 -57zM807 650q-8 0 -8 6q0 5 10 9q29 12 55 24t47 22q9 5 15 6t9 1q6 0 11 -8.5t5 -16.5q0 -7 -6.5 -11t-11.5 -6q-7 -3 -22 -8t-40 -10q-37 -8 -64 -8z" />
    <glyph glyph-name="Ubreve" unicode="&#x16c;" horiz-adv-x="801" 
d="M345 -19q-43 0 -43 29q0 52 145 257q59 83 96 136t52 76q61 94 61 128q0 19 -21.5 25t-47.5 6q-110 0 -281 -117q-45 -31 -90.5 -74.5t-83.5 -92.5t-61.5 -97.5t-23.5 -90.5q0 -34 18 -46.5t54 -12.5q51 0 105 33q27 16 68 53l18 6q-19 -36 -76 -71q-64 -39 -128 -39
q-47 0 -69.5 28t-22.5 69q0 157 296 369q39 28 90 52t104 39t97 15q23 0 45.5 -5.5t37 -18t14.5 -33.5q0 -30 -44 -100q-15 -24 -48.5 -71t-85.5 -118q-44 -59 -88 -134q-14 -24 -28.5 -51t-23.5 -50t-9 -37q0 -17 14 -17q27 0 101 56q176 134 414 435q38 48 61 48q9 0 9 -9
q0 -4 -3 -10q5 -24 -23 -63l-118 -167q-34 -47 -63.5 -93.5t-55.5 -90.5q-63 -106 -59 -122l18 6q18 10 45 30t42 35q13 10 16 10l2 -2q0 -9 -27 -38q-70 -61 -104 -61q-26 0 -26 19t40 92q36 67 82.5 141.5t102.5 157.5q-7 -9 -23 -27t-40 -44q-64 -65 -108 -109.5
t-69 -69.5q-92 -92 -118 -112q-73 -57 -136 -57zM833 653q-19 0 -33 10.5t-14 36.5q0 1 0.5 9t4 15.5t10.5 7.5q5 0 7 -5.5t4 -13.5q3 -12 9 -16.5t24 -4.5q17 0 32 5t37 23q5 5 16.5 13t11.5 0q0 -11 -11 -26q-16 -22 -43.5 -38t-54.5 -16z" />
    <glyph glyph-name="Ucircumflex" unicode="&#xdb;" horiz-adv-x="801" 
d="M345 -19q-43 0 -43 29q0 52 145 257q59 83 96 136t52 76q61 94 61 128q0 19 -21.5 25t-47.5 6q-110 0 -281 -117q-45 -31 -90.5 -74.5t-83.5 -92.5t-61.5 -97.5t-23.5 -90.5q0 -34 18 -46.5t54 -12.5q51 0 105 33q27 16 68 53l18 6q-19 -36 -76 -71q-64 -39 -128 -39
q-47 0 -69.5 28t-22.5 69q0 157 296 369q39 28 90 52t104 39t97 15q23 0 45.5 -5.5t37 -18t14.5 -33.5q0 -30 -44 -100q-15 -24 -48.5 -71t-85.5 -118q-44 -59 -88 -134q-14 -24 -28.5 -51t-23.5 -50t-9 -37q0 -17 14 -17q27 0 101 56q176 134 414 435q38 48 61 48q9 0 9 -9
q0 -4 -3 -10q5 -24 -23 -63l-118 -167q-34 -47 -63.5 -93.5t-55.5 -90.5q-63 -106 -59 -122l18 6q18 10 45 30t42 35q13 10 16 10l2 -2q0 -9 -27 -38q-70 -61 -104 -61q-26 0 -26 19t40 92q36 67 82.5 141.5t102.5 157.5q-7 -9 -23 -27t-40 -44q-64 -65 -108 -109.5
t-69 -69.5q-92 -92 -118 -112q-73 -57 -136 -57zM746 648q-4 0 -5.5 6t5.5 10q6 5 19 14t29 19q29 17 46.5 28.5t30.5 11.5q8 0 12.5 -5t11.5 -13q8 -10 14.5 -19t12.5 -18q5 -7 9 -12.5t4 -11.5q0 -4 -7 -9.5t-14 -5.5q-12 -1 -27 18q-6 7 -14.5 20t-15.5 23
q-10 -6 -20.5 -12t-25.5 -14q-24 -12 -41 -21t-24 -9z" />
    <glyph glyph-name="uni0214" unicode="&#x214;" horiz-adv-x="801" 
d="M345 -19q-43 0 -43 29q0 52 145 257q59 83 96 136t52 76q61 94 61 128q0 19 -21.5 25t-47.5 6q-110 0 -281 -117q-45 -31 -90.5 -74.5t-83.5 -92.5t-61.5 -97.5t-23.5 -90.5q0 -34 18 -46.5t54 -12.5q51 0 105 33q27 16 68 53l18 6q-19 -36 -76 -71q-64 -39 -128 -39
q-47 0 -69.5 28t-22.5 69q0 157 296 369q39 28 90 52t104 39t97 15q23 0 45.5 -5.5t37 -18t14.5 -33.5q0 -30 -44 -100q-15 -24 -48.5 -71t-85.5 -118q-44 -59 -88 -134q-14 -24 -28.5 -51t-23.5 -50t-9 -37q0 -17 14 -17q27 0 101 56q176 134 414 435q38 48 61 48q9 0 9 -9
q0 -4 -3 -10q5 -24 -23 -63l-118 -167q-34 -47 -63.5 -93.5t-55.5 -90.5q-63 -106 -59 -122l18 6q18 10 45 30t42 35q13 10 16 10l2 -2q0 -9 -27 -38q-70 -61 -104 -61q-26 0 -26 19t40 92q36 67 82.5 141.5t102.5 157.5q-7 -9 -23 -27t-40 -44q-64 -65 -108 -109.5
t-69 -69.5q-92 -92 -118 -112q-73 -57 -136 -57zM933 645q-6 2 -19.5 10t-38.5 25q-20 15 -31.5 26t-16.5 18q-3 4 -6.5 9.5t-2.5 10.5q1 7 10 13.5t13 5.5q6 -1 15 -12l82 -94q3 -2 3 -7q-2 -8 -8 -5zM833 645l-21 7t-42 18q-22 11 -36 20t-19 14l-8.5 8.5t-4.5 10.5
q0 7 8 14.5t12 7.5q7 0 17 -9l97 -78q4 -3 4 -7q0 -8 -7 -6z" />
    <glyph glyph-name="Udieresis" unicode="&#xdc;" horiz-adv-x="801" 
d="M345 -19q-43 0 -43 29q0 52 145 257q59 83 96 136t52 76q61 94 61 128q0 19 -21.5 25t-47.5 6q-110 0 -281 -117q-45 -31 -90.5 -74.5t-83.5 -92.5t-61.5 -97.5t-23.5 -90.5q0 -34 18 -46.5t54 -12.5q51 0 105 33q27 16 68 53l18 6q-19 -36 -76 -71q-64 -39 -128 -39
q-47 0 -69.5 28t-22.5 69q0 157 296 369q39 28 90 52t104 39t97 15q23 0 45.5 -5.5t37 -18t14.5 -33.5q0 -30 -44 -100q-15 -24 -48.5 -71t-85.5 -118q-44 -59 -88 -134q-14 -24 -28.5 -51t-23.5 -50t-9 -37q0 -17 14 -17q27 0 101 56q176 134 414 435q38 48 61 48q9 0 9 -9
q0 -4 -3 -10q5 -24 -23 -63l-118 -167q-34 -47 -63.5 -93.5t-55.5 -90.5q-63 -106 -59 -122l18 6q18 10 45 30t42 35q13 10 16 10l2 -2q0 -9 -27 -38q-70 -61 -104 -61q-26 0 -26 19t40 92q36 67 82.5 141.5t102.5 157.5q-7 -9 -23 -27t-40 -44q-64 -65 -108 -109.5
t-69 -69.5q-92 -92 -118 -112q-73 -57 -136 -57zM921 647q-7 0 -14 10.5t-7 18.5q0 15 29 36q14 12 27.5 12.5t7.5 -10.5l-16 -40q-10 -27 -27 -27zM800 647q-7 0 -14 10.5t-7 18.5q0 15 29 36q20 12 30 11t5 -9l-16 -40q-10 -27 -27 -27z" />
    <glyph glyph-name="uni1EE4" unicode="&#x1ee4;" horiz-adv-x="801" 
d="M345 -19q-43 0 -43 29q0 52 145 257q59 83 96 136t52 76q61 94 61 128q0 19 -21.5 25t-47.5 6q-110 0 -281 -117q-45 -31 -90.5 -74.5t-83.5 -92.5t-61.5 -97.5t-23.5 -90.5q0 -34 18 -46.5t54 -12.5q51 0 105 33q27 16 68 53l18 6q-19 -36 -76 -71q-64 -39 -128 -39
q-47 0 -69.5 28t-22.5 69q0 157 296 369q39 28 90 52t104 39t97 15q23 0 45.5 -5.5t37 -18t14.5 -33.5q0 -30 -44 -100q-15 -24 -48.5 -71t-85.5 -118q-44 -59 -88 -134q-14 -24 -28.5 -51t-23.5 -50t-9 -37q0 -17 14 -17q27 0 101 56q176 134 414 435q38 48 61 48q9 0 9 -9
q0 -4 -3 -10q5 -24 -23 -63l-118 -167q-34 -47 -63.5 -93.5t-55.5 -90.5q-63 -106 -59 -122l18 6q18 10 45 30t42 35q13 10 16 10l2 -2q0 -9 -27 -38q-70 -61 -104 -61q-26 0 -26 19t40 92q36 67 82.5 141.5t102.5 157.5q-7 -9 -23 -27t-40 -44q-64 -65 -108 -109.5
t-69 -69.5q-92 -92 -118 -112q-73 -57 -136 -57zM338 -139q-7 0 -14 10.5t-7 18.5q0 15 29 36q20 12 30 11t5 -9l-16 -40q-12 -27 -27 -27z" />
    <glyph glyph-name="Ugrave" unicode="&#xd9;" horiz-adv-x="801" 
d="M345 -19q-43 0 -43 29q0 52 145 257q59 83 96 136t52 76q61 94 61 128q0 19 -21.5 25t-47.5 6q-110 0 -281 -117q-45 -31 -90.5 -74.5t-83.5 -92.5t-61.5 -97.5t-23.5 -90.5q0 -34 18 -46.5t54 -12.5q51 0 105 33q27 16 68 53l18 6q-19 -36 -76 -71q-64 -39 -128 -39
q-47 0 -69.5 28t-22.5 69q0 157 296 369q39 28 90 52t104 39t97 15q23 0 45.5 -5.5t37 -18t14.5 -33.5q0 -30 -44 -100q-15 -24 -48.5 -71t-85.5 -118q-44 -59 -88 -134q-14 -24 -28.5 -51t-23.5 -50t-9 -37q0 -17 14 -17q27 0 101 56q176 134 414 435q38 48 61 48q9 0 9 -9
q0 -4 -3 -10q5 -24 -23 -63l-118 -167q-34 -47 -63.5 -93.5t-55.5 -90.5q-63 -106 -59 -122l18 6q18 10 45 30t42 35q13 10 16 10l2 -2q0 -9 -27 -38q-70 -61 -104 -61q-26 0 -26 19t40 92q36 67 82.5 141.5t102.5 157.5q-7 -9 -23 -27t-40 -44q-64 -65 -108 -109.5
t-69 -69.5q-92 -92 -118 -112q-73 -57 -136 -57zM900 650q-27 0 -64 8q-25 5 -40 10t-22 8q-5 2 -11.5 6t-6.5 11q0 8 5 16.5t11 8.5q3 0 9 -1t15 -6q21 -10 47 -22t55 -24q10 -4 10 -9q0 -6 -8 -6z" />
    <glyph glyph-name="uni1EE6" unicode="&#x1ee6;" horiz-adv-x="801" 
d="M345 -19q-43 0 -43 29q0 52 145 257q59 83 96 136t52 76q61 94 61 128q0 19 -21.5 25t-47.5 6q-110 0 -281 -117q-45 -31 -90.5 -74.5t-83.5 -92.5t-61.5 -97.5t-23.5 -90.5q0 -34 18 -46.5t54 -12.5q51 0 105 33q27 16 68 53l18 6q-19 -36 -76 -71q-64 -39 -128 -39
q-47 0 -69.5 28t-22.5 69q0 157 296 369q39 28 90 52t104 39t97 15q23 0 45.5 -5.5t37 -18t14.5 -33.5q0 -30 -44 -100q-15 -24 -48.5 -71t-85.5 -118q-44 -59 -88 -134q-14 -24 -28.5 -51t-23.5 -50t-9 -37q0 -17 14 -17q27 0 101 56q176 134 414 435q38 48 61 48q9 0 9 -9
q0 -4 -3 -10q5 -24 -23 -63l-118 -167q-34 -47 -63.5 -93.5t-55.5 -90.5q-63 -106 -59 -122l18 6q18 10 45 30t42 35q13 10 16 10l2 -2q0 -9 -27 -38q-70 -61 -104 -61q-26 0 -26 19t40 92q36 67 82.5 141.5t102.5 157.5q-7 -9 -23 -27t-40 -44q-64 -65 -108 -109.5
t-69 -69.5q-92 -92 -118 -112q-73 -57 -136 -57zM824 648q-4 0 -5 3t1 4q20 14 36 25.5t16 27.5q0 15 -17 15q-10 0 -24.5 -6t-25.5 -17l-0.5 -0.5t-1.5 -0.5t-2 2t0 4q8 23 28.5 35t46.5 10q13 -1 20 -10.5t7 -20.5q0 -15 -7.5 -26t-20.5 -19q-19 -12 -31 -19t-17 -7h-3z
" />
    <glyph glyph-name="Uhorn" unicode="&#x1af;" horiz-adv-x="801" 
d="M345 -19q-43 0 -43 29q0 52 145 257q59 83 96 136t52 76q61 94 61 128q0 19 -21.5 25t-47.5 6q-110 0 -281 -117q-45 -31 -90.5 -74.5t-83.5 -92.5t-61.5 -97.5t-23.5 -90.5q0 -34 18 -46.5t54 -12.5q51 0 105 33q27 16 68 53l18 6q-19 -36 -76 -71q-64 -39 -128 -39
q-47 0 -69.5 28t-22.5 69q0 157 296 369q39 28 90 52t104 39t97 15q23 0 45.5 -5.5t37 -18t14.5 -33.5q0 -30 -44 -100q-15 -24 -48.5 -71t-85.5 -118q-44 -59 -88 -134q-14 -24 -28.5 -51t-23.5 -50t-9 -37q0 -17 14 -17q27 0 101 56q176 134 414 435q38 48 61 48q9 0 9 -9
q0 -4 -3 -10q5 -24 -23 -63l-118 -167q-34 -47 -63.5 -93.5t-55.5 -90.5q-63 -106 -59 -122l18 6q18 10 45 30t42 35q13 10 16 10l2 -2q0 -9 -27 -38q-70 -61 -104 -61q-26 0 -26 19t40 92q36 67 82.5 141.5t102.5 157.5q-7 -9 -23 -27t-40 -44q-64 -65 -108 -109.5
t-69 -69.5q-92 -92 -118 -112q-73 -57 -136 -57zM957 542l1 19q17 0 34 6t17 22q0 11 -6.5 16t-17.5 8q-10 3 -10 10q0 12 19 12q18 0 31 -11.5t13 -30.5q0 -20 -14 -31t-32.5 -15.5t-34.5 -4.5z" />
    <glyph glyph-name="uni1EE8" unicode="&#x1ee8;" horiz-adv-x="801" 
d="M345 -19q-43 0 -43 29q0 52 145 257q59 83 96 136t52 76q61 94 61 128q0 19 -21.5 25t-47.5 6q-110 0 -281 -117q-45 -31 -90.5 -74.5t-83.5 -92.5t-61.5 -97.5t-23.5 -90.5q0 -34 18 -46.5t54 -12.5q51 0 105 33q27 16 68 53l18 6q-19 -36 -76 -71q-64 -39 -128 -39
q-47 0 -69.5 28t-22.5 69q0 157 296 369q39 28 90 52t104 39t97 15q23 0 45.5 -5.5t37 -18t14.5 -33.5q0 -30 -44 -100q-15 -24 -48.5 -71t-85.5 -118q-44 -59 -88 -134q-14 -24 -28.5 -51t-23.5 -50t-9 -37q0 -17 14 -17q27 0 101 56q176 134 414 435q38 48 61 48q9 0 9 -9
q0 -4 -3 -10q5 -24 -23 -63l-118 -167q-34 -47 -63.5 -93.5t-55.5 -90.5q-63 -106 -59 -122l18 6q18 10 45 30t42 35q13 10 16 10l2 -2q0 -9 -27 -38q-70 -61 -104 -61q-26 0 -26 19t40 92q36 67 82.5 141.5t102.5 157.5q-7 -9 -23 -27t-40 -44q-64 -65 -108 -109.5
t-69 -69.5q-92 -92 -118 -112q-73 -57 -136 -57zM957 542l1 19q17 0 34 6t17 22q0 11 -6.5 16t-17.5 8q-10 3 -10 10q0 12 19 12q18 0 31 -11.5t13 -30.5q0 -20 -14 -31t-32.5 -15.5t-34.5 -4.5zM807 650q-8 0 -8 6q0 5 10 9q29 12 55 24t47 22q9 5 15 6t9 1q6 0 11 -8.5
t5 -16.5q0 -7 -6.5 -11t-11.5 -6q-7 -3 -22 -8t-40 -10q-37 -8 -64 -8z" />
    <glyph glyph-name="uni1EF0" unicode="&#x1ef0;" horiz-adv-x="801" 
d="M345 -19q-43 0 -43 29q0 52 145 257q59 83 96 136t52 76q61 94 61 128q0 19 -21.5 25t-47.5 6q-110 0 -281 -117q-45 -31 -90.5 -74.5t-83.5 -92.5t-61.5 -97.5t-23.5 -90.5q0 -34 18 -46.5t54 -12.5q51 0 105 33q27 16 68 53l18 6q-19 -36 -76 -71q-64 -39 -128 -39
q-47 0 -69.5 28t-22.5 69q0 157 296 369q39 28 90 52t104 39t97 15q23 0 45.5 -5.5t37 -18t14.5 -33.5q0 -30 -44 -100q-15 -24 -48.5 -71t-85.5 -118q-44 -59 -88 -134q-14 -24 -28.5 -51t-23.5 -50t-9 -37q0 -17 14 -17q27 0 101 56q176 134 414 435q38 48 61 48q9 0 9 -9
q0 -4 -3 -10q5 -24 -23 -63l-118 -167q-34 -47 -63.5 -93.5t-55.5 -90.5q-63 -106 -59 -122l18 6q18 10 45 30t42 35q13 10 16 10l2 -2q0 -9 -27 -38q-70 -61 -104 -61q-26 0 -26 19t40 92q36 67 82.5 141.5t102.5 157.5q-7 -9 -23 -27t-40 -44q-64 -65 -108 -109.5
t-69 -69.5q-92 -92 -118 -112q-73 -57 -136 -57zM957 542l1 19q17 0 34 6t17 22q0 11 -6.5 16t-17.5 8q-10 3 -10 10q0 12 19 12q18 0 31 -11.5t13 -30.5q0 -20 -14 -31t-32.5 -15.5t-34.5 -4.5zM338 -139q-7 0 -14 10.5t-7 18.5q0 15 29 36q20 12 30 11t5 -9l-16 -40
q-12 -27 -27 -27z" />
    <glyph glyph-name="uni1EEA" unicode="&#x1eea;" horiz-adv-x="801" 
d="M345 -19q-43 0 -43 29q0 52 145 257q59 83 96 136t52 76q61 94 61 128q0 19 -21.5 25t-47.5 6q-110 0 -281 -117q-45 -31 -90.5 -74.5t-83.5 -92.5t-61.5 -97.5t-23.5 -90.5q0 -34 18 -46.5t54 -12.5q51 0 105 33q27 16 68 53l18 6q-19 -36 -76 -71q-64 -39 -128 -39
q-47 0 -69.5 28t-22.5 69q0 157 296 369q39 28 90 52t104 39t97 15q23 0 45.5 -5.5t37 -18t14.5 -33.5q0 -30 -44 -100q-15 -24 -48.5 -71t-85.5 -118q-44 -59 -88 -134q-14 -24 -28.5 -51t-23.5 -50t-9 -37q0 -17 14 -17q27 0 101 56q176 134 414 435q38 48 61 48q9 0 9 -9
q0 -4 -3 -10q5 -24 -23 -63l-118 -167q-34 -47 -63.5 -93.5t-55.5 -90.5q-63 -106 -59 -122l18 6q18 10 45 30t42 35q13 10 16 10l2 -2q0 -9 -27 -38q-70 -61 -104 -61q-26 0 -26 19t40 92q36 67 82.5 141.5t102.5 157.5q-7 -9 -23 -27t-40 -44q-64 -65 -108 -109.5
t-69 -69.5q-92 -92 -118 -112q-73 -57 -136 -57zM957 542l1 19q17 0 34 6t17 22q0 11 -6.5 16t-17.5 8q-10 3 -10 10q0 12 19 12q18 0 31 -11.5t13 -30.5q0 -20 -14 -31t-32.5 -15.5t-34.5 -4.5zM900 650q-27 0 -64 8q-25 5 -40 10t-22 8q-5 2 -11.5 6t-6.5 11q0 8 5 16.5
t11 8.5q3 0 9 -1t15 -6q21 -10 47 -22t55 -24q10 -4 10 -9q0 -6 -8 -6z" />
    <glyph glyph-name="uni1EEC" unicode="&#x1eec;" horiz-adv-x="801" 
d="M345 -19q-43 0 -43 29q0 52 145 257q59 83 96 136t52 76q61 94 61 128q0 19 -21.5 25t-47.5 6q-110 0 -281 -117q-45 -31 -90.5 -74.5t-83.5 -92.5t-61.5 -97.5t-23.5 -90.5q0 -34 18 -46.5t54 -12.5q51 0 105 33q27 16 68 53l18 6q-19 -36 -76 -71q-64 -39 -128 -39
q-47 0 -69.5 28t-22.5 69q0 157 296 369q39 28 90 52t104 39t97 15q23 0 45.5 -5.5t37 -18t14.5 -33.5q0 -30 -44 -100q-15 -24 -48.5 -71t-85.5 -118q-44 -59 -88 -134q-14 -24 -28.5 -51t-23.5 -50t-9 -37q0 -17 14 -17q27 0 101 56q176 134 414 435q38 48 61 48q9 0 9 -9
q0 -4 -3 -10q5 -24 -23 -63l-118 -167q-34 -47 -63.5 -93.5t-55.5 -90.5q-63 -106 -59 -122l18 6q18 10 45 30t42 35q13 10 16 10l2 -2q0 -9 -27 -38q-70 -61 -104 -61q-26 0 -26 19t40 92q36 67 82.5 141.5t102.5 157.5q-7 -9 -23 -27t-40 -44q-64 -65 -108 -109.5
t-69 -69.5q-92 -92 -118 -112q-73 -57 -136 -57zM957 542l1 19q17 0 34 6t17 22q0 11 -6.5 16t-17.5 8q-10 3 -10 10q0 12 19 12q18 0 31 -11.5t13 -30.5q0 -20 -14 -31t-32.5 -15.5t-34.5 -4.5zM824 648q-4 0 -5 3t1 4q20 14 36 25.5t16 27.5q0 15 -17 15q-10 0 -24.5 -6
t-25.5 -17l-0.5 -0.5t-1.5 -0.5t-2 2t0 4q8 23 28.5 35t46.5 10q13 -1 20 -10.5t7 -20.5q0 -15 -7.5 -26t-20.5 -19q-19 -12 -31 -19t-17 -7h-3z" />
    <glyph glyph-name="uni1EEE" unicode="&#x1eee;" horiz-adv-x="801" 
d="M345 -19q-43 0 -43 29q0 52 145 257q59 83 96 136t52 76q61 94 61 128q0 19 -21.5 25t-47.5 6q-110 0 -281 -117q-45 -31 -90.5 -74.5t-83.5 -92.5t-61.5 -97.5t-23.5 -90.5q0 -34 18 -46.5t54 -12.5q51 0 105 33q27 16 68 53l18 6q-19 -36 -76 -71q-64 -39 -128 -39
q-47 0 -69.5 28t-22.5 69q0 157 296 369q39 28 90 52t104 39t97 15q23 0 45.5 -5.5t37 -18t14.5 -33.5q0 -30 -44 -100q-15 -24 -48.5 -71t-85.5 -118q-44 -59 -88 -134q-14 -24 -28.5 -51t-23.5 -50t-9 -37q0 -17 14 -17q27 0 101 56q176 134 414 435q38 48 61 48q9 0 9 -9
q0 -4 -3 -10q5 -24 -23 -63l-118 -167q-34 -47 -63.5 -93.5t-55.5 -90.5q-63 -106 -59 -122l18 6q18 10 45 30t42 35q13 10 16 10l2 -2q0 -9 -27 -38q-70 -61 -104 -61q-26 0 -26 19t40 92q36 67 82.5 141.5t102.5 157.5q-7 -9 -23 -27t-40 -44q-64 -65 -108 -109.5
t-69 -69.5q-92 -92 -118 -112q-73 -57 -136 -57zM957 542l1 19q17 0 34 6t17 22q0 11 -6.5 16t-17.5 8q-10 3 -10 10q0 12 19 12q18 0 31 -11.5t13 -30.5q0 -20 -14 -31t-32.5 -15.5t-34.5 -4.5zM898 653q-8 0 -20 3.5t-28 10.5q-30 15 -45 15q-7 0 -15.5 -3t-16.5 -11
q-14 -14 -20 -14q-1 1 -1 2q0 17 41 45q14 11 34 11q15 0 45 -12q15 -6 26 -8.5t18 -2.5q22 0 40 23q5 0 5 -4q0 -18 -37 -46q-12 -9 -26 -9z" />
    <glyph glyph-name="Uhungarumlaut" unicode="&#x170;" horiz-adv-x="801" 
d="M345 -19q-43 0 -43 29q0 52 145 257q59 83 96 136t52 76q61 94 61 128q0 19 -21.5 25t-47.5 6q-110 0 -281 -117q-45 -31 -90.5 -74.5t-83.5 -92.5t-61.5 -97.5t-23.5 -90.5q0 -34 18 -46.5t54 -12.5q51 0 105 33q27 16 68 53l18 6q-19 -36 -76 -71q-64 -39 -128 -39
q-47 0 -69.5 28t-22.5 69q0 157 296 369q39 28 90 52t104 39t97 15q23 0 45.5 -5.5t37 -18t14.5 -33.5q0 -30 -44 -100q-15 -24 -48.5 -71t-85.5 -118q-44 -59 -88 -134q-14 -24 -28.5 -51t-23.5 -50t-9 -37q0 -17 14 -17q27 0 101 56q176 134 414 435q38 48 61 48q9 0 9 -9
q0 -4 -3 -10q5 -24 -23 -63l-118 -167q-34 -47 -63.5 -93.5t-55.5 -90.5q-63 -106 -59 -122l18 6q18 10 45 30t42 35q13 10 16 10l2 -2q0 -9 -27 -38q-70 -61 -104 -61q-26 0 -26 19t40 92q36 67 82.5 141.5t102.5 157.5q-7 -9 -23 -27t-40 -44q-64 -65 -108 -109.5
t-69 -69.5q-92 -92 -118 -112q-73 -57 -136 -57zM868 646q-4 0 -7 6q-2 3 -2 7l27 81q2 9 6 9q6 0 13 -13q6 -11 4 -19q-1 -4 -6.5 -14t-13.5 -26q-16 -31 -21 -31zM787 646q-4 0 -7 6q-3 4 -1 7l26 81q2 9 6 9q6 0 13 -13q6 -11 4 -19q-1 -4 -6.5 -14t-13.5 -26
q-16 -31 -21 -31z" />
    <glyph glyph-name="uni0216" unicode="&#x216;" horiz-adv-x="801" 
d="M345 -19q-43 0 -43 29q0 52 145 257q59 83 96 136t52 76q61 94 61 128q0 19 -21.5 25t-47.5 6q-110 0 -281 -117q-45 -31 -90.5 -74.5t-83.5 -92.5t-61.5 -97.5t-23.5 -90.5q0 -34 18 -46.5t54 -12.5q51 0 105 33q27 16 68 53l18 6q-19 -36 -76 -71q-64 -39 -128 -39
q-47 0 -69.5 28t-22.5 69q0 157 296 369q39 28 90 52t104 39t97 15q23 0 45.5 -5.5t37 -18t14.5 -33.5q0 -30 -44 -100q-15 -24 -48.5 -71t-85.5 -118q-44 -59 -88 -134q-14 -24 -28.5 -51t-23.5 -50t-9 -37q0 -17 14 -17q27 0 101 56q176 134 414 435q38 48 61 48q9 0 9 -9
q0 -4 -3 -10q5 -24 -23 -63l-118 -167q-34 -47 -63.5 -93.5t-55.5 -90.5q-63 -106 -59 -122l18 6q18 10 45 30t42 35q13 10 16 10l2 -2q0 -9 -27 -38q-70 -61 -104 -61q-26 0 -26 19t40 92q36 67 82.5 141.5t102.5 157.5q-7 -9 -23 -27t-40 -44q-64 -65 -108 -109.5
t-69 -69.5q-92 -92 -118 -112q-73 -57 -136 -57zM909 765q29 0 42.5 -16.5t11.5 -44.5q-1 -12 -5 -24.5t-14 -12.5q-7 0 -9 6.5t-2 12.5q-3 40 -42 40q-26 0 -53 -11t-51 -31q-21 -17 -27 -17q-5 0 -5 4q0 2 6 9.5t22 23.5q24 24 57.5 42.5t68.5 18.5z" />
    <glyph glyph-name="Umacron" unicode="&#x16a;" horiz-adv-x="801" 
d="M345 -19q-43 0 -43 29q0 52 145 257q59 83 96 136t52 76q61 94 61 128q0 19 -21.5 25t-47.5 6q-110 0 -281 -117q-45 -31 -90.5 -74.5t-83.5 -92.5t-61.5 -97.5t-23.5 -90.5q0 -34 18 -46.5t54 -12.5q51 0 105 33q27 16 68 53l18 6q-19 -36 -76 -71q-64 -39 -128 -39
q-47 0 -69.5 28t-22.5 69q0 157 296 369q39 28 90 52t104 39t97 15q23 0 45.5 -5.5t37 -18t14.5 -33.5q0 -30 -44 -100q-15 -24 -48.5 -71t-85.5 -118q-44 -59 -88 -134q-14 -24 -28.5 -51t-23.5 -50t-9 -37q0 -17 14 -17q27 0 101 56q176 134 414 435q38 48 61 48q9 0 9 -9
q0 -4 -3 -10q5 -24 -23 -63l-118 -167q-34 -47 -63.5 -93.5t-55.5 -90.5q-63 -106 -59 -122l18 6q18 10 45 30t42 35q13 10 16 10l2 -2q0 -9 -27 -38q-70 -61 -104 -61q-26 0 -26 19t40 92q36 67 82.5 141.5t102.5 157.5q-7 -9 -23 -27t-40 -44q-64 -65 -108 -109.5
t-69 -69.5q-92 -92 -118 -112q-73 -57 -136 -57zM758 655q-5 0 -12.5 11.5t-8.5 17.5l2 1q10 5 34.5 6t62.5 1q82 0 106 -12q3 -1 3 -3t-1.5 -6t-4.5 -4q-31 0 -91 -6t-90 -6z" />
    <glyph glyph-name="Uogonek" unicode="&#x172;" horiz-adv-x="801" 
d="M345 -19q-43 0 -43 29q0 52 145 257q59 83 96 136t52 76q61 94 61 128q0 19 -21.5 25t-47.5 6q-110 0 -281 -117q-45 -31 -90.5 -74.5t-83.5 -92.5t-61.5 -97.5t-23.5 -90.5q0 -34 18 -46.5t54 -12.5q51 0 105 33q27 16 68 53l18 6q-19 -36 -76 -71q-64 -39 -128 -39
q-47 0 -69.5 28t-22.5 69q0 157 296 369q39 28 90 52t104 39t97 15q23 0 45.5 -5.5t37 -18t14.5 -33.5q0 -30 -44 -100q-15 -24 -48.5 -71t-85.5 -118q-44 -59 -88 -134q-14 -24 -28.5 -51t-23.5 -50t-9 -37q0 -17 14 -17q27 0 101 56q176 134 414 435q38 48 61 48q9 0 9 -9
q0 -4 -3 -10q5 -24 -23 -63l-118 -167q-34 -47 -63.5 -93.5t-55.5 -90.5q-63 -106 -59 -122l18 6q18 10 45 30t42 35q13 10 16 10l2 -2q0 -9 -27 -38q-70 -61 -104 -61q-26 0 -26 19t40 92q36 67 82.5 141.5t102.5 157.5q-7 -9 -23 -27t-40 -44q-64 -65 -108 -109.5
t-69 -69.5q-92 -92 -118 -112q-73 -57 -136 -57zM477 -102q0 -29 -48 -45q-20 -7 -35 -9t-25 -2q-55 0 -55 42q0 27 19 69q22 48 44 49l3 -3q-34 -47 -34 -88t45 -41q23 0 49.5 11t36.5 17z" />
    <glyph glyph-name="Uring" unicode="&#x16e;" horiz-adv-x="801" 
d="M345 -19q-43 0 -43 29q0 52 145 257q59 83 96 136t52 76q61 94 61 128q0 19 -21.5 25t-47.5 6q-110 0 -281 -117q-45 -31 -90.5 -74.5t-83.5 -92.5t-61.5 -97.5t-23.5 -90.5q0 -34 18 -46.5t54 -12.5q51 0 105 33q27 16 68 53l18 6q-19 -36 -76 -71q-64 -39 -128 -39
q-47 0 -69.5 28t-22.5 69q0 157 296 369q39 28 90 52t104 39t97 15q23 0 45.5 -5.5t37 -18t14.5 -33.5q0 -30 -44 -100q-15 -24 -48.5 -71t-85.5 -118q-44 -59 -88 -134q-14 -24 -28.5 -51t-23.5 -50t-9 -37q0 -17 14 -17q27 0 101 56q176 134 414 435q38 48 61 48q9 0 9 -9
q0 -4 -3 -10q5 -24 -23 -63l-118 -167q-34 -47 -63.5 -93.5t-55.5 -90.5q-63 -106 -59 -122l18 6q18 10 45 30t42 35q13 10 16 10l2 -2q0 -9 -27 -38q-70 -61 -104 -61q-26 0 -26 19t40 92q36 67 82.5 141.5t102.5 157.5q-7 -9 -23 -27t-40 -44q-64 -65 -108 -109.5
t-69 -69.5q-92 -92 -118 -112q-73 -57 -136 -57zM831 646q-41 0 -41 38q0 23 10 44q12 27 29 32q17 32 51 32q19 0 31 -15.5t12 -36.5q0 -36 -28 -65q-29 -29 -64 -29zM842 665q24 0 40.5 24t16.5 49q0 36 -22 36q-12 0 -29 -13l11 -6q-1 -4 -6.5 -11.5t-13.5 -20.5
q-12 -18 -12 -38t15 -20z" />
    <glyph glyph-name="Utilde" unicode="&#x168;" horiz-adv-x="801" 
d="M345 -19q-43 0 -43 29q0 52 145 257q59 83 96 136t52 76q61 94 61 128q0 19 -21.5 25t-47.5 6q-110 0 -281 -117q-45 -31 -90.5 -74.5t-83.5 -92.5t-61.5 -97.5t-23.5 -90.5q0 -34 18 -46.5t54 -12.5q51 0 105 33q27 16 68 53l18 6q-19 -36 -76 -71q-64 -39 -128 -39
q-47 0 -69.5 28t-22.5 69q0 157 296 369q39 28 90 52t104 39t97 15q23 0 45.5 -5.5t37 -18t14.5 -33.5q0 -30 -44 -100q-15 -24 -48.5 -71t-85.5 -118q-44 -59 -88 -134q-14 -24 -28.5 -51t-23.5 -50t-9 -37q0 -17 14 -17q27 0 101 56q176 134 414 435q38 48 61 48q9 0 9 -9
q0 -4 -3 -10q5 -24 -23 -63l-118 -167q-34 -47 -63.5 -93.5t-55.5 -90.5q-63 -106 -59 -122l18 6q18 10 45 30t42 35q13 10 16 10l2 -2q0 -9 -27 -38q-70 -61 -104 -61q-26 0 -26 19t40 92q36 67 82.5 141.5t102.5 157.5q-7 -9 -23 -27t-40 -44q-64 -65 -108 -109.5
t-69 -69.5q-92 -92 -118 -112q-73 -57 -136 -57zM898 653q-8 0 -20 3.5t-28 10.5q-30 15 -45 15q-7 0 -15.5 -3t-16.5 -11q-14 -14 -20 -14q-1 1 -1 2q0 17 41 45q14 11 34 11q15 0 45 -12q15 -6 26 -8.5t18 -2.5q22 0 40 23q5 0 5 -4q0 -18 -37 -46q-12 -9 -26 -9z" />
    <glyph glyph-name="V" unicode="V" horiz-adv-x="690" 
d="M332 -71q-5 0 -5 10q0 33 56 168l34 78t33 78l46 135q11 34 17.5 58.5t6.5 40.5q0 70 -40 105.5t-106 35.5q-62 0 -122.5 -27.5t-110 -74.5t-79.5 -105q-43 -82 -43 -150q0 -47 23 -85t60 -52q26 -9 51 -9q35 0 65 15.5t48.5 43.5t18.5 63v8.5t-1 8.5q-4 12 6 12
q11 0 12 -16q1 -4 1.5 -8t0.5 -9q0 -36 -24 -67t-61.5 -50.5t-77.5 -19.5q-41 0 -79 20q-81 44 -81 153q0 78 42 151q38 66 99 115t134 76.5t145 27.5q50 0 90 -15.5t63.5 -47t23.5 -80.5q0 -93 -84 -279q-96 -211 -96 -237q0 -7 5 -5q26 17 235 268q107 128 181.5 207.5
t117.5 110.5q38 29 66 47.5t45 28.5q62 34 114 34q23 0 35.5 -4.5t12.5 -24.5q0 -13 -9 -13q-3 0 -14 4.5t-22 4.5q-53 0 -111 -31q-116 -62 -266 -222q-43 -46 -100.5 -114t-129.5 -159q-114 -144 -137 -157q-43 -25 -64.5 -35.5t-24.5 -10.5z" />
    <glyph glyph-name="W" unicode="W" horiz-adv-x="1135" 
d="M217 -112q-18 0 -18 23q0 22 18 56l193 278q89 128 132 210t43 116q0 16 -12 24t-28 11t-30 3q-85 0 -237 -104q-43 -29 -79 -65t-67 -77q-60 -82 -60 -138q0 -43 40 -52q15 -4 34 -4q36 0 72 18t70 46q26 22 30 22t3 -7q-6 -21 -29 -40t-55 -34.5t-64.5 -24t-57.5 -8.5
q-40 0 -70 20.5t-30 60.5q0 61 71 150q68 86 168 153q41 28 96 53.5t111 42t100 16.5q79 0 79 -52q0 -63 -95 -217q-67 -106 -177 -252q-91 -121 -92 -121q3 0 96 103q57 64 107.5 114.5t93.5 88.5q21 19 51 47.5l70 66.5q35 32 68.5 58t61.5 26q29 0 38 -14
q-92 -114 -172 -279q-57 -118 -57 -179q0 -36 19 -52t50 -16q34 0 71.5 19t74.5 49t69 63q115 116 183 251q53 106 53 169q0 6 -0.5 11t-1.5 9q-21 0 -45 22q-15 12 -15 25q0 12 10 20t23 8q19 0 28 -17q4 -8 16 -20q8 -8 7 -12q6 -9 20 -9t26.5 12t27.5 12q8 0 8 -6
q0 -11 -19 -21q-10 -7 -24 -9q-8 -1 -16 -1.5t-16 1.5q12 -40 12 -59q0 -80 -76 -207q-38 -64 -87 -121t-110 -107q-121 -102 -215 -102q-103 0 -103 96q0 45 19 102.5t45 114.5l72 157q-44 -34 -71.5 -55.5t-46 -36.5t-35 -30.5t-39.5 -37.5q-25 -25 -67 -71.5t-98 -115.5
l-116 -142q-10 -12 -23 -22t-26 -10z" />
    <glyph glyph-name="Wacute" unicode="&#x1e82;" horiz-adv-x="1135" 
d="M217 -112q-18 0 -18 23q0 22 18 56l193 278q89 128 132 210t43 116q0 16 -12 24t-28 11t-30 3q-85 0 -237 -104q-43 -29 -79 -65t-67 -77q-60 -82 -60 -138q0 -43 40 -52q15 -4 34 -4q36 0 72 18t70 46q26 22 30 22t3 -7q-6 -21 -29 -40t-55 -34.5t-64.5 -24t-57.5 -8.5
q-40 0 -70 20.5t-30 60.5q0 61 71 150q68 86 168 153q41 28 96 53.5t111 42t100 16.5q79 0 79 -52q0 -63 -95 -217q-67 -106 -177 -252q-91 -121 -92 -121q3 0 96 103q57 64 107.5 114.5t93.5 88.5q21 19 51 47.5l70 66.5q35 32 68.5 58t61.5 26q29 0 38 -14
q-92 -114 -172 -279q-57 -118 -57 -179q0 -36 19 -52t50 -16q34 0 71.5 19t74.5 49t69 63q115 116 183 251q53 106 53 169q0 6 -0.5 11t-1.5 9q-21 0 -45 22q-15 12 -15 25q0 12 10 20t23 8q19 0 28 -17q4 -8 16 -20q8 -8 7 -12q6 -9 20 -9t26.5 12t27.5 12q8 0 8 -6
q0 -11 -19 -21q-10 -7 -24 -9q-8 -1 -16 -1.5t-16 1.5q12 -40 12 -59q0 -80 -76 -207q-38 -64 -87 -121t-110 -107q-121 -102 -215 -102q-103 0 -103 96q0 45 19 102.5t45 114.5l72 157q-44 -34 -71.5 -55.5t-46 -36.5t-35 -30.5t-39.5 -37.5q-25 -25 -67 -71.5t-98 -115.5
l-116 -142q-10 -12 -23 -22t-26 -10zM849 662q-7 -2 -7 6q0 4 4 7l97 78q11 9 17 9q5 0 12.5 -6.5t7.5 -13.5t-4 -11.5t-9 -8.5q-6 -4 -20 -12.5t-40 -21.5q-23 -11 -37.5 -17.5t-20.5 -8.5z" />
    <glyph glyph-name="Wcircumflex" unicode="&#x174;" horiz-adv-x="1135" 
d="M217 -112q-18 0 -18 23q0 22 18 56l193 278q89 128 132 210t43 116q0 16 -12 24t-28 11t-30 3q-85 0 -237 -104q-43 -29 -79 -65t-67 -77q-60 -82 -60 -138q0 -43 40 -52q15 -4 34 -4q36 0 72 18t70 46q26 22 30 22t3 -7q-6 -21 -29 -40t-55 -34.5t-64.5 -24t-57.5 -8.5
q-40 0 -70 20.5t-30 60.5q0 61 71 150q68 86 168 153q41 28 96 53.5t111 42t100 16.5q79 0 79 -52q0 -63 -95 -217q-67 -106 -177 -252q-91 -121 -92 -121q3 0 96 103q57 64 107.5 114.5t93.5 88.5q21 19 51 47.5l70 66.5q35 32 68.5 58t61.5 26q29 0 38 -14
q-92 -114 -172 -279q-57 -118 -57 -179q0 -36 19 -52t50 -16q34 0 71.5 19t74.5 49t69 63q115 116 183 251q53 106 53 169q0 6 -0.5 11t-1.5 9q-21 0 -45 22q-15 12 -15 25q0 12 10 20t23 8q19 0 28 -17q4 -8 16 -20q8 -8 7 -12q6 -9 20 -9t26.5 12t27.5 12q8 0 8 -6
q0 -11 -19 -21q-10 -7 -24 -9q-8 -1 -16 -1.5t-16 1.5q12 -40 12 -59q0 -80 -76 -207q-38 -64 -87 -121t-110 -107q-121 -102 -215 -102q-103 0 -103 96q0 45 19 102.5t45 114.5l72 157q-44 -34 -71.5 -55.5t-46 -36.5t-35 -30.5t-39.5 -37.5q-25 -25 -67 -71.5t-98 -115.5
l-116 -142q-10 -12 -23 -22t-26 -10zM781 660q-4 0 -5.5 6t5.5 10q6 5 19 14t29 19q29 17 46.5 28.5t30.5 11.5q8 0 12.5 -5t11.5 -13q8 -10 14.5 -19t12.5 -18q5 -7 9 -12.5t4 -11.5q0 -4 -7 -9.5t-14 -5.5q-12 -1 -27 18q-6 7 -14.5 20t-15.5 23q-10 -6 -20.5 -12
t-25.5 -14q-24 -12 -41 -21t-24 -9z" />
    <glyph glyph-name="Wdieresis" unicode="&#x1e84;" horiz-adv-x="1135" 
d="M217 -112q-18 0 -18 23q0 22 18 56l193 278q89 128 132 210t43 116q0 16 -12 24t-28 11t-30 3q-85 0 -237 -104q-43 -29 -79 -65t-67 -77q-60 -82 -60 -138q0 -43 40 -52q15 -4 34 -4q36 0 72 18t70 46q26 22 30 22t3 -7q-6 -21 -29 -40t-55 -34.5t-64.5 -24t-57.5 -8.5
q-40 0 -70 20.5t-30 60.5q0 61 71 150q68 86 168 153q41 28 96 53.5t111 42t100 16.5q79 0 79 -52q0 -63 -95 -217q-67 -106 -177 -252q-91 -121 -92 -121q3 0 96 103q57 64 107.5 114.5t93.5 88.5q21 19 51 47.5l70 66.5q35 32 68.5 58t61.5 26q29 0 38 -14
q-92 -114 -172 -279q-57 -118 -57 -179q0 -36 19 -52t50 -16q34 0 71.5 19t74.5 49t69 63q115 116 183 251q53 106 53 169q0 6 -0.5 11t-1.5 9q-21 0 -45 22q-15 12 -15 25q0 12 10 20t23 8q19 0 28 -17q4 -8 16 -20q8 -8 7 -12q6 -9 20 -9t26.5 12t27.5 12q8 0 8 -6
q0 -11 -19 -21q-10 -7 -24 -9q-8 -1 -16 -1.5t-16 1.5q12 -40 12 -59q0 -80 -76 -207q-38 -64 -87 -121t-110 -107q-121 -102 -215 -102q-103 0 -103 96q0 45 19 102.5t45 114.5l72 157q-44 -34 -71.5 -55.5t-46 -36.5t-35 -30.5t-39.5 -37.5q-25 -25 -67 -71.5t-98 -115.5
l-116 -142q-10 -12 -23 -22t-26 -10zM956 659q-7 0 -14 10.5t-7 18.5q0 15 29 36q14 12 27.5 12.5t7.5 -10.5l-16 -40q-10 -27 -27 -27zM835 659q-7 0 -14 10.5t-7 18.5q0 15 29 36q20 12 30 11t5 -9l-16 -40q-10 -27 -27 -27z" />
    <glyph glyph-name="Wgrave" unicode="&#x1e80;" horiz-adv-x="1135" 
d="M217 -112q-18 0 -18 23q0 22 18 56l193 278q89 128 132 210t43 116q0 16 -12 24t-28 11t-30 3q-85 0 -237 -104q-43 -29 -79 -65t-67 -77q-60 -82 -60 -138q0 -43 40 -52q15 -4 34 -4q36 0 72 18t70 46q26 22 30 22t3 -7q-6 -21 -29 -40t-55 -34.5t-64.5 -24t-57.5 -8.5
q-40 0 -70 20.5t-30 60.5q0 61 71 150q68 86 168 153q41 28 96 53.5t111 42t100 16.5q79 0 79 -52q0 -63 -95 -217q-67 -106 -177 -252q-91 -121 -92 -121q3 0 96 103q57 64 107.5 114.5t93.5 88.5q21 19 51 47.5l70 66.5q35 32 68.5 58t61.5 26q29 0 38 -14
q-92 -114 -172 -279q-57 -118 -57 -179q0 -36 19 -52t50 -16q34 0 71.5 19t74.5 49t69 63q115 116 183 251q53 106 53 169q0 6 -0.5 11t-1.5 9q-21 0 -45 22q-15 12 -15 25q0 12 10 20t23 8q19 0 28 -17q4 -8 16 -20q8 -8 7 -12q6 -9 20 -9t26.5 12t27.5 12q8 0 8 -6
q0 -11 -19 -21q-10 -7 -24 -9q-8 -1 -16 -1.5t-16 1.5q12 -40 12 -59q0 -80 -76 -207q-38 -64 -87 -121t-110 -107q-121 -102 -215 -102q-103 0 -103 96q0 45 19 102.5t45 114.5l72 157q-44 -34 -71.5 -55.5t-46 -36.5t-35 -30.5t-39.5 -37.5q-25 -25 -67 -71.5t-98 -115.5
l-116 -142q-10 -12 -23 -22t-26 -10zM927 662q-6 2 -20.5 8.5t-37.5 17.5q-26 13 -40 21.5t-20 12.5l-8.5 8.5t-4.5 11.5t8 13.5t12 6.5q7 0 17 -9l97 -78q4 -3 4 -7q0 -8 -7 -6z" />
    </font>
</defs>
</svg>
