<?xml version="1.0" standalone="no"?>
<!DOCTYPE svg PUBLIC "-//W3C//DTD SVG 1.1//EN" "http://www.w3.org/Graphics/SVG/1.1/DTD/svg11.dtd" >
<svg xmlns="http://www.w3.org/2000/svg" xmlns:xlink="http://www.w3.org/1999/xlink" version="1.1">
<metadata>
Created by FontForge 20201107 at Fri May  5 11:19:02 2017
 By Unknown
Copyright (c) 2014 Indian Type Foundry (info@indiantypefoundry.com)
</metadata>
<defs>
<font id="Tillana-SemiBold" horiz-adv-x="0" >
  <font-face 
    font-family="Tillana SemiBold"
    font-weight="600"
    font-stretch="normal"
    units-per-em="1000"
    panose-1="2 0 0 0 0 0 0 0 0 0"
    ascent="800"
    descent="-200"
    x-height="549.5"
    cap-height="743"
    bbox="-556 -388 2296 1087.26"
    underline-thickness="50"
    underline-position="-100"
    unicode-range="U+000D-F03F3"
  />
<missing-glyph horiz-adv-x="753" 
d="M237 640v-579h279v579h-279zM171 0v701h410v-701h-410z" />
    <glyph glyph-name="uniFB01" unicode="fi" horiz-adv-x="625" 
d="M273 480l185 33q96 41 145 2l-41 -139q-5 -49 -28 -362q-38 -20 -91 -11t-77 39q55 147 87 306l-3 81l-182 -12q-21 -218 -51 -403q-41 -19 -94 -11t-70 36q66 177 105 360l-128 -23q-36 40 1 90l140 -1l1 4l-17 241q100 128 250 143q78 -13 120.5 -62t63.5 -128
q-18 -33 -57.5 -44.5t-94.5 2.5q2 111 -50 154q-59 -10 -105 -53q4 -82 -9 -242z" />
    <glyph glyph-name="uniFB02" unicode="fl" horiz-adv-x="689" 
d="M168 454l-13 255q95 118 268 153q106 -16 164.5 -47.5t91.5 -91.5l-36 -137q-6 -65 -23.5 -262.5t-28.5 -308.5q-37 -21 -97 -12t-75 39q80 255 116 497l-10 214q-46 22 -93 17q-87 -9 -151 -69q3 -66 -11 -231l153 31q36 -28 -1 -89l-157 -6q-22 -227 -48 -392
q-41 -19 -94.5 -11t-69.5 36q69 190 102 348l-127 -24q-36 41 1 91l139 -1v1z" />
    <glyph glyph-name="uF03DE" unicode="ff" horiz-adv-x="743" 
d="M171 449l5 24l-22 241q82 117 207 137q91 -16 138 -70q76 61 159 70q134 -26 166 -158q-16 -33 -55.5 -46t-84.5 -2q-3 47 -14.5 73.5t-40.5 51.5q-40 -9 -66 -37q6 -90 -8 -264l201 26q35 -29 -1 -89l-206 -6q-17 -182 -47 -386q-42 -19 -95 -11t-70 36q67 190 103 358
l-52 -2l-122 -12q-16 -169 -47 -369q-41 -19 -94 -11t-70 36q56 154 99 333l-127 -13q-35 41 1 91zM380 447l73 9l3 17l-18 221h-1q-24 61 -90 76q-35 -8 -63 -37q6 -100 -11 -285z" />
    <glyph glyph-name="uF03DF" unicode="ft" horiz-adv-x="772" 
d="M708 441l-123 -10q-23 -182 -37 -338q81 29 143 78q31 -1 40.5 -14.5t7.5 -45.5q-98 -85 -222 -111q-105 12 -128 83q60 206 88 340l-111 -9l-100 -13q-20 -222 -48 -387q-41 -19 -94 -11t-70 36q69 187 103 347l-127 -17q-37 41 0 91l140 2l-14 247q97 120 276 153
q94 -16 134.5 -45.5t76.5 -93.5l-42 -158q-1 -8 -3.5 -27t-3.5 -29l115 21q36 -28 -1 -89zM348 465l143 26q1 8 4 24t4 24l-10 214q-119 37 -206 -52q3 -68 -11 -237z" />
    <glyph glyph-name="uF03E0" unicode="tt" horiz-adv-x="797" 
d="M780 490l-169 -8q-6 -73 -21 -207t-20 -182q78 28 143 78q31 -1 40.5 -14.5t7.5 -45.5q-99 -85 -223 -111q-46 5 -71 20t-47 42q62 228 93 416l-123 -6l-103 -13q-6 -72 -20.5 -201t-18.5 -165q49 17 98 44q61 -3 39 -67q-87 -53 -169 -70q-104 12 -127 83q66 223 96 362
l-128 -16q-36 40 0 91l139 2l-9 178q109 63 165 12l-58 -188l109 2l114 16l-8 158q111 63 165 12l-48 -154l154 22q35 -28 0 -90z" />
    <glyph glyph-name=".notdef" horiz-adv-x="753" 
d="M237 640v-579h279v579h-279zM171 0v701h410v-701h-410z" />
    <glyph glyph-name="uF0001" unicode="&#xf0001;" 
 />
    <glyph glyph-name="uF0002" unicode="&#xf0002;" horiz-adv-x="333" 
 />
    <glyph glyph-name="uni0000" 
 />
    <glyph glyph-name="uni000D" unicode="&#xd;" horiz-adv-x="436" 
 />
    <glyph glyph-name="space" unicode=" " horiz-adv-x="436" 
 />
    <glyph glyph-name="exclam" unicode="!" horiz-adv-x="369" 
d="M161.5 15.5q-34.5 -20.5 -62 -20.5t-45 17.5t-19.5 44.5q9 39 40 73t67 38q25 0 50 -31.5t30 -67.5q-26 -33 -60.5 -53.5zM283 595l-76 -346q-32 -44 -92 3l46 240l50 412q51 17 100.5 8t78.5 -43z" />
    <glyph glyph-name="quotedbl" unicode="&#x22;" horiz-adv-x="371" 
d="M286 675l44 229q68 23 106 0l-12 -84l-70 -158q-43 -5 -68 13zM118 675l46 229q68 22 107 0l-14 -84l-64 -158q-46 -5 -75 13z" />
    <glyph glyph-name="numbersign" unicode="#" horiz-adv-x="791" 
d="M786 552l-136 -2l-59 -251l141 9q30 -20 -9 -77l-143 -2l-29 -256q-29 -11 -73.5 -4.5t-71.5 30.5l51 228l-159 -2l-29 -252q-28 -11 -72.5 -4.5t-71.5 30.5l51 224l-122 -2q-22 25 6 73l131 -3l34 149l19 104l-137 -2q-24 24 3 73l147 -3l48 256q103 25 159 -23
l-81 -236l73 -2l82 5l49 256q37 11 84 6t74 -29l-78 -225l128 8q28 -20 -9 -76zM506 446l20 102l-158 -2l-60 -258l86 -2l77 5z" />
    <glyph glyph-name="dollar" unicode="$" horiz-adv-x="635" 
d="M404 636l-33 -196q60 -34 95.5 -56t77 -61t55.5 -77q-14 -94 -93 -157t-209 -85l-23 -134q-51 -12 -75 37l34 104q-75 25 -135 73t-80 98q28 49 61.5 69t87.5 3q13 -53 34 -88.5t59 -71.5l10 29l37 202q-153 80 -198 149q-21 33 -27 70q38 83 121.5 139t182.5 68l21 117
q50 16 72 -30l-36 -97q116 -40 169 -140q-19 -87 -138 -67q-19 79 -62 125zM332 462l39 209q-54 -19 -99 -54t-44 -58.5t27 -45t77 -51.5zM445 223q0 18 -24 36.5t-73 44.5l-38 -220q60 20 97.5 57t37.5 82z" />
    <glyph glyph-name="percent" unicode="%" horiz-adv-x="799" 
d="M398 389l206 460q42 6 64.5 -1t35.5 -30l-505 -903q-75 -7 -89 38zM621 355q-39 -48 -56 -135.5t-14 -135.5q11 -26 43 -39q39 45 60 157q13 79 8 124q-12 24 -41 29zM576 -9q-57 0 -95.5 57.5t-22.5 153.5t59.5 155t108.5 58.5t105.5 -61t26 -154.5t-63 -151.5
t-118.5 -57.5zM240 685q-40 -49 -59 -151q-14 -69 -12 -120q13 -27 43 -39q38 43 56 139.5t12 141.5q-12 24 -40 29zM195 320q-57 0 -95.5 57.5t-23 154t59.5 155.5t109 58.5t105.5 -61t26 -154.5t-63 -152t-118.5 -58z" />
    <glyph glyph-name="ampersand" unicode="&#x26;" horiz-adv-x="668" 
d="M292 -1q69 19 95 -10l1 -162q-50 -28 -82.5 -30t-62.5 23zM481 738q-70 -17 -96 11l-1 162q51 28 83.5 30t62.5 -23zM447 683q89 0 159 -70q11 -39 -8.5 -60.5t-80.5 -35.5l-63 88q-65 -5 -110.5 -31.5t-87.5 -73.5q27 -52 106 -77q49 6 83 21q53 -19 27 -94
q-170 -25 -244 -114q18 -62 107 -96q121 44 200 127q45 9 67 -20t9 -74q-69 -46 -132 -72t-159 -42q-195 40 -239 163q60 128 195 161q-67 8 -114.5 40t-57.5 76q49 85 142 134.5t201 49.5z" />
    <glyph glyph-name="quotesingle" unicode="'" horiz-adv-x="200" 
d="M114 675l46 229q66 22 107 0l-14 -84l-65 -158q-45 -5 -74 13z" />
    <glyph glyph-name="parenleft" unicode="(" horiz-adv-x="561" 
d="M460 738q-55 -74 -90 -174t-46 -216.5t15.5 -210t97.5 -182.5q-28 -44 -83 -34q-85 84 -136.5 201t-39.5 255q15 168 109 301.5t242 217.5q30 2 49 -14t22 -42z" />
    <glyph glyph-name="parenright" unicode=")" horiz-adv-x="561" 
d="M80 -81q-30 -2 -49 14t-22 42l140 102q55 74 90 174.5t44 197.5q14 135 -13 228.5t-98 182.5q27 43 83 36q86 -85 137 -202.5t39 -255.5q-15 -167 -109 -301t-242 -218z" />
    <glyph glyph-name="asterisk" unicode="*" horiz-adv-x="385" 
d="M321 798l118 18q9 -33 -8 -67l-112 18l86 -69q-17 -33 -53 -47l-59 94l5 -115q-31 -11 -66 0l31 116l-80 -95q-29 15 -42 47l101 69l-117 -18q-8 34 8 67l114 -18l-87 69q19 33 52 47l59 -94l-5 115q35 9 67 0l-32 -116l80 95q30 -16 42 -47z" />
    <glyph glyph-name="plus" unicode="+" horiz-adv-x="716" 
d="M408 372l237 10q13 -7 8 -33t-26 -51l-233 1l-47 -242q-13 -9 -34.5 -1.5t-40.5 28.5l49 215l-226 -1q-11 13 -7.5 35.5t21.5 44.5l225 -8l35 242q10 12 34.5 2.5t44.5 -35.5z" />
    <glyph glyph-name="comma" unicode="," horiz-adv-x="257" 
d="M178 52q-16 -61 -65 -118t-118 -96q-41 8 -50 37l79 85l2 155q40 22 72 15t53 -28.5t27 -49.5z" />
    <glyph glyph-name="hyphen" unicode="-" horiz-adv-x="538" 
d="M492 382q14 -8 9.5 -33.5t-25.5 -50.5l-410 -9q-11 12 -7 34.5t20 45.5l190 -5z" />
    <glyph glyph-name="period" unicode="." horiz-adv-x="270" 
d="M130 20q-32 -20 -59.5 -20t-44.5 16.5t-19 42.5q6 39 35 71.5t64 36.5q24 0 49 -30.5t30 -64.5q-23 -32 -55 -52z" />
    <glyph glyph-name="slash" unicode="/" horiz-adv-x="521" 
d="M277 389l206 460q42 6 64.5 -1t35.5 -30l-505 -903q-75 -7 -89 38z" />
    <glyph glyph-name="zero" unicode="0" horiz-adv-x="608" 
d="M346 663q-89 -100 -125 -293q-27 -145 -18 -232q27 -50 97 -75q88 86 126 303q28 147 11 240q-27 43 -91 57zM269 -2q-97 0 -161 92q-71 101 -44 277q28 166 104 268.5t181 101.5q120 -1 189.5 -106t46.5 -258q-28 -176 -111.5 -275.5t-204.5 -99.5z" />
    <glyph glyph-name="one" unicode="1" horiz-adv-x="366" 
d="M315 536l-78 -357l-14 -180q-89 -14 -156 26l114 511l32 68l-15 8l-60 -82q-47 -10 -69 26l105 188q54 14 112.5 3.5t90.5 -45.5z" />
    <glyph glyph-name="two" unicode="2" horiz-adv-x="526" 
d="M294 647q-57 0 -104 -65l31 -68q-7 -12 -27 -22.5t-35 -13.5q-61 52 -96 114q38 74 102.5 120.5t135.5 46.5t140 -92.5t69 -182.5t-143 -208l-213 -177l8 -7l305 33q33 -48 -38 -139l-264 31l-90 -19q-30 18 -50.5 50t-18.5 68l281 253q75 68 114 146q-14 59 -42 95.5
t-65 36.5z" />
    <glyph glyph-name="three" unicode="3" horiz-adv-x="554" 
d="M159 713q66 46 144 46t156 -70.5t77 -146.5q-1 -35 -23 -60.5t-74 -49.5l-98 -45q195 -68 185 -170q-7 -85 -139 -144t-328 -75q-23 16 -31.5 43t-1.5 49q145 27 229 57.5t141 77.5q-33 64 -185 114l11 51l186 131q-10 50 -47 82.5t-76 32.5q-60 0 -107 -53l31 -69
q-7 -12 -27 -22.5t-35 -13.5q-62 53 -95 114q41 75 107 121z" />
    <glyph glyph-name="four" unicode="4" horiz-adv-x="610" 
d="M444 749q105 0 157 -70l-61 -152l-56 -260l111 4q10 -22 5 -49.5t-22 -44.5l-111 5l-14 -183q-34 -10 -80.5 -3.5t-76.5 30.5l38 162l-31 1l-249 -11q-39 27 -39 78l362 486q35 7 67 7zM250 257l101 4l29 125l81 274l-12 5l-110 -159l-167 -248z" />
    <glyph glyph-name="five" unicode="5" horiz-adv-x="551" 
d="M221 -3q-97 0 -192 45q-4 56 11 93t42 47l194 -88q90 65 113 176q-12 31 -37 49.5t-77 30.5l-99 22q-47 13 -63 39.5t-9 78.5l27 142q8 51 23 73t44 33l83 -23l231 42q62 -73 8 -138l-240 23l-79 -185l108 -10q102 -11 146.5 -49.5t41.5 -111.5q-5 -101 -92 -195
t-184 -94z" />
    <glyph glyph-name="six" unicode="6" horiz-adv-x="601" 
d="M297.5 410q69.5 79 142.5 79t107.5 -47t20.5 -137q-10 -69 -54.5 -140t-108 -119t-117.5 -49t-98.5 19t-81.5 59.5t-53.5 110t-3.5 159.5q29 197 165 302t345 100q19 -16 17 -48.5t-23 -67.5q-145 12 -243 -27q-59 -70 -89 -137t-44 -176q-7 -61 3 -105q46 145 115.5 224
zM424 269q23 111 -41 117q-51 -33 -98.5 -108t-72.5 -155q29 -34 75 -32q36 2 81 62t56 116z" />
    <glyph glyph-name="seven" unicode="7" horiz-adv-x="519" 
d="M485 740q56 -23 67 -68q7 -25 -12 -56l-351 -614q-32 -13 -68 -6t-55 29l249 470l93 125l-7 9l-322 -14q-17 23 -6 63t45 74l285 -36z" />
    <glyph glyph-name="eight" unicode="8" horiz-adv-x="586" 
d="M594 588q0 -45 -41 -83.5t-138 -95.5q60 -40 93 -82t31.5 -102t-49.5 -116.5t-116 -86t-131 -26.5q-90 2 -147 49.5t-53 108t47.5 104t151.5 108.5q-67 47 -103 86.5t-34 86.5q4 90 101 155.5t205 63.5q69 -3 125 -57t58 -113zM333 86q52 38 79 109q-3 33 -31.5 63.5
t-79.5 67.5q-76 -67 -122 -138q12 -112 154 -102zM357 447q54 38 110 96q-7 98 -96 128q-36 -15 -72 -45.5t-54 -65.5q7 -30 34.5 -55.5t77.5 -57.5z" />
    <glyph glyph-name="nine" unicode="9" horiz-adv-x="604" 
d="M167.5 660.5q90.5 96.5 192 96.5t169.5 -97t46.5 -260.5t-122.5 -266t-294 -145.5q-25 15 -41.5 48.5t-6.5 60.5q147 20 239 76q82 109 97 272q7 61 -5 112q-46 -141 -115 -217.5t-138 -76.5t-105.5 50t-23.5 134q17 117 107.5 213.5zM245 365q50 32 95.5 104t72.5 153
q-26 31 -64 38q-40 -6 -88 -67t-59 -123q-9 -38 -0.5 -69.5t43.5 -35.5z" />
    <glyph glyph-name="colon" unicode=":" horiz-adv-x="280" 
d="M197 372q-32 -20 -59 -20t-44.5 16.5t-20.5 42.5q7 38 36.5 71t63.5 37q25 0 50 -31t29 -64q-23 -32 -55 -52zM140.5 20q-32.5 -20 -59.5 -20t-44 16.5t-21 42.5q8 39 37 71.5t63 36.5q25 0 50 -31t29 -64q-22 -32 -54.5 -52z" />
    <glyph glyph-name="semicolon" unicode=";" horiz-adv-x="276" 
d="M189 52q-15 -61 -64.5 -118t-118.5 -96q-43 8 -50 37l79 85l2 155q40 22 72 15t53 -28.5t27 -49.5zM197 372q-32 -20 -59 -20t-44.5 16.5t-20.5 42.5q7 38 36.5 71t63.5 37q25 0 50 -31t29 -64q-23 -32 -55 -52z" />
    <glyph glyph-name="less" unicode="&#x3c;" horiz-adv-x="600" 
d="M372 436l-190 -86l332 -179q3 -50 -47 -72l-195 117l-201 104q-10 36 12 70l457 207q19 -11 24.5 -37.5t-8.5 -55.5z" />
    <glyph glyph-name="equal" unicode="=" horiz-adv-x="658" 
d="M592 297q13 -7 9 -33t-25 -51l-519 -9q-11 12 -7.5 34.5t19.5 45.5l262 -5zM624 485q13 -7 9 -33t-24 -51l-519 -9q-11 12 -7.5 35t19.5 45l262 -5z" />
    <glyph glyph-name="greater" unicode="&#x3e;" horiz-adv-x="600" 
d="M112 525q-3 48 47 72l396 -221q10 -34 -12 -70l-238 -103l-219 -104q-19 10 -24.5 37t7.5 56l376 153l-173 102z" />
    <glyph glyph-name="question" unicode="?" horiz-adv-x="717" 
d="M275.5 15.5q-34.5 -20.5 -62.5 -20.5t-45 17.5t-19 44.5q9 39 40 73t67 38q25 0 50.5 -32t28.5 -67q-25 -33 -59.5 -53.5zM236 577q-30 0 -49 61t-5 125q200 124 360 124q89 0 135.5 -72.5t17.5 -164.5q-55 -181 -381 -261l-31 -177q-25 -9 -43.5 -5t-20.5 19l-23 183
q28 60 80 89q119 19 211.5 72.5t113.5 116.5q16 54 -20 88q-157 -6 -309 -105l6 -82q-27 -11 -42 -11z" />
    <glyph glyph-name="at" unicode="@" horiz-adv-x="1069" 
d="M647 168l-149 -154q-103 4 -155 55t-52 132q-2 125 93.5 235.5t228.5 113.5q51 -29 93 -102q-1 66 17 101q69 9 103.5 0t50.5 -42l-86 -159q-11 -57 -37 -250q181 115 222 273q-13 149 -87.5 227t-227.5 118q-134 -13 -250.5 -83.5t-185 -176.5t-68.5 -219
q0 -144 84 -239.5t234 -130.5q116 43 180 110q43 -2 59 -20t14 -54q-86 -70 -247 -106q-195 29 -323 149t-128 293q0 109 55 211t143 174.5t202 116.5t228 44q162 0 280 -117.5t118 -277.5q0 -109 -96.5 -214.5t-230.5 -154.5q-102 48 -71 140zM485.5 360.5
q-43.5 -70.5 -43.5 -146.5t47 -104q130 112 171 147l26 117q-30 58 -81 91q-76 -34 -119.5 -104.5z" />
    <glyph glyph-name="A" unicode="A" horiz-adv-x="670" 
d="M546 357l108 20q33 -27 -5 -85l-97 -6l24 -274q-33 -17 -87.5 -10.5t-86.5 32.5l20 243l-132 -8l-32 -4l-102 -253q-42 -17 -91.5 -9.5t-64.5 33.5l111 212l-70 -8q-34 38 5 86l108 3l74 141l84 239q43 21 92 28q88 12 144 -12l-19 -170zM285 332l141 3l-10 294l-12 -3z
" />
    <glyph glyph-name="B" unicode="B" horiz-adv-x="659" 
d="M120 717q90 25 226.5 25t213.5 -52t76.5 -122.5t-35 -111.5t-112.5 -77l-1 -7q62 -13 105 -46q27 -36 27 -84q-2 -107 -97 -200q-85 -28 -159.5 -37t-179.5 -5q-49 10 -83 34.5t-37 61.5q72 218 102 371l9 185l-42 -4q-20 14 -23 34.5t10 34.5zM470 238q0 30 -15 61
q-38 26 -81.5 35t-113.5 2l-50 -258q112 -6 208 25q52 63 52 135zM487 540q4 58 -42 94t-136 25l-40 -261q95 -1 158 26q33 30 45.5 51.5t14.5 64.5z" />
    <glyph glyph-name="C" unicode="C" horiz-adv-x="644" 
d="M255 524q-62 -95 -62 -188t36.5 -147t114.5 -89q115 44 192 116q31 4 46.5 -13.5t13.5 -46.5q-39 -44 -109.5 -86.5t-146.5 -69.5q-149 30 -221 113.5t-72 209.5q1 109 80 243q73 74 155 122.5t189 65.5q74 -27 114 -82.5t47 -123.5q-22 -30 -65 -41.5t-89 6.5
q-8 113 -47 158l-18 -4q-96 -48 -158 -143z" />
    <glyph glyph-name="D" unicode="D" horiz-adv-x="695" 
d="M349 743q162 0 250 -90.5t88 -236.5q0 -112 -57.5 -207t-163.5 -161q-148 -49 -307 -48q-96 26 -113 93q84 228 115 385l3 154l-40 -7q-25 20 -28.5 45t11.5 40q102 33 242 33zM244 340l-34 -256q100 3 173 25q156 117 156 293q-1 113 -53.5 179.5t-161.5 65.5
q-61 -237 -80 -307z" />
    <glyph glyph-name="E" unicode="E" horiz-adv-x="598" 
d="M483 647q-93 8 -157 -1l-30 -93l-28 -151q50 6 224 24q17 -20 14.5 -49t-20.5 -58q-148 12 -228 10l-54 -237q166 23 299 54q23 -8 30 -30q13 -41 -23 -89l-341 -27q-111 28 -115 95q82 223 118 397l5 150q-19 10 -58 17q-17 43 5 65q231 20 491 10q24 -39 8.5 -81.5
t-61.5 -69.5z" />
    <glyph glyph-name="F" unicode="F" horiz-adv-x="587" 
d="M269 381l224 25q15 -14 13.5 -46.5t-21.5 -61.5q-122 14 -228 11q-18 -148 -26 -294q-28 -20 -87 -12t-81 37q72 219 115 467l-1 136q-25 12 -58 16q-18 44 5 65q241 21 491 10q24 -38 8.5 -81t-61.5 -70l-79 65q-89 8 -157 -1l-30 -94z" />
    <glyph glyph-name="G" unicode="G" horiz-adv-x="683" 
d="M50 316q0 59 23 124t55 112q58 73 147 127t190 71q89 -24 130.5 -72t58.5 -117q-21 -39 -63 -54t-87 8q-6 56 -17 90t-40 65l-15 -1q-101 -49 -168 -142.5t-68.5 -191t33 -147.5t111.5 -94q116 93 177 205l-4 5l-144 -26q-25 21 -28 53t22 53q138 -19 254 -4
q44 -70 5 -210q-16 -60 -53 -164q-28 -9 -56.5 -2t-40.5 28q60 120 79 199l-7 4q-65 -139 -195 -235q-299 60 -299 316z" />
    <glyph glyph-name="H" unicode="H" horiz-adv-x="753" 
d="M174 710q60 33 104 33t71 -13l-84 -303l-3 -26h110l160 24q1 4 17 93l7 192q60 33 104.5 33t70.5 -13l-80 -288l79 12q38 -24 -4 -90l-86 -6q-21 -209 -32 -344q-37 -20 -95 -11t-73 39q50 170 78 307l-263 -20q-5 -53 -15.5 -165.5t-14.5 -149.5q-37 -20 -94.5 -11
t-73.5 39q39 130 71 274l-64 -7q-32 41 7 91h74q11 59 21 118z" />
    <glyph glyph-name="I" unicode="I" horiz-adv-x="283" 
d="M134 710q60 33 104.5 33t70.5 -13l-84 -303q-3 -36 -17 -179.5t-22 -233.5q-37 -20 -95 -11t-73 39q66 224 109 476z" />
    <glyph glyph-name="J" unicode="J" horiz-adv-x="625" 
d="M340 647l-192 -22q-42 50 -17 99q299 20 554 6q33 -37 -19 -101l-186 24l-57 -240q-23 -278 -26 -335q-63 -91 -210 -74q-61 32 -103.5 81t-61.5 107q31 40 69 53.5t73 -5.5q13 -88 70 -154l18 7q64 281 84 427z" />
    <glyph glyph-name="K" unicode="K" horiz-adv-x="660" 
d="M147 716q63 32 106 32t69 -13l-85 -308l-2 -19l131 87l187 253q109 -13 109 -99q-60 -57 -161 -134t-192 -132q80 -199 280 -254q19 -36 -3.5 -75t-79.5 -54q-95 50 -159.5 144.5t-90.5 210.5l-27 -17q-31 -322 -31 -324q-37 -20 -95 -11t-73 39q69 235 109 476z" />
    <glyph glyph-name="L" unicode="L" horiz-adv-x="527" 
d="M145 710q104 56 175 20l-90 -330l-54 -308q127 19 278 56q22 -9 28 -30q13 -41 -17 -81l-329 -37q-101 30 -114 93q67 177 117 423z" />
    <glyph glyph-name="M" unicode="M" horiz-adv-x="804" 
d="M678 722q50 21 91.5 21t63.5 -22l-82 -297q-3 -39 -17 -181t-21 -229q-38 -20 -95 -11t-73 39q64 221 99 428l4 40l-187 -307q-76 -26 -132 24q-59 131 -87 290l-22 -90q-4 -49 -18.5 -189t-21.5 -224q-37 -20 -95 -11t-73 39q68 227 110 475l11 198q44 27 92.5 27
t81.5 -25q12 -184 63 -355l49 -79l147 214z" />
    <glyph glyph-name="N" unicode="N" horiz-adv-x="711" 
d="M572 710q61 32 104.5 32t70.5 -12l-85 -303q-4 -46 -19.5 -186.5t-23.5 -226.5q-42 -18 -89.5 -11.5t-77.5 30.5q-122 250 -191 561l-43 -167q-5 -64 -20.5 -204.5t-21.5 -208.5q-38 -20 -95.5 -11t-72.5 39q73 245 112 473l10 195q63 33 119 33q30 0 59 -16
q66 -264 133 -471l50 -95q63 293 73 353z" />
    <glyph glyph-name="O" unicode="O" horiz-adv-x="666" 
d="M190 325q0 -74 30 -140.5t83 -107.5q163 102 219 290q-11 100 -35.5 173t-76.5 133q-97 -56 -158.5 -153t-61.5 -195zM47 310q0 107 53 209.5t139.5 166.5t178.5 64q50 0 105.5 -52.5t93.5 -137.5t39 -167.5t-55.5 -175t-140.5 -155t-150 -62.5t-127 49t-98.5 121.5
t-37.5 139.5z" />
    <glyph glyph-name="P" unicode="P" horiz-adv-x="623" 
d="M120 721q91 27 219 27t213.5 -65.5t85.5 -152.5q-1 -148 -166 -233q-103 -34 -218 -47q-8 -91 -24 -235q-29 -20 -88 -12.5t-80 35.5q58 195 103 454l8 159l-47 1q-16 17 -17.5 37.5t11.5 31.5zM320 663l-52 -233q-3 -39 -9 -113q109 21 167 53q34 27 54 68t19.5 93.5
t-47.5 91.5t-132 40z" />
    <glyph glyph-name="Q" unicode="Q" horiz-adv-x="679" 
d="M304 0q-60 0 -121 49t-98.5 121.5t-37.5 139.5q0 107 53 209.5t139.5 166.5t178.5 64q50 0 105.5 -52.5t93.5 -137.5t39 -176.5t-81.5 -203.5t-183.5 -158l29 -51l127 -56q-2 -53 -44 -75.5t-94 -11.5l-95 172h-10zM190 325q0 -74 30 -140.5t83 -107.5q163 102 219 290
q-11 100 -35.5 173t-76.5 133q-97 -56 -158.5 -153t-61.5 -195z" />
    <glyph glyph-name="R" unicode="R" horiz-adv-x="652" 
d="M119 721q89 28 217.5 28t210 -59t80 -138.5t-42.5 -130t-138 -100.5q-53 -8 -112 -11q35 -75 88.5 -115t155.5 -67q20 -38 -5.5 -74.5t-79.5 -53.5q-93 49 -148.5 129.5t-70.5 178.5h-17q-11 -134 -30 -293q-30 -20 -88.5 -12.5t-79.5 35.5q60 197 105 457l9 156l-48 2
q-16 16 -17.5 37t11.5 31zM468 463q18 34 18 82.5t-42 84t-124 35.5l-54 -231q-1 -11 -2.5 -33t-2.5 -33q73 4 149 28q40 33 58 67z" />
    <glyph glyph-name="S" unicode="S" horiz-adv-x="635" 
d="M445 223q0 21 -35 44.5t-85.5 49.5t-102.5 56t-92 75t-48 96q39 86 127 142.5t190 66.5q73 -15 128 -54.5t85 -97.5q-19 -87 -138 -67q-22 91 -81 144q-57 -15 -111.5 -54t-53.5 -67t51.5 -62.5t113.5 -66.5t125 -82t81 -100q-15 -98 -100.5 -162.5t-226.5 -83.5
q-85 19 -158.5 72t-95.5 110q28 49 61.5 69t87.5 3q15 -59 39.5 -97.5t74.5 -80.5q71 16 117.5 56.5t46.5 90.5z" />
    <glyph glyph-name="T" unicode="T" horiz-adv-x="621" 
d="M302 643l-182 -19q-43 50 -16 99q274 21 569 9q33 -37 -14 -102l-212 20l-55 -226q-8 -109 -34 -410q-38 -20 -95.5 -11t-73.5 38q71 241 110 483z" />
    <glyph glyph-name="U" unicode="U" horiz-adv-x="643" 
d="M298 0q-104 0 -169 58.5t-77 134.5q55 304 75 523q61 32 105 32t70 -13q-95 -310 -103 -477q-7 -85 40 -133.5t149 -24.5q53 67 81 157.5t50 234.5l-20 224q61 32 105.5 32t70.5 -13q-5 -29 -27.5 -165.5t-37.5 -214.5q-35 -176 -105.5 -265.5t-206.5 -89.5z" />
    <glyph glyph-name="V" unicode="V" horiz-adv-x="638" 
d="M535 512l-32 194q48 34 99.5 32.5t81.5 -28.5q10 -104 -50 -210q-30 -52 -99 -164.5t-108 -181.5l-57 -147q-44 -14 -93.5 -3.5t-77.5 41.5l-99 646q35 37 92.5 47t81.5 -13l9 -424l33 -211z" />
    <glyph glyph-name="W" unicode="W" horiz-adv-x="934" 
d="M837 514l-34 196q49 34 98.5 32t83.5 -29q7 -103 -48 -210l-181 -347l-46 -149q-44 -13 -92.5 -3.5t-74.5 38.5l-30 271l-84 -164l-51 -142q-44 -14 -92.5 -3.5t-78.5 41.5l-107 649q24 26 59 38.5t66 11t49 -14.5l13 -427l36 -204l170 324l-41 218q32 33 73 43.5
t87 -8.5l1 -345l41 -240z" />
    <glyph glyph-name="X" unicode="X" horiz-adv-x="690" 
d="M384 430l233 317q51 4 76 -22t27 -73q-119 -92 -313 -278q124 -179 225 -240q13 -44 -16.5 -82.5t-97.5 -51.5q-50 52 -96.5 140.5t-66.5 168.5l-220 -309q-65 6 -90.5 34.5t-20.5 68.5q134 92 312 268q-44 79 -109 143t-133 97q-5 53 26 90.5t92 44.5
q59 -49 105.5 -136.5t66.5 -179.5z" />
    <glyph glyph-name="Y" unicode="Y" horiz-adv-x="633" 
d="M102 682q30 44 74 59.5t84 -2.5l20 -194l77 -209h6l26 51l141 180l-41 155q123 58 189 -8q-4 -78 -57 -147q-32 -41 -103.5 -124t-93.5 -109q-24 -113 -35 -320q-30 -21 -87 -14t-82 35q37 102 66 265q-61 149 -184 382z" />
    <glyph glyph-name="Z" unicode="Z" horiz-adv-x="661" 
d="M157 58l-5 -4l8 -28q-42 -33 -122 -24q-27 25 -25 68q0 52 139 178q62 55 127.5 114.5t128 129.5t94.5 129l-7 9q-156 2 -233 19q-34 -42 -48 -108q-111 -15 -140 48q40 122 138 159q124 -32 314 -55l24 59q60 0 91.5 -14t39.5 -55q-27 -69 -125 -184
q-159 -186 -370 -368l3 -8q260 -9 278 -11q19 37 29 88q119 25 143 -49q-13 -44 -42.5 -79t-87.5 -72q-114 35 -352 58z" />
    <glyph glyph-name="bracketleft" unicode="[" horiz-adv-x="582" 
d="M506 823l-77 -4l-49 -180l-68 -362l-46 -285l194 27q18 -26 -14 -65l-296 -42q-45 27 -51 62l114 446l65 464l352 6q7 -35 -19 -74z" />
    <glyph glyph-name="backslash" unicode="\" horiz-adv-x="496" 
d="M65 846q28 52 94 25l104 -504l178 -459q-26 -44 -92 -22z" />
    <glyph glyph-name="bracketright" unicode="]" horiz-adv-x="600" 
d="M409 235l-17 -280l-370 -46q-23 36 -2 83l213 4l144 826l-190 -5q-30 47 -13 71l338 -11q31 -31 35 -79z" />
    <glyph glyph-name="asciicircum" unicode="^" horiz-adv-x="535" 
d="M468.5 388q-37.5 0 -63.5 13l-85 328l-207 -341q-23 -2 -39.5 7t-19.5 25l237 377q79 16 130 -16l115 -367q-30 -26 -67.5 -26z" />
    <glyph glyph-name="underscore" unicode="_" horiz-adv-x="656" 
d="M530 -47q13 -7 9 -33t-25 -51l-518 -9q-11 13 -8 35t20 45l261 -5z" />
    <glyph glyph-name="grave" unicode="`" horiz-adv-x="271" 
d="M244 817l76 -194q-7 -14 -26 -20t-39 -1l-60 86l-86 81q16 38 60.5 50.5t74.5 -2.5z" />
    <glyph glyph-name="a" unicode="a" horiz-adv-x="625" 
d="M383 162l-143 -148q-104 4 -155.5 55t-51.5 132q-2 125 93.5 235.5t228.5 113.5q52 -31 97 -109v1q0 72 17 107q69 8 104 -1t50 -41l-85 -158q-13 -129 -13 -335q-32 -19 -85.5 -11t-87.5 38l44 108zM226.5 360.5q-43.5 -70.5 -43.5 -146.5t48 -104q62 53 177 152l22 107
q-30 63 -84 96q-76 -34 -119.5 -104.5z" />
    <glyph glyph-name="b" unicode="b" horiz-adv-x="598" 
d="M200 404l13 -13q60 76 140 159q116 -20 165 -72t67 -155q-70 -256 -399 -323q-122 23 -144 106q61 214 102 433l3 259q100 50 167 21l-60 -248l-16 -102zM184 81q109 26 178.5 93.5t84.5 153.5q-8 49 -28 76t-61 44q-60 -48 -138 -135q-12 -114 -36 -232z" />
    <glyph glyph-name="c" unicode="c" horiz-adv-x="550" 
d="M356 555q74 -13 111.5 -53.5t51.5 -106.5q-16 -33 -55.5 -45.5t-90.5 -1.5q1 44 -9 72t-34 56l-24 -5q-54 -41 -86 -98t-34.5 -114t17 -99.5t72.5 -73.5q114 34 180 91q57 2 43 -63q-36 -38 -106.5 -71t-137.5 -43q-115 20 -167 85.5t-50.5 145.5t54.5 154
q118 139 265 170z" />
    <glyph glyph-name="d" unicode="d" horiz-adv-x="589" 
d="M476 539l-3 259q106 51 169 21l-64 -235q-5 -48 -75 -570q-36 -19 -88.5 -12.5t-76.5 37.5l53 109l-11 11q-124 -127 -141 -145q-100 1 -154 53.5t-53 134t43 161t119 133t166 54.5q52 -18 94 -107q11 43 22 96zM230 110l178 152l26 107q-40 71 -85 99q-76 -34 -120 -106
t-46 -155q0 -69 47 -97z" />
    <glyph glyph-name="e" unicode="e" horiz-adv-x="553" 
d="M352 559q100 -16 136.5 -82.5t13.5 -158.5q-168 -80 -322 -111q14 -81 87 -120q111 26 184 83q56 2 46 -63q-32 -35 -109 -66.5t-139 -40.5q-111 20 -164.5 85.5t-51.5 155.5q3 75 52 147q125 131 267 171zM177 268v-3q108 32 200 77q12 97 -57 136l-17 -6
q-54 -37 -89 -95t-37 -109z" />
    <glyph glyph-name="f" unicode="f" horiz-adv-x="462" 
d="M174 473l-19 241q92 123 223 137q134 -26 164 -158q-15 -32 -55 -45.5t-84 -2.5q-3 47 -15 73.5t-40 51.5q-40 -9 -66 -37q4 -88 -9 -252l177 34q36 -28 -1 -89l-181 -9q-21 -216 -51 -403q-41 -19 -94 -11t-70 36q62 169 106 360l-129 -23q-36 40 1 90l141 -1z" />
    <glyph glyph-name="g" unicode="g" horiz-adv-x="600" 
d="M399 154l-12 11q-119 -122 -146 -151q-104 4 -157 55t-52 132t42.5 160.5t116.5 133.5t162 55q51 -18 96 -103q1 69 17 100q68 10 103 1t52 -41l-91 -177q-28 -136 -79 -528q-60 -89 -227 -96q-157 76 -186 195q29 45 68.5 59.5t75.5 -6.5q10 -85 79 -153q37 -2 53 21
q21 79 46 244zM430 370l-1 -1q-34 69 -81 99q-76 -34 -120 -104t-44.5 -147.5t47.5 -106.5q62 53 177 152z" />
    <glyph glyph-name="h" unicode="h" horiz-adv-x="613" 
d="M582 416l-43 -109q-12 -142 -5 -293q-34 -19 -83.5 -11.5t-82.5 37.5q15 121 68 349q-7 39 -40 54q-80 -36 -169 -135q-13 -132 -39 -294q-42 -19 -95 -11t-69 36q78 223 122 500l2 253q55 31 95 37t75 -10l-62 -237l-6 -129l-38 -47l10 -14q93 103 191 158
q71 -5 112.5 -44.5t56.5 -89.5z" />
    <glyph glyph-name="i" unicode="i" horiz-adv-x="286" 
d="M113 348l-5 176q106 47 159 5l-44 -153q-11 -107 -28 -362q-38 -20 -91.5 -11t-76.5 39q55 150 86 306zM261 623.5q-23 -23.5 -56.5 -23.5t-57.5 23.5t-25 56t23 55.5t57.5 23t56.5 -22.5t24 -55.5t-22 -56.5z" />
    <glyph glyph-name="j" unicode="j" horiz-adv-x="333" 
d="M-25 -42q11 -92 73 -157l21 9q4 30 17.5 139.5t19.5 155t18 132.5q20 139 56 310q65 11 102.5 3t60.5 -39l-90 -183q-31 -220 -52 -546q-19 -39 -76 -58t-132 -11q-61 36 -102 84.5t-55 99.5q27 48 65.5 64.5t73.5 -3.5zM341.5 625q-23.5 -23 -55.5 -23t-56 23t-25 55.5
t22.5 55.5t57 23t57 -23t23.5 -55.5t-23.5 -55.5z" />
    <glyph glyph-name="k" unicode="k" horiz-adv-x="575" 
d="M203 358l6 -11q136 133 275 208q41 -6 57.5 -44.5t-11.5 -85.5q-162 -41 -283 -121q82 -129 266 -176q24 -28 3 -67.5t-72 -60.5q-73 37 -133.5 98t-99.5 132q-15 -131 -27 -215q-41 -20 -94.5 -12t-69.5 38q69 192 129 525l-31 214q64 61 153 42q7 -59 -1.5 -148
t-35.5 -272z" />
    <glyph glyph-name="l" unicode="l" horiz-adv-x="302" 
d="M148 539l2 253q97 59 170 26l-64 -232q-43 -487 -52 -571q-37 -21 -96.5 -12t-75.5 39q78 244 116 497z" />
    <glyph glyph-name="m" unicode="m" horiz-adv-x="897" 
d="M504 14q-56 -19 -98 -10t-57 32q37 223 80 360q-20 36 -55 50q-64 -36 -150 -138q-12 -133 -36 -294q-42 -19 -95 -11t-70 36q57 164 93 319l-29 150q66 60 151 39q10 -29 1 -94l-32 -47l11 -14q42 50 82 87t98 71q89 -6 149 -80l-41 -60l10 -7q92 99 177 147
q69 -7 114 -47t55 -88l-41 -119q-9 -119 -3 -282q-34 -19 -83 -11.5t-83 37.5q21 164 66 350q-11 39 -41 53q-70 -33 -149 -115q-30 -114 -24 -314z" />
    <glyph glyph-name="n" unicode="n" horiz-adv-x="612" 
d="M577 416l-41 -120q-10 -132 -3 -282q-34 -19 -83.5 -11.5t-82.5 37.5q16 135 65 349q-8 37 -40 54q-81 -40 -169 -136q-10 -124 -35 -293q-42 -19 -95 -11t-70 36q57 164 93 319l-29 150q65 56 151 43q10 -34 1 -98l-32 -47l10 -12q83 98 190 156q69 -5 112.5 -45
t57.5 -89z" />
    <glyph glyph-name="o" unicode="o" horiz-adv-x="560" 
d="M28 239q0 62 42 137t115 130t149 55q42 0 90 -44t79 -105t32 -118t-46 -128.5t-119.5 -118.5t-140.5 -47t-134.5 74t-66.5 165zM318 487q-67 -45 -107 -109t-50 -136q3 -103 77 -169q139 72 171 212q-12 119 -91 202z" />
    <glyph glyph-name="p" unicode="p" horiz-adv-x="601" 
d="M203 406l10 -12q80 102 137 156q116 -17 170 -77.5t70 -167.5q-28 -105 -103 -177t-195 -128q-55 9 -101 35q-22 -193 -45 -299q-44 -19 -94.5 -11.5t-71.5 35.5q96 284 134 586l-31 162q64 56 150 42q11 -33 1 -97zM286 82q69 47 109 100t57 129q-3 48 -28.5 84
t-67.5 53q-65 -51 -137 -141q-4 -47 -19 -190q39 -25 86 -35z" />
    <glyph glyph-name="q" unicode="q" horiz-adv-x="609" 
d="M436 -138l8 -7q19 16 64 57t56 51q32 2 34 -36q-35 -48 -103.5 -122t-82.5 -90q-61 11 -91 35t-30 53q70 224 101 359q-103 -107 -139 -148q-107 1 -163.5 51.5t-57.5 135.5q-2 125 93 235t224 114q51 -18 97 -100q-1 64 16 99q66 9 102 -0.5t52 -41.5l-82 -158
q-64 -340 -98 -487zM183 207q0 -69 58 -97q123 108 171 151l20 105q-23 40 -41 62.5t-45 39.5q-76 -34 -119.5 -106t-43.5 -155z" />
    <glyph glyph-name="r" unicode="r" horiz-adv-x="487" 
d="M210 406l11 -13q142 151 148 157q56 -11 91 -53.5t36 -107.5q-33 -28 -71 -33.5t-71 12.5q1 43 -18 64q-64 -64 -109 -111q-11 -138 -36 -307q-42 -19 -95 -11t-70 36q57 164 93 319l-28 150q64 57 150 43q10 -33 0 -98z" />
    <glyph glyph-name="s" unicode="s" horiz-adv-x="523" 
d="M339 164q0 26 -125 84q-47 22 -92.5 58.5t-57.5 76.5q26 79 98.5 129t163.5 56q117 -28 153 -127q-3 -31 -34 -45t-86 -5q-10 67 -51 113q-44 -14 -80.5 -43t-36.5 -48.5t39.5 -43.5t89 -46.5t96 -60.5t57.5 -79q-21 -83 -92.5 -131t-176.5 -52q-66 12 -116 48.5
t-68 83.5q21 43 49.5 61.5t71.5 5.5q8 -48 23.5 -78t46.5 -61q56 12 92 42.5t36 61.5z" />
    <glyph glyph-name="t" unicode="t" horiz-adv-x="476" 
d="M470 496l-180 -7q-6 -74 -21 -208.5t-20 -187.5q78 28 143 78q31 -1 40.5 -14.5t6.5 -45.5q-41 -36 -100.5 -67t-121.5 -44q-104 12 -127 83q66 223 100 389l-130 -23q-35 40 0 91l137 -2l-9 162q110 63 165 12l-49 -156l166 31q35 -29 0 -91z" />
    <glyph glyph-name="u" unicode="u" horiz-adv-x="609" 
d="M599 507l-82 -158q-12 -144 -7 -335q-33 -19 -83.5 -11.5t-84.5 37.5l47 113l-12 10q-41 -54 -143 -163q-180 22 -209 124l63 163q-1 39 0 76q1 103 -3 183q45 13 91.5 3.5t73.5 -41.5q-8 -110 -83 -355q10 -31 70 -49q97 92 141 155q34 187 65 288q69 8 104.5 -1
t51.5 -39z" />
    <glyph glyph-name="v" unicode="v" horiz-adv-x="535" 
d="M392 518q44 34 88 38t72 -24q-41 -300 -250 -529q-56 -8 -109 10t-75 58q17 104 17.5 164t-17.5 128l-86 104q38 89 149 83q97 -139 75 -447l10 -6q131 153 164 302z" />
    <glyph glyph-name="w" unicode="w" horiz-adv-x="822" 
d="M557 102l9 -7q118 137 154 307l-41 117q44 35 88 40t72 -21q-28 -299 -233 -536q-55 -9 -105.5 11t-68.5 61q27 103 27 200l-8 4q-52 -130 -164 -275q-57 -9 -107 10.5t-69 57.5q16 99 18 156.5t-10 134.5l-87 105q37 89 149 83q96 -151 67 -448l11 -3q94 115 158 284
l-65 92q44 78 145 67q91 -174 60 -440z" />
    <glyph glyph-name="x" unicode="x" horiz-adv-x="578" 
d="M307 330l155 220q51 4 76.5 -22t27.5 -73q-104 -57 -240 -183q60 -90 173 -130q23 -40 -3 -83.5t-87 -58.5q-111 84 -132 214l-160 -214q-59 6 -84 36t-16 70q127 68 243 169q-66 99 -180 136q-9 53 20 90.5t80 48.5q106 -74 127 -220z" />
    <glyph glyph-name="y" unicode="y" horiz-adv-x="569" 
d="M37 167l50 137q5 127 -5 242q40 14 88.5 4.5t79.5 -43.5q-14 -118 -74 -314q9 -21 25 -34t50 -24q81 62 128 125q36 223 57 287q67 10 103 0.5t53 -40.5l-94 -173q-50 -273 -77 -545q-64 -84 -232 -79q-72 34 -118 85.5t-58 105.5q30 44 69.5 58.5t73.5 -5.5
q14 -93 79 -153q38 -3 53 15q20 86 47 244l44 81l-13 12q-40 -48 -114 -116q-191 26 -215 130z" />
    <glyph glyph-name="z" unicode="z" horiz-adv-x="589" 
d="M196 357q-56 -7 -86 4.5t-42 43.5q37 116 129 145q160 -47 240 -56l22 56q56 2 84.5 -11t38.5 -47q-8 -45 -51 -98t-109 -104q-116 -92 -242 -166l2 -11q6 -1 86 -5t122 -11q17 33 29 81q110 27 123 -51q-33 -88 -132 -127q-89 34 -256 58l-5 -4l9 -29q-26 -32 -112 -25
q-24 29 -22.5 66t30 69.5t75 64t95.5 63.5q131 84 186 159l-4 9q-71 4 -170 26q-31 -38 -40 -100z" />
    <glyph glyph-name="braceleft" unicode="{" horiz-adv-x="653" 
d="M434 900q86 0 179 -72q0 -48 -57 -69l-101 68l-34 -20q53 -125 26 -225q-17 -71 -67 -113.5t-119 -43.5l-5 -18q120 -74 119 -191q-4 -117 -126 -222l23 -33l134 27q34 -24 31 -63q-91 -37 -184 -42q-52 13 -94 49.5t-59 87.5q115 79 118 208q2 55 -26.5 104t-71.5 67
l27 90q61 0 107 50.5t55 126.5t-30 164q29 33 71 51.5t84 18.5z" />
    <glyph glyph-name="bar" unicode="|" horiz-adv-x="292" 
d="M189 960q60 33 101 33t68 -12l-124 -533q-71 -471 -87 -633q-38 -19 -92.5 -9t-69.5 39q36 121 79 335.5t65 372.5z" />
    <glyph glyph-name="braceright" unicode="}" horiz-adv-x="654" 
d="M469 562q-2 -55 26.5 -104t72.5 -68l-28 -90q-60 0 -106 -50.5t-55.5 -126t29.5 -163.5q-53 -66 -155 -74q-94 15 -179 76q0 50 57 68l101 -68l34 20q-54 124 -26 225q17 71 67.5 114t118.5 44l5 18q-121 74 -117 190q1 119 126 222l-25 33l-134 -26q-14 9 -22.5 27
t-7.5 36q80 38 176 42q53 -4 97.5 -44t62.5 -93q-113 -79 -118 -208z" />
    <glyph glyph-name="asciitilde" unicode="~" horiz-adv-x="650" 
d="M195 434q90 -8 142.5 -27t115.5 -59h6l76 76q33 5 57 -6.5t23 -31.5q-33 -43 -71 -70.5t-99 -49.5q-150 15 -242 86l-7 -3l-67 -76q-33 -4 -61 9.5t-25 34.5q61 74 152 117z" />
    <glyph glyph-name="uni00A0" unicode="&#xa0;" horiz-adv-x="436" 
 />
    <glyph glyph-name="exclamdown" unicode="&#xa1;" horiz-adv-x="432" 
d="M254.5 565.5q34.5 20.5 62 20.5t45 -17.5t19.5 -44.5q-9 -39 -40 -73t-67 -38q-25 0 -50 31.5t-30 67.5q26 33 60.5 53.5zM133 -14l76 346q32 44 92 -3l-46 -240l-50 -412q-51 -17 -100.5 -8t-78.5 43z" />
    <glyph glyph-name="cent" unicode="&#xa2;" horiz-adv-x="554" 
d="M416 639l-35 -89q114 -30 147 -149q-18 -35 -55 -48.5t-83 -4.5q-8 70 -42 112l-63 -371q111 33 174 88q57 2 43 -63q-35 -36 -100 -67.5t-131 -43.5l-23 -133q-51 -13 -75 37l38 103q-93 27 -135 88.5t-40 138.5t55 148q101 121 231 161l22 124q51 16 72 -31zM308 472
l-2 -1q-55 -40 -86.5 -97.5t-33.5 -108.5q-5 -104 57 -157z" />
    <glyph glyph-name="sterling" unicode="&#xa3;" horiz-adv-x="674" 
d="M258 500l-37 149q33 40 93 72t130 41q83 -17 122.5 -57.5t52.5 -100.5q-16 -33 -56 -45.5t-92 -1.5q1 45 -8.5 72t-34.5 55q-50 -11 -78 -37q16 -118 -11 -261l189 19q23 -16 -12 -72l-189 -5q-30 -120 -73 -215q104 -22 208 -20l74 62q102 -37 20 -155q-212 7 -344 45
q-28 -39 -93 -45q-46 23 -64 54q-33 59 36 113l57 -22q43 90 72 180l-137 -3q-19 23 8 69l143 -12q15 58 24 121z" />
    <glyph glyph-name="currency" unicode="&#xa4;" horiz-adv-x="746" 
d="M350 107q-55 0 -111 48l-97 -111q-58 4 -78.5 32.5t-1.5 63.5l126 72q-39 61 -39 123q0 81 73 175l-131 81q-18 35 3.5 63t80.5 30l97 -121q89 80 183 80q47 0 101 -52l92 104q59 -4 80 -34t0 -63l-121 -68q49 -75 50 -134q0 -87 -85 -177l120 -68q21 -32 0 -62t-80 -34
l-99 113q-84 -61 -163 -61zM359 177q73 36 113.5 85t56.5 117q-10 112 -90 193q-67 -43 -107 -104t-50 -130q5 -99 77 -161z" />
    <glyph glyph-name="yen" unicode="&#xa5;" horiz-adv-x="656" 
d="M640 375q0 -25 -21 -53l-196 -3q-9 -42 -15 -96l203 32q18 -9 19.5 -36t-19.5 -54l-210 -9q-4 -46 -10 -142q-29 -21 -86.5 -14t-81.5 35q18 50 32 110l-164 -28q-16 16 -15 43.5t19 47.5h176q6 29 20 89l-4 9l-190 -25q-16 16 -15 43.5t19 47.5l160 -7q-59 133 -157 317
q29 44 74 59.5t84 -2.5l20 -194l74 -215h6l24 50l146 187l-41 155q124 59 189 -8q-4 -78 -57 -147q-32 -41 -86 -103t-71 -83l154 30q20 -11 20 -36z" />
    <glyph glyph-name="brokenbar" unicode="&#xa6;" horiz-adv-x="297" 
d="M74 309q43 17 87 17t74 -22l-69 -248q-2 -22 -10.5 -107.5t-12.5 -132.5q-37 -22 -90.5 -14t-72.5 32q53 186 69 267zM197 976q47 21 94.5 21t74.5 -24l-76 -258q-1 -21 -10 -102t-13 -130q-36 -18 -88 -13.5t-74 26.5q56 203 67 265z" />
    <glyph glyph-name="section" unicode="&#xa7;" horiz-adv-x="631" 
d="M475 266q-14 32 -57 59q-39 24 -78 43.5t-50 25.5q-40 -23 -73.5 -51.5t-33.5 -46.5q5 -25 45 -55.5t71.5 -46.5t92.5 -45q83 55 83 117zM294 634q-51 -33 -51 -58t48 -55.5t108.5 -57t122.5 -70t83 -91.5q-22 -128 -146 -192q26 -15 40.5 -24.5t32.5 -27t26 -36.5
q-42 -195 -315 -231q-79 17 -147 56.5t-100 80.5q60 129 146 99q18 -55 39.5 -88t71.5 -72q67 16 108.5 50t42.5 79q0 18 -33.5 38t-82.5 42t-99.5 48t-89.5 65t-47 83q58 112 171 157q-56 35 -87 64.5t-40 68.5q92 171 307 191q142 -30 208 -156q-11 -37 -42 -51.5
t-90 -7.5q-16 55 -36 86t-51 53q-47 -10 -98 -43z" />
    <glyph glyph-name="dieresis" unicode="&#xa8;" horiz-adv-x="379" 
d="M157 758q29 0 49 -19.5t20 -48t-20 -49t-49 -20.5t-49.5 20.5t-20.5 48.5t20.5 48t49.5 20zM384 679q-5 -5 -11.5 -5t-12.5 5t-6 11q0 15 17.5 15t17.5 -15q0 -6 -5 -11z" />
    <glyph glyph-name="copyright" unicode="&#xa9;" horiz-adv-x="829" 
d="M629 477q-14 -27 -46.5 -37t-74.5 -2q1 63 -37 109l-21 -4q-47 -34 -74 -83t-29 -97.5t14.5 -85t61.5 -62.5q96 28 152 78q49 2 37 -54q-31 -32 -90.5 -60t-115.5 -36q-98 18 -141.5 73t-42 123t45.5 130q98 119 224 144q114 -20 137 -136zM767 386q-9 60 -18.5 98
t-30 80t-50.5 68q-68 62 -194 88q-154 -24 -252 -121.5t-119 -229.5q25 -271 284 -329q318 32 380 346zM42 370q30 158 140 264.5t297 130.5q195 -24 267 -127q37 -53 54 -109t28 -141q-28 -152 -129 -259q-52 -55 -133 -90t-184 -44q-166 24 -250.5 124.5t-89.5 250.5z" />
    <glyph glyph-name="ordfeminine" unicode="&#xaa;" horiz-adv-x="466" 
d="M369 670q0 60 13 85q108 10 128 -33l-66 -127q-9 -117 -6 -266q-24 -16 -70.5 -9.5t-73.5 32.5l32 79l-10 8q-59 -69 -92 -109q-74 2 -115 43.5t-42 104.5q-1 100 67 188t163 89q38 -23 72 -86v1zM216 593.5q-30 -53.5 -30 -107.5t34 -76q19 19 56.5 56t58.5 58l18 88
q-22 41 -52 65q-55 -30 -85 -83.5z" />
    <glyph glyph-name="guillemotleft" unicode="&#xab;" horiz-adv-x="589" 
d="M511 242q10 -40 -7.5 -75t-47.5 -35l-172 216q0 27 12 53l129 97l109 85q31 -12 35 -43t-23 -73l-177 -113l60 -53zM274 242q10 -40 -7.5 -75t-47.5 -35l-160 216q0 27 12 53l104 82l114 100q30 -12 34.5 -43t-22.5 -73l-157 -113l60 -53z" />
    <glyph glyph-name="logicalnot" unicode="&#xac;" horiz-adv-x="961" 
d="M522 409l386 18q19 -13 9 -62l-41 -196q-14 -11 -35.5 -8t-41.5 20l38 161l-760 -9q-11 12 -8 35t20 46z" />
    <glyph glyph-name="uni00AD" unicode="&#xad;" horiz-adv-x="538" 
d="M492 382q14 -8 9.5 -33.5t-25.5 -50.5l-410 -9q-11 12 -7 34.5t20 45.5l190 -5z" />
    <glyph glyph-name="registered" unicode="&#xae;" horiz-adv-x="542" 
d="M346 753q91 -12 136 -51q52 -47 68 -169q-17 -94 -80.5 -156.5t-180.5 -73.5q-97 14 -147 72.5t-52 146.5q18 92 82 154.5t174 76.5zM292 330q187 18 223 202q-7 44 -15.5 70t-26.5 53q-34 51 -131 71q-89 -14 -146.5 -71t-70.5 -134q15 -158 167 -191zM241 660
q34 9 82 9t79 -22t30.5 -51t-15.5 -48t-52 -38q-14 -2 -38 -4q13 -27 32.5 -41.5t56.5 -23.5q8 -14 -2 -28.5t-31 -21.5q-71 38 -82 114l-7 -1q-6 -68 -11 -106q-12 -8 -34 -5t-29 14q22 73 39 168l3 56l-19 2q-6 6 -6.5 14.5t4.5 12.5zM350 540q27 21 27 46q0 51 -60 51
l-19 -84l-2 -24q29 3 54 11z" />
    <glyph glyph-name="macron" unicode="&#xaf;" horiz-adv-x="380" 
d="M429 697q14 -7 10 -27t-25 -44l-329 -10q-23 24 12 69l169 -5z" />
    <glyph glyph-name="degree" unicode="&#xb0;" horiz-adv-x="479" 
d="M316 718q-81 -56 -89 -143q3 -55 41 -98q83 43 100 124q-7 62 -52 117zM331 768q51 0 105 -54.5t55 -102.5q2 -61 -76.5 -122.5t-159.5 -61.5q-52 0 -103.5 44t-52.5 94q-1 70 72 136.5t160 66.5z" />
    <glyph glyph-name="plusminus" unicode="&#xb1;" horiz-adv-x="718" 
d="M426 478l237 12q13 -8 8.5 -33.5t-25.5 -50.5h-234l-30 -163q-14 -9 -35.5 -1.5t-40.5 28.5l33 136h-227q-22 27 14 80l226 -8l22 162q10 11 34.5 1.5t44.5 -34.5zM614 206q13 -8 8.5 -33.5t-25.5 -50.5l-531 -2q-11 11 -7.5 34t20.5 45l269 -5z" />
    <glyph glyph-name="uni00B2" unicode="&#xb2;" horiz-adv-x="328" 
d="M272 634q-10 38 -40.5 38t-58.5 -35l15 -36q-4 -8 -15.5 -14t-19.5 -7q-18 15 -38.5 39.5t-29.5 43.5q21 42 58.5 69t78 27t80.5 -54t40 -108.5t-77 -117.5l-107 -86l5 -4l158 25q10 -12 3 -45.5t-28 -54.5l-152 18l-51 -11q-45 27 -50 83l163 146q48 43 66 84z" />
    <glyph glyph-name="uni00B3" unicode="&#xb3;" horiz-adv-x="328" 
d="M209 670q-30 0 -53 -25l16 -35q-10 -15 -37 -22q-42 32 -63 75q24 43 62 69.5t83 26.5t89.5 -40.5t44.5 -85.5q-1 -37 -56 -63l-49 -22q49 -18 76.5 -40.5t24.5 -55.5q-4 -49 -82 -85.5t-189 -45.5q-13 10 -20.5 29.5t-3.5 36.5q79 17 123.5 34.5t74.5 44.5
q-23 31 -86 51l2 32l93 66q-10 55 -50 55z" />
    <glyph glyph-name="acute" unicode="&#xb4;" horiz-adv-x="231" 
d="M184 813q52 10 90.5 -3.5t49.5 -45.5l-182 -167q-23 0 -39.5 8.5t-16.5 23.5l68 94z" />
    <glyph glyph-name="mu" unicode="&#xb5;" horiz-adv-x="613" 
d="M608 507l-83 -158q-11 -135 -6 -335q-33 -19 -84 -11.5t-84 37.5l47 113l-13 10q-58 -75 -143 -163q-44 3 -93 21q-75 -270 -86 -310q-43 -17 -81 -1t-52 49q117 298 172 539q2 104 -8 248q39 14 87.5 4.5t76.5 -42.5q-15 -121 -78 -367q21 -24 66 -37q94 88 141 155
q30 171 64 288q69 8 105 -1t52 -39z" />
    <glyph glyph-name="paragraph" unicode="&#xb6;" horiz-adv-x="642" 
d="M531 730l17 92q33 10 76.5 5.5t68.5 -26.5l-71 -190l-70 -329q-4 -33 -32 -274q-25 -16 -68 -9.5t-60 27.5l77 333l50 290q-30 3 -70 -5l-88 -362l-34 -274q-25 -16 -68.5 -9.5t-60.5 27.5q47 163 74 302q-96 9 -149.5 49.5t-49.5 111.5t37.5 119t95.5 74q114 50 325 48z
" />
    <glyph glyph-name="periodcentered" unicode="&#xb7;" horiz-adv-x="304" 
d="M193 270q-32 -20 -59.5 -20t-44.5 16.5t-19 42.5q6 39 35 71.5t64 36.5q24 0 49 -30.5t30 -64.5q-23 -32 -55 -52z" />
    <glyph glyph-name="cedilla" unicode="&#xb8;" horiz-adv-x="359" 
d="M124 -75q34 29 72.5 29t60.5 -28.5t15 -73.5q-11 -57 -55.5 -88.5t-103.5 -30.5t-107 24t-73 61q-1 18 7 31t19 14q60 -61 127.5 -61t77.5 47q4 25 -11 44q-29 -5 -59 -27q-19 0 -36 9.5t-21 25.5l61 125h78z" />
    <glyph glyph-name="uni00B9" unicode="&#xb9;" horiz-adv-x="245" 
d="M255 627l-45 -205l-7 -104q-73 -10 -116 16l63 276l27 53l-14 6l-40 -50q-13 -4 -30.5 0.5t-23.5 13.5l64 114q31 9 85.5 2.5t72.5 -26.5z" />
    <glyph glyph-name="ordmasculine" unicode="&#xba;" horiz-adv-x="482" 
d="M323 754q56 0 113.5 -69.5t59.5 -131.5q2 -79 -81 -157t-170 -78q-58 0 -113.5 56t-56.5 121q0 90 75.5 174.5t172.5 84.5zM313 696q-104 -79 -115 -190q3 -71 54 -128q106 56 129 162q-11 78 -68 156z" />
    <glyph glyph-name="guillemotright" unicode="&#xbb;" horiz-adv-x="589" 
d="M108 473q-10 40 8 75t47 35l172 -216q0 -27 -12 -54l-129 -95l-108 -86q-31 12 -35 42.5t22 73.5l177 114l-61 52zM346 473q-11 40 6.5 75t47.5 35l159 -216q1 -26 -11 -54l-104 -81l-113 -100q-31 12 -35.5 42.5t22.5 73.5l157 114z" />
    <glyph glyph-name="onequarter" unicode="&#xbc;" horiz-adv-x="794" 
d="M563 417q21 3 57 3q78 0 108 -40l-35 -86l-29 -135l66 2q5 -13 0 -36.5t-15 -32.5l-64 2l-8 -104q-19 -7 -53.5 -2.5t-50.5 18.5l21 91l-18 1l-145 -6q-35 26 -34 46zM517 153l57 2l13 57l42 146l-8 2l-142 -206zM354 389l206 460q42 6 64.5 -1t35.5 -30l-505 -903
q-75 -7 -89 38zM195 669l-40 -50q-13 -4 -30.5 0.5t-23.5 13.5l64 114q31 9 85.5 2.5t72.5 -26.5l-36 -96l-45 -205l-7 -104q-73 -10 -116 16l63 276l27 53z" />
    <glyph glyph-name="onehalf" unicode="&#xbd;" horiz-adv-x="783" 
d="M354 389l206 460q42 6 64.5 -1t35.5 -30l-505 -903q-75 -7 -89 38zM288 627l-45 -205l-7 -104q-73 -10 -116 16l63 276l27 53l-14 6l-40 -50q-13 -4 -30.5 0.5t-23.5 13.5l64 114q31 9 85.5 2.5t72.5 -26.5zM659 291q-10 37 -40.5 37t-58.5 -35l14 -36q-4 -7 -15.5 -13
t-19.5 -7q-18 14 -38.5 38.5t-29.5 43.5q21 42 58 69t78.5 27t81 -53.5t39.5 -108.5t-77 -118l-107 -86l5 -4l158 25q10 -12 3.5 -45.5t-27.5 -54.5l-152 18l-52 -11q-19 12 -33.5 35t-15.5 48l162 146q47 43 67 85z" />
    <glyph glyph-name="threequarters" unicode="&#xbe;" horiz-adv-x="819" 
d="M622 417q21 3 58 3q77 0 107 -40l-36 -86l-29 -136l67 3q5 -13 0 -36.5t-15 -32.5l-64 2l-8 -104q-19 -7 -53.5 -2.5t-50.5 18.5l21 91l-17 1l-146 -6q-35 26 -34 46zM577 153l55 2l13 57l43 146l-7 2l-59 -83l-83 -123zM412 389l206 460q42 6 64.5 -1t35.5 -30
l-505 -903q-75 -7 -89 38zM228 670q-30 0 -53 -25l16 -35q-10 -15 -37 -22q-42 32 -63 75q24 43 62 69.5t83 26.5t89.5 -40.5t44.5 -85.5q-1 -37 -56 -63l-49 -22q49 -18 76.5 -40.5t24.5 -55.5q-4 -49 -82 -85.5t-189 -45.5q-13 10 -20.5 29.5t-3.5 36.5q79 17 123.5 34.5
t74.5 44.5q-23 31 -86 51l2 32l93 66q-10 55 -50 55z" />
    <glyph glyph-name="questiondown" unicode="&#xbf;" horiz-adv-x="666" 
d="M338.5 551.5q34.5 20.5 62.5 20.5t45 -17.5t19 -44.5q-9 -39 -40 -73t-67 -38q-25 0 -50.5 32t-28.5 67q25 33 59.5 53.5zM378 -10q30 0 49 -61t5 -125q-200 -124 -360 -124q-89 0 -135.5 72.5t-17.5 164.5q55 181 381 261l31 177q25 9 43.5 5t20.5 -19l23 -183
q-28 -60 -80 -89q-119 -19 -211.5 -72.5t-113.5 -116.5q-16 -54 20 -88q157 6 309 105l-6 82q27 11 42 11z" />
    <glyph glyph-name="Agrave" unicode="&#xc0;" horiz-adv-x="670" 
d="M546 357l108 20q33 -27 -5 -85l-97 -6l24 -274q-33 -17 -87.5 -10.5t-86.5 32.5l20 243l-132 -8l-32 -4l-102 -253q-42 -17 -91.5 -9.5t-64.5 33.5l111 212l-70 -8q-34 38 5 86l108 3l74 141l84 239q43 21 92 28q88 12 144 -12l-19 -170zM285 332l141 3l-10 294l-12 -3z
M454 799l-60 86l-86 81q16 38 60.5 50.5t74.5 -2.5l76 -194q-7 -14 -26 -20t-39 -1z" />
    <glyph glyph-name="Aacute" unicode="&#xc1;" horiz-adv-x="670" 
d="M546 357l108 20q33 -27 -5 -85l-97 -6l24 -274q-33 -17 -87.5 -10.5t-86.5 32.5l20 243l-132 -8l-32 -4l-102 -253q-42 -17 -91.5 -9.5t-64.5 33.5l111 212l-70 -8q-34 38 5 86l108 3l74 141l84 239q43 21 92 28q88 12 144 -12l-19 -170zM285 332l141 3l-10 294l-12 -3z
M671 961l-182 -167q-23 0 -39.5 8.5t-16.5 23.5l68 94l30 90q52 10 90.5 -3.5t49.5 -45.5z" />
    <glyph glyph-name="Acircumflex" unicode="&#xc2;" horiz-adv-x="670" 
d="M546 357l108 20q33 -27 -5 -85l-97 -6l24 -274q-33 -17 -87.5 -10.5t-86.5 32.5l20 243l-132 -8l-32 -4l-102 -253q-42 -17 -91.5 -9.5t-64.5 33.5l111 212l-70 -8q-34 38 5 86l108 3l74 141l84 239q43 21 92 28q88 12 144 -12l-19 -170zM285 332l141 3l-10 294l-12 -3z
M599 796q-38 0 -64 13l-56 117l-144 -127q-54 2 -57 36l173 159q77 16 130 -16l85 -156q-29 -26 -67 -26z" />
    <glyph glyph-name="Atilde" unicode="&#xc3;" horiz-adv-x="670" 
d="M575 870l64 81q27 5 46 -6.5t15 -31.5q-49 -79 -141 -117q-109 24 -159 84l-7 -2l-61 -79q-25 -3 -46.5 10t-19.5 34q33 41 64 68t79 48q112 -31 161 -89h5zM546 357l108 20q33 -27 -5 -85l-97 -6l24 -274q-33 -17 -87.5 -10.5t-86.5 32.5l20 243l-132 -8l-32 -4
l-102 -253q-42 -17 -91.5 -9.5t-64.5 33.5l111 212l-70 -8q-34 38 5 86l108 3l74 141l84 239q43 21 92 28q88 12 144 -12l-19 -170zM285 332l141 3l-10 294l-12 -3z" />
    <glyph glyph-name="Adieresis" unicode="&#xc4;" horiz-adv-x="670" 
d="M546 357l108 20q33 -27 -5 -85l-97 -6l24 -274q-33 -17 -87.5 -10.5t-86.5 32.5l20 243l-132 -8l-32 -4l-102 -253q-42 -17 -91.5 -9.5t-64.5 33.5l111 212l-70 -8q-34 38 5 86l108 3l74 141l84 239q43 21 92 28q88 12 144 -12l-19 -170zM285 332l141 3l-10 294l-12 -3z
M355 818q-29 0 -49.5 20.5t-20.5 48.5t20.5 48t49.5 20t49 -19.5t20 -48t-20 -49t-49 -20.5zM582 876q-5 -5 -11.5 -5t-12.5 5t-6 11q0 15 17.5 15t17.5 -15q0 -6 -5 -11z" />
    <glyph glyph-name="Aring" unicode="&#xc5;" horiz-adv-x="670" 
d="M546 357l108 20q33 -27 -5 -85l-97 -6l24 -274q-33 -17 -87.5 -10.5t-86.5 32.5l20 243l-132 -8l-32 -4l-102 -253q-42 -17 -91.5 -9.5t-64.5 33.5l111 212l-70 -8q-34 38 5 86l108 3l74 141l84 239q43 21 92 28q88 12 144 -12l-19 -170zM285 332l141 3l-10 294l-12 -3z
M568.5 823.5q-48.5 -31.5 -107 -31.5t-89.5 31t-14 82.5t65 82.5t107.5 31t91 -29.5t13.5 -82t-66.5 -84zM479 831q10 0 22 7q19 25 30 67q19 74 -21 74q-10 0 -22 -7q-20 -30 -30 -66q-19 -75 21 -75z" />
    <glyph glyph-name="AE" unicode="&#xc6;" horiz-adv-x="853" 
d="M408 632l-114 -266l126 7v262zM669 741q97 0 174 -5q26 -30 11.5 -71.5t-60.5 -72.5l-67 57q-59 11 -162 -3l-29 -75l-5 -183q15 1 227 25q19 -13 17 -43.5t-23 -54.5q-117 9 -229 -3l-31 -151v-69q112 7 270 50q21 -9 27 -32q10 -38 -12 -82q-142 -28 -295 -28
q-47 0 -73.5 13t-50.5 42l57 253l-149 -9l-123 -287q-43 -17 -92.5 -9.5t-63.5 33.5l143 255l-82 -6q-32 38 8 86h117l55 102l87 233q118 35 354 35z" />
    <glyph glyph-name="Ccedilla" unicode="&#xc7;" horiz-adv-x="644" 
d="M255 524q-62 -95 -62 -188t36.5 -147t114.5 -89q115 44 192 116q31 4 46.5 -13.5t13.5 -46.5q-70 -79 -215 -140l-47 -91q34 29 72.5 29t60.5 -28.5t15 -73.5q-11 -57 -55.5 -88.5t-103.5 -30.5t-107 24t-73 61q-1 18 7 31t19 14q60 -61 127.5 -61t77.5 47q4 25 -11 44
q-29 -5 -59 -27q-19 0 -36 9.5t-21 25.5l53 108q-253 70 -253 314q1 109 80 243q73 74 155 122.5t189 65.5q74 -27 114 -82.5t47 -123.5q-22 -30 -65 -41.5t-89 6.5q-8 113 -47 158l-18 -4q-96 -48 -158 -143z" />
    <glyph glyph-name="Egrave" unicode="&#xc8;" horiz-adv-x="598" 
d="M389 1014l76 -194q-7 -14 -26 -20t-39 -1l-60 86l-86 81q16 38 60.5 50.5t74.5 -2.5zM483 647q-93 8 -157 -1l-30 -93l-28 -151q50 6 224 24q17 -20 14.5 -49t-20.5 -58q-148 12 -228 10l-54 -237q166 23 299 54q23 -8 30 -30q13 -41 -23 -89l-341 -27q-111 28 -115 95
q82 223 118 397l5 150q-19 10 -58 17q-17 43 5 65q231 20 491 10q24 -39 8.5 -81.5t-61.5 -69.5z" />
    <glyph glyph-name="Eacute" unicode="&#xc9;" horiz-adv-x="598" 
d="M483 647q-93 8 -157 -1l-30 -93l-28 -151q50 6 224 24q17 -20 14.5 -49t-20.5 -58q-148 12 -228 10l-54 -237q166 23 299 54q23 -8 30 -30q13 -41 -23 -89l-341 -27q-111 28 -115 95q82 223 118 397l5 150q-19 10 -58 17q-17 43 5 65q231 20 491 10q24 -39 8.5 -81.5
t-61.5 -69.5zM478 1010q52 10 90.5 -3.5t49.5 -45.5l-182 -167q-23 0 -39.5 8.5t-16.5 23.5l68 94z" />
    <glyph glyph-name="Ecircumflex" unicode="&#xca;" horiz-adv-x="598" 
d="M483 647q-93 8 -157 -1l-30 -93l-28 -151q50 6 224 24q17 -20 14.5 -49t-20.5 -58q-148 12 -228 10l-54 -237q166 23 299 54q23 -8 30 -30q13 -41 -23 -89l-341 -27q-111 28 -115 95q82 223 118 397l5 150q-19 10 -58 17q-17 43 5 65q231 20 491 10q24 -39 8.5 -81.5
t-61.5 -69.5zM546 796q-38 0 -64 13l-56 117l-144 -127q-54 2 -57 36l173 159q77 16 130 -16l85 -156q-29 -26 -67 -26z" />
    <glyph glyph-name="Edieresis" unicode="&#xcb;" horiz-adv-x="598" 
d="M301 955q29 0 49 -19.5t20 -48t-20 -49t-49 -20.5t-49.5 20.5t-20.5 48.5t20.5 48t49.5 20zM528 876q-5 -5 -11.5 -5t-12.5 5t-6 11q0 15 17.5 15t17.5 -15q0 -6 -5 -11zM562 583l-79 64q-93 8 -157 -1l-30 -93l-28 -151q50 6 224 24q17 -20 14.5 -49t-20.5 -58
q-148 12 -228 10l-54 -237q166 23 299 54q23 -8 30 -30q13 -41 -23 -89l-341 -27q-111 28 -115 95q82 223 118 397l5 150q-19 10 -58 17q-17 43 5 65q231 20 491 10q24 -39 8.5 -81.5t-61.5 -69.5z" />
    <glyph glyph-name="Igrave" unicode="&#xcc;" horiz-adv-x="283" 
d="M217 1014l76 -194q-7 -14 -26 -20t-39 -1l-60 86l-86 81q16 38 60.5 50.5t74.5 -2.5zM134 710q60 33 104.5 33t70.5 -13l-84 -303q-3 -36 -17 -179.5t-22 -233.5q-37 -20 -95 -11t-73 39q66 224 109 476z" />
    <glyph glyph-name="Iacute" unicode="&#xcd;" horiz-adv-x="283" 
d="M306 1010q52 10 90.5 -3.5t49.5 -45.5l-182 -167q-23 0 -39.5 8.5t-16.5 23.5l68 94zM134 710q60 33 104.5 33t70.5 -13l-84 -303q-3 -36 -17 -179.5t-22 -233.5q-37 -20 -95 -11t-73 39q66 224 109 476z" />
    <glyph glyph-name="Icircumflex" unicode="&#xce;" horiz-adv-x="283" 
d="M374 796q-38 0 -64 13l-56 117l-144 -127q-54 2 -57 36l173 159q77 16 130 -16l85 -156q-29 -26 -67 -26zM134 710q60 33 104.5 33t70.5 -13l-84 -303q-3 -36 -17 -179.5t-22 -233.5q-37 -20 -95 -11t-73 39q66 224 109 476z" />
    <glyph glyph-name="Idieresis" unicode="&#xcf;" horiz-adv-x="283" 
d="M134 710q60 33 104.5 33t70.5 -13l-84 -303q-3 -36 -17 -179.5t-22 -233.5q-37 -20 -95 -11t-73 39q66 224 109 476zM129 955q29 0 49 -19.5t20 -48t-20 -49t-49 -20.5t-49.5 20.5t-20.5 48.5t20.5 48t49.5 20zM356 876q-5 -5 -11.5 -5t-12.5 5t-6 11q0 15 17.5 15
t17.5 -15q0 -6 -5 -11z" />
    <glyph glyph-name="Eth" unicode="&#xd0;" horiz-adv-x="710" 
d="M363 743q162 0 250 -90.5t88 -236.5q0 -112 -57.5 -207t-163.5 -161q-148 -49 -307 -48q-96 26 -113 93q57 154 81 242l-84 -13q-29 23 -31 50t19 43l114 -12q3 12 16 75l3 154l-40 -7q-25 20 -28.5 45t11.5 40q102 33 242 33zM258 340l-34 -256q100 3 173 25
q156 117 156 293q-1 113 -53.5 179.5t-161.5 65.5q-34 -136 -59 -231l138 21q25 -10 30.5 -35t-15.5 -51l-170 2z" />
    <glyph glyph-name="Ntilde" unicode="&#xd1;" horiz-adv-x="711" 
d="M572 710q61 32 104.5 32t70.5 -12l-85 -303q-4 -46 -19.5 -186.5t-23.5 -226.5q-42 -18 -89.5 -11.5t-77.5 30.5q-122 250 -191 561l-43 -167q-5 -64 -20.5 -204.5t-21.5 -208.5q-38 -20 -95.5 -11t-72.5 39q73 245 112 473l10 195q63 33 119 33q30 0 59 -16
q66 -264 133 -471l50 -95q63 293 73 353zM379 878l-61 -79q-25 -3 -46.5 10t-19.5 34q33 41 64 68t79 48q112 -31 161 -89h5l64 81q27 5 46 -6.5t15 -31.5q-49 -79 -141 -117q-109 24 -159 84z" />
    <glyph glyph-name="Ograve" unicode="&#xd2;" horiz-adv-x="666" 
d="M417 1015l76 -194q-7 -14 -26 -20t-39 -1l-60 86l-86 81q16 38 60.5 50.5t74.5 -2.5zM190 325q0 -74 30 -140.5t83 -107.5q163 102 219 290q-11 100 -35.5 173t-76.5 133q-97 -56 -158.5 -153t-61.5 -195zM47 310q0 107 53 209.5t139.5 166.5t178.5 64q50 0 105.5 -52.5
t93.5 -137.5t39 -167.5t-55.5 -175t-140.5 -155t-150 -62.5t-127 49t-98.5 121.5t-37.5 139.5z" />
    <glyph glyph-name="Oacute" unicode="&#xd3;" horiz-adv-x="666" 
d="M190 325q0 -74 30 -140.5t83 -107.5q163 102 219 290q-11 100 -35.5 173t-76.5 133q-97 -56 -158.5 -153t-61.5 -195zM47 310q0 107 53 209.5t139.5 166.5t178.5 64q50 0 105.5 -52.5t93.5 -137.5t39 -167.5t-55.5 -175t-140.5 -155t-150 -62.5t-127 49t-98.5 121.5
t-37.5 139.5zM506 1011q52 10 90.5 -3.5t49.5 -45.5l-182 -167q-23 0 -39.5 8.5t-16.5 23.5l68 94z" />
    <glyph glyph-name="Ocircumflex" unicode="&#xd4;" horiz-adv-x="666" 
d="M190 325q0 -74 30 -140.5t83 -107.5q163 102 219 290q-11 100 -35.5 173t-76.5 133q-97 -56 -158.5 -153t-61.5 -195zM47 310q0 107 53 209.5t139.5 166.5t178.5 64q50 0 105.5 -52.5t93.5 -137.5t39 -167.5t-55.5 -175t-140.5 -155t-150 -62.5t-127 49t-98.5 121.5
t-37.5 139.5zM574 797q-38 0 -64 13l-56 117l-144 -127q-54 2 -57 36l173 159q77 16 130 -16l85 -156q-29 -26 -67 -26z" />
    <glyph glyph-name="Otilde" unicode="&#xd5;" horiz-adv-x="666" 
d="M384 960q112 -31 161 -89h5l64 81q27 5 46 -6.5t15 -31.5q-49 -79 -141 -117q-109 24 -159 84l-7 -2l-61 -79q-25 -3 -46.5 10t-19.5 34q33 41 64 68t79 48zM190 325q0 -74 30 -140.5t83 -107.5q163 102 219 290q-11 100 -35.5 173t-76.5 133q-97 -56 -158.5 -153
t-61.5 -195zM47 310q0 107 53 209.5t139.5 166.5t178.5 64q50 0 105.5 -52.5t93.5 -137.5t39 -167.5t-55.5 -175t-140.5 -155t-150 -62.5t-127 49t-98.5 121.5t-37.5 139.5z" />
    <glyph glyph-name="Odieresis" unicode="&#xd6;" horiz-adv-x="666" 
d="M329 956q29 0 49 -19.5t20 -48t-20 -49t-49 -20.5t-49.5 20.5t-20.5 48.5t20.5 48t49.5 20zM556 877q-5 -5 -11.5 -5t-12.5 5t-6 11q0 15 17.5 15t17.5 -15q0 -6 -5 -11zM47 310q0 107 53 209.5t139.5 166.5t178.5 64q50 0 105.5 -52.5t93.5 -137.5t39 -167.5t-55.5 -175
t-140.5 -155t-150 -62.5t-127 49t-98.5 121.5t-37.5 139.5zM190 325q0 -74 30 -140.5t83 -107.5q163 102 219 290q-11 100 -35.5 173t-76.5 133q-97 -56 -158.5 -153t-61.5 -195z" />
    <glyph glyph-name="multiply" unicode="&#xd7;" horiz-adv-x="638" 
d="M334 366l210 243q35 -2 49 -13.5t12 -42.5l-239 -222l175 -179q-19 -64 -72 -48l-146 186l-206 -191q-60 16 -55 62l228 170l-173 221q2 28 20.5 42t46.5 13z" />
    <glyph glyph-name="Oslash" unicode="&#xd8;" horiz-adv-x="739" 
d="M329 0q-88 0 -171 100l-62 -100q-48 13 -70.5 33t-23.5 57l106 86q-36 72 -36 134q0 107 53 209.5t140 166.5t179 64q40 0 83.5 -34t80.5 -91l69 116q99 -11 105 -81l-134 -112q33 -77 34 -157.5t-56 -173t-141 -155t-156 -62.5zM215 325q0 -27 5 -57l301 244
q-28 96 -86 161q-97 -56 -158.5 -153t-61.5 -195zM535 453l-297 -250q30 -80 91 -126q161 102 219 290q-5 47 -13 86z" />
    <glyph glyph-name="Ugrave" unicode="&#xd9;" horiz-adv-x="643" 
d="M387 1014l76 -194q-7 -14 -26 -20t-39 -1l-60 86l-86 81q16 38 60.5 50.5t74.5 -2.5zM298 0q-104 0 -169 58.5t-77 134.5q55 304 75 523q61 32 105 32t70 -13q-95 -310 -103 -477q-7 -85 40 -133.5t149 -24.5q53 67 81 157.5t50 234.5l-20 224q61 32 105.5 32t70.5 -13
q-5 -29 -27.5 -165.5t-37.5 -214.5q-35 -176 -105.5 -265.5t-206.5 -89.5z" />
    <glyph glyph-name="Uacute" unicode="&#xda;" horiz-adv-x="643" 
d="M298 0q-104 0 -169 58.5t-77 134.5q55 304 75 523q61 32 105 32t70 -13q-95 -310 -103 -477q-7 -85 40 -133.5t149 -24.5q53 67 81 157.5t50 234.5l-20 224q61 32 105.5 32t70.5 -13q-5 -29 -27.5 -165.5t-37.5 -214.5q-35 -176 -105.5 -265.5t-206.5 -89.5zM475 1010
q52 10 90.5 -3.5t49.5 -45.5l-182 -167q-23 0 -39.5 8.5t-16.5 23.5l68 94z" />
    <glyph glyph-name="Ucircumflex" unicode="&#xdb;" horiz-adv-x="643" 
d="M298 0q-104 0 -169 58.5t-77 134.5q55 304 75 523q61 32 105 32t70 -13q-95 -310 -103 -477q-7 -85 40 -133.5t149 -24.5q53 67 81 157.5t50 234.5l-20 224q61 32 105.5 32t70.5 -13q-5 -29 -27.5 -165.5t-37.5 -214.5q-35 -176 -105.5 -265.5t-206.5 -89.5zM543 796
q-38 0 -64 13l-56 117l-144 -127q-54 2 -57 36l173 159q77 16 130 -16l85 -156q-29 -26 -67 -26z" />
    <glyph glyph-name="Udieresis" unicode="&#xdc;" horiz-adv-x="643" 
d="M299 955q29 0 49 -19.5t20 -48t-20 -49t-49 -20.5t-49.5 20.5t-20.5 48.5t20.5 48t49.5 20zM526 876q-5 -5 -11.5 -5t-12.5 5t-6 11q0 15 17.5 15t17.5 -15q0 -6 -5 -11zM499 716q61 32 105.5 32t70.5 -13q-5 -29 -27.5 -165.5t-37.5 -214.5q-35 -176 -105.5 -265.5
t-206.5 -89.5q-104 0 -169 58.5t-77 134.5q55 304 75 523q61 32 105 32t70 -13q-95 -310 -103 -477q-7 -85 40 -133.5t149 -24.5q53 67 81 157.5t50 234.5z" />
    <glyph glyph-name="Yacute" unicode="&#xdd;" horiz-adv-x="633" 
d="M476 1009q52 10 90.5 -3.5t49.5 -45.5l-182 -167q-23 0 -39.5 8.5t-16.5 23.5l68 94zM102 682q30 44 74 59.5t84 -2.5l20 -194l77 -209h6l26 51l141 180l-41 155q123 58 189 -8q-4 -78 -57 -147q-32 -41 -103.5 -124t-93.5 -109q-24 -113 -35 -320q-30 -21 -87 -14
t-82 35q37 102 66 265q-61 149 -184 382z" />
    <glyph glyph-name="Thorn" unicode="&#xde;" horiz-adv-x="613" 
d="M336 818l-60 -226q72 29 124 33q98 -17 159.5 -70t62.5 -132q1 -61 -36.5 -108.5t-121.5 -99.5q-127 -25 -228 -2q-10 -101 -20 -196q-31 -22 -93 -14t-79 36q58 172 121 500l1 253q97 59 170 26zM417 289q69 65 66 128q-2 100 -98 129q-58 3 -119 -26q-7 -64 -25 -249
q97 -19 176 18z" />
    <glyph glyph-name="germandbls" unicode="&#xdf;" horiz-adv-x="657" 
d="M457 449l-1 -6q86 -24 128.5 -77.5t42.5 -117.5q-2 -90 -74.5 -158.5t-192.5 -89.5q-98 4 -146 52q2 45 30.5 77t76.5 39l51 -75q57 14 92.5 59t36.5 94.5t-23 85.5t-70 48l-85 -32q-42 46 -35.5 91.5t46.5 70.5l65 -19q79 39 79 127q1 54 -45.5 89t-134.5 27l-57 -108
q-47 -431 -73 -615q-42 -17 -91.5 -8.5t-63.5 36.5q102 351 116 595q24 73 58.5 114.5t98.5 70.5q141 11 225 -46.5t84 -140.5q-2 -59 -36.5 -107.5t-101.5 -75.5z" />
    <glyph glyph-name="agrave" unicode="&#xe0;" horiz-adv-x="625" 
d="M383 162l-143 -148q-104 4 -155.5 55t-51.5 132q-2 125 93.5 235.5t228.5 113.5q52 -31 97 -109v1q0 72 17 107q69 8 104 -1t50 -41l-85 -158q-13 -129 -13 -335q-32 -19 -85.5 -11t-87.5 38l44 108zM226.5 360.5q-43.5 -70.5 -43.5 -146.5t48 -104q62 53 177 152l22 107
q-30 63 -84 96q-76 -34 -119.5 -104.5zM407 602l-60 86l-86 81q16 38 60.5 50.5t74.5 -2.5l76 -194q-7 -14 -26 -20t-39 -1z" />
    <glyph glyph-name="aacute" unicode="&#xe1;" horiz-adv-x="625" 
d="M383 162l-143 -148q-104 4 -155.5 55t-51.5 132q-2 125 93.5 235.5t228.5 113.5q52 -31 97 -109v1q0 72 17 107q69 8 104 -1t50 -41l-85 -158q-13 -129 -13 -335q-32 -19 -85.5 -11t-87.5 38l44 108zM226.5 360.5q-43.5 -70.5 -43.5 -146.5t48 -104q62 53 177 152l22 107
q-30 63 -84 96q-76 -34 -119.5 -104.5zM624 764l-182 -167q-23 0 -39.5 8.5t-16.5 23.5l68 94l30 90q52 10 90.5 -3.5t49.5 -45.5z" />
    <glyph glyph-name="acircumflex" unicode="&#xe2;" horiz-adv-x="625" 
d="M383 162l-143 -148q-104 4 -155.5 55t-51.5 132q-2 125 93.5 235.5t228.5 113.5q52 -31 97 -109v1q0 72 17 107q69 8 104 -1t50 -41l-85 -158q-13 -129 -13 -335q-32 -19 -85.5 -11t-87.5 38l44 108zM226.5 360.5q-43.5 -70.5 -43.5 -146.5t48 -104q62 53 177 152l22 107
q-30 63 -84 96q-76 -34 -119.5 -104.5zM552 599q-38 0 -64 13l-56 117l-144 -127q-54 2 -57 36l173 159q77 16 130 -16l85 -156q-29 -26 -67 -26z" />
    <glyph glyph-name="atilde" unicode="&#xe3;" horiz-adv-x="625" 
d="M528 673l64 81q27 5 46 -6.5t15 -31.5q-49 -79 -141 -117q-109 24 -159 84l-7 -2l-61 -79q-25 -3 -46.5 10t-19.5 34q33 41 64 68t79 48q112 -31 161 -89h5zM383 162l-143 -148q-104 4 -155.5 55t-51.5 132q-2 125 93.5 235.5t228.5 113.5q52 -31 97 -109v1q0 72 17 107
q69 8 104 -1t50 -41l-85 -158q-13 -129 -13 -335q-32 -19 -85.5 -11t-87.5 38l44 108zM226.5 360.5q-43.5 -70.5 -43.5 -146.5t48 -104q62 53 177 152l22 107q-30 63 -84 96q-76 -34 -119.5 -104.5z" />
    <glyph glyph-name="adieresis" unicode="&#xe4;" horiz-adv-x="625" 
d="M383 162l-143 -148q-104 4 -155.5 55t-51.5 132q-2 125 93.5 235.5t228.5 113.5q52 -31 97 -109v1q0 72 17 107q69 8 104 -1t50 -41l-85 -158q-13 -129 -13 -335q-32 -19 -85.5 -11t-87.5 38l44 108zM226.5 360.5q-43.5 -70.5 -43.5 -146.5t48 -104q62 53 177 152l22 107
q-30 63 -84 96q-76 -34 -119.5 -104.5zM308 621q-29 0 -49.5 20.5t-20.5 48.5t20.5 48t49.5 20t49 -19.5t20 -48t-20 -49t-49 -20.5zM535 679q-5 -5 -11.5 -5t-12.5 5t-6 11q0 15 17.5 15t17.5 -15q0 -6 -5 -11z" />
    <glyph glyph-name="aring" unicode="&#xe5;" horiz-adv-x="625" 
d="M383 162l-143 -148q-104 4 -155.5 55t-51.5 132q-2 125 93.5 235.5t228.5 113.5q52 -31 97 -109v1q0 72 17 107q69 8 104 -1t50 -41l-85 -158q-13 -129 -13 -335q-32 -19 -85.5 -11t-87.5 38l44 108zM226.5 360.5q-43.5 -70.5 -43.5 -146.5t48 -104q62 53 177 152l22 107
q-30 63 -84 96q-76 -34 -119.5 -104.5zM521.5 626.5q-48.5 -31.5 -107 -31.5t-89.5 31t-14 82.5t65 82.5t107.5 31t91 -29.5t13.5 -82t-66.5 -84zM432 634q10 0 22 7q19 25 30 67q19 74 -21 74q-10 0 -22 -7q-20 -30 -29 -65q-21 -76 20 -76z" />
    <glyph glyph-name="ae" unicode="&#xe6;" horiz-adv-x="931" 
d="M231.5 360.5q-43.5 -70.5 -43.5 -146.5t47 -104q116 100 169 147q5 48 30 114q-31 61 -83 94q-76 -34 -119.5 -104.5zM690 478l-17 -6q-56 -37 -91.5 -93t-37.5 -112q109 31 201 75q11 95 -55 136zM379 160q-44 -44 -134 -146q-103 4 -155 54.5t-53 131.5t40 160.5
t117.5 133.5t165.5 56q43 -26 90 -107q0 71 18 106q32 8 63.5 4.5t40.5 -20.5l-36 -92q77 95 192 118q95 -17 130.5 -83.5t12.5 -157.5q-163 -79 -324 -111q13 -84 90 -120q123 32 186 86q28 1 39.5 -13.5t6.5 -48.5q-34 -35 -110.5 -68.5t-136.5 -42.5q-106 39 -143 119
l-16 -114q-36 -11 -69.5 -1t-44.5 35l40 111z" />
    <glyph glyph-name="ccedilla" unicode="&#xe7;" horiz-adv-x="550" 
d="M282 -75q34 29 72.5 29t60.5 -28.5t15 -73.5q-11 -57 -55.5 -88.5t-103.5 -30.5t-107 24t-73 61q-1 18 7 31t19 14q60 -61 127.5 -61t77.5 47q4 25 -11 44q-29 -5 -59 -27q-19 0 -36 9.5t-21 25.5l49 101q-110 22 -159.5 86t-48 143.5t54.5 153.5q118 139 265 170
q74 -13 111.5 -53.5t51.5 -106.5q-16 -33 -55.5 -45.5t-90.5 -1.5q1 44 -9 72t-34 56l-24 -5q-54 -41 -86 -98t-34.5 -114t17 -99.5t72.5 -73.5q114 34 180 91q57 2 43 -63q-54 -58 -168 -96z" />
    <glyph glyph-name="egrave" unicode="&#xe8;" horiz-adv-x="553" 
d="M352 559q100 -16 136.5 -82.5t13.5 -158.5q-168 -80 -322 -111q14 -81 87 -120q111 26 184 83q56 2 46 -63q-32 -35 -109 -66.5t-139 -40.5q-111 20 -164.5 85.5t-51.5 155.5q3 75 52 147q125 131 267 171zM177 268v-3q108 32 200 77q12 97 -57 136l-17 -6
q-54 -37 -89 -95t-37 -109zM340 602l-60 86l-86 81q16 38 60.5 50.5t74.5 -2.5l76 -194q-7 -14 -26 -20t-39 -1z" />
    <glyph glyph-name="eacute" unicode="&#xe9;" horiz-adv-x="553" 
d="M352 559q100 -16 136.5 -82.5t13.5 -158.5q-168 -80 -322 -111q14 -81 87 -120q111 26 184 83q56 2 46 -63q-32 -35 -109 -66.5t-139 -40.5q-111 20 -164.5 85.5t-51.5 155.5q3 75 52 147q125 131 267 171zM177 268v-3q108 32 200 77q12 97 -57 136l-17 -6
q-54 -37 -89 -95t-37 -109zM557 764l-182 -167q-23 0 -39.5 8.5t-16.5 23.5l68 94l30 90q52 10 90.5 -3.5t49.5 -45.5z" />
    <glyph glyph-name="ecircumflex" unicode="&#xea;" horiz-adv-x="553" 
d="M352 559q100 -16 136.5 -82.5t13.5 -158.5q-168 -80 -322 -111q14 -81 87 -120q111 26 184 83q56 2 46 -63q-32 -35 -109 -66.5t-139 -40.5q-111 20 -164.5 85.5t-51.5 155.5q3 75 52 147q125 131 267 171zM177 268v-3q108 32 200 77q12 97 -57 136l-17 -6
q-54 -37 -89 -95t-37 -109zM485 599q-38 0 -64 13l-56 117l-144 -127q-54 2 -57 36l173 159q77 16 130 -16l85 -156q-29 -26 -67 -26z" />
    <glyph glyph-name="edieresis" unicode="&#xeb;" horiz-adv-x="553" 
d="M352 559q100 -16 136.5 -82.5t13.5 -158.5q-168 -80 -322 -111q14 -81 87 -120q111 26 184 83q56 2 46 -63q-32 -35 -109 -66.5t-139 -40.5q-111 20 -164.5 85.5t-51.5 155.5q3 75 52 147q125 131 267 171zM177 268v-3q108 32 200 77q12 97 -57 136l-17 -6
q-54 -37 -89 -95t-37 -109zM241 621q-29 0 -49.5 20.5t-20.5 48.5t20.5 48t49.5 20t49 -19.5t20 -48t-20 -49t-49 -20.5zM468 679q-5 -5 -11.5 -5t-12.5 5t-6 11q0 15 17.5 15t17.5 -15q0 -6 -5 -11z" />
    <glyph glyph-name="igrave" unicode="&#xec;" horiz-adv-x="283" 
d="M193 817l76 -194q-7 -14 -26 -20t-39 -1l-60 86l-86 81q16 38 60.5 50.5t74.5 -2.5zM111 348l-5 176q106 47 159 5l-44 -153q-10 -87 -28 -362q-38 -20 -91.5 -11t-76.5 39q51 140 86 306z" />
    <glyph glyph-name="iacute" unicode="&#xed;" horiz-adv-x="283" 
d="M111 348l-5 176q106 47 159 5l-44 -153q-10 -87 -28 -362q-38 -20 -91.5 -11t-76.5 39q51 140 86 306zM282 813q52 10 90.5 -3.5t49.5 -45.5l-182 -167q-23 0 -39.5 8.5t-16.5 23.5l68 94z" />
    <glyph glyph-name="icircumflex" unicode="&#xee;" horiz-adv-x="283" 
d="M111 348l-5 176q106 47 159 5l-44 -153q-10 -87 -28 -362q-38 -20 -91.5 -11t-76.5 39q51 140 86 306zM350 599q-38 0 -64 13l-56 117l-144 -127q-54 2 -57 36l173 159q77 16 130 -16l85 -156q-29 -26 -67 -26z" />
    <glyph glyph-name="idieresis" unicode="&#xef;" horiz-adv-x="283" 
d="M105 758q29 0 49 -19.5t20 -48t-20 -49t-49 -20.5t-49.5 20.5t-20.5 48.5t20.5 48t49.5 20zM332 679q-5 -5 -11.5 -5t-12.5 5t-6 11q0 15 17.5 15t17.5 -15q0 -6 -5 -11zM111 348l-5 176q106 47 159 5l-44 -153q-10 -87 -28 -362q-38 -20 -91.5 -11t-76.5 39
q51 140 86 306z" />
    <glyph glyph-name="eth" unicode="&#xf0;" horiz-adv-x="554" 
d="M434 731l114 51q61 -18 37 -75l-121 -28q60 -124 59 -251q-1 -96 -26 -176t-85 -148t-152 -104q-105 13 -165 81t-59 164t81 185t202 112q52 -36 92 -105q0 110 -36 210l-124 -49q-60 32 -34 81l130 20l-77 83q5 29 24 40t56 12q49 -45 84 -103zM173 238q0 -109 82 -161
q122 104 149 272q-43 76 -98 109q-66 -38 -99.5 -96t-33.5 -124z" />
    <glyph glyph-name="ntilde" unicode="&#xf1;" horiz-adv-x="612" 
d="M461 673l64 81q27 5 46 -6.5t15 -31.5q-49 -79 -141 -117q-109 24 -159 84l-7 -2l-61 -79q-25 -3 -46.5 10t-19.5 34q33 41 64 68t79 48q112 -31 161 -89h5zM207 406l10 -12q83 98 190 156q69 -5 112.5 -45t57.5 -89l-41 -120q-10 -132 -3 -282q-34 -19 -83.5 -11.5
t-82.5 37.5q16 135 65 349q-8 37 -40 54q-81 -40 -169 -136q-10 -124 -35 -293q-42 -19 -95 -11t-70 36q57 164 93 319l-29 150q65 56 151 43q10 -34 1 -98z" />
    <glyph glyph-name="ograve" unicode="&#xf2;" horiz-adv-x="560" 
d="M28 239q0 62 42 137t115 130t149 55q42 0 90 -44t79 -105t32 -118t-46 -128.5t-119.5 -118.5t-140.5 -47t-134.5 74t-66.5 165zM318 487q-67 -45 -107 -109t-50 -136q3 -103 77 -169q139 72 171 212q-12 119 -91 202zM320 817l76 -194q-7 -14 -26 -20t-39 -1l-60 86
l-86 81q16 38 60.5 50.5t74.5 -2.5z" />
    <glyph glyph-name="oacute" unicode="&#xf3;" horiz-adv-x="560" 
d="M378 723l30 90q52 10 90.5 -3.5t49.5 -45.5l-182 -167q-23 0 -39.5 8.5t-16.5 23.5zM28 239q0 62 42 137t115 130t149 55q42 0 90 -44t79 -105t32 -118t-46 -128.5t-119.5 -118.5t-140.5 -47t-134.5 74t-66.5 165zM318 487q-67 -45 -107 -109t-50 -136q3 -103 77 -169
q139 72 171 212q-12 119 -91 202z" />
    <glyph glyph-name="ocircumflex" unicode="&#xf4;" horiz-adv-x="560" 
d="M476 599q-38 0 -64 13l-56 117l-144 -127q-54 2 -57 36l173 159q77 16 130 -16l85 -156q-29 -26 -67 -26zM28 239q0 62 42 137t115 130t149 55q42 0 90 -44t79 -105t32 -118t-46 -128.5t-119.5 -118.5t-140.5 -47t-134.5 74t-66.5 165zM318 487q-67 -45 -107 -109
t-50 -136q3 -103 77 -169q139 72 171 212q-12 119 -91 202z" />
    <glyph glyph-name="otilde" unicode="&#xf5;" horiz-adv-x="560" 
d="M28 239q0 62 42 137t115 130t149 55q42 0 90 -44t79 -105t32 -118t-46 -128.5t-119.5 -118.5t-140.5 -47t-134.5 74t-66.5 165zM318 487q-67 -45 -107 -109t-50 -136q3 -103 77 -169q139 72 171 212q-12 119 -91 202zM270 681l-61 -79q-25 -3 -46.5 10t-19.5 34
q33 41 64 68t79 48q112 -31 161 -89h5l64 81q27 5 46 -6.5t15 -31.5q-49 -79 -141 -117q-109 24 -159 84z" />
    <glyph glyph-name="odieresis" unicode="&#xf6;" horiz-adv-x="560" 
d="M232 758q29 0 49 -19.5t20 -48t-20 -49t-49 -20.5t-49.5 20.5t-20.5 48.5t20.5 48t49.5 20zM459 679q-5 -5 -11.5 -5t-12.5 5t-6 11q0 15 17.5 15t17.5 -15q0 -6 -5 -11zM28 239q0 62 42 137t115 130t149 55q42 0 90 -44t79 -105t32 -118t-46 -128.5t-119.5 -118.5
t-140.5 -47t-134.5 74t-66.5 165zM318 487q-67 -45 -107 -109t-50 -136q3 -103 77 -169q139 72 171 212q-12 119 -91 202z" />
    <glyph glyph-name="divide" unicode="&#xf7;" horiz-adv-x="752" 
d="M447.5 476q-27.5 -17 -50.5 -17t-37 14t-16 36q5 32 29 59t53 31q21 0 42.5 -26t24.5 -53q-18 -27 -45.5 -44zM384.5 111q-27.5 -17 -50 -17t-36.5 13.5t-17 35.5q5 32 29.5 59.5t53.5 31.5q20 0 41.5 -25.5t25.5 -54.5q-19 -26 -46.5 -43zM717 397q13 -7 8.5 -33
t-24.5 -51l-640 -9q-24 29 12 80l323 -5z" />
    <glyph glyph-name="oslash" unicode="&#xf8;" horiz-adv-x="634" 
d="M276 0q-34 0 -71.5 21.5t-68.5 57.5l-66 -79q-36 5 -52.5 22.5t-21.5 51.5l99 70q-21 48 -21 102.5t42.5 129.5t115.5 130t149 55q63 0 131 -89l76 99q30 -5 47 -24t16 -46l-106 -81q36 -66 36.5 -124.5t-46.5 -130t-119.5 -118.5t-139.5 -47zM209 225l223 157
q-24 58 -68 105q-67 -46 -107 -109.5t-49 -135.5q0 -3 0.5 -9t0.5 -8zM445 342l-224 -173q18 -56 64 -96q139 72 170 212q-3 33 -10 57z" />
    <glyph glyph-name="ugrave" unicode="&#xf9;" horiz-adv-x="609" 
d="M599 507l-82 -158q-12 -144 -7 -335q-33 -19 -83.5 -11.5t-84.5 37.5l47 113l-12 10q-41 -54 -143 -163q-180 22 -209 124l63 163q-1 39 0 76q1 103 -3 183q45 13 91.5 3.5t73.5 -41.5q-8 -110 -83 -355q10 -31 70 -49q97 92 141 155q34 187 65 288q69 8 104.5 -1
t51.5 -39zM343 602l-60 86l-86 81q16 38 60.5 50.5t74.5 -2.5l76 -194q-7 -14 -26 -20t-39 -1z" />
    <glyph glyph-name="uacute" unicode="&#xfa;" horiz-adv-x="609" 
d="M599 507l-82 -158q-12 -144 -7 -335q-33 -19 -83.5 -11.5t-84.5 37.5l47 113l-12 10q-41 -54 -143 -163q-180 22 -209 124l63 163q-1 39 0 76q1 103 -3 183q45 13 91.5 3.5t73.5 -41.5q-8 -110 -83 -355q10 -31 70 -49q97 92 141 155q34 187 65 288q69 8 104.5 -1
t51.5 -39zM560 764l-182 -167q-23 0 -39.5 8.5t-16.5 23.5l68 94l30 90q52 10 90.5 -3.5t49.5 -45.5z" />
    <glyph glyph-name="ucircumflex" unicode="&#xfb;" horiz-adv-x="609" 
d="M599 507l-82 -158q-12 -144 -7 -335q-33 -19 -83.5 -11.5t-84.5 37.5l47 113l-12 10q-41 -54 -143 -163q-180 22 -209 124l63 163q-1 39 0 76q1 103 -3 183q45 13 91.5 3.5t73.5 -41.5q-8 -110 -83 -355q10 -31 70 -49q97 92 141 155q34 187 65 288q69 8 104.5 -1
t51.5 -39zM488 599q-38 0 -64 13l-56 117l-144 -127q-54 2 -57 36l173 159q77 16 130 -16l85 -156q-29 -26 -67 -26z" />
    <glyph glyph-name="udieresis" unicode="&#xfc;" horiz-adv-x="609" 
d="M599 507l-82 -158q-12 -144 -7 -335q-33 -19 -83.5 -11.5t-84.5 37.5l47 113l-12 10q-41 -54 -143 -163q-180 22 -209 124l63 163q-1 39 0 76q1 103 -3 183q45 13 91.5 3.5t73.5 -41.5q-8 -110 -83 -355q10 -31 70 -49q97 92 141 155q34 187 65 288q69 8 104.5 -1
t51.5 -39zM244 621q-29 0 -49.5 20.5t-20.5 48.5t20.5 48t49.5 20t49 -19.5t20 -48t-20 -49t-49 -20.5zM471 679q-5 -5 -11.5 -5t-12.5 5t-6 11q0 15 17.5 15t17.5 -15q0 -6 -5 -11z" />
    <glyph glyph-name="yacute" unicode="&#xfd;" horiz-adv-x="569" 
d="M37 167l50 137q5 127 -5 242q40 14 88.5 4.5t79.5 -43.5q-14 -118 -74 -314q9 -21 25 -34t50 -24q81 62 128 125q36 223 57 287q67 10 103 0.5t53 -40.5l-94 -173q-50 -273 -77 -545q-64 -84 -232 -79q-72 34 -118 85.5t-58 105.5q30 44 69.5 58.5t73.5 -5.5
q14 -93 79 -153q38 -3 53 15q20 86 47 244l44 81l-13 12q-40 -48 -114 -116q-191 26 -215 130zM560 764l-182 -167q-23 0 -39.5 8.5t-16.5 23.5l68 94l30 90q52 10 90.5 -3.5t49.5 -45.5z" />
    <glyph glyph-name="thorn" unicode="&#xfe;" horiz-adv-x="603" 
d="M207 406l14 -14q80 102 137 158q116 -18 165.5 -70t68.5 -157q-37 -138 -149 -219.5t-259 -101.5q-25 -191 -40 -266q-47 -18 -93.5 -11.5t-73.5 35.5q110 348 164 779l5 252q54 32 94 38t77 -10l-63 -237l-11 -112zM221 299l-27 -220q113 28 179.5 95t79.5 156
q-8 47 -28 74t-61 44q-64 -49 -143 -149z" />
    <glyph glyph-name="ydieresis" unicode="&#xff;" horiz-adv-x="569" 
d="M37 167l50 137q5 127 -5 242q40 14 88.5 4.5t79.5 -43.5q-14 -118 -74 -314q9 -21 25 -34t50 -24q81 62 128 125q36 223 57 287q67 10 103 0.5t53 -40.5l-94 -173q-50 -273 -77 -545q-64 -84 -232 -79q-72 34 -118 85.5t-58 105.5q30 44 69.5 58.5t73.5 -5.5
q14 -93 79 -153q38 -3 53 15q20 86 47 244l44 81l-13 12q-40 -48 -114 -116q-191 26 -215 130zM244 621q-29 0 -49.5 20.5t-20.5 48.5t20.5 48t49.5 20t49 -19.5t20 -48t-20 -49t-49 -20.5zM471 679q-5 -5 -11.5 -5t-12.5 5t-6 11q0 15 17.5 15t17.5 -15q0 -6 -5 -11z" />
    <glyph glyph-name="Amacron" unicode="&#x100;" horiz-adv-x="670" 
d="M546 357l108 20q33 -27 -5 -85l-97 -6l24 -274q-33 -17 -87.5 -10.5t-86.5 32.5l20 243l-132 -8l-32 -4l-102 -253q-42 -17 -91.5 -9.5t-64.5 33.5l111 212l-70 -8q-34 38 5 86l108 3l74 141l84 239q43 21 92 28q88 12 144 -12l-19 -170zM285 332l141 3l-10 294l-12 -3z
M614 823l-329 -10q-23 24 12 69l169 -5l163 17q14 -7 10 -27t-25 -44z" />
    <glyph glyph-name="amacron" unicode="&#x101;" horiz-adv-x="625" 
d="M383 162l-143 -148q-104 4 -155.5 55t-51.5 132q-2 125 93.5 235.5t228.5 113.5q52 -31 97 -109v1q0 72 17 107q69 8 104 -1t50 -41l-85 -158q-13 -129 -13 -335q-32 -19 -85.5 -11t-87.5 38l44 108zM226.5 360.5q-43.5 -70.5 -43.5 -146.5t48 -104q62 53 177 152l22 107
q-30 63 -84 96q-76 -34 -119.5 -104.5zM567 626l-329 -10q-22 24 12 69l169 -5l163 17q14 -7 10 -27t-25 -44z" />
    <glyph glyph-name="Abreve" unicode="&#x102;" horiz-adv-x="670" 
d="M546 357l108 20q33 -27 -5 -85l-97 -6l24 -274q-33 -17 -87.5 -10.5t-86.5 32.5l20 243l-132 -8l-32 -4l-102 -253q-42 -17 -91.5 -9.5t-64.5 33.5l111 212l-70 -8q-34 38 5 86l108 3l74 141l84 239q43 21 92 28q88 12 144 -12l-19 -170zM285 332l141 3l-10 294l-12 -3z
M574 840.5q-43 -34.5 -100.5 -34.5t-103 37t-59.5 103q17 19 46 16q22 -67 78 -83q79 13 89 83q86 17 107 -36q-14 -51 -57 -85.5z" />
    <glyph glyph-name="abreve" unicode="&#x103;" horiz-adv-x="625" 
d="M383 162l-143 -148q-104 4 -155.5 55t-51.5 132q-2 125 93.5 235.5t228.5 113.5q52 -31 97 -109v1q0 72 17 107q69 8 104 -1t50 -41l-85 -158q-13 -129 -13 -335q-32 -19 -85.5 -11t-87.5 38l44 108zM226.5 360.5q-43.5 -70.5 -43.5 -146.5t48 -104q62 53 177 152l22 107
q-30 63 -84 96q-76 -34 -119.5 -104.5zM527 643.5q-43 -34.5 -100.5 -34.5t-103 37t-59.5 103q17 19 46 16q22 -67 78 -83q79 13 89 83q86 17 107 -36q-14 -51 -57 -85.5z" />
    <glyph glyph-name="Aogonek" unicode="&#x104;" horiz-adv-x="670" 
d="M434 -115q22 -36 78 -36t106 39q34 0 35 -42q-70 -75 -180 -75q-57 0 -104 30t-47 68q0 79 115 146q-22 8 -35 19l20 243l-132 -8l-32 -4l-102 -253q-42 -17 -91.5 -9.5t-64.5 33.5l111 212l-70 -8q-34 38 5 86l108 3l74 141l84 239q43 21 92 28q88 12 144 -12l-19 -170
l17 -198l108 20q33 -27 -5 -85l-97 -6l24 -274q-11 -6 -21 -8q-42 -13 -75.5 -45.5t-45.5 -73.5zM285 332l141 3l-10 294l-12 -3z" />
    <glyph glyph-name="aogonek" unicode="&#x105;" horiz-adv-x="622" 
d="M383 162l-143 -148q-104 4 -155.5 55t-51.5 132q-2 125 93.5 235.5t228.5 113.5q52 -31 97 -109v1q0 72 17 107q69 8 104 -1t50 -41l-85 -158q-13 -129 -13 -335q-13 -7 -26 -10v-3q-56 -15 -94.5 -51.5t-45.5 -85.5q42 -21 89 -14.5t84 37.5q21 1 30 -9t11 -32
q-61 -75 -160 -75q-67 0 -105.5 30t-38.5 71.5t30 81.5t81 68q-15 7 -28 19l44 108zM226.5 360.5q-43.5 -70.5 -43.5 -146.5t48 -104q62 53 177 152l22 107q-30 63 -84 96q-76 -34 -119.5 -104.5z" />
    <glyph glyph-name="Cacute" unicode="&#x106;" horiz-adv-x="644" 
d="M255 524q-62 -95 -62 -188t36.5 -147t114.5 -89q115 44 192 116q31 4 46.5 -13.5t13.5 -46.5q-39 -44 -109.5 -86.5t-146.5 -69.5q-149 30 -221 113.5t-72 209.5q1 109 80 243q73 74 155 122.5t189 65.5q74 -27 114 -82.5t47 -123.5q-22 -30 -65 -41.5t-89 6.5
q-8 113 -47 158l-18 -4q-96 -48 -158 -143zM488 1010q52 10 90.5 -3.5t49.5 -45.5l-182 -167q-23 0 -39.5 8.5t-16.5 23.5l68 94z" />
    <glyph glyph-name="cacute" unicode="&#x107;" horiz-adv-x="550" 
d="M356 555q74 -13 111.5 -53.5t51.5 -106.5q-16 -33 -55.5 -45.5t-90.5 -1.5q1 44 -9 72t-34 56l-24 -5q-54 -41 -86 -98t-34.5 -114t17 -99.5t72.5 -73.5q114 34 180 91q57 2 43 -63q-36 -38 -106.5 -71t-137.5 -43q-115 20 -167 85.5t-50.5 145.5t54.5 154
q118 139 265 170zM423 813q52 10 90.5 -3.5t49.5 -45.5l-182 -167q-23 0 -39.5 8.5t-16.5 23.5l68 94z" />
    <glyph glyph-name="Ccaron" unicode="&#x10c;" horiz-adv-x="644" 
d="M255 524q-62 -95 -62 -188t36.5 -147t114.5 -89q115 44 192 116q31 4 46.5 -13.5t13.5 -46.5q-39 -44 -109.5 -86.5t-146.5 -69.5q-149 30 -221 113.5t-72 209.5q1 109 80 243q73 74 155 122.5t189 65.5q74 -27 114 -82.5t47 -123.5q-22 -30 -65 -41.5t-89 6.5
q-8 113 -47 158l-18 -4q-96 -48 -158 -143zM487 812q-81 -30 -132 -1l-92 149q8 16 27 22.5t39 0.5l77 -128l117 130q23 11 62.5 5t50.5 -35z" />
    <glyph glyph-name="ccaron" unicode="&#x10d;" horiz-adv-x="550" 
d="M356 555q74 -13 111.5 -53.5t51.5 -106.5q-16 -33 -55.5 -45.5t-90.5 -1.5q1 44 -9 72t-34 56l-24 -5q-54 -41 -86 -98t-34.5 -114t17 -99.5t72.5 -73.5q114 34 180 91q57 2 43 -63q-36 -38 -106.5 -71t-137.5 -43q-115 20 -167 85.5t-50.5 145.5t54.5 154
q118 139 265 170zM423 615q-81 -30 -132 -1l-92 149q8 16 27 22.5t39 0.5l77 -128l117 130q23 11 62.5 5t50.5 -35z" />
    <glyph glyph-name="Dcaron" unicode="&#x10e;" horiz-adv-x="695" 
d="M349 743q162 0 250 -90.5t88 -236.5q0 -112 -57.5 -207t-163.5 -161q-148 -49 -307 -48q-96 26 -113 93q84 228 115 385l3 154l-40 -7q-25 20 -28.5 45t11.5 40q102 33 242 33zM244 340l-34 -256q100 3 173 25q156 117 156 293q-1 113 -53.5 179.5t-161.5 65.5
q-61 -237 -80 -307zM590 955l-149 -143q-81 -30 -132 -1l-92 149q8 16 27 22.5t39 0.5l77 -128l117 130q23 11 62.5 5t50.5 -35z" />
    <glyph glyph-name="dcaron" unicode="&#x10f;" horiz-adv-x="684" 
d="M719 769l-21 137q51 33 90.5 19t54.5 -53q-5 -57 -41 -114.5t-92 -102.5q-37 0 -49 26zM476 539l-3 259q106 51 169 21l-64 -235q-5 -48 -75 -570q-36 -19 -88.5 -12.5t-76.5 37.5l53 109l-11 11q-124 -127 -141 -145q-100 1 -154 53.5t-53 134t43 161t119 133t166 54.5
q52 -18 94 -107q11 43 22 96zM230 110l178 152l26 107q-40 71 -85 99q-76 -34 -120 -106t-46 -155q0 -69 47 -97z" />
    <glyph glyph-name="Dcroat" unicode="&#x110;" horiz-adv-x="710" 
d="M363 743q162 0 250 -90.5t88 -236.5q0 -112 -57.5 -207t-163.5 -161q-148 -49 -307 -48q-96 26 -113 93q57 154 81 242l-84 -13q-29 23 -31 50t19 43l114 -12q3 12 16 75l3 154l-40 -7q-25 20 -28.5 45t11.5 40q102 33 242 33zM258 340l-34 -256q100 3 173 25
q156 117 156 293q-1 113 -53.5 179.5t-161.5 65.5q-34 -136 -59 -231l138 21q25 -10 30.5 -35t-15.5 -51l-170 2z" />
    <glyph glyph-name="dcroat" unicode="&#x111;" horiz-adv-x="589" 
d="M606 686l109 11q14 -7 10 -27t-25 -44l-111 -3l-11 -39q-5 -48 -75 -570q-36 -19 -88.5 -12.5t-76.5 37.5l53 109l-11 11q-124 -127 -141 -145q-100 1 -154 53.5t-53 134t43 161t119 133t166 54.5q52 -18 94 -107q11 43 22 96l-1 80l-104 -3q-23 24 12 69l91 -3l-1 116
q106 51 169 21zM230 110l178 152l26 107q-40 71 -85 99q-76 -34 -120 -106t-46 -155q0 -69 47 -97z" />
    <glyph glyph-name="Emacron" unicode="&#x112;" horiz-adv-x="598" 
d="M576 894q14 -7 10 -27t-25 -44l-329 -10q-22 24 12 69l169 -5zM483 647q-93 8 -157 -1l-30 -93l-28 -151q50 6 224 24q17 -20 14.5 -49t-20.5 -58q-148 12 -228 10l-54 -237q166 23 299 54q23 -8 30 -30q13 -41 -23 -89l-341 -27q-111 28 -115 95q82 223 118 397l5 150
q-19 10 -58 17q-17 43 5 65q231 20 491 10q24 -39 8.5 -81.5t-61.5 -69.5z" />
    <glyph glyph-name="emacron" unicode="&#x113;" horiz-adv-x="553" 
d="M352 559q100 -16 136.5 -82.5t13.5 -158.5q-168 -80 -322 -111q14 -81 87 -120q111 26 184 83q56 2 46 -63q-32 -35 -109 -66.5t-139 -40.5q-111 20 -164.5 85.5t-51.5 155.5q3 75 52 147q125 131 267 171zM177 268v-3q108 32 200 77q12 97 -57 136l-17 -6
q-54 -37 -89 -95t-37 -109zM500 626l-329 -10q-23 24 12 69l169 -5l163 17q14 -7 10 -27t-25 -44z" />
    <glyph glyph-name="Edotaccent" unicode="&#x116;" horiz-adv-x="598" 
d="M460.5 842.5q-20.5 -20.5 -49.5 -20.5t-49.5 20.5t-20.5 49t20.5 48t50 19.5t49.5 -20t20 -48t-20.5 -48.5zM483 647q-93 8 -157 -1l-30 -93l-28 -151q50 6 224 24q17 -20 14.5 -49t-20.5 -58q-148 12 -228 10l-54 -237q166 23 299 54q23 -8 30 -30q13 -41 -23 -89
l-341 -27q-111 28 -115 95q82 223 118 397l5 150q-19 10 -58 17q-17 43 5 65q231 20 491 10q24 -39 8.5 -81.5t-61.5 -69.5z" />
    <glyph glyph-name="edotaccent" unicode="&#x117;" horiz-adv-x="553" 
d="M352 559q100 -16 136.5 -82.5t13.5 -158.5q-168 -80 -322 -111q14 -81 87 -120q111 26 184 83q56 2 46 -63q-32 -35 -109 -66.5t-139 -40.5q-111 20 -164.5 85.5t-51.5 155.5q3 75 52 147q125 131 267 171zM177 268v-3q108 32 200 77q12 97 -57 136l-17 -6
q-54 -37 -89 -95t-37 -109zM400.5 645.5q-20.5 -20.5 -49.5 -20.5t-49.5 20.5t-20.5 49t20.5 48t50 19.5t49.5 -20t20 -48t-20.5 -48.5z" />
    <glyph glyph-name="Eogonek" unicode="&#x118;" horiz-adv-x="594" 
d="M352 -126q26 -31 84.5 -31t109.5 42q19 1 27.5 -9t8.5 -30q-65 -75 -167 -75q-66 0 -111.5 32t-45.5 78q0 70 100 134l-189 -15q-111 28 -115 95q82 223 118 397l5 150q-19 10 -58 17q-17 43 5 65q231 20 491 10q24 -39 8.5 -81.5t-61.5 -69.5l-79 64q-93 8 -157 -1
l-30 -93l-28 -151q50 6 224 24q17 -20 14.5 -49t-20.5 -58q-148 12 -228 10l-54 -237q166 23 299 54q23 -8 30 -30q13 -41 -23 -89q-54 -20 -102 -63t-56 -90z" />
    <glyph glyph-name="eogonek" unicode="&#x119;" horiz-adv-x="559" 
d="M211 -122q22 -30 87 -30t119 45q42 3 42 -38q-25 -37 -73 -60.5t-112.5 -23.5t-108.5 33t-44 80q0 69 79 128q-86 28 -127.5 89t-39 138t51.5 149q125 131 267 171q100 -16 136.5 -82.5t13.5 -158.5q-168 -80 -322 -111q14 -81 87 -120q111 26 184 83q56 2 46 -63
q-35 -40 -131 -75v-3q-49 -15 -95.5 -59.5t-59.5 -91.5zM177 268v-3q108 32 200 77q12 97 -57 136l-17 -6q-54 -37 -89 -95t-37 -109z" />
    <glyph glyph-name="Ecaron" unicode="&#x11a;" horiz-adv-x="598" 
d="M483 647q-93 8 -157 -1l-30 -93l-28 -151q50 6 224 24q17 -20 14.5 -49t-20.5 -58q-148 12 -228 10l-54 -237q166 23 299 54q23 -8 30 -30q13 -41 -23 -89l-341 -27q-111 28 -115 95q82 223 118 397l5 150q-19 10 -58 17q-17 43 5 65q231 20 491 10q24 -39 8.5 -81.5
t-61.5 -69.5zM477 812q-81 -30 -132 -1l-92 149q8 16 27 22.5t39 0.5l77 -128l117 130q23 11 62.5 5t50.5 -35z" />
    <glyph glyph-name="ecaron" unicode="&#x11b;" horiz-adv-x="553" 
d="M352 559q100 -16 136.5 -82.5t13.5 -158.5q-168 -80 -322 -111q14 -81 87 -120q111 26 184 83q56 2 46 -63q-32 -35 -109 -66.5t-139 -40.5q-111 20 -164.5 85.5t-51.5 155.5q3 75 52 147q125 131 267 171zM177 268v-3q108 32 200 77q12 97 -57 136l-17 -6
q-54 -37 -89 -95t-37 -109zM566 758l-149 -143q-81 -30 -132 -1l-92 149q8 16 27 22.5t39 0.5l77 -128l117 130q23 11 62.5 5t50.5 -35z" />
    <glyph glyph-name="Gbreve" unicode="&#x11e;" horiz-adv-x="683" 
d="M586 840.5q-43 -34.5 -100.5 -34.5t-103 37t-59.5 103q17 19 46 16q22 -67 78 -83q79 13 89 83q86 17 107 -36q-14 -51 -57 -85.5zM50 316q0 59 23 124t55 112q58 73 147 127t190 71q89 -24 130.5 -72t58.5 -117q-21 -39 -63 -54t-87 8q-6 56 -17 90t-40 65l-15 -1
q-101 -49 -168 -142.5t-68.5 -191t33 -147.5t111.5 -94q116 93 177 205l-4 5l-144 -26q-25 21 -28 53t22 53q138 -19 254 -4q44 -70 5 -210q-16 -60 -53 -164q-28 -9 -56.5 -2t-40.5 28q60 120 79 199l-7 4q-65 -139 -195 -235q-299 60 -299 316z" />
    <glyph glyph-name="gbreve" unicode="&#x11f;" horiz-adv-x="600" 
d="M399 154l-12 11q-119 -122 -146 -151q-104 4 -157 55t-52 132t42.5 160.5t116.5 133.5t162 55q51 -18 96 -103q1 69 17 100q68 10 103 1t52 -41l-91 -177q-28 -136 -79 -528q-60 -89 -227 -96q-157 76 -186 195q29 45 68.5 59.5t75.5 -6.5q10 -85 79 -153q37 -2 53 21
q21 79 46 244zM430 370l-1 -1q-34 69 -81 99q-76 -34 -120 -104t-44.5 -147.5t47.5 -106.5q62 53 177 152zM516 643.5q-43 -34.5 -100.5 -34.5t-103 37t-59.5 103q17 19 46 16q22 -67 78 -83q79 13 89 83q86 17 107 -36q-14 -51 -57 -85.5z" />
    <glyph glyph-name="uni0122" unicode="&#x122;" horiz-adv-x="683" 
d="M50 316q0 59 23 124t55 112q58 73 147 127t190 71q89 -24 130.5 -72t58.5 -117q-21 -39 -63 -54t-87 8q-6 56 -17 90t-40 65l-15 -1q-101 -49 -168 -142.5t-68.5 -191t33 -147.5t111.5 -94q116 93 177 205l-4 5l-144 -26q-25 21 -28 53t22 53q138 -19 254 -4
q44 -70 5 -210q-16 -60 -53 -164q-28 -9 -56.5 -2t-40.5 28q60 120 79 199l-7 4q-65 -139 -195 -235q-299 60 -299 316zM326.5 -19q31.5 0 52.5 -17t30 -41q-5 -57 -41 -114t-92 -102q-38 -2 -50 26l58 87l-20 137q31 24 62.5 24z" />
    <glyph glyph-name="uni0123" unicode="&#x123;" horiz-adv-x="600" 
d="M399 154l-12 11q-119 -122 -146 -151q-104 4 -157 55t-52 132t42.5 160.5t116.5 133.5t162 55q51 -18 96 -103q1 69 17 100q68 10 103 1t52 -41l-91 -177q-28 -136 -79 -528q-60 -89 -227 -96q-157 76 -186 195q29 45 68.5 59.5t75.5 -6.5q10 -85 79 -153q37 -2 53 21
q21 79 46 244zM430 370l-1 -1q-34 69 -81 99q-76 -34 -120 -104t-44.5 -147.5t47.5 -106.5q62 53 177 152zM426 772l47 -132q-24 -32 -56 -42.5t-58.5 -2t-41.5 27.5q-23 130 93 271q41 8 60 -19z" />
    <glyph glyph-name="Imacron" unicode="&#x12a;" horiz-adv-x="283" 
d="M403 894q14 -7 10 -27t-25 -44l-329 -10q-23 24 12 69l169 -5zM134 710q60 33 104.5 33t70.5 -13l-84 -303q-3 -36 -17 -179.5t-22 -233.5q-37 -20 -95 -11t-73 39q66 224 109 476z" />
    <glyph glyph-name="imacron" unicode="&#x12b;" horiz-adv-x="283" 
d="M379 697q14 -7 10 -27t-25 -44l-329 -10q-23 24 12 69l169 -5zM111 348l-5 176q106 47 159 5l-44 -153q-10 -87 -28 -362q-38 -20 -91.5 -11t-76.5 39q51 140 86 306z" />
    <glyph glyph-name="Iogonek" unicode="&#x12e;" horiz-adv-x="283" 
d="M53 -127q29 -29 84.5 -29t102.5 41q42 2 38 -39q-27 -35 -72 -55.5t-103 -20.5t-100.5 31.5t-42.5 72.5t27 76.5t72 60.5q-30 11 -41 31q66 224 109 476l7 192q60 33 104.5 33t70.5 -13l-84 -303q-3 -36 -17 -179.5t-22 -233.5q-1 -1 -3 -1.5t-8 -3.5v-2
q-42 -17 -80.5 -54.5t-41.5 -79.5z" />
    <glyph glyph-name="iogonek" unicode="&#x12f;" horiz-adv-x="286" 
d="M60 -132q31 -25 89.5 -25t105.5 42q35 -1 37 -39q-60 -75 -165 -75q-76 0 -117 32t-41 74t25 78t68 61q-23 9 -35 26q55 150 86 306l-5 176q106 47 159 5l-44 -153q-11 -107 -28 -362q-4 -2 -10 -4v-3q-50 -22 -84 -58.5t-41 -80.5zM261 623.5q-23 -23.5 -56.5 -23.5
t-57.5 23.5t-25 56t23 55.5t57.5 23t56.5 -22.5t24 -55.5t-22 -56.5z" />
    <glyph glyph-name="Idotaccent" unicode="&#x130;" horiz-adv-x="283" 
d="M288.5 842.5q-20.5 -20.5 -49.5 -20.5t-49.5 20.5t-20.5 49t20.5 48t50 19.5t49.5 -20t20 -48t-20.5 -48.5zM134 710q60 33 104.5 33t70.5 -13l-84 -303q-3 -36 -17 -179.5t-22 -233.5q-37 -20 -95 -11t-73 39q66 224 109 476z" />
    <glyph glyph-name="dotlessi" unicode="&#x131;" horiz-adv-x="283" 
d="M111 348l-5 176q106 47 159 5l-44 -153q-10 -87 -28 -362q-38 -20 -91.5 -11t-76.5 39q51 140 86 306z" />
    <glyph glyph-name="uni0136" unicode="&#x136;" horiz-adv-x="660" 
d="M147 716q63 32 106 32t69 -13l-85 -308l-2 -19l131 87l187 253q109 -13 109 -99q-60 -57 -161 -134t-192 -132q80 -199 280 -254q19 -36 -3.5 -75t-79.5 -54q-95 50 -159.5 144.5t-90.5 210.5l-27 -17q-31 -322 -31 -324q-37 -20 -95 -11t-73 39q69 235 109 476z
M292.5 -19q31.5 0 52.5 -17t30 -41q-5 -57 -41 -114t-93 -102q-37 -2 -49 26l58 87l-20 137q31 24 62.5 24z" />
    <glyph glyph-name="uni0137" unicode="&#x137;" horiz-adv-x="575" 
d="M203 358l6 -11q136 133 275 208q41 -6 57.5 -44.5t-11.5 -85.5q-162 -41 -283 -121q82 -129 266 -176q24 -28 3 -67.5t-72 -60.5q-73 37 -133.5 98t-99.5 132q-15 -131 -27 -215q-41 -20 -94.5 -12t-69.5 38q69 192 129 525l-31 214q64 61 153 42q7 -59 -1.5 -148
t-35.5 -272zM230 -180l-20 137q23 18 47.5 22.5t42.5 -3.5q42 -16 54 -53q-4 -57 -40 -114t-93 -102q-37 -2 -49 26z" />
    <glyph glyph-name="Lacute" unicode="&#x139;" horiz-adv-x="527" 
d="M145 710q104 56 175 20l-90 -330l-54 -308q127 19 278 56q22 -9 28 -30q13 -41 -17 -81l-329 -37q-101 30 -114 93q67 177 117 423zM300 1010q52 10 90.5 -3.5t49.5 -45.5l-182 -167q-23 0 -39.5 8.5t-16.5 23.5l68 94z" />
    <glyph glyph-name="lacute" unicode="&#x13a;" horiz-adv-x="302" 
d="M148 539l2 253q97 59 170 26l-64 -232q-43 -487 -52 -571q-37 -21 -96.5 -12t-75.5 39q78 244 116 497zM290 1083q52 10 90.5 -3.5t49.5 -45.5l-182 -167q-23 0 -39.5 8.5t-16.5 23.5l68 94z" />
    <glyph glyph-name="uni013B" unicode="&#x13b;" horiz-adv-x="527" 
d="M145 710q104 56 175 20l-90 -330l-54 -308q127 19 278 56q22 -9 28 -30q13 -41 -17 -81l-329 -37q-101 30 -114 93q67 177 117 423zM187 -293q-37 -2 -49 26l58 87l-20 137q50 34 90 19.5t54 -53.5q-4 -57 -40 -114t-93 -102z" />
    <glyph glyph-name="uni013C" unicode="&#x13c;" horiz-adv-x="302" 
d="M148 539l2 253q97 59 170 26l-64 -232q-43 -487 -52 -571q-37 -21 -96.5 -12t-75.5 39q78 244 116 497zM52 -293q-37 -2 -49 26l58 87l-21 137q50 34 90.5 19.5t54.5 -53.5q-5 -57 -41 -114t-92 -102z" />
    <glyph glyph-name="Lcaron" unicode="&#x13d;" horiz-adv-x="527" 
d="M145 710q104 56 175 20l-90 -330l-54 -308q127 19 278 56q22 -9 28 -30q13 -41 -17 -81l-329 -37q-101 30 -114 93q67 177 117 423zM418 566q-37 0 -49 27l58 87l-20 137q50 33 90 19t54 -53q-4 -57 -40 -114.5t-93 -102.5z" />
    <glyph glyph-name="lcaron" unicode="&#x13e;" horiz-adv-x="359" 
d="M148 539l2 253q97 59 170 26l-64 -232q-43 -487 -52 -571q-37 -21 -96.5 -12t-75.5 39q78 244 116 497zM385 655q-37 0 -49 26l58 88l-21 137q50 33 90.5 19t54.5 -53q-5 -57 -41 -114.5t-92 -102.5z" />
    <glyph glyph-name="Lslash" unicode="&#x141;" horiz-adv-x="593" 
d="M292 379l-50 -287q127 19 278 56q22 -9 28 -30q13 -41 -17 -81l-329 -37q-101 30 -114 93q44 114 78 251l-100 -32q-28 18 -35 45.5t9 42.5l142 8q5 20 12.5 58t10.5 50l6 194q104 56 175 20l-77 -282l120 41q27 -6 36.5 -29t-10.5 -54z" />
    <glyph glyph-name="lslash" unicode="&#x142;" horiz-adv-x="452" 
d="M314 458l113 38q28 -5 36.5 -26t-7.5 -56l-148 -24q-22 -248 -35 -375q-37 -21 -96.5 -12t-75.5 39q49 154 83 311l-102 -31q-33 16 -40.5 44.5t10.5 44.5l146 12q2 14 19 116l2 253q97 59 170 26l-64 -232q-8 -89 -11 -128z" />
    <glyph glyph-name="Nacute" unicode="&#x143;" horiz-adv-x="711" 
d="M572 710q61 32 104.5 32t70.5 -12l-85 -303q-4 -46 -19.5 -186.5t-23.5 -226.5q-42 -18 -89.5 -11.5t-77.5 30.5q-122 250 -191 561l-43 -167q-5 -64 -20.5 -204.5t-21.5 -208.5q-38 -20 -95.5 -11t-72.5 39q73 245 112 473l10 195q63 33 119 33q30 0 59 -16
q66 -264 133 -471l50 -95q63 293 73 353zM657 961l-182 -167q-23 0 -39.5 8.5t-16.5 23.5l68 94l30 90q52 10 90.5 -3.5t49.5 -45.5z" />
    <glyph glyph-name="nacute" unicode="&#x144;" horiz-adv-x="612" 
d="M577 416l-41 -120q-10 -132 -3 -282q-34 -19 -83.5 -11.5t-82.5 37.5q16 135 65 349q-8 37 -40 54q-81 -40 -169 -136q-10 -124 -35 -293q-42 -19 -95 -11t-70 36q57 164 93 319l-29 150q65 56 151 43q10 -34 1 -98l-32 -47l10 -12q83 98 190 156q69 -5 112.5 -45
t57.5 -89zM557 764l-182 -167q-23 0 -39.5 8.5t-16.5 23.5l68 94l30 90q52 10 90.5 -3.5t49.5 -45.5z" />
    <glyph glyph-name="uni0145" unicode="&#x145;" horiz-adv-x="711" 
d="M572 710q61 32 104.5 32t70.5 -12l-85 -303q-4 -46 -19.5 -186.5t-23.5 -226.5q-42 -18 -89.5 -11.5t-77.5 30.5q-122 250 -191 561l-43 -167q-5 -64 -20.5 -204.5t-21.5 -208.5q-38 -20 -95.5 -11t-72.5 39q73 245 112 473l10 195q63 33 119 33q30 0 59 -16
q66 -264 133 -471l50 -95q63 293 73 353zM309.5 -19q31.5 0 52.5 -17t30 -41q-5 -57 -41 -114t-92 -102q-37 -2 -49 26l58 87l-21 137q31 24 62.5 24z" />
    <glyph glyph-name="uni0146" unicode="&#x146;" horiz-adv-x="612" 
d="M577 416l-41 -120q-10 -132 -3 -282q-34 -19 -83.5 -11.5t-82.5 37.5q16 135 65 349q-8 37 -40 54q-81 -40 -169 -136q-10 -124 -35 -293q-42 -19 -95 -11t-70 36q57 164 93 319l-29 150q65 56 151 43q10 -34 1 -98l-32 -47l10 -12q83 98 190 156q69 -5 112.5 -45
t57.5 -89zM236 -180l-20 137q23 18 47.5 22.5t42.5 -3.5q42 -16 54 -53q-4 -57 -40 -114t-93 -102q-37 -2 -49 26z" />
    <glyph glyph-name="Ncaron" unicode="&#x147;" horiz-adv-x="711" 
d="M572 710q61 32 104.5 32t70.5 -12l-85 -303q-4 -46 -19.5 -186.5t-23.5 -226.5q-42 -18 -89.5 -11.5t-77.5 30.5q-122 250 -191 561l-43 -167q-5 -64 -20.5 -204.5t-21.5 -208.5q-38 -20 -95.5 -11t-72.5 39q73 245 112 473l10 195q63 33 119 33q30 0 59 -16
q66 -264 133 -471l50 -95q63 293 73 353zM666 955l-149 -143q-81 -30 -132 -1l-92 149q8 16 27 22.5t39 0.5l77 -128l117 130q23 11 62.5 5t50.5 -35z" />
    <glyph glyph-name="ncaron" unicode="&#x148;" horiz-adv-x="612" 
d="M577 416l-41 -120q-10 -132 -3 -282q-34 -19 -83.5 -11.5t-82.5 37.5q16 135 65 349q-8 37 -40 54q-81 -40 -169 -136q-10 -124 -35 -293q-42 -19 -95 -11t-70 36q57 164 93 319l-29 150q65 56 151 43q10 -34 1 -98l-32 -47l10 -12q83 98 190 156q69 -5 112.5 -45
t57.5 -89zM566 758l-149 -143q-81 -30 -132 -1l-92 149q8 16 27 22.5t39 0.5l77 -128l117 130q23 11 62.5 5t50.5 -35z" />
    <glyph glyph-name="Omacron" unicode="&#x14c;" horiz-adv-x="666" 
d="M190 325q0 -74 30 -140.5t83 -107.5q163 102 219 290q-11 100 -35.5 173t-76.5 133q-97 -56 -158.5 -153t-61.5 -195zM47 310q0 107 53 209.5t139.5 166.5t178.5 64q50 0 105.5 -52.5t93.5 -137.5t39 -167.5t-55.5 -175t-140.5 -155t-150 -62.5t-127 49t-98.5 121.5
t-37.5 139.5zM603 895q14 -7 10 -27t-25 -44l-329 -10q-23 24 12 69l169 -5z" />
    <glyph glyph-name="omacron" unicode="&#x14d;" horiz-adv-x="560" 
d="M343 680l163 17q14 -7 10 -27t-25 -44l-329 -10q-22 24 12 69zM28 239q0 62 42 137t115 130t149 55q42 0 90 -44t79 -105t32 -118t-46 -128.5t-119.5 -118.5t-140.5 -47t-134.5 74t-66.5 165zM318 487q-67 -45 -107 -109t-50 -136q3 -103 77 -169q139 72 171 212
q-12 119 -91 202z" />
    <glyph glyph-name="Ohungarumlaut" unicode="&#x150;" horiz-adv-x="666" 
d="M190 325q0 -74 30 -140.5t83 -107.5q163 102 219 290q-11 100 -35.5 173t-76.5 133q-97 -56 -158.5 -153t-61.5 -195zM47 310q0 107 53 209.5t139.5 166.5t178.5 64q50 0 105.5 -52.5t93.5 -137.5t39 -167.5t-55.5 -175t-140.5 -155t-150 -62.5t-127 49t-98.5 121.5
t-37.5 139.5zM459 806l79 168q77 17 111 0l-30 -61l-95 -116q-40 -3 -65 9zM291 806l82 168q76 17 110 0l-30 -61l-90 -116q-43 -3 -72 9z" />
    <glyph glyph-name="ohungarumlaut" unicode="&#x151;" horiz-adv-x="560" 
d="M194 608l82 168q76 17 110 0l-30 -61l-90 -116q-43 -3 -72 9zM362 608l79 168q77 17 111 0l-30 -61l-95 -116q-40 -3 -65 9zM28 239q0 62 42 137t115 130t149 55q42 0 90 -44t79 -105t32 -118t-46 -128.5t-119.5 -118.5t-140.5 -47t-134.5 74t-66.5 165zM318 487
q-67 -45 -107 -109t-50 -136q3 -103 77 -169q139 72 171 212q-12 119 -91 202z" />
    <glyph glyph-name="OE" unicode="&#x152;" horiz-adv-x="963" 
d="M191 325q-1 -74 29.5 -141t87.5 -107q178 104 218 316q-4 97 -28 157t-87 123q-97 -56 -158.5 -153t-61.5 -195zM871 146q50 -17 25 -86q-6 -18 -17 -33l-323 -27q-69 18 -103 65q-79 -65 -148 -65q-91 0 -173.5 103t-83 208.5t52.5 208t140 166.5t178 64q55 0 136 -70
q73 40 161.5 51t249.5 5q24 -38 9 -81.5t-60 -69.5l-79 64q-94 8 -166 -9l-35 -49l-1 -188q49 6 223 23q18 -20 15.5 -49t-20.5 -58q-147 11 -227 10l-47 -234q112 12 293 51z" />
    <glyph glyph-name="oe" unicode="&#x153;" horiz-adv-x="914" 
d="M229 0q-68 0 -134.5 74t-66.5 165q0 62 42 137t115 130t149 55q38 0 80 -35.5t75 -89.5q119 101 233 123q96 -16 131.5 -83t13.5 -158q-165 -79 -325 -111q12 -79 83 -120q122 28 193 86q28 1 39.5 -13.5t6.5 -48.5q-36 -37 -114.5 -70t-143.5 -41q-107 35 -158 114
q-47 -51 -106 -82.5t-113 -31.5zM238 73q139 72 171 212q-12 119 -91 202q-67 -45 -107 -109t-50 -136q3 -103 77 -169zM539 268v-2q110 31 201 76q10 96 -55 136l-17 -6q-55 -38 -91 -94.5t-38 -109.5z" />
    <glyph glyph-name="Racute" unicode="&#x154;" horiz-adv-x="652" 
d="M119 721q89 28 217.5 28t210 -59t80 -138.5t-42.5 -130t-138 -100.5q-53 -8 -112 -11q35 -75 88.5 -115t155.5 -67q20 -38 -5.5 -74.5t-79.5 -53.5q-93 49 -148.5 129.5t-70.5 178.5h-17q-11 -134 -30 -293q-30 -20 -88.5 -12.5t-79.5 35.5q60 197 105 457l9 156l-48 2
q-16 16 -17.5 37t11.5 31zM468 463q18 34 18 82.5t-42 84t-124 35.5l-54 -231q-1 -11 -2.5 -33t-2.5 -33q73 4 149 28q40 33 58 67zM568 961l-182 -167q-23 0 -39.5 8.5t-16.5 23.5l68 94l30 90q52 10 90.5 -3.5t49.5 -45.5z" />
    <glyph glyph-name="racute" unicode="&#x155;" horiz-adv-x="487" 
d="M210 406l11 -13q142 151 148 157q56 -11 91 -53.5t36 -107.5q-33 -28 -71 -33.5t-71 12.5q1 43 -18 64q-64 -64 -109 -111q-11 -138 -36 -307q-42 -19 -95 -11t-70 36q57 164 93 319l-28 150q64 57 150 43q10 -33 0 -98zM496 764l-182 -167q-23 0 -39.5 8.5t-16.5 23.5
l68 94l30 90q52 10 90.5 -3.5t49.5 -45.5z" />
    <glyph glyph-name="uni0156" unicode="&#x156;" horiz-adv-x="652" 
d="M119 721q89 28 217.5 28t210 -59t80 -138.5t-42.5 -130t-138 -100.5q-53 -8 -112 -11q35 -75 88.5 -115t155.5 -67q20 -38 -5.5 -74.5t-79.5 -53.5q-93 49 -148.5 129.5t-70.5 178.5h-17q-11 -134 -30 -293q-30 -20 -88.5 -12.5t-79.5 35.5q60 197 105 457l9 156l-48 2
q-16 16 -17.5 37t11.5 31zM468 463q18 34 18 82.5t-42 84t-124 35.5l-54 -231q-1 -11 -2.5 -33t-2.5 -33q73 4 149 28q40 33 58 67zM309.5 -19q31.5 0 52.5 -17t30 -41q-5 -57 -41 -114t-92 -102q-38 -2 -50 26l58 87l-20 137q31 24 62.5 24z" />
    <glyph glyph-name="uni0157" unicode="&#x157;" horiz-adv-x="487" 
d="M210 406l11 -13q142 151 148 157q56 -11 91 -53.5t36 -107.5q-33 -28 -71 -33.5t-71 12.5q1 43 -18 64q-64 -64 -109 -111q-11 -138 -36 -307q-42 -19 -95 -11t-70 36q57 164 93 319l-28 150q64 57 150 43q10 -33 0 -98zM99.5 -19q31.5 0 52.5 -17t30 -41
q-5 -57 -41 -114t-92 -102q-38 -2 -50 26l58 87l-20 137q31 24 62.5 24z" />
    <glyph glyph-name="Rcaron" unicode="&#x158;" horiz-adv-x="652" 
d="M119 721q89 28 217.5 28t210 -59t80 -138.5t-42.5 -130t-138 -100.5q-53 -8 -112 -11q35 -75 88.5 -115t155.5 -67q20 -38 -5.5 -74.5t-79.5 -53.5q-93 49 -148.5 129.5t-70.5 178.5h-17q-11 -134 -30 -293q-30 -20 -88.5 -12.5t-79.5 35.5q60 197 105 457l9 156l-48 2
q-16 16 -17.5 37t11.5 31zM468 463q18 34 18 82.5t-42 84t-124 35.5l-54 -231q-1 -11 -2.5 -33t-2.5 -33q73 4 149 28q40 33 58 67zM576 955l-149 -143q-81 -30 -132 -1l-92 149q8 16 27 22.5t39 0.5l77 -128l117 130q23 11 62.5 5t50.5 -35z" />
    <glyph glyph-name="rcaron" unicode="&#x159;" horiz-adv-x="487" 
d="M210 406l11 -13q142 151 148 157q56 -11 91 -53.5t36 -107.5q-33 -28 -71 -33.5t-71 12.5q1 43 -18 64q-64 -64 -109 -111q-11 -138 -36 -307q-42 -19 -95 -11t-70 36q57 164 93 319l-28 150q64 57 150 43q10 -33 0 -98zM505 758l-149 -143q-81 -30 -132 -1l-92 149
q8 16 27 22.5t39 0.5l77 -128l117 130q23 11 62.5 5t50.5 -35z" />
    <glyph glyph-name="Sacute" unicode="&#x15a;" horiz-adv-x="635" 
d="M445 223q0 21 -35 44.5t-85.5 49.5t-102.5 56t-92 75t-48 96q39 86 127 142.5t190 66.5q73 -15 128 -54.5t85 -97.5q-19 -87 -138 -67q-22 91 -81 144q-57 -15 -111.5 -54t-53.5 -67t51.5 -62.5t113.5 -66.5t125 -82t81 -100q-15 -98 -100.5 -162.5t-226.5 -83.5
q-85 19 -158.5 72t-95.5 110q28 49 61.5 69t87.5 3q15 -59 39.5 -97.5t74.5 -80.5q71 16 117.5 56.5t46.5 90.5zM478 1010q52 10 90.5 -3.5t49.5 -45.5l-182 -167q-23 0 -39.5 8.5t-16.5 23.5l68 94z" />
    <glyph glyph-name="sacute" unicode="&#x15b;" horiz-adv-x="523" 
d="M339 164q0 26 -125 84q-47 22 -92.5 58.5t-57.5 76.5q26 79 98.5 129t163.5 56q117 -28 153 -127q-3 -31 -34 -45t-86 -5q-10 67 -51 113q-44 -14 -80.5 -43t-36.5 -48.5t39.5 -43.5t89 -46.5t96 -60.5t57.5 -79q-21 -83 -92.5 -131t-176.5 -52q-66 12 -116 48.5
t-68 83.5q21 43 49.5 61.5t71.5 5.5q8 -48 23.5 -78t46.5 -61q56 12 92 42.5t36 61.5zM386 813q52 10 90.5 -3.5t49.5 -45.5l-182 -167q-23 0 -39.5 8.5t-16.5 23.5l68 94z" />
    <glyph glyph-name="Scedilla" unicode="&#x15e;" horiz-adv-x="635" 
d="M445 223q0 21 -35 44.5t-85.5 49.5t-102.5 56t-92 75t-48 96q39 86 127 142.5t190 66.5q73 -15 128 -54.5t85 -97.5q-19 -87 -138 -67q-22 91 -81 144q-57 -15 -111.5 -54t-53.5 -67t51.5 -62.5t113.5 -66.5t125 -82t81 -100q-13 -88 -83.5 -149t-187.5 -87l-44 -85
q34 29 72.5 29t60.5 -28.5t15 -73.5q-11 -57 -55.5 -88.5t-103.5 -30.5t-107 24t-73 61q-1 18 7 31t19 14q60 -61 127.5 -61t77.5 47q4 25 -11 44q-29 -5 -59 -27q-19 0 -36 9.5t-21 25.5l51 105q-79 23 -144.5 73t-85.5 103q28 49 61.5 69t87.5 3q15 -59 39.5 -97.5
t74.5 -80.5q71 16 117.5 56.5t46.5 90.5z" />
    <glyph glyph-name="scedilla" unicode="&#x15f;" horiz-adv-x="523" 
d="M339 164q0 26 -125 84q-47 22 -92.5 58.5t-57.5 76.5q26 79 98.5 129t163.5 56q117 -28 153 -127q-3 -31 -34 -45t-86 -5q-10 67 -51 113q-44 -14 -80.5 -43t-36.5 -48.5t39.5 -43.5t89 -46.5t96 -60.5t57.5 -79q-18 -71 -73.5 -117t-137.5 -60l-42 -81q34 29 72.5 29
t60.5 -28.5t15 -73.5q-11 -57 -55.5 -88.5t-103.5 -30.5t-107 24t-73 61q-1 18 7 31t19 14q60 -61 127.5 -61t77.5 47q4 25 -11 44q-29 -5 -59 -27q-19 0 -36 9.5t-21 25.5l50 103q-59 16 -103 51t-60 77q21 43 49.5 61.5t71.5 5.5q8 -48 23.5 -78t46.5 -61q56 12 92 42.5
t36 61.5z" />
    <glyph glyph-name="Scaron" unicode="&#x160;" horiz-adv-x="635" 
d="M445 223q0 21 -35 44.5t-85.5 49.5t-102.5 56t-92 75t-48 96q39 86 127 142.5t190 66.5q73 -15 128 -54.5t85 -97.5q-19 -87 -138 -67q-22 91 -81 144q-57 -15 -111.5 -54t-53.5 -67t51.5 -62.5t113.5 -66.5t125 -82t81 -100q-15 -98 -100.5 -162.5t-226.5 -83.5
q-85 19 -158.5 72t-95.5 110q28 49 61.5 69t87.5 3q15 -59 39.5 -97.5t74.5 -80.5q71 16 117.5 56.5t46.5 90.5zM478 812q-81 -30 -132 -1l-92 149q8 16 27 22.5t39 0.5l77 -128l117 130q23 11 62.5 5t50.5 -35z" />
    <glyph glyph-name="scaron" unicode="&#x161;" horiz-adv-x="523" 
d="M339 164q0 26 -125 84q-47 22 -92.5 58.5t-57.5 76.5q26 79 98.5 129t163.5 56q117 -28 153 -127q-3 -31 -34 -45t-86 -5q-10 67 -51 113q-44 -14 -80.5 -43t-36.5 -48.5t39.5 -43.5t89 -46.5t96 -60.5t57.5 -79q-21 -83 -92.5 -131t-176.5 -52q-66 12 -116 48.5
t-68 83.5q21 43 49.5 61.5t71.5 5.5q8 -48 23.5 -78t46.5 -61q56 12 92 42.5t36 61.5zM386 615q-81 -30 -132 -1l-92 149q8 16 27 22.5t39 0.5l77 -128l117 130q23 11 62.5 5t50.5 -35z" />
    <glyph glyph-name="uni0162" unicode="&#x162;" horiz-adv-x="621" 
d="M273 -75q34 29 72.5 29t60.5 -28.5t15 -73.5q-11 -57 -55.5 -88.5t-103.5 -30.5t-107 24t-73 61q-1 18 7 31t19 14q60 -61 127.5 -61t77.5 47q4 25 -11 44q-29 -5 -59 -27q-19 0 -36 9.5t-21 25.5l52 107q-38 12 -49 33q71 241 110 483l3 119l-182 -19q-43 50 -16 99
q274 21 569 9q33 -37 -14 -102l-212 20l-55 -226q-8 -109 -34 -410q-19 -10 -46 -12z" />
    <glyph glyph-name="uni0163" unicode="&#x163;" horiz-adv-x="476" 
d="M202 -75q34 29 72.5 29t60.5 -28.5t15 -73.5q-11 -57 -55.5 -88.5t-103.5 -30.5t-107 24t-73 61q-1 18 7 31t19 14q60 -61 127.5 -61t77.5 47q4 25 -11 44q-29 -5 -59 -27q-19 0 -36 9.5t-21 25.5l53 109q-62 21 -78 73q66 223 100 389l-130 -23q-35 40 0 91l137 -2
l-9 162q110 63 165 12l-49 -156l166 31q35 -29 0 -91l-180 -7q-6 -74 -21 -208.5t-20 -187.5q78 28 143 78q31 -1 40.5 -14.5t6.5 -45.5q-85 -74 -195 -104z" />
    <glyph glyph-name="Tcaron" unicode="&#x164;" horiz-adv-x="621" 
d="M302 643l-182 -19q-43 50 -16 99q274 21 569 9q33 -37 -14 -102l-212 20l-55 -226q-8 -109 -34 -410q-38 -20 -95.5 -11t-73.5 38q71 241 110 483zM616 955l-149 -143q-81 -30 -132 -1l-92 149q8 16 27 22.5t39 0.5l77 -128l117 130q23 11 62.5 5t50.5 -35z" />
    <glyph glyph-name="tcaron" unicode="&#x165;" horiz-adv-x="476" 
d="M293 517l177 34q35 -29 0 -90l-181 -7h-2q-8 -82 -38 -361q78 28 143 78q31 -1 40.5 -14.5t6.5 -45.5q-41 -36 -100.5 -67t-121.5 -44q-104 12 -127 83q61 205 92 352l-122 -22q-35 40 0 91l136 -2l2 10l-10 188q110 63 165 12l-60 -191v-4zM437 696l-20 137q50 33 90 19
t54 -53q-4 -57 -40 -114.5t-93 -102.5q-37 0 -49 27z" />
    <glyph glyph-name="Umacron" unicode="&#x16a;" horiz-adv-x="643" 
d="M573 894q14 -7 10 -27t-25 -44l-329 -10q-23 24 12 69l169 -5zM298 0q-104 0 -169 58.5t-77 134.5q55 304 75 523q61 32 105 32t70 -13q-95 -310 -103 -477q-7 -85 40 -133.5t149 -24.5q53 67 81 157.5t50 234.5l-20 224q61 32 105.5 32t70.5 -13q-5 -29 -27.5 -165.5
t-37.5 -214.5q-35 -176 -105.5 -265.5t-206.5 -89.5z" />
    <glyph glyph-name="umacron" unicode="&#x16b;" horiz-adv-x="609" 
d="M599 507l-82 -158q-12 -144 -7 -335q-33 -19 -83.5 -11.5t-84.5 37.5l47 113l-12 10q-41 -54 -143 -163q-180 22 -209 124l63 163q-1 39 0 76q1 103 -3 183q45 13 91.5 3.5t73.5 -41.5q-8 -110 -83 -355q10 -31 70 -49q97 92 141 155q34 187 65 288q69 8 104.5 -1
t51.5 -39zM503 626l-329 -10q-22 24 12 69l169 -5l163 17q14 -7 10 -27t-25 -44z" />
    <glyph glyph-name="Uring" unicode="&#x16e;" horiz-adv-x="643" 
d="M298 0q-104 0 -169 58.5t-77 134.5q55 304 75 523q61 32 105 32t70 -13q-95 -310 -103 -477q-7 -85 40 -133.5t149 -24.5q53 67 81 157.5t50 234.5l-20 224q61 32 105.5 32t70.5 -13q-5 -29 -27.5 -165.5t-37.5 -214.5q-35 -176 -105.5 -265.5t-206.5 -89.5zM454 979
q-10 0 -22 -7q-20 -30 -30 -66q-19 -75 21 -75q10 0 22 7q19 25 30 67q19 74 -21 74zM367 988q48 31 107.5 31t91 -29.5t13.5 -82t-66.5 -84t-107 -31.5t-89.5 31t-14 82.5t65 82.5z" />
    <glyph glyph-name="uring" unicode="&#x16f;" horiz-adv-x="609" 
d="M599 507l-82 -158q-12 -144 -7 -335q-33 -19 -83.5 -11.5t-84.5 37.5l47 113l-12 10q-41 -54 -143 -163q-180 22 -209 124l63 163q-1 39 0 76q1 103 -3 183q45 13 91.5 3.5t73.5 -41.5q-8 -110 -83 -355q10 -31 70 -49q97 92 141 155q34 187 65 288q69 8 104.5 -1
t51.5 -39zM457.5 626.5q-48.5 -31.5 -107 -31.5t-89.5 31t-14 82.5t65 82.5t107.5 31t91 -29.5t13.5 -82t-66.5 -84zM368 634q10 0 22 7q19 25 30 67q19 74 -21 74q-10 0 -22 -7q-20 -30 -29 -65q-21 -76 20 -76z" />
    <glyph glyph-name="Uhungarumlaut" unicode="&#x170;" horiz-adv-x="643" 
d="M429 805l79 168q77 17 111 0l-30 -61l-95 -116q-40 -3 -65 9zM261 805l82 168q76 17 110 0l-30 -61l-90 -116q-43 -3 -72 9zM298 0q-104 0 -169 58.5t-77 134.5q55 304 75 523q61 32 105 32t70 -13q-95 -310 -103 -477q-7 -85 40 -133.5t149 -24.5q53 67 81 157.5
t50 234.5l-20 224q61 32 105.5 32t70.5 -13q-5 -29 -27.5 -165.5t-37.5 -214.5q-35 -176 -105.5 -265.5t-206.5 -89.5z" />
    <glyph glyph-name="uhungarumlaut" unicode="&#x171;" horiz-adv-x="609" 
d="M599 507l-82 -158q-12 -144 -7 -335q-33 -19 -83.5 -11.5t-84.5 37.5l47 113l-12 10q-41 -54 -143 -163q-180 22 -209 124l63 163q-1 39 0 76q1 103 -3 183q45 13 91.5 3.5t73.5 -41.5q-8 -110 -83 -355q10 -31 70 -49q97 92 141 155q34 187 65 288q69 8 104.5 -1
t51.5 -39zM368 715l-90 -116q-43 -3 -72 9l82 168q76 17 110 0zM534 715l-95 -116q-40 -3 -65 9l79 168q77 17 111 0z" />
    <glyph glyph-name="Uogonek" unicode="&#x172;" horiz-adv-x="643" 
d="M499 716q61 32 105.5 32t70.5 -13q-5 -29 -27.5 -165.5t-37.5 -214.5q-32 -158 -91.5 -246.5t-168.5 -104.5q-49 -15 -83.5 -49t-40.5 -75q30 -37 87 -37t105 42q18 1 27 -9t10 -30q-29 -35 -72 -55t-91 -20q-76 0 -119 32.5t-43 79.5q0 73 92 127q-72 20 -116.5 72
t-53.5 111q55 304 75 523q61 32 105 32t70 -13q-95 -310 -103 -477q-7 -85 40 -133.5t149 -24.5q53 67 81 157.5t50 234.5z" />
    <glyph glyph-name="uogonek" unicode="&#x173;" horiz-adv-x="609" 
d="M400 -229q-67 0 -106 30t-39 71.5t30 82t82 68.5q-15 8 -25 17l47 113l-12 10q-41 -54 -143 -163q-180 22 -209 124l63 163q-1 39 0 76q1 103 -3 183q45 13 91.5 3.5t73.5 -41.5q-8 -110 -83 -355q10 -31 70 -49q97 92 141 155q34 187 65 288q69 8 104.5 -1t51.5 -39
l-82 -158q-12 -144 -7 -335q-10 -6 -24 -9v-4q-57 -15 -95 -51.5t-46 -85.5q42 -21 89.5 -14.5t83.5 37.5q21 1 30 -9t11 -32q-61 -75 -159 -75z" />
    <glyph glyph-name="Ydieresis" unicode="&#x178;" horiz-adv-x="633" 
d="M530 567l-41 155q123 58 189 -8q-4 -78 -57 -147q-32 -41 -103.5 -124t-93.5 -109q-24 -113 -35 -320q-30 -21 -87 -14t-82 35q37 102 66 265q-61 149 -184 382q30 44 74 59.5t84 -2.5l20 -194l77 -209h6l26 51zM300 954q29 0 49 -19.5t20 -48t-20 -49t-49 -20.5
t-49.5 20.5t-20.5 48.5t20.5 48t49.5 20zM527 875q-5 -5 -11.5 -5t-12.5 5t-6 11q0 15 17.5 15t17.5 -15q0 -6 -5 -11z" />
    <glyph glyph-name="Zacute" unicode="&#x179;" horiz-adv-x="661" 
d="M157 58l-5 -4l8 -28q-42 -33 -122 -24q-27 25 -25 68q0 52 139 178q62 55 127.5 114.5t128 129.5t94.5 129l-7 9q-156 2 -233 19q-34 -42 -48 -108q-111 -15 -140 48q40 122 138 159q124 -32 314 -55l24 59q60 0 91.5 -14t39.5 -55q-27 -69 -125 -184
q-159 -186 -370 -368l3 -8q260 -9 278 -11q19 37 29 88q119 25 143 -49q-13 -44 -42.5 -79t-87.5 -72q-114 35 -352 58zM486 1010q52 10 90.5 -3.5t49.5 -45.5l-182 -167q-23 0 -39.5 8.5t-16.5 23.5l68 94z" />
    <glyph glyph-name="zacute" unicode="&#x17a;" horiz-adv-x="589" 
d="M196 357q-56 -7 -86 4.5t-42 43.5q37 116 129 145q160 -47 240 -56l22 56q56 2 84.5 -11t38.5 -47q-8 -45 -51 -98t-109 -104q-116 -92 -242 -166l2 -11q6 -1 86 -5t122 -11q17 33 29 81q110 27 123 -51q-33 -88 -132 -127q-89 34 -256 58l-5 -4l9 -29q-26 -32 -112 -25
q-24 29 -22.5 66t30 69.5t75 64t95.5 63.5q131 84 186 159l-4 9q-71 4 -170 26q-31 -38 -40 -100zM415 813q52 10 90.5 -3.5t49.5 -45.5l-182 -167q-23 0 -39.5 8.5t-16.5 23.5l68 94z" />
    <glyph glyph-name="Zdotaccent" unicode="&#x17b;" horiz-adv-x="661" 
d="M469.5 842.5q-20.5 -20.5 -49.5 -20.5t-49.5 20.5t-20.5 49t20.5 48t50 19.5t49.5 -20t20 -48t-20.5 -48.5zM157 58l-5 -4l8 -28q-42 -33 -122 -24q-27 25 -25 68q0 52 139 178q62 55 127.5 114.5t128 129.5t94.5 129l-7 9q-156 2 -233 19q-34 -42 -48 -108
q-111 -15 -140 48q40 122 138 159q124 -32 314 -55l24 59q60 0 91.5 -14t39.5 -55q-27 -69 -125 -184q-159 -186 -370 -368l3 -8q260 -9 278 -11q19 37 29 88q119 25 143 -49q-13 -44 -42.5 -79t-87.5 -72q-114 35 -352 58z" />
    <glyph glyph-name="zdotaccent" unicode="&#x17c;" horiz-adv-x="589" 
d="M398.5 645.5q-20.5 -20.5 -49.5 -20.5t-49.5 20.5t-20.5 49t20.5 48t50 19.5t49.5 -20t20 -48t-20.5 -48.5zM196 357q-56 -7 -86 4.5t-42 43.5q37 116 129 145q160 -47 240 -56l22 56q56 2 84.5 -11t38.5 -47q-8 -45 -51 -98t-109 -104q-116 -92 -242 -166l2 -11
q6 -1 86 -5t122 -11q17 33 29 81q110 27 123 -51q-33 -88 -132 -127q-89 34 -256 58l-5 -4l9 -29q-26 -32 -112 -25q-24 29 -22.5 66t30 69.5t75 64t95.5 63.5q131 84 186 159l-4 9q-71 4 -170 26q-31 -38 -40 -100z" />
    <glyph glyph-name="Zcaron" unicode="&#x17d;" horiz-adv-x="661" 
d="M157 58l-5 -4l8 -28q-42 -33 -122 -24q-27 25 -25 68q0 52 139 178q62 55 127.5 114.5t128 129.5t94.5 129l-7 9q-156 2 -233 19q-34 -42 -48 -108q-111 -15 -140 48q40 122 138 159q124 -32 314 -55l24 59q60 0 91.5 -14t39.5 -55q-27 -69 -125 -184
q-159 -186 -370 -368l3 -8q260 -9 278 -11q19 37 29 88q119 25 143 -49q-13 -44 -42.5 -79t-87.5 -72q-114 35 -352 58zM486 812q-81 -30 -132 -1l-92 149q8 16 27 22.5t39 0.5l77 -128l117 130q23 11 62.5 5t50.5 -35z" />
    <glyph glyph-name="zcaron" unicode="&#x17e;" horiz-adv-x="589" 
d="M196 357q-56 -7 -86 4.5t-42 43.5q37 116 129 145q160 -47 240 -56l22 56q56 2 84.5 -11t38.5 -47q-8 -45 -51 -98t-109 -104q-116 -92 -242 -166l2 -11q6 -1 86 -5t122 -11q17 33 29 81q110 27 123 -51q-33 -88 -132 -127q-89 34 -256 58l-5 -4l9 -29q-26 -32 -112 -25
q-24 29 -22.5 66t30 69.5t75 64t95.5 63.5q131 84 186 159l-4 9q-71 4 -170 26q-31 -38 -40 -100zM415 615q-81 -30 -132 -1l-92 149q8 16 27 22.5t39 0.5l77 -128l117 130q23 11 62.5 5t50.5 -35z" />
    <glyph glyph-name="florin" unicode="&#x192;" horiz-adv-x="553" 
d="M250 398l-22 316q100 125 224 137q74 -15 111.5 -55.5t52.5 -102.5q-15 -32 -56 -45.5t-83 -2.5q-3 44 -14.5 70t-40.5 54q-31 -3 -66 -36q3 -139 -13 -323l172 35q36 -29 -1 -90l-177 -8q-29 -276 -82 -535q-58 -63 -167 -35l-108 183q4 20 20.5 30t35.5 5l92 -126
q73 204 113 463l-146 -27q-35 40 1 91l151 -5h2z" />
    <glyph glyph-name="uni0218" unicode="&#x218;" horiz-adv-x="635" 
d="M445 223q0 21 -35 44.5t-85.5 49.5t-102.5 56t-92 75t-48 96q39 86 127 142.5t190 66.5q73 -15 128 -54.5t85 -97.5q-19 -87 -138 -67q-22 91 -81 144q-57 -15 -111.5 -54t-53.5 -67t51.5 -62.5t113.5 -66.5t125 -82t81 -100q-15 -98 -100.5 -162.5t-226.5 -83.5
q-85 19 -158.5 72t-95.5 110q28 49 61.5 69t87.5 3q15 -59 39.5 -97.5t74.5 -80.5q71 16 117.5 56.5t46.5 90.5zM215 -293q-37 -2 -49 26l58 87l-20 137q50 34 90 19.5t54 -53.5q-4 -57 -40 -114t-93 -102z" />
    <glyph glyph-name="uni0219" unicode="&#x219;" horiz-adv-x="523" 
d="M339 164q0 26 -125 84q-47 22 -92.5 58.5t-57.5 76.5q26 79 98.5 129t163.5 56q117 -28 153 -127q-3 -31 -34 -45t-86 -5q-10 67 -51 113q-44 -14 -80.5 -43t-36.5 -48.5t39.5 -43.5t89 -46.5t96 -60.5t57.5 -79q-21 -83 -92.5 -131t-176.5 -52q-66 12 -116 48.5
t-68 83.5q21 43 49.5 61.5t71.5 5.5q8 -48 23.5 -78t46.5 -61q56 12 92 42.5t36 61.5zM200.5 -19q31.5 0 52.5 -17t30 -41q-5 -57 -41 -114t-93 -102q-37 -2 -49 26l58 87l-20 137q31 24 62.5 24z" />
    <glyph glyph-name="uni021A" unicode="&#x21a;" horiz-adv-x="621" 
d="M302 643l-182 -19q-43 50 -16 99q274 21 569 9q33 -37 -14 -102l-212 20l-55 -226q-8 -109 -34 -410q-38 -20 -95.5 -11t-73.5 38q71 241 110 483zM252.5 -19q31.5 0 52.5 -17t30 -41q-5 -57 -41 -114t-93 -102q-37 -2 -49 26l58 87l-20 137q31 24 62.5 24z" />
    <glyph glyph-name="uni021B" unicode="&#x21b;" horiz-adv-x="476" 
d="M470 496l-180 -7q-6 -74 -21 -208.5t-20 -187.5q78 28 143 78q31 -1 40.5 -14.5t6.5 -45.5q-41 -36 -100.5 -67t-121.5 -44q-104 12 -127 83q66 223 100 389l-130 -23q-35 40 0 91l137 -2l-9 162q110 63 165 12l-49 -156l166 31q35 -29 0 -91zM159 -180l-20 137
q23 18 47.5 22.5t43.5 -3.5q41 -16 53 -53q-4 -57 -40 -114t-93 -102q-37 -2 -49 26z" />
    <glyph glyph-name="uni02BC" unicode="&#x2bc;" horiz-adv-x="341" 
d="M212 632q-42 0 -54 29l64 97l-22 152q25 20 52 25t48 -3q44 -19 59 -60q-5 -63 -44.5 -126.5t-102.5 -113.5z" />
    <glyph glyph-name="circumflex" unicode="&#x2c6;" horiz-adv-x="420" 
d="M401 599q-38 0 -64 13l-56 117l-144 -127q-54 2 -57 36l173 159q77 16 130 -16l85 -156q-29 -26 -67 -26z" />
    <glyph glyph-name="caron" unicode="&#x2c7;" horiz-adv-x="404" 
d="M328 615q-81 -30 -132 -1l-92 149q8 16 27 22.5t39 0.5l77 -128l117 130q23 11 62.5 5t50.5 -35z" />
    <glyph glyph-name="uni02C9" unicode="&#x2c9;" horiz-adv-x="380" 
d="M429 697q14 -7 10 -27t-25 -44l-329 -10q-23 24 12 69l169 -5z" />
    <glyph glyph-name="breve" unicode="&#x2d8;" horiz-adv-x="353" 
d="M364 643.5q-43 -34.5 -100.5 -34.5t-103 37t-59.5 103q17 19 46 16q22 -67 78 -83q79 13 89 83q86 17 107 -36q-14 -51 -57 -85.5z" />
    <glyph glyph-name="dotaccent" unicode="&#x2d9;" horiz-adv-x="172" 
d="M211.5 645.5q-20.5 -20.5 -49.5 -20.5t-49.5 20.5t-20.5 49t20.5 48t50 19.5t49.5 -20t20 -48t-20.5 -48.5z" />
    <glyph glyph-name="ring" unicode="&#x2da;" horiz-adv-x="303" 
d="M242 782q-10 0 -22 -7q-20 -30 -30 -65q-20 -76 21 -76q10 0 22 7q19 25 30 67q19 74 -21 74zM155 791q48 31 107.5 31t91 -29.5t13.5 -82t-66.5 -84t-107 -31.5t-89.5 31t-14 82.5t65 82.5z" />
    <glyph glyph-name="ogonek" unicode="&#x2db;" horiz-adv-x="376" 
d="M72 -117q20 -37 80 -37t106 39q27 -2 30 -39q-72 -75 -172 -75q-76 0 -125 35.5t-40 92.5q15 104 189 128q52 -6 49 -38q-46 -9 -79 -37.5t-38 -68.5z" />
    <glyph glyph-name="tilde" unicode="&#x2dc;" horiz-adv-x="446" 
d="M220 762q112 -31 161 -89h5l64 81q27 5 46 -6.5t15 -31.5q-49 -79 -141 -117q-109 24 -159 84l-7 -2l-61 -79q-25 -3 -46.5 10t-19.5 34q33 41 64 68t79 48z" />
    <glyph glyph-name="hungarumlaut" unicode="&#x2dd;" horiz-adv-x="359" 
d="M244 608l79 168q77 17 111 0l-30 -61l-95 -116q-40 -3 -65 9zM76 608l82 168q76 17 110 0l-30 -61l-90 -116q-43 -3 -72 9z" />
    <glyph glyph-name="pi" unicode="&#x3c0;" horiz-adv-x="878" 
d="M670 522l118 101q39 -4 63.5 -25t29.5 -54q-61 -70 -182 -101q-59 -175 -56 -361q41 12 87 42q35 -10 43 -40t-10 -71q-81 -44 -213 -28q-42 185 43 457q-76 6 -152 23q-43 -278 -121 -440q-49 -49 -154 -44q-63 33 -87.5 64t-45.5 90q28 42 52.5 53.5t62.5 -3.5
q9 -44 20.5 -70t38.5 -56q19 6 21 8q34 78 67 199.5t47 223.5q-41 12 -76 28l-6 -1l-96 -65q-43 5 -43 35q48 80 156 135q211 -87 382 -103z" />
    <glyph glyph-name="uni0901" unicode="&#x901;" 
d="M90.5 712q-65.5 -30 -123 -30t-120 59t-79.5 134q50 79 120 48q3 -120 80 -182q93 17 139 101q28 7 50.5 -6.5t33.5 -45.5q-35 -48 -100.5 -78zM44 813q-17 -17 -41 -17t-41 17t-17 40.5t17 40t41 16.5t41 -16.5t17 -40t-17 -40.5z" />
    <glyph glyph-name="uni0902" unicode="&#x902;" 
d="M28 732q-21 -21 -51 -21t-51.5 21t-21.5 50.5t21.5 50.5t51.5 21t51 -21t21 -50.5t-21 -50.5z" />
    <glyph glyph-name="uni0903" unicode="&#x903;" horiz-adv-x="255" 
d="M160 43.5q-21 -21.5 -51.5 -21.5t-52 21.5t-21.5 51.5t21.5 51t52 21t51.5 -21t21 -51t-21 -51.5zM202 371q-21 -21 -51.5 -21t-52 21t-21.5 51t21.5 51t52 21t51.5 -21t21 -51t-21 -51z" />
    <glyph glyph-name="uni0905" unicode="&#x905;" horiz-adv-x="804" 
d="M311 292q-11 7 -58 15q-27 -5 -57 -9q-32 21 -40 57t11 57q25 2 67 8q116 47 139 136l-4 7q-86 6 -165 -64q-41 13 -60.5 40.5t-5.5 52.5q110 75 240 68q85 -22 112 -108q-34 -131 -211 -179l2 -6q74 -6 124 -32q164 84 225 118l27 116h-102l-16 15q12 26 30 39h100l7 30
q107 8 142 -30h128l12 -13q-7 -28 -26 -41h-123l-70 -138l-41 -420q-30 -16 -78 -7.5t-83 37.5l67 296l35 42l-5 8q-118 -59 -179 -88q28 -30 28 -61q0 -55 -59 -107.5t-135.5 -82t-136.5 -28.5q-60 5 -110 39t-50 66q0 17 14 32t48 32t64.5 29t91.5 35t101 39zM178 95
q48 6 111.5 45t75.5 84q-3 14 -11 25q-191 -97 -224 -119q1 -11 17 -22t31 -13z" />
    <glyph glyph-name="uni0906" unicode="&#x906;" horiz-adv-x="1079" 
d="M311 292q-11 7 -58 15q-27 -5 -57 -9q-32 21 -40 57t11 57q25 2 67 8q116 47 139 136l-4 7q-86 6 -165 -64q-41 13 -60.5 40.5t-5.5 52.5q110 75 240 68q85 -22 112 -108q-34 -131 -211 -179l2 -6q74 -6 124 -32q164 84 225 118l27 116h-102l-16 15q12 26 30 39h100l7 30
q107 8 142 -30h126l7 30q66 5 99 -1t50 -29h122l12 -13q-7 -28 -27 -41h-126l-66 -138l-42 -420q-30 -16 -78 -7.5t-83 37.5l120 528h-123l-70 -138l-41 -420q-30 -16 -78 -7.5t-83 37.5l67 296l35 42l-5 8q-118 -59 -179 -88q28 -30 28 -61q0 -55 -59 -107.5t-135.5 -82
t-136.5 -28.5q-60 5 -110 39t-50 66q0 17 14 32t48 32t64.5 29t91.5 35t101 39zM178 95q48 6 111.5 45t75.5 84q-3 14 -11 25q-191 -97 -224 -119q1 -11 17 -22t31 -13z" />
    <glyph glyph-name="uni0907" unicode="&#x907;" horiz-adv-x="501" 
d="M643 623l12 -13q-7 -28 -26 -41h-241q29 -17 55 -45q7 -24 -4.5 -57.5t-35.5 -53.5q-50 -24 -220 -63l-4 -14q23 -13 118 -37t131 -42q45 -34 9 -110q-20 -39 -89 -75t-131 -38q-26 5 -83 42l-6 -6q75 -70 139 -181q-1 -24 -32 -42t-77 -17q-73 172 -161 267
q21 47 52.5 73t66.5 18q44 -50 86 -62q36 2 77.5 25.5t60.5 49.5l-2 8q-25 16 -124 41t-144 51q-14 32 2.5 73.5t56.5 66.5q162 31 222 58l3 6q-29 34 -92 64h-256l-16 15q12 26 30 39h623z" />
    <glyph glyph-name="uni0908" unicode="&#x908;" horiz-adv-x="501" 
d="M643 623l12 -13q-7 -28 -26 -41h-241q29 -17 55 -45q7 -24 -4.5 -57.5t-35.5 -53.5q-50 -24 -220 -63l-4 -14q23 -13 118 -37t131 -42q45 -34 9 -110q-20 -39 -89 -75t-131 -38q-26 5 -83 42l-6 -6q75 -70 139 -181q-1 -24 -32 -42t-77 -17q-73 172 -161 267
q21 47 52.5 73t66.5 18q44 -50 86 -62q36 2 77.5 25.5t60.5 49.5l-2 8q-25 16 -124 41t-144 51q-14 32 2.5 73.5t56.5 66.5q162 31 222 58l3 6q-29 34 -92 64h-256l-16 15q12 26 30 39h623zM317 849l-13 -10q4 -70 42 -165q-8 -24 -53 -24q-37 77 -107 166q23 53 53.5 83.5
t77.5 40.5q108 -11 170 -71q8 -30 -11.5 -53.5t-64.5 -35.5q-44 53 -94 69z" />
    <glyph glyph-name="uni0909" unicode="&#x909;" horiz-adv-x="553" 
d="M494 227q0 -67 -87 -137.5t-168 -69.5q-73 13 -137 73.5t-96 137.5q20 41 49.5 56.5t60.5 3.5q16 -68 54.5 -125.5t76.5 -72.5q42 9 86 49t47 74q0 29 -57 50q-41 -4 -68 -10q-34 20 -43.5 55t9.5 56q42 4 66 9q109 45 124 145l-5 7q-83 6 -157 -66q-38 11 -57.5 38
t-7.5 52q23 15 26 17h-227l-16 15q12 26 31 39h698l12 -13q-7 -28 -27 -41h-182q15 -19 26 -49q-10 -63 -53.5 -105t-122.5 -78l3 -7q63 -5 102.5 -36.5t39.5 -66.5z" />
    <glyph glyph-name="uni090A" unicode="&#x90a;" horiz-adv-x="705" 
d="M515 457q130 -38 176 -163q-18 -109 -121 -201q-37 8 -58.5 28t-17.5 46q78 53 109 126q-32 64 -108 92q-62 -11 -149 -57l3 -6q57 -4 94.5 -32.5t37.5 -62.5q0 -67 -86.5 -137.5t-167.5 -69.5q-73 13 -137 73.5t-97 137.5q21 41 50.5 56.5t60.5 3.5q16 -68 54 -125.5
t76 -72.5q42 9 86 49t48 74q-2 28 -50 49q-53 -4 -76 -9q-33 20 -43 55t9 56q53 8 66 9q109 44 124 145l-4 7q-83 6 -157 -66q-38 11 -58 38t-7 52q23 15 26 17h-215l-15 15q10 26 30 39h850l12 -13q-7 -28 -27 -41h-345q16 -22 24 -47q-8 -55 -78 -95l3 -4z" />
    <glyph glyph-name="uni090B" unicode="&#x90b;" horiz-adv-x="932" 
d="M813.5 33q-55.5 -33 -105.5 -33t-90 35.5t-40 71.5q0 54 53 128.5t117 119.5l-109 -6q-52 -39 -132 -102l-24 -236q-30 -16 -78 -7.5t-83 37.5l28 119l37 51l-11 10q-45 -48 -132 -112t-168 -109q-43 15 -61 44t-2 56q198 62 346 190q-61 61 -146 111l-49 -66
q-115 24 -113 91q22 33 59.5 55.5t73 22.5t95.5 -49.5t122 -125.5l10 10l-16 26l47 204h-436l-16 15q12 26 30 39h434l7 30q107 8 142 -30h471l12 -13q-7 -28 -26 -41h-466l-69 -138l-11 -113q42 31 69 56q-16 18 -23 38q19 31 55 52t63 18q28 -27 16 -70q58 2 110 18
q70 -23 56 -100q-70 -30 -121 -93t-68 -138q14 -22 36 -29q65 14 115 96q29 4 47.5 -12.5t24.5 -45.5q-25 -42 -80.5 -75z" />
    <glyph glyph-name="uni090C" unicode="&#x90c;" horiz-adv-x="774" 
d="M637 -14q-54 -29 -100.5 -29t-100.5 40.5t-54 84.5q0 32 74 88q32 23 64 48q80 61 91 116q-14 23 -33 27q-67 -77 -202 -177q-58 0 -96.5 30t-32.5 60q22 23 43 53q-5 24 -20.5 44t-36.5 22q-34 -10 -64 -50.5t-35 -79.5q15 -54 45 -93t92 -71q16 -26 -6 -57.5t-78 -41.5
q-71 41 -124 115t-53 138q1 51 56 115t129 101q57 7 104 -1q39 -19 58 -46t29 -73q-33 -50 -41 -67l13 -10q105 79 195 189q37 2 63 -8q42 61 35 116h-643l-15 15q13 27 30 39h857l12 -13q-7 -28 -27 -41h-135q7 -67 -54 -150q40 -35 50 -87q-34 -78 -107 -146
q-38 -34 -81 -68t-50 -40q10 -26 44 -44q64 23 114 87q41 3 59.5 -18t11.5 -52q-26 -36 -80 -65z" />
    <glyph glyph-name="uni090D" unicode="&#x90d;" horiz-adv-x="563" 
d="M706 623l12 -13q-7 -28 -27 -41h-124q4 -149 -81 -264q-38 3 -62.5 17.5t-29.5 35.5q47 70 52 134l-11 77h-158q-32 -215 -105 -359l11 -8l129 77q40 7 77 -11t55 -51q2 -99 -31 -203.5t-92 -180.5q-100 4 -106 70q82 89 118 215l-1 69l-13 7l-148 -92q-57 8 -93 35
t-37 65q77 148 102 254l-8 113h-130l-15 15q10 26 30 39h686zM449 658q-51 0 -110.5 59.5t-77.5 132.5q50 80 121 49q7 -128 76 -182q87 16 127 115q29 11 55.5 -3t38.5 -45q-34 -52 -98 -89t-132 -37z" />
    <glyph glyph-name="uni090F" unicode="&#x90f;" horiz-adv-x="563" 
d="M706 623l12 -13q-7 -28 -27 -41h-124q4 -149 -81 -264q-38 3 -62.5 17.5t-29.5 35.5q47 70 52 134l-11 77h-158q-32 -215 -105 -359l11 -8l129 77q40 7 77 -11t55 -51q2 -99 -31 -203.5t-92 -180.5q-100 4 -106 70q82 89 118 215l-1 69l-13 7l-148 -92q-57 8 -93 35
t-37 65q77 148 102 254l-8 113h-130l-15 15q10 26 30 39h686z" />
    <glyph glyph-name="uni0910" unicode="&#x910;" horiz-adv-x="563" 
d="M706 623l12 -13q-7 -28 -27 -41h-124q4 -149 -81 -264q-38 3 -62.5 17.5t-29.5 35.5q47 70 52 134l-11 77h-158q-32 -215 -105 -359l11 -8l129 77q40 7 77 -11t55 -51q2 -99 -31 -203.5t-92 -180.5q-100 4 -106 70q82 89 118 215l-1 69l-13 7l-148 -92q-57 8 -93 35
t-37 65q77 148 102 254l-8 113h-130l-15 15q10 26 30 39h686zM335 948q47 0 108 -88t95 -181q-11 -21 -48 -21q-48 99 -118 164l-65 -47q-115 43 -103 113q64 60 131 60z" />
    <glyph glyph-name="uni0911" unicode="&#x911;" horiz-adv-x="1079" 
d="M311 292q-11 7 -58 15q-27 -5 -57 -9q-32 21 -40 57t11 57q25 2 67 8q116 47 139 136l-4 7q-86 6 -165 -64q-41 13 -60.5 40.5t-5.5 52.5q110 75 240 68q85 -22 112 -108q-34 -131 -211 -179l2 -6q74 -6 124 -32q164 84 225 118l27 116h-102l-16 15q12 26 30 39h100l7 30
q107 8 142 -30h126l7 30q66 5 99 -1t50 -29h122l12 -13q-7 -28 -27 -41h-126l-66 -138l-42 -420q-30 -16 -78 -7.5t-83 37.5l120 528h-123l-70 -138l-41 -420q-30 -16 -78 -7.5t-83 37.5l67 296l35 42l-5 8q-118 -59 -179 -88q28 -30 28 -61q0 -55 -59 -107.5t-135.5 -82
t-136.5 -28.5q-60 5 -110 39t-50 66q0 17 14 32t48 32t64.5 29t91.5 35t101 39zM178 95q48 6 111.5 45t75.5 84q-3 14 -11 25q-191 -97 -224 -119q1 -11 17 -22t31 -13zM1031 682q-51 0 -110.5 59.5t-77.5 133.5q50 79 120 48q8 -126 76 -182q86 16 128 115q29 11 55.5 -2.5
t38.5 -45.5q-34 -52 -98 -89t-132 -37z" />
    <glyph glyph-name="uni0913" unicode="&#x913;" horiz-adv-x="1079" 
d="M311 292q-11 7 -58 15q-27 -5 -57 -9q-32 21 -40 57t11 57q25 2 67 8q116 47 139 136l-4 7q-86 6 -165 -64q-41 13 -60.5 40.5t-5.5 52.5q110 75 240 68q85 -22 112 -108q-34 -131 -211 -179l2 -6q74 -6 124 -32q164 84 225 118l27 116h-102l-16 15q12 26 30 39h100l7 30
q107 8 142 -30h126l7 30q66 5 99 -1t50 -29h122l12 -13q-7 -28 -27 -41h-126l-66 -138l-42 -420q-30 -16 -78 -7.5t-83 37.5l120 528h-123l-70 -138l-41 -420q-30 -16 -78 -7.5t-83 37.5l67 296l35 42l-5 8q-118 -59 -179 -88q28 -30 28 -61q0 -55 -59 -107.5t-135.5 -82
t-136.5 -28.5q-60 5 -110 39t-50 66q0 17 14 32t48 32t64.5 29t91.5 35t101 39zM178 95q48 6 111.5 45t75.5 84q-3 14 -11 25q-191 -97 -224 -119q1 -11 17 -22t31 -13zM850 972q47 0 108 -88t95 -181q-11 -21 -48 -21q-52 104 -118 164l-66 -47q-114 43 -102 114
q63 59 131 59z" />
    <glyph glyph-name="uni0914" unicode="&#x914;" horiz-adv-x="1079" 
d="M311 292q-11 7 -58 15q-27 -5 -57 -9q-32 21 -40 57t11 57q25 2 67 8q116 47 139 136l-4 7q-86 6 -165 -64q-41 13 -60.5 40.5t-5.5 52.5q110 75 240 68q85 -22 112 -108q-34 -131 -211 -179l2 -6q74 -6 124 -32q164 84 225 118l27 116h-102l-16 15q12 26 30 39h100l7 30
q107 8 142 -30h126l7 30q66 5 99 -1t50 -29h122l12 -13q-7 -28 -27 -41h-126l-66 -138l-42 -420q-30 -16 -78 -7.5t-83 37.5l120 528h-123l-70 -138l-41 -420q-30 -16 -78 -7.5t-83 37.5l67 296l35 42l-5 8q-118 -59 -179 -88q28 -30 28 -61q0 -55 -59 -107.5t-135.5 -82
t-136.5 -28.5q-60 5 -110 39t-50 66q0 17 14 32t48 32t64.5 29t91.5 35t101 39zM178 95q48 6 111.5 45t75.5 84q-3 14 -11 25q-191 -97 -224 -119q1 -11 17 -22t31 -13zM837 972q50 0 118 -80.5t105 -175.5q-3 -14 -17.5 -23.5t-37.5 -10.5q-48 39 -90 50l-31 -36
q-85 7 -95 60q31 51 89 59q53 -10 120 -74l4 5q-49 86 -124 128l-60 -54q-51 17 -74.5 40t-17.5 60q17 21 48.5 36.5t62.5 15.5z" />
    <glyph glyph-name="uni0915" unicode="&#x915;" horiz-adv-x="777" 
d="M544 569l-97 -188l9 -7q22 22 63 65t59 61q83 16 137.5 -19.5t54.5 -109.5t-54.5 -139t-158.5 -135q-49 19 -38 47q69 54 97.5 103t28.5 103q0 29 -16.5 47t-46.5 22q-69 -61 -119 -109l-29 -299q-30 -16 -78 -7.5t-83 37.5l27 115l40 70l-10 9q-67 -68 -128 -140
q-81 2 -131.5 40t-50.5 107q0 96 77 183.5t169 87.5q15 0 34.5 -16.5t31 -30.5t32.5 -43l5 2l27 144h-400l-15 15q13 27 30 39h395l6 30q107 8 142 -30h365l12 -13q-7 -28 -26 -41h-361zM195 366q-37 -59 -37 -117t35 -76q71 64 148 143l9 36q-43 72 -75 83q-43 -10 -80 -69
z" />
    <glyph glyph-name="uni0916" unicode="&#x916;" horiz-adv-x="883" 
d="M332.5 515.5q-12.5 13.5 -32.5 13.5t-50.5 -14.5t-53.5 -38.5q-37 11 -56 34t-10 46q1 1 3.5 4t5 5t4.5 4h-137l-16 15q12 26 30 39h724l6 30q107 8 142 -30h133l12 -13q-7 -28 -27 -41h-128l-68 -138l-42 -420q-31 -16 -78.5 -7.5t-82.5 37.5l29 123l27 36l-10 11
q-54 -52 -164 -108t-190 -66q-81 15 -156 74.5t-130 136.5q5 43 33 73t67 31l23 -26q88 14 147 59.5t60 101.5q-2 15 -14.5 28.5zM569.5 378.5q-28.5 -50.5 -28.5 -82.5q0 -58 41 -58q25 0 54.5 28.5t44.5 64.5l6 27q-16 68 -51 79q-38 -8 -66.5 -58.5zM459 500
q0 -80 -94 -149.5t-201 -79.5l-4 -8q105 -120 169 -132q52 2 190 62l-4 5q-42 2 -65.5 26.5t-23.5 60.5q0 70 61 149t138 79q51 0 79 -82l5 2l25 136h-313q38 -38 38 -69z" />
    <glyph glyph-name="uni0917" unicode="&#x917;" horiz-adv-x="644" 
d="M784 623l12 -13q-7 -28 -27 -41h-122l-69 -138l-41 -420q-30 -16 -78 -7.5t-83 37.5l120 528h-139q-8 -101 -30 -213.5t-49 -184.5q-39 -46 -127 -53q-110 20 -154 109q4 55 37 78q84 33 190 85q5 39 7 89l-21 90h-205l-15 15q10 26 30 39h488l7 30q107 8 142 -30h127z
M209 317l-113 -57q25 -38 67 -55l10 6q22 47 36 106z" />
    <glyph glyph-name="uni0918" unicode="&#x918;" horiz-adv-x="676" 
d="M819 623l12 -13q-7 -28 -27 -41h-123l-69 -138l-42 -420q-30 -16 -78 -7.5t-83 37.5l40 172l39 50l-8 9q-64 -63 -148.5 -115.5t-142.5 -63.5q-51 13 -86.5 46t-35.5 70q15 27 48 52t78.5 51.5t67.5 43.5l-6 6q-75 -26 -131 -34q-39 15 -66.5 46.5t-20.5 65.5
q55 63 196 129h-227l-16 15q12 26 31 39h520l7 30q108 8 143 -30h128zM486 383l43 186h-151q-147 -74 -219 -148l8 -10q54 11 121 36q39 -11 63 -38.5t20 -64.5q-111 -82 -172 -150l9 -11q78 26 153 82t125 118z" />
    <glyph glyph-name="uni0919" unicode="&#x919;" horiz-adv-x="521" 
d="M640 623l12 -13q-7 -28 -27 -41h-238q34 -21 54 -44q8 -23 -3.5 -56.5t-36.5 -54.5q-40 -22 -85.5 -34.5t-83.5 -22t-55 -14.5l-3 -11q35 -17 125.5 -41t126.5 -40q22 -22 19 -62t-29 -80q-50 -36 -159.5 -65t-209.5 -34q-34 28 -41 61t15 52q90 1 178 18t141 52l-1 8
q-37 18 -132.5 44.5t-138.5 49.5q-16 34 -0.5 75.5t56.5 64.5q165 33 228 64l3 9q-21 25 -96 61h-253l-16 15q12 26 30 39h620zM438 390q17 17 41.5 17t41.5 -17t17 -41t-17 -41t-41.5 -17t-41.5 17t-17 41t17 41z" />
    <glyph glyph-name="uni091A" unicode="&#x91a;" horiz-adv-x="715" 
d="M86 254q0 20 23 39.5t51.5 32t73.5 31t68 30.5l-4 8q-136 -21 -241 -27q-31 24 -36 64t17 53q153 -22 325 -11q28 -15 41 -49t1 -62q-133 -59 -165 -97q2 -14 20 -29t35 -16q54 11 121 60.5t114 114.5l39 173h-572l-16 15q12 26 31 39h569l7 30q107 8 142 -30h128l12 -13
q-7 -28 -27 -41h-123l-69 -138l-41 -420q-31 -16 -78.5 -7.5t-82.5 37.5l38 168l40 70l-13 10q-135 -144 -255 -171q-60 5 -116.5 49.5t-56.5 86.5z" />
    <glyph glyph-name="uni091B" unicode="&#x91b;" horiz-adv-x="708" 
d="M813 623l12 -13q-7 -28 -27 -41h-152q1 -34 -25 -92q56 -44 55 -85q-1 -62 -109 -156q39 -88 34 -137t-68.5 -106.5t-145.5 -100.5q-93 44 -62 100q47 23 72.5 36.5t60 39t50.5 50.5q-1 25 -15 59q-168 -121 -295 -143q-51 15 -85.5 46.5t-34.5 71.5q21 47 70 94.5
t104 82.5l-5 8q-78 -27 -131 -36q-42 21 -66.5 58t-13.5 71q80 79 201 139h-228l-16 15q12 26 31 39h789zM534 313q40 44 49 75q-4 13 -20 26.5t-31 18.5q-42 -15 2 -120zM203 139l10 -9q122 27 248 121q-46 98 -45 145q1 20 5 51q18 27 52 50t67 26q12 -3 23 -9q9 27 6 55
h-175q-66 -29 -131.5 -77.5t-109.5 -92.5l8 -12q23 3 118 29q47 -19 67 -49.5t9 -67.5q-81 -63 -152 -160z" />
    <glyph glyph-name="uni091C" unicode="&#x91c;" horiz-adv-x="737" 
d="M879 623l12 -13q-7 -28 -27 -41h-123l-69 -138l-42 -420q-30 -16 -78 -7.5t-83 37.5l57 244l40 67l-6 6q-62 -51 -126 -52l-27 6l-5 -6l12 -29q-3 -45 -43 -88t-91.5 -66.5t-90.5 -21.5q-63 11 -108.5 74t-43.5 138q7 46 38.5 96t79.5 81q40 1 64.5 -17.5t25.5 -50.5
q-75 -59 -82 -123q-10 -82 41 -117q42 9 78 44t39 66q-4 18 -38 32q11 47 38 74t61 24q31 -37 54 -44q66 4 126 68l27 123h-586l-15 15q13 27 30 39h583l7 30q108 8 143 -30h128z" />
    <glyph glyph-name="uni091D" unicode="&#x91d;" horiz-adv-x="793" 
d="M416 268q44 -22 44 -66t-58 -109q-94 -60 -206 -55q-32 14 -64 39l-7 -7q76 -74 149 -181q-1 -24 -32 -42t-78 -17q-30 65 -76.5 136.5t-93.5 124.5q20 48 55 76.5t72 19.5q30 -38 69 -59q49 2 91 22t65 49l-2 8q-24 17 -124.5 41.5t-143.5 51.5q-14 32 3 74t57 67
q147 26 221 57l3 7q-25 29 -94 64h-260l-16 15q12 26 30 39h638l7 30q107 8 142 -30h128l12 -13q-7 -28 -26 -41h-123l-70 -138l-41 -420q-30 -16 -78 -7.5t-83 37.5l64 278l38 47l-7 9q-95 -60 -205 -107zM619 450l27 119h-251q29 -17 55 -45q7 -24 -4.5 -57.5t-35.5 -53.5
q-62 -29 -220 -64l-5 -14q54 -29 147 -42q179 72 287 157z" />
    <glyph glyph-name="uni091E" unicode="&#x91e;" horiz-adv-x="690" 
d="M833 623l12 -13q-7 -28 -27 -41h-123l-69 -138l-42 -420q-30 -16 -78 -7.5t-83 37.5l57 246l41 45l-7 13q-63 -39 -139 -67q-26 -72 -95.5 -126t-138.5 -53q-43 6 -80.5 48t-49.5 100q23 24 50 33t48 -2q13 -66 50 -92q39 16 71 52t38 84q5 75 -52 111q-52 -13 -97 -56
q-39 17 -53 35t-9 43q40 32 76.5 47t91.5 13t104.5 -53t54.5 -113q82 37 127 79l32 141h-537l-16 15q12 26 30 39h535l7 30q108 8 143 -30h128z" />
    <glyph glyph-name="uni091F" unicode="&#x91f;" horiz-adv-x="529" 
d="M13 235q0 77 98 151q159 50 237 102l3 8q-26 34 -99 73h-241l-16 15q12 26 31 39h634l12 -13q-7 -28 -27 -41h-275q37 -24 67 -58q6 -26 -5 -56t-32 -49q-63 -40 -208 -99q-54 -41 -53 -79q0 -72 97 -112q52 14 98 51t76 82q40 3 63 -19.5t24 -70.5q-52 -45 -125 -76
t-152 -32q-89 17 -148 71t-59 113z" />
    <glyph glyph-name="uni0920" unicode="&#x920;" horiz-adv-x="577" 
d="M77 112.5q-65 57.5 -65 130t113 153.5q116 39 161 59t66 37l3 9q-26 32 -90 68h-256l-15 15q10 26 30 39h673l12 -13q-7 -28 -27 -41h-302q37 -24 62 -55q5 -26 -6 -55.5t-34 -50.5l-11 -7q121 -48 164 -106q2 -101 -91.5 -176.5t-225.5 -79.5q-96 16 -161 73.5zM441 281
q-29 43 -112 85q-13 -7 -59 -30t-67 -35q-41 -24 -54 -40q-14 -29 -3 -66q22 -63 101 -96q80 17 135 70t59 112z" />
    <glyph glyph-name="uni0921" unicode="&#x921;" horiz-adv-x="498" 
d="M640 623l12 -13q-7 -28 -27 -41h-238q34 -21 54 -44q8 -23 -3.5 -56.5t-36.5 -54.5q-40 -22 -85.5 -34.5t-83.5 -22t-55 -14.5l-3 -11q35 -17 125.5 -41t126.5 -40q22 -22 19 -62t-29 -80q-50 -36 -159.5 -65t-209.5 -34q-34 28 -41 61t15 52q90 1 178 18t141 52l-1 8
q-37 18 -132.5 44.5t-138.5 49.5q-16 34 -0.5 75.5t56.5 64.5q165 33 228 64l3 9q-21 25 -96 61h-253l-16 15q12 26 30 39h620z" />
    <glyph glyph-name="uni0922" unicode="&#x922;" horiz-adv-x="594" 
d="M187 151l200 148q67 0 116.5 -35.5t49.5 -71t-49.5 -76.5t-114 -66.5t-109.5 -25.5q-83 3 -158 57.5t-103 128.5q0 66 42 102q31 18 150 77.5t158 89.5l4 10q-24 34 -100 80h-257l-16 15q12 26 31 39h695l12 -13q-7 -28 -26 -41h-319q51 -28 81 -58q16 -44 -28 -95
q-32 -28 -108 -68t-129.5 -72.5t-53.5 -56.5q0 -33 32 -68zM432 184q-15 23 -50 34q-26 -15 -153 -103q25 -17 52 -27q55 10 95.5 36t55.5 60z" />
    <glyph glyph-name="uni0923" unicode="&#x923;" horiz-adv-x="734" 
d="M211 153q-58 0 -112.5 68.5t-54.5 129.5q0 41 34 101t91 117h-164l-15 15q10 26 30 39h579l7 30q107 8 142 -30h129l12 -13q-7 -28 -27 -41h-124l-69 -138l-41 -420q-31 -16 -78.5 -7.5t-82.5 37.5l120 528h-177q54 -100 48 -202q-10 -60 -54.5 -111t-97 -77t-95.5 -26z
M300 569h-20q-96 -113 -116 -216q8 -83 59 -114q44 15 77 50t44 88q-5 102 -44 192z" />
    <glyph glyph-name="uni0924" unicode="&#x924;" horiz-adv-x="589" 
d="M731 623l12 -13q-7 -28 -26 -41h-123l-69 -138l-42 -420q-30 -16 -78 -7.5t-83 37.5l63 276l30 39l-7 10q-120 -72 -250 -106q-16 -17 -19 -40q21 -71 104 -160q3 -40 -59 -62q-138 106 -173 217q25 107 82 132q172 10 319 93l30 129h-436l-16 15q12 26 30 39h434l7 30
q107 8 142 -30h128z" />
    <glyph glyph-name="uni0925" unicode="&#x925;" horiz-adv-x="664" 
d="M332.5 175q-73.5 -46 -126 -46t-114 47t-61.5 98q0 23 34 49t93 60.5t90 59.5l-84 16q-67 44 -78 104q8 51 66 102.5t119 55.5q53 -6 97 -58t45 -97q-1 -43 -31.5 -88.5t-67 -76t-78 -65t-55.5 -51.5q-3 -22 21 -42t50 -21q52 9 116.5 60t108.5 113l40 174h-48l-16 15
q12 26 31 39h45l7 30q107 8 142 -30h128l12 -13q-7 -28 -26 -41h-124l-69 -138l-41 -420q-30 -16 -78 -7.5t-83 37.5l38 166l43 68l-11 11q-61 -65 -134.5 -111zM289 485q23 33 23 62.5t-12.5 52.5t-35.5 31q-24 -4 -52.5 -30t-28.5 -46t24 -44z" />
    <glyph glyph-name="uni0926" unicode="&#x926;" horiz-adv-x="541" 
d="M378 184q-32 -37 -121 -153q-103 12 -174 69.5t-71 129.5q0 44 41 81t93 59q157 66 207 119l4 8q-22 32 -92 72h-258l-15 15q13 27 30 39h636l12 -13q-7 -28 -26 -41h-262q41 -24 67 -55q10 -24 -1 -54.5t-37 -56.5q-24 -20 -130.5 -81t-138.5 -96q6 -31 34.5 -58.5
t63.5 -39.5q25 27 71.5 79t61.5 67q33 10 70.5 -6.5t60.5 -58.5q-55 -138 -115 -377q-49 -3 -82.5 13t-39.5 43q67 178 120 290z" />
    <glyph glyph-name="uni0927" unicode="&#x927;" horiz-adv-x="686" 
d="M829 623l12 -13q-7 -28 -27 -41h-123l-69 -138l-42 -420q-30 -16 -78 -7.5t-83 37.5l41 176l39 50l-10 11q-66 -64 -155.5 -120t-151.5 -70q-52 13 -87 46.5t-35 70.5q14 27 46.5 51.5t79 51.5t70.5 46l-5 6q-67 -28 -129 -37q-46 21 -74 53t-26 68q28 75 118.5 163
t194.5 114q35 2 63 -27t34 -81q-21 -58 -96 -108t-152 -69l-53 15q-4 -10 -5 -15q1 -22 25 -42q61 11 121 40q38 -11 59 -37.5t19 -65.5q-91 -66 -158 -142l8 -11q75 24 163 86t134 122l42 183h-65l-15 15q10 26 31 39h61l7 30q108 8 143 -30h128zM152 492l24 4
q51 11 100.5 47.5t63.5 74.5q-3 22 -21 25q-43 -22 -90.5 -65t-76.5 -86z" />
    <glyph glyph-name="uni0928" unicode="&#x928;" horiz-adv-x="632" 
d="M775 623l12 -13q-7 -28 -27 -41h-755l-15 15q10 26 30 39h755zM449 456q-98 -57 -172 -98q28 -81 10 -182q-12 -20 -45 -35t-66 -17q-112 19 -159 91q-6 64 33 94q269 124 420 221q114 8 151 -47l-66 -111l-31 -361q-30 -16 -78 -7.5t-83 37.5l95 410zM167 201l11 7
q11 45 -3 94q-26 -15 -76 -43q26 -41 68 -58z" />
    <glyph glyph-name="uni092A" unicode="&#x92a;" horiz-adv-x="587" 
d="M729 623l12 -13q-7 -28 -26 -41h-124l-69 -138l-41 -420q-30 -16 -78 -7.5t-83 37.5l57 251l28 48l-8 7q-138 -128 -222 -198q-51 1 -95 23.5t-55 60.5q41 176 93 336h-113l-15 15q10 26 30 39h432l7 30q107 8 142 -30h128zM408 428l32 141h-161l-68 -116
q-36 -128 -49 -207l10 -5q147 103 236 187z" />
    <glyph glyph-name="uni092B" unicode="&#x92b;" horiz-adv-x="837" 
d="M794 264q-16 -24 -52 -54.5t-59.5 -47t-72.5 -48.5l-40 46q75 55 108.5 100.5t33.5 104t-62 72.5q-59 -48 -156 -130l-29 -296q-31 -16 -79 -7.5t-83 37.5l55 237l26 48l-8 7q-104 -98 -203 -181q-52 1 -95.5 22.5t-52.5 57.5q43 180 96 337h-115l-16 15q12 26 30 39h416
l7 30q107 8 142 -30h382l12 -13q-7 -28 -27 -41h-377l-68 -138l-31 -55l9 -9q55 51 163 155q85 10 137.5 -28t52.5 -103.5t-44 -126.5zM389 415l35 154h-143l-68 -116q-37 -124 -53 -204l10 -5q119 79 219 171z" />
    <glyph glyph-name="uni092C" unicode="&#x92c;" horiz-adv-x="559" 
d="M360 254l-154 -164q-83 2 -133.5 41.5t-50.5 110.5q0 99 77.5 186t175.5 87q56 -12 109 -93l4 2l27 145h-409l-16 15q12 26 30 39h405l6 30q108 8 143 -30h128l12 -13q-7 -28 -27 -41h-123l-69 -138l-42 -420q-30 -16 -78 -7.5t-83 37.5l32 135l46 68zM191 358
q-32 -56 -32 -112.5t38 -77.5q63 55 96 86q-59 50 -102 104zM329 286l33 32l7 34q-42 76 -82 87q-31 -6 -63 -38q48 -61 105 -115z" />
    <glyph glyph-name="uni092D" unicode="&#x92d;" horiz-adv-x="682" 
d="M803 623l12 -13q-7 -28 -27 -41h-300l-15 15q10 26 30 39h300zM287 468l-102 -44q-43 10 -76.5 36t-42.5 53q4 46 30 64q49 24 113 66.5t98 76.5q37 1 67.5 -12.5t44.5 -36.5q-10 -97 -34 -222q83 45 138 81q114 8 151 -47l-65 -111l-32 -361q-30 -16 -78 -7.5t-83 37.5
l96 410l-9 5q-75 -45 -132 -76q-25 -119 -57 -214q-22 -21 -59.5 -33t-69.5 -11q-45 8 -85.5 36t-61.5 66q2 59 39 75q91 39 184 85q4 16 10 46l21 30zM300 611l-8 3q-56 -42 -132 -94q14 -27 34 -33l90 23q11 67 16 101zM198 204l10 6q18 50 33 99q-70 -36 -106 -54
q21 -33 63 -51z" />
    <glyph glyph-name="uni092E" unicode="&#x92e;" horiz-adv-x="649" 
d="M792 623l12 -13q-7 -28 -27 -41h-421q-4 -53 -14 -120q92 48 145 81q114 8 151 -47l-66 -111l-31 -361q-30 -16 -78 -7.5t-83 37.5l95 410l-10 6q-16 -9 -134 -75q-25 -136 -54 -213q-40 -47 -128 -47q-45 8 -85 35t-62 67q0 62 37 83q117 51 183 82q5 38 7 85l-20 95
h-203l-16 15q12 26 30 39h772zM161 204l11 7q20 46 36 108q-38 -19 -116 -57q27 -42 69 -58z" />
    <glyph glyph-name="uni092F" unicode="&#x92f;" horiz-adv-x="660" 
d="M324.5 171.5q-78.5 -51.5 -125.5 -51.5t-110 49t-63 94q0 37 94 89q40 21 80 43.5t69.5 51.5t31.5 58q-14 22 -53 18t-91 -40q-40 10 -59 32t-8 47q5 5 9 7h-93l-16 15q12 26 31 39h504l7 30q108 8 143 -30h128l12 -13q-7 -28 -27 -41h-123l-69 -138l-42 -420
q-30 -16 -78 -7.5t-83 37.5l40 169l43 67l-12 12q-61 -66 -139.5 -117.5zM415 522q0 -41 -49 -89t-111.5 -93t-76.5 -64q-3 -21 21.5 -42.5t48.5 -21.5q50 14 117.5 66.5t108.5 112.5l39 178h-121q23 -23 23 -47z" />
    <glyph glyph-name="uni0930" unicode="&#x930;" horiz-adv-x="455" 
d="M311 531q-60 0 -125 -55q-37 11 -56 34t-10 46q12 10 17 13h-131l-16 15q12 26 30 39h578l12 -13q-7 -28 -27 -41h-150q41 -38 41 -69q-1 -56 -53 -110.5t-126 -87t-141 -32.5l-4 -8q8 -6 47 -36t59 -45q58 -43 115 -73q16 -27 -2.5 -61.5t-55.5 -47.5
q-74 35 -161.5 109.5t-141.5 141.5q6 43 32 72t65 30q18 -15 38 -25q77 10 144.5 58.5t71.5 104.5q-4 16 -18 28.5t-32 12.5z" />
    <glyph glyph-name="uni0931" unicode="&#x931;" horiz-adv-x="455" 
d="M311 531q-60 0 -125 -55q-37 11 -56 34t-10 46q12 10 17 13h-131l-16 15q12 26 30 39h578l12 -13q-7 -28 -27 -41h-150q41 -38 41 -69q-1 -56 -53 -110.5t-126 -87t-141 -32.5l-4 -8q8 -6 47 -36t59 -45q58 -43 115 -73q16 -27 -2.5 -61.5t-55.5 -47.5
q-74 35 -161.5 109.5t-141.5 141.5q6 43 32 72t65 30q18 -15 38 -25q77 10 144.5 58.5t71.5 104.5q-4 16 -18 28.5t-32 12.5zM-21.5 88.5q18.5 18.5 45 18.5t45 -18.5t18.5 -44.5t-18.5 -44.5t-45 -18.5t-45 18.5t-18.5 44.5t18.5 44.5z" />
    <glyph glyph-name="uni0932" unicode="&#x932;" horiz-adv-x="734" 
d="M74.5 121q-50.5 74 -50.5 130.5t58 122t125 95.5q65 9 104 -1q78 -34 88 -127q-25 -40 -40 -59l6 -4q94 62 197 178l25 113h-581l-16 15q12 26 30 39h579l7 30q107 8 142 -30h128l12 -13q-7 -28 -26 -41h-124l-69 -138l-41 -420q-30 -16 -78 -7.5t-83 37.5l56 245l32 53
l-8 9q-112 -103 -178 -157q-52 6 -82.5 30t-26.5 53q32 34 43 53q-13 56 -57 66q-31 -7 -62 -48.5t-36 -80.5q28 -111 138 -165q17 -29 -6.5 -59.5t-77.5 -39.5q-77 47 -127.5 121z" />
    <glyph glyph-name="uni0933" unicode="&#x933;" horiz-adv-x="853" 
d="M72.5 64.5q-55.5 56.5 -55.5 125t87.5 147.5t192.5 78q74 -92 118 -174q22 23 63 68.5t62 66.5t52.5 43t60.5 28q26 73 20 122h-668l-15 15q10 26 30 39h976l12 -13q-7 -28 -27 -41h-228q4 -63 -32 -139q35 -27 61 -74q69 -127 -54 -258q-78 -81 -182 -98
q-72 36 -133 115q-105 -91 -206 -115q-79 8 -134.5 64.5zM205 82q86 41 166 115q-54 79 -101 128q-49 -22 -85.5 -63.5t-42.5 -80.5q3 -68 63 -99zM646.5 155.5q36.5 49.5 39.5 100.5t-28 92q-50 -33 -112 -99.5t-84 -87.5q47 -58 95 -79q53 24 89.5 73.5z" />
    <glyph glyph-name="uni0935" unicode="&#x935;" horiz-adv-x="556" 
d="M24 250q0 98 77.5 180.5t175.5 82.5q43 1 104 -92l6 4l26 144h-408l-15 15q10 26 30 39h403l5 30q107 8 142 -30h128l12 -13q-7 -28 -27 -41h-123l-69 -138l-41 -420q-30 -16 -78 -7.5t-83 37.5l31 135l42 61l-9 10q-107 -114 -141 -152q-85 2 -136.5 44t-51.5 111z
M199.5 371.5q-36.5 -52.5 -36.5 -115t42 -83.5q144 138 152 146l8 34q-41 72 -78 82q-51 -11 -87.5 -63.5z" />
    <glyph glyph-name="uni0936" unicode="&#x936;" horiz-adv-x="736" 
d="M879 623l12 -13q-7 -28 -27 -41h-123l-69 -138l-42 -420q-30 -16 -78 -7.5t-83 37.5l120 528h-80l-15 15q10 26 30 39h77l7 30q107 8 142 -30h129zM467 529q0 -94 -97 -175t-214 -84l-4 -8q9 -7 35 -29.5t42 -35t41 -31.5q49 -37 95 -58q16 -27 -2.5 -61.5t-55.5 -47.5
q-74 38 -157.5 111.5t-136.5 139.5q6 44 32 72.5t65 29.5q19 -14 45 -25q50 7 95 35.5t73 69.5l-126 20q-30 20 -53.5 51t-27.5 60q8 50 70 102t129 56q62 -11 107 -70.5t45 -121.5zM345 475q9 24 9 57t-14.5 62t-43.5 37q-23 -4 -48.5 -29.5t-25.5 -48t31 -53.5z" />
    <glyph glyph-name="uni0937" unicode="&#x937;" horiz-adv-x="587" 
d="M729 623l12 -13q-7 -28 -26 -41h-124l-69 -138l-41 -420q-30 -16 -78 -7.5t-83 37.5l57 251l28 48l-8 7q-138 -128 -222 -198q-51 1 -95 23.5t-55 60.5q41 176 93 336h-113l-15 15q10 26 30 39h432l7 30q107 8 142 -30h128zM162 246l10 -5q66 46 159 120q-72 63 -107 114
l-13 -22q-36 -128 -49 -207zM408 428l32 141h-161l-27 -45q48 -61 118 -130q28 24 38 34z" />
    <glyph glyph-name="uni0938" unicode="&#x938;" horiz-adv-x="777" 
d="M469 282q-71 -27 -104.5 -27t-103.5 34q-58 -20 -108 -19l-4 -8q116 -89 155 -114.5t67 -39.5q16 -27 -3 -61.5t-55 -47.5q-74 35 -162 110t-141 141q6 44 32 72.5t65 29.5q18 -15 46 -25q76 14 140 61.5t67 98.5q-3 16 -16.5 30t-29.5 14q-64 0 -128 -55q-37 11 -56 34
t-10 46q3 2 8 6.5t8 6.5h-130l-16 15q12 26 30 39h622l7 30q107 8 142 -30h128l12 -13q-7 -28 -26 -41h-123l-70 -138l-41 -420q-30 -16 -78 -7.5t-83 37.5l56 243l38 51l-10 11q-54 -37 -125 -64zM473 500q0 -46 -37.5 -92.5t-97.5 -81.5q17 -5 29 -5q36 0 115.5 37
t118.5 82l29 129h-198q41 -38 41 -69z" />
    <glyph glyph-name="uni0939" unicode="&#x939;" horiz-adv-x="520" 
d="M390 259q0 -61 -49 -116q-35 -7 -63 6t-29 30q27 22 36 40q-3 18 -26 21q-41 -5 -84.5 -35t-59.5 -74q3 -37 33.5 -68t86.5 -48q83 16 138 73q28 -2 46 -21.5t19 -49.5q-76 -74 -213 -77q-84 11 -151.5 67.5t-67.5 121t70.5 113t162.5 50.5l3 7q-27 11 -106 55
q-13 25 -4 57t27 46q151 10 237 54l3 8q-20 26 -70 50h-285l-16 15q12 26 30 39h579l12 -13q-7 -28 -27 -41h-180q25 -16 37 -37q7 -26 -5.5 -57.5t-38.5 -52.5q-84 -39 -199 -51l-2 -7q75 -24 115.5 -47.5t40.5 -57.5z" />
    <glyph glyph-name="uni093C" unicode="&#x93c;" 
d="M121 8q-19 -19 -46.5 -19t-46.5 19t-19 45.5t19 45.5t46.5 19t46.5 -19t19 -45.5t-19 -45.5z" />
    <glyph glyph-name="uni093D" unicode="&#x93d;" horiz-adv-x="557" 
d="M224 0q-48 0 -114.5 39.5t-96.5 74.5q1 54 46 55q76 -74 169 -96q56 18 99.5 65t44.5 87q2 31 -141 85q-53 20 -97.5 48t-43.5 56.5t34 82.5t79 82q83 23 219 36t240 8q21 -10 20.5 -34t-24.5 -46q-93 5 -201.5 -1t-182.5 -20q-41 -30 -56 -85q37 -26 176 -86
q41 -18 73 -47t31 -62q-3 -80 -100.5 -161t-173.5 -81z" />
    <glyph glyph-name="uni093E" unicode="&#x93e;" horiz-adv-x="275" 
d="M418 623l12 -13q-7 -28 -27 -41h-126l-66 -138l-41 -420q-31 -16 -79 -7.5t-83 37.5l121 528h-124l-15 15q10 26 30 39h121l7 30q65 5 98 -1t50 -29h122z" />
    <glyph glyph-name="uni093F" unicode="&#x93f;" horiz-adv-x="283" 
d="M166 870q21 39 70 70t96 32q81 -39 157.5 -108.5t119.5 -136.5q2 -58 -75 -63q-114 162 -232 219l-11 -9l-41 -251h167l12 -13q-7 -28 -26 -41h-161q-52 -322 -70 -558q-30 -16 -78 -7.5t-83 37.5l125 528h-131l-15 15q10 26 30 39h124z" />
    <glyph glyph-name="uni0940" unicode="&#x940;" horiz-adv-x="275" 
d="M218 569v-60l-48 -498q-31 -16 -79 -7.5t-83 37.5q39 162 118 528h-121l-15 15q10 26 30 39h118q28 132 54 243l-11 6q-42 -28 -91 -83t-88 -119q-39 4 -66 23t-32 49q45 77 138 153.5t154 76.5q37 0 76.5 -28t60.5 -70q-73 -170 -102 -251h187l12 -13q-7 -28 -27 -41
h-185z" />
    <glyph glyph-name="uni0941" unicode="&#x941;" 
d="M-197 -19q44 0 94 -31.5t50 -62.5q0 -55 -88.5 -108.5t-169.5 -55.5q-67 2 -140.5 50.5t-104.5 105.5q42 83 116 66q19 -60 48.5 -99t84.5 -64q54 12 95.5 43.5t45.5 66.5q-7 11 -21 12q-35 -8 -77 -46q-39 10 -58 34t-11 49q62 40 136 40z" />
    <glyph glyph-name="uni0942" unicode="&#x942;" 
d="M-365 -143q0 44 46.5 84t102.5 40t150.5 -53.5t147.5 -110.5q5 -29 -16.5 -54t-69.5 -40q-53 75 -105 120t-119 67q-27 -3 -40 -37q31 -36 85 -53q13 -30 -2 -54.5t-60 -35.5q-46 18 -83 56.5t-37 70.5z" />
    <glyph glyph-name="uni0943" unicode="&#x943;" 
d="M-276 -277q-43 0 -80.5 29.5t-37.5 57.5q0 44 56 99.5t126 79.5q72 -17 65 -69q-112 -33 -153 -116l11 -18q56 0 103 26t76 63q39 -4 58.5 -21.5t15.5 -42.5q-44 -44 -108.5 -66t-131.5 -22z" />
    <glyph glyph-name="uni0944" unicode="&#x944;" 
d="M-346 -105q27 32 75.5 57.5t93.5 36.5q59 -8 43 -61q-77 -19 -129 -55l6 -12q31 4 69 18q22 -6 32 -26t-1 -43q-74 -26 -119 -66l10 -13q77 12 134 64q47 -3 40 -63q-74 -58 -186 -58q-37 8 -59.5 29.5t-24.5 51.5q41 50 116 70l-3 7q-47 -9 -73.5 11.5t-23.5 51.5z" />
    <glyph glyph-name="uni0945" unicode="&#x945;" 
d="M-39 682q-51 0 -110.5 59.5t-77.5 133.5q50 79 120 48q8 -127 77 -182q87 16 127 115q29 11 55.5 -2.5t38.5 -45.5q-34 -52 -98 -89t-132 -37z" />
    <glyph glyph-name="uni0947" unicode="&#x947;" 
d="M-227 972q47 0 107.5 -87.5t95.5 -181.5q-11 -21 -48 -21q-51 102 -118 164l-66 -47q-114 43 -102 114q63 59 131 59z" />
    <glyph glyph-name="uni0948" unicode="&#x948;" 
d="M-249 972q50 0 118 -80.5t105 -175.5q-3 -14 -17.5 -23.5t-37.5 -10.5q-46 38 -89 50l-31 -36q-38 3 -64.5 18.5t-31.5 41.5q31 51 90 59q52 -10 119 -74l5 5q-51 87 -125 128l-59 -54q-51 17 -74.5 40t-18.5 60q17 21 48.5 36.5t62.5 15.5z" />
    <glyph glyph-name="uni0949" unicode="&#x949;" horiz-adv-x="275" 
d="M233 682q-51 0 -110.5 59.5t-77.5 133.5q50 79 120 48q8 -126 76 -182q86 16 128 115q29 11 55.5 -2.5t38.5 -45.5q-34 -52 -98 -89t-132 -37zM296 623h122l12 -13q-7 -28 -27 -41h-126l-66 -138l-41 -420q-31 -16 -79 -7.5t-83 37.5l121 528h-124l-15 15q10 26 30 39
h121l7 30q65 5 98 -1t50 -29z" />
    <glyph glyph-name="uni094B" unicode="&#x94b;" horiz-adv-x="275" 
d="M418 623l12 -13q-7 -28 -27 -41h-126l-66 -138l-41 -420q-31 -16 -79 -7.5t-83 37.5l121 528h-124l-15 15q10 26 30 39h121l7 30q65 5 98 -1t50 -29h122zM43 972q47 0 107 -87t96 -181q-12 -23 -48 -21q-52 103 -118 164l-66 -48q-114 43 -102 114q63 59 131 59z" />
    <glyph glyph-name="uni094C" unicode="&#x94c;" horiz-adv-x="275" 
d="M418 623l12 -13q-7 -28 -27 -41h-126l-66 -138l-41 -420q-31 -16 -79 -7.5t-83 37.5l121 528h-124l-15 15q10 26 30 39h121l7 30q65 5 98 -1t50 -29h122zM29 972q50 0 118 -80.5t105 -175.5q-3 -14 -17.5 -23.5t-37.5 -10.5q-46 38 -90 50l-30 -36q-86 7 -96 60
q31 51 90 59q52 -10 119 -74l5 5q-51 87 -125 128l-59 -54q-51 17 -74.5 40t-18.5 60q17 21 48.5 36.5t62.5 15.5z" />
    <glyph glyph-name="uni094D" unicode="&#x94d;" 
d="M24 -272q-152 105 -330 153q-8 91 65 100q75 -26 160 -84t141 -119q1 -30 -36 -50z" />
    <glyph glyph-name="uni0950" unicode="&#x950;" horiz-adv-x="1103" 
d="M561 324l49 14q37 24 112.5 100t112.5 98q173 -50 179 -252q-21 -87 -90 -162.5t-172 -121.5q-45 10 -62.5 37.5t1.5 58.5q86 25 146 77t87 118q-7 56 -24.5 90t-52.5 55q-25 -21 -83.5 -78t-97.5 -86l-44 -2q23 -31 23 -56q-1 -73 -95 -141.5t-209 -72.5q-95 32 -163 92
t-104 142q13 45 43.5 63.5t68.5 6.5q54 -163 168 -225q65 16 112.5 52t65.5 81q-13 50 -69 98q-46 -20 -85 -28q-25 11 -33 33t8 42q92 22 133 58t62 97q-18 40 -53 52q-43 -7 -77 -26t-79 -54q-45 10 -64 40.5t0 58.5q125 73 254 73q103 -26 143 -130q-9 -52 -48 -99.5
t-98 -83.5q2 -1 35 -19zM903.5 616q-65.5 -30 -123 -30t-120 59t-79.5 134q50 79 121 48q2 -120 79 -182q93 16 140 100q28 8 50 -6t33 -46q-35 -47 -100.5 -77zM857 717q-17 -17 -40.5 -17t-40.5 17t-17 40.5t17 40t40.5 16.5t40.5 -16.5t17 -40t-17 -40.5z" />
    <glyph glyph-name="uni0958" unicode="&#x958;" horiz-adv-x="777" 
d="M544 569l-97 -188l9 -7q22 22 63 65t59 61q83 16 137.5 -19.5t54.5 -109.5t-54.5 -139t-158.5 -135q-49 19 -38 47q69 54 97.5 103t28.5 103q0 29 -16.5 47t-46.5 22q-69 -61 -119 -109l-29 -299q-30 -16 -78 -7.5t-83 37.5l27 115l40 70l-10 9q-67 -68 -128 -140
q-81 2 -131.5 40t-50.5 107q0 96 77 183.5t169 87.5q15 0 34.5 -16.5t31 -30.5t32.5 -43l5 2l27 144h-400l-15 15q13 27 30 39h395l6 30q107 8 142 -30h365l12 -13q-7 -28 -26 -41h-361zM195 366q-37 -59 -37 -117t35 -76q71 64 148 143l9 36q-43 72 -75 83q-43 -10 -80 -69
zM49.5 53q19.5 19 46.5 19t46 -19t19 -45.5t-19 -45.5t-46 -19t-46.5 19t-19.5 45.5t19.5 45.5z" />
    <glyph glyph-name="uni0959" unicode="&#x959;" horiz-adv-x="883" 
d="M332.5 515.5q-12.5 13.5 -32.5 13.5t-50.5 -14.5t-53.5 -38.5q-37 11 -56 34t-10 46q1 1 3.5 4t5 5t4.5 4h-137l-16 15q12 26 30 39h724l6 30q107 8 142 -30h133l12 -13q-7 -28 -27 -41h-128l-68 -138l-42 -420q-31 -16 -78.5 -7.5t-82.5 37.5l29 123l27 36l-10 11
q-54 -52 -164 -108t-190 -66q-81 15 -156 74.5t-130 136.5q5 43 33 73t67 31l23 -26q88 14 147 59.5t60 101.5q-2 15 -14.5 28.5zM569.5 378.5q-28.5 -50.5 -28.5 -82.5q0 -58 41 -58q25 0 54.5 28.5t44.5 64.5l6 27q-16 68 -51 79q-38 -8 -66.5 -58.5zM459 500
q0 -80 -94 -149.5t-201 -79.5l-4 -8q105 -120 169 -132q52 2 190 62l-4 5q-42 2 -65.5 26.5t-23.5 60.5q0 70 61 149t138 79q51 0 79 -82l5 2l25 136h-313q38 -38 38 -69zM30.5 52q19.5 19 46.5 19t46 -19t19 -45.5t-19 -45.5t-46 -19t-46.5 19t-19.5 45.5t19.5 45.5z" />
    <glyph glyph-name="uni095A" unicode="&#x95a;" horiz-adv-x="644" 
d="M784 623l12 -13q-7 -28 -27 -41h-122l-69 -138l-41 -420q-30 -16 -78 -7.5t-83 37.5l120 528h-139q-8 -101 -30 -213.5t-49 -184.5q-39 -46 -127 -53q-110 20 -154 109q4 55 37 78q84 33 190 85q5 39 7 89l-21 90h-205l-15 15q10 26 30 39h488l7 30q107 8 142 -30h127z
M209 317l-113 -57q25 -38 67 -55l10 6q22 47 36 106zM59 31q19 19 46.5 19t46.5 -19t19 -45.5t-19 -45.5t-46.5 -19t-46.5 19t-19 45.5t19 45.5z" />
    <glyph glyph-name="uni095B" unicode="&#x95b;" horiz-adv-x="737" 
d="M879 623l12 -13q-7 -28 -27 -41h-123l-69 -138l-42 -420q-30 -16 -78 -7.5t-83 37.5l57 244l40 67l-6 6q-62 -51 -126 -52l-27 6l-5 -6l12 -29q-3 -45 -43 -88t-91.5 -66.5t-90.5 -21.5q-63 11 -108.5 74t-43.5 138q7 46 38.5 96t79.5 81q40 1 64.5 -17.5t25.5 -50.5
q-75 -59 -82 -123q-10 -82 41 -117q42 9 78 44t39 66q-4 18 -38 32q11 47 38 74t61 24q31 -37 54 -44q66 4 126 68l27 123h-586l-15 15q13 27 30 39h583l7 30q108 8 143 -30h128zM87 31q19 19 46.5 19t46.5 -19t19 -45.5t-19 -45.5t-46.5 -19t-46.5 19t-19 45.5t19 45.5z
" />
    <glyph glyph-name="uni095C" unicode="&#x95c;" horiz-adv-x="498" 
d="M640 623l12 -13q-7 -28 -27 -41h-238q34 -21 54 -44q8 -23 -3.5 -56.5t-36.5 -54.5q-40 -22 -85.5 -34.5t-83.5 -22t-55 -14.5l-3 -11q35 -17 125.5 -41t126.5 -40q22 -22 19 -62t-29 -80q-50 -36 -159.5 -65t-209.5 -34q-34 28 -41 61t15 52q90 1 178 18t141 52l-1 8
q-37 18 -132.5 44.5t-138.5 49.5q-16 34 -0.5 75.5t56.5 64.5q165 33 228 64l3 9q-21 25 -96 61h-253l-16 15q12 26 30 39h620zM132 -40q19 19 46.5 19t46.5 -19t19 -45.5t-19 -45.5t-46.5 -19t-46.5 19t-19 45.5t19 45.5z" />
    <glyph glyph-name="uni095D" unicode="&#x95d;" horiz-adv-x="594" 
d="M187 151l200 148q67 0 116.5 -35.5t49.5 -71t-49.5 -76.5t-114 -66.5t-109.5 -25.5q-83 3 -158 57.5t-103 128.5q0 66 42 102q31 18 150 77.5t158 89.5l4 10q-24 34 -100 80h-257l-16 15q12 26 31 39h695l12 -13q-7 -28 -26 -41h-319q51 -28 81 -58q16 -44 -28 -95
q-32 -28 -108 -68t-129.5 -72.5t-53.5 -56.5q0 -33 32 -68zM432 184q-15 23 -50 34q-26 -15 -153 -103q25 -17 52 -27q55 10 95.5 36t55.5 60zM178 -41q19 19 46.5 19t46.5 -19t19 -45.5t-19 -45.5t-46.5 -19t-46.5 19t-19 45.5t19 45.5z" />
    <glyph glyph-name="uni095E" unicode="&#x95e;" horiz-adv-x="837" 
d="M794 264q-16 -24 -52 -54.5t-59.5 -47t-72.5 -48.5l-40 46q75 55 108.5 100.5t33.5 104t-62 72.5q-59 -48 -156 -130l-29 -296q-31 -16 -79 -7.5t-83 37.5l55 237l26 48l-8 7q-104 -98 -203 -181q-52 1 -95.5 22.5t-52.5 57.5q43 180 96 337h-115l-16 15q12 26 30 39h416
l7 30q107 8 142 -30h382l12 -13q-7 -28 -27 -41h-377l-68 -138l-31 -55l9 -9q55 51 163 155q85 10 137.5 -28t52.5 -103.5t-44 -126.5zM389 415l35 154h-143l-68 -116q-37 -124 -53 -204l10 -5q119 79 219 171zM66 84q19 19 46 19t46 -19t19 -46t-19 -46t-46 -19t-46 19
t-19 46t19 46z" />
    <glyph glyph-name="uni0960" unicode="&#x960;" horiz-adv-x="914" 
d="M110.5 481.5q37.5 22.5 73 22.5t95.5 -49.5t122 -125.5l10 10l-16 26l47 204h-436l-16 15q12 26 30 39h434l7 30q107 8 142 -30h454l12 -13q-7 -28 -27 -41h-448l-69 -138l-9 -92q38 24 82 60q-27 25 -27 44q36 34 75 52.5t68 11.5q32 -33 10 -87q38 -11 86 -9
q32 -11 42.5 -41.5t-4.5 -64.5q-90 -14 -166 -68q5 -11 10 -15q48 4 77 20q24 -9 33.5 -33t-4.5 -51q-73 -22 -128 -72q9 -18 25 -28q75 11 135 71q22 -1 33 -18.5t7 -46.5q-71 -60 -178 -64q-46 7 -74 33.5t-33 65.5q21 31 55 51.5t66 27.5l-6 8q-45 -9 -73.5 11t-27.5 60
q61 63 167 87l-1 9l-100 16q-133 -81 -156 -94l-26 -264q-30 -16 -78 -7.5t-83 37.5l28 119l37 51l-11 10q-45 -48 -132 -112t-168 -109q-43 15 -61 44t-2 56q198 62 346 190q-61 61 -146 111l-49 -66q-115 24 -113 91q22 33 59.5 55.5z" />
    <glyph glyph-name="uni0961" unicode="&#x961;" horiz-adv-x="774" 
d="M880 623l12 -13q-7 -28 -27 -41h-137q5 -66 -53 -148q32 -29 41 -62q-19 -64 -60.5 -107.5t-114.5 -88.5l4 -9q41 8 68 19q24 -5 35.5 -25.5t1.5 -44.5q-77 -30 -132 -79l7 -10q81 16 153 72q22 -1 33.5 -18.5t9.5 -45.5q-29 -28 -89.5 -51.5t-111.5 -25.5
q-93 12 -100 77q38 54 113 76l-2 6q-52 -13 -79.5 8t-22.5 58q152 82 178 169q-13 21 -29 22q-29 -37 -88 -88.5t-114 -88.5q-59 -1 -97.5 29.5t-31.5 60.5q22 23 43 53q-5 24 -20.5 44t-36.5 22q-34 -10 -64 -50.5t-35 -79.5q15 -54 45 -93t92 -71q16 -26 -6 -57.5
t-78 -41.5q-71 41 -124 115t-53 138q1 51 56 115t129 101q57 7 104 -1q39 -19 58 -46t29 -73q-33 -50 -41 -67l13 -10q105 79 195 189q30 3 61 -7q42 61 34 115h-640l-15 15q13 27 30 39h857z" />
    <glyph glyph-name="uni0962" unicode="&#x962;" 
d="M-55.5 -266.5q-30.5 -16.5 -58 -16.5t-58 22.5t-30.5 40t18.5 34.5t41.5 30q61 35 68 62q2 15 -16 19q-33 -39 -88 -75q-32 -2 -56.5 16t-23.5 37q13 11 19 22q-9 16 -25 17q-14 -9 -27.5 -27.5t-16.5 -35.5q10 -28 25 -46.5t46 -34.5q9 -15 -5.5 -33.5t-47.5 -22.5
q-39 22 -67.5 60t-28.5 68t30 64t71 54q44 3 67 -3q34 -16 44 -46q-3 -7 -17 -31l7 -5q39 30 76 81q41 1 69.5 -22t33.5 -58q-17 -37 -55 -68q-14 -10 -38 -27.5t-35 -26.5q4 -12 18 -19q28 12 51 45q50 6 54 -40q-15 -18 -45.5 -34.5z" />
    <glyph glyph-name="uni0963" unicode="&#x963;" 
d="M-356 -199q-30 39 -30 68.5t30.5 63.5t70.5 55q36 4 63 -2q36 -16 48 -48q-7 -16 -17 -30l5 -4q41 33 78 80q35 1 62.5 -16.5t36.5 -44.5q-24 -54 -97 -89l2 -5q24 2 48 12q30 -12 17 -45q-27 -10 -75 -45l3 -6q48 7 87 44q29 0 23 -35q-16 -15 -49 -28.5t-61 -15.5
q-48 11 -55 44q19 27 73 48l-1 3q-31 -11 -51.5 -1.5t-20.5 31.5q75 40 91 75q-7 14 -14 15q-34 -39 -88 -75q-32 -3 -57.5 16t-23.5 38q16 8 19 22q-9 15 -25 16q-34 -21 -44 -63q10 -28 24.5 -46t46.5 -35q10 -16 -5 -34t-48 -22q-36 20 -66 59z" />
    <glyph glyph-name="uni0964" unicode="&#x964;" horiz-adv-x="414" 
d="M256 464l15 247q100 47 139 6l-69 -289q-30 -241 -44 -416q-36 -16 -77 -9.5t-62 30.5q64 243 98 431z" />
    <glyph glyph-name="uni0965" unicode="&#x965;" horiz-adv-x="658" 
d="M256 464l15 247q100 47 139 6l-69 -289q-30 -241 -44 -416q-36 -16 -77 -9.5t-62 30.5q64 243 98 431zM499 464l16 247q100 47 139 6l-70 -289q-31 -263 -43 -416q-36 -16 -77 -9.5t-63 30.5q64 243 98 431z" />
    <glyph glyph-name="uni0966" unicode="&#x966;" horiz-adv-x="508" 
d="M321 517q-23 -2 -39 -11q-94 -75 -132 -206q6 -91 68 -147q130 42 161 162q7 46 -9.5 102t-48.5 100zM92 147q-56 76 -56 138.5t60 151.5t119 127q94 45 160 34q59 -64 85 -135t28 -164q-14 -84 -104 -156t-179 -72q-57 0 -113 76z" />
    <glyph glyph-name="uni0967" unicode="&#x967;" horiz-adv-x="499" 
d="M311.5 212.5q-48.5 -85.5 -48.5 -105t17 -19.5q20 0 61 22.5t74 49.5q28 0 35 -18q2 -7 4 -20q-62 -71 -189 -122q-136 19 -138 100q0 26 83 153q36 56 54 93l46 35l-9 13q-49 -27 -102 -45q-131 50 -136 133q25 65 100 123.5t149 58.5q59 -1 101.5 -51.5t43.5 -108.5
q0 -28 -48.5 -117t-97 -174.5zM307 579q-28 0 -67.5 -32.5t-55.5 -67.5q8 -39 43 -58q40 10 94 34q28 53 7 103q-8 21 -21 21z" />
    <glyph glyph-name="uni0968" unicode="&#x968;" horiz-adv-x="502" 
d="M322 663q73 0 133 -69.5t58.5 -133t-88.5 -136t-201 -113.5q52 -133 142 -201q3 -35 -25.5 -57.5t-75.5 -22.5q-88 116 -121 260q-24 -5 -53 -7q-70 56 -57 120q25 29 68 39.5t87 -10.5q6 -30 10 -44q161 60 202 165q-9 80 -86 117q-73 -17 -126 -76q-52 10 -71 35t-6 55
q45 37 102 58t108 21z" />
    <glyph glyph-name="uni0969" unicode="&#x969;" horiz-adv-x="526" 
d="M297 298l-74 -35q-41 28 -51.5 71.5t13.5 65.5q84 -10 90 -10q66 37 95 68.5t39 79.5q-16 23 -37 35q-83 -14 -162 -66q-42 15 -59 41t-3 56q113 57 243 57q99 -31 136 -125q-29 -117 -182 -178l5 -9q137 -29 135 -115q0 -75 -89 -137.5t-180 -72.5l-73 92l-10 -10
q13 -38 47.5 -113t48.5 -125q-10 -53 -112 -42q-43 201 -105 347q64 76 125 57q70 -102 89 -124q59 18 101.5 53t47.5 66q0 53 -78 73z" />
    <glyph glyph-name="uni096A" unicode="&#x96a;" horiz-adv-x="546" 
d="M226 111q57 -6 85 9q10 80 -10 143q-41 -7 -92 -32q-9 -66 17 -120zM463 593q67 42 114 47q-37 -35 -118 -142q-24 -120 -67 -240q8 -113 -57 -188q-84 -36 -181 19q-22 44 -20.5 106t29.5 120q-2 28 -8.5 98.5t-8.5 105.5q-20 54 -54 78q67 23 164 -49q102 45 207 45z
" />
    <glyph glyph-name="uni096B" unicode="&#x96b;" horiz-adv-x="491" 
d="M375 304l-148 -221q-207 34 -207 192q0 69 58.5 146.5t144 138t174.5 93.5q51 -6 44 -49q-113 -64 -204 -156t-91 -167q0 -59 58 -95q66 83 148 221q63 8 101.5 -10t42.5 -57q-27 -99 -79.5 -241.5t-99.5 -240.5q-75 -2 -77 48q101 214 146 393z" />
    <glyph glyph-name="uni096C" unicode="&#x96c;" horiz-adv-x="526" 
d="M280 400q36 3 82 15q23 -23 8.5 -65t-58.5 -68q-30 12 -72 30q-78 -27 -87 -94q0 -33 26 -65.5t70 -47.5q67 65 106 130q62 25 121 -47q-70 -157 -120 -362q-95 -17 -108 34q17 46 53 123.5t52 125.5l-11 9l-85 -94q-104 13 -162.5 65t-58.5 110.5t41.5 101t122.5 62.5
l8 9q-62 29 -94 66t-33 93q51 96 167 130q131 0 228 -57q7 -30 -16.5 -56t-68.5 -41q-69 55 -145 70q-26 -13 -46 -35q2 -54 16 -80t64 -62z" />
    <glyph glyph-name="uni096D" unicode="&#x96d;" horiz-adv-x="652" 
d="M530 276l-9 18q-52 -27 -111 -51q-50 19 -80.5 48t-39.5 61q-17 63 12 118q71 77 185 83q152 -43 162 -197q-15 -62 -56.5 -127t-99 -118t-131.5 -86.5t-146 -31.5q-72 43 -114.5 121.5t-50.5 165t8.5 173.5t55.5 155q40 22 80.5 12t44.5 -51q-55 -87 -72 -235
q-9 -71 10 -145t67 -127q76 22 132.5 67.5t103.5 117.5zM448 475l-24 -7q-22 -18 -30 -46.5t3.5 -58.5t41.5 -48q73 22 98 31q-5 51 -25 79.5t-64 49.5z" />
    <glyph glyph-name="uni096E" unicode="&#x96e;" horiz-adv-x="562" 
d="M402 80q-84 -73 -152 -73t-144.5 74t-83.5 153q51 103 171.5 219.5t234.5 187.5q41 4 50 -42q-210 -178 -325 -368q14 -96 118 -141q111 47 213 176q28 -2 38.5 -11t9.5 -31q-46 -71 -130 -144z" />
    <glyph glyph-name="uni096F" unicode="&#x96f;" horiz-adv-x="402" 
d="M142.5 583q82.5 63 162.5 63t108 -76t-19 -176l-147 -75q67 -99 79 -123.5t5 -54t-30 -56.5q-52 -45 -126.5 -90.5t-134.5 -67.5q-25 6 -33.5 24.5t0.5 35.5q155 74 223 153l4 17q-21 53 -98 161t-76 138q0 64 82.5 127zM217 364l94 59q17 36 14 77.5t-31 57.5
q-38 -6 -71.5 -34t-50.5 -74q13 -37 45 -86z" />
    <glyph glyph-name="uni0970" unicode="&#x970;" horiz-adv-x="362" 
d="M202 376q-56 -40 -61 -99q1 -35 28 -67q56 31 69 85q-5 40 -36 81zM213 411q35 0 73 -38t39 -71q2 -42 -53.5 -84.5t-112.5 -42.5q-36 0 -72 30.5t-37 64.5q0 49 50.5 95t112.5 46z" />
    <glyph glyph-name="uni0972" unicode="&#x972;" horiz-adv-x="804" 
d="M764 682q-51 0 -110.5 59.5t-77.5 133.5q50 79 120 48q8 -126 76 -182q86 16 128 115q29 11 55.5 -2.5t38.5 -45.5q-34 -52 -98 -89t-132 -37zM311 292q-11 7 -58 15q-27 -5 -57 -9q-32 21 -40 57t11 57q25 2 67 8q116 47 139 136l-4 7q-86 6 -165 -64q-41 13 -60.5 40.5
t-5.5 52.5q110 75 240 68q85 -22 112 -108q-34 -131 -211 -179l2 -6q74 -6 124 -32q164 84 225 118l27 116h-102l-16 15q12 26 30 39h100l7 30q107 8 142 -30h128l12 -13q-7 -28 -26 -41h-123l-70 -138l-41 -420q-30 -16 -78 -7.5t-83 37.5l67 296l35 42l-5 8
q-118 -59 -179 -88q28 -30 28 -61q0 -55 -59 -107.5t-135.5 -82t-136.5 -28.5q-60 5 -110 39t-50 66q0 17 14 32t48 32t64.5 29t91.5 35t101 39zM178 95q48 6 111.5 45t75.5 84q-3 14 -11 25q-191 -97 -224 -119q1 -11 17 -22t31 -13z" />
    <glyph glyph-name="uni200B" unicode="&#x200b;" 
 />
    <glyph glyph-name="uni200C" unicode="&#x200c;" 
d="M24 -230h-47v1041h47v-1041z" />
    <glyph glyph-name="uni200D" unicode="&#x200d;" 
d="M24 -230h-47v865l-69 -73l-33 33l93 93l-95 95l33 33l95 -95l96 95l32 -32l-96 -96l96 -95l-33 -33l-72 75v-865z" />
    <glyph glyph-name="endash" unicode="&#x2013;" horiz-adv-x="655" 
d="M606 382q13 -7 9 -33t-25 -51l-519 -9q-11 12 -7.5 34.5t20.5 45.5l261 -5z" />
    <glyph glyph-name="emdash" unicode="&#x2014;" horiz-adv-x="987" 
d="M938 382q13 -7 9 -33t-25 -51l-851 -9q-11 12 -7.5 34.5t20.5 45.5l448 -5z" />
    <glyph glyph-name="quoteleft" unicode="&#x2018;" horiz-adv-x="342" 
d="M265 937q41 8 60 -18l-44 -104l46 -131q-24 -32 -56 -43t-58.5 -2.5t-41.5 28.5q-22 131 94 270z" />
    <glyph glyph-name="quoteright" unicode="&#x2019;" horiz-adv-x="341" 
d="M212 632q-42 0 -54 29l64 97l-22 152q25 20 52 25t48 -3q44 -19 59 -60q-5 -63 -44.5 -126.5t-102.5 -113.5z" />
    <glyph glyph-name="quotesinglbase" unicode="&#x201a;" horiz-adv-x="436" 
d="M181 52q-16 -61 -65 -118t-118 -96q-41 8 -50 37l79 85l2 155q40 22 72 15t53 -28.5t27 -49.5z" />
    <glyph glyph-name="quotedblleft" unicode="&#x201c;" horiz-adv-x="574" 
d="M265 937q41 8 60 -18l-44 -104l46 -131q-24 -32 -56 -43t-58.5 -2.5t-41.5 28.5q-22 131 94 270zM498 937q41 8 60 -18l-44 -104l46 -131q-24 -32 -56 -43t-58.5 -2.5t-41.5 28.5q-22 131 94 270z" />
    <glyph glyph-name="quotedblright" unicode="&#x201d;" horiz-adv-x="574" 
d="M445 632q-42 0 -54 29l64 97l-22 152q25 20 52 25t48 -3q44 -19 59 -60q-5 -63 -44.5 -126.5t-102.5 -113.5zM212 632q-42 0 -54 29l64 97l-22 152q25 20 52 25t48 -3q44 -19 59 -60q-5 -63 -44.5 -126.5t-102.5 -113.5z" />
    <glyph glyph-name="quotedblbase" unicode="&#x201e;" horiz-adv-x="523" 
d="M290 -40l2 155q40 22 72 15t53 -28.5t27 -49.5q-16 -61 -65 -118t-118 -96q-41 8 -50 37zM24 -40l2 155q40 22 72 15t53 -28.5t27 -49.5q-16 -61 -65 -118t-118 -96q-41 8 -50 37z" />
    <glyph glyph-name="dagger" unicode="&#x2020;" horiz-adv-x="482" 
d="M348 592l144 19q33 -32 -13 -92l-149 8l-172 -843q-27 -15 -60 6l129 830v1l-133 -10q-32 38 10 91l128 -17l16 212q104 50 172 13z" />
    <glyph glyph-name="daggerdbl" unicode="&#x2021;" horiz-adv-x="493" 
d="M341 539l-64 -276l-32 -282l136 11q30 -41 -11 -92l-131 18l-14 -216q-100 -50 -164 -13l68 221l-147 -19q-33 31 12 92l151 -8l63 282l32 276l-135 -11q-32 40 10 92l131 -18l13 216q101 50 165 13l-67 -221l147 19q32 -32 -13 -92z" />
    <glyph glyph-name="bullet" unicode="&#x2022;" horiz-adv-x="440" 
d="M296 267.5q-59 -35.5 -107.5 -35.5t-79 29.5t-36.5 76.5q12 68 64.5 126.5t114.5 65.5q44 0 89 -54.5t54 -115.5q-40 -57 -99 -92.5z" />
    <glyph glyph-name="ellipsis" unicode="&#x2026;" horiz-adv-x="747" 
d="M612 20q-32 -20 -59.5 -20t-44.5 16.5t-19 42.5q6 39 35 71.5t64 36.5q24 0 49 -30.5t30 -64.5q-23 -32 -55 -52zM371 20q-32 -20 -59.5 -20t-44.5 16.5t-19 42.5q6 39 35 71.5t64 36.5q24 0 49 -30.5t30 -64.5q-23 -32 -55 -52zM130 20q-32 -20 -59.5 -20t-44.5 16.5
t-19 42.5q6 39 35 71.5t64 36.5q24 0 49 -30.5t30 -64.5q-23 -32 -55 -52z" />
    <glyph glyph-name="perthousand" unicode="&#x2030;" horiz-adv-x="1145" 
d="M400 389l206 460q42 6 64.5 -1t35.5 -30l-505 -903q-75 -7 -89 38zM964 355q-39 -46 -59 -150q-14 -71 -12 -121q11 -25 43 -39q39 45 56 138t12 143q-12 24 -40 29zM919 -9q-57 0 -95.5 57t-23 153.5t59.5 155.5t108.5 58.5t105 -61t26 -154.5t-62.5 -151.5t-118 -57.5z
M623 355q-39 -48 -56 -135.5t-14 -135.5q11 -26 43 -39q37 43 55 139t13 142q-14 24 -41 29zM578 -9q-57 0 -95.5 57.5t-22.5 154t59.5 155t108.5 58t105.5 -61t26 -154.5t-63 -151.5t-118.5 -57.5zM282 656q-12 24 -41 29q-39 -50 -58 -151q-14 -69 -12 -120q11 -27 43 -39
q38 43 60 157q13 74 8 124zM197 320q-57 0 -95.5 57.5t-23 154t59.5 155.5t108.5 58.5t105 -61t26 -155t-62.5 -152t-118 -57.5z" />
    <glyph glyph-name="guilsinglleft" unicode="&#x2039;" horiz-adv-x="363" 
d="M286 242q10 -40 -7.5 -75t-47.5 -35l-172 216q0 27 12 53l129 97l108 85q31 -12 35.5 -43t-22.5 -73l-177 -113l60 -53z" />
    <glyph glyph-name="guilsinglright" unicode="&#x203a;" horiz-adv-x="364" 
d="M108 473q-10 40 8 75t47 35l172 -216q0 -27 -12 -54l-129 -95l-108 -86q-31 12 -35 42.5t22 73.5l177 114l-61 52z" />
    <glyph glyph-name="fraction" unicode="&#x2044;" horiz-adv-x="521" 
d="M277 389l206 460q42 6 64.5 -1t35.5 -30l-505 -903q-75 -7 -89 38z" />
    <glyph glyph-name="uni20A8" unicode="&#x20a8;" horiz-adv-x="1117" 
d="M822.5 461q-36.5 -29 -36.5 -48.5t39.5 -43.5t89 -46.5t96 -60.5t57.5 -79q-21 -83 -92.5 -131t-176.5 -52q-66 12 -116 48.5t-68 83.5q21 43 49.5 61.5t71.5 5.5q8 -48 23.5 -78t46.5 -61q56 12 92 42.5t36 61.5q0 26 -124 84q-48 22 -93.5 58.5t-57.5 76.5
q26 79 98.5 129t163.5 56q117 -28 153 -127q-3 -31 -34 -45t-86 -5q-10 67 -51 113q-44 -14 -80.5 -43zM119 721q89 28 217.5 28t210 -59t80 -138.5t-42.5 -130t-138 -100.5q-53 -8 -112 -11q35 -75 88.5 -115t155.5 -67q20 -38 -5.5 -74.5t-79.5 -53.5q-93 49 -148.5 129.5
t-70.5 178.5h-17q-11 -134 -30 -293q-30 -20 -88.5 -12.5t-79.5 35.5q60 197 105 457l9 156l-48 2q-16 16 -17.5 37t11.5 31zM468 463q18 34 18 82.5t-42 84t-124 35.5l-54 -231q-1 -11 -2.5 -33t-2.5 -33q73 4 149 28q40 33 58 67z" />
    <glyph glyph-name="Euro" unicode="&#x20ac;" horiz-adv-x="721" 
d="M138 299q-1 8 -1 29t5 53l-87 -5q-13 12 -10.5 32t19.5 39l92 -7q18 55 56 129q136 144 308 185q71 -21 110.5 -58.5t63.5 -100.5q-16 -34 -57 -47.5t-88 4.5q-10 42 -20 66t-34 53l-18 -4q-126 -85 -174 -218l215 30q18 -9 16.5 -30.5t-20.5 -46.5l-227 -13
q-5 -32 -5 -52.5t1 -28.5l221 30q18 -8 16.5 -29.5t-20.5 -46.5l-208 -13q28 -98 142 -149q105 38 192 116q31 4 46.5 -13.5t13.5 -46.5q-38 -44 -108.5 -86.5t-147.5 -69.5q-241 49 -284 240l-107 -6q-14 13 -11.5 33.5t20.5 39.5z" />
    <glyph glyph-name="uni20B9" unicode="&#x20b9;" horiz-adv-x="605" 
d="M262 698q33 33 80.5 33t81.5 -32l219 14q10 -7 6.5 -26t-19.5 -43l-164 -3q22 -46 24 -97l124 8q22 -17 -12 -70l-120 -2q-24 -80 -101 -132t-177 -52l35 -96l173 -84q12 -47 -19 -81.5t-92 -34.5q-79 67 -137.5 146t-80.5 155q11 33 25.5 48.5t42.5 23.5q60 -15 134 10
q46 37 62 95l-269 -4q-16 22 8 66l256 -5l11 1q-2 65 -37 103l-210 -4q-17 22 9 66z" />
    <glyph glyph-name="uni20BA" unicode="&#x20ba;" horiz-adv-x="527" 
d="M508 588.5q0 -25.5 -16 -53.5l-170 -37l-20 -74l178 49q14 -4 14 -30t-17 -54l-197 -43l-71 -261l100 17q68 35 144 128q49 4 71.5 -32.5t5.5 -80.5q-121 -81 -328 -117q-107 23 -129 104q44 105 79 213l-106 -23q-12 10 -12.5 32.5t12.5 48.5l131 21q14 50 20 74
l-137 -30q-12 10 -12.5 32.5t12.5 48.5l150 24l3 165q110 60 176 20l-44 -152l149 41q14 -5 14 -30.5z" />
    <glyph glyph-name="uni20BD" unicode="&#x20bd;" horiz-adv-x="623" 
d="M119 721q89 28 217.5 28t210 -59t80 -140t-45.5 -133t-144 -96q-69 -14 -181 -21q-4 -56 -7 -85l179 22q14 -6 13.5 -29t-20.5 -48l-179 -10q-5 -56 -15 -135q-30 -20 -88.5 -12.5t-79.5 35.5q18 60 30 104l-100 -6q-27 29 3 74h115q3 15 10 43.5t9 39.5q-35 -1 -94 -1
q-15 14 -15.5 32t9.5 28q76 2 113 4q11 55 25 139l9 156l-48 2q-16 16 -17.5 37t11.5 31zM468 463q18 34 18 82.5t-42 84t-124 35.5l-54 -231q-1 -11 -2.5 -33.5t-2.5 -34.5q91 12 149 30q40 33 58 67z" />
    <glyph glyph-name="uni2113" unicode="&#x2113;" horiz-adv-x="458" 
d="M253 121l12 -8q42 20 113 70q32 0 30 -38q-9 -10 -19.5 -20t-18.5 -18t-21.5 -18.5t-20 -16t-23 -18t-22.5 -16.5t-26 -19t-26 -19q-63 13 -89 33.5t-34 54.5q36 137 68 267q-51 -19 -108 -33q-40 27 -13 61l133 24q40 174 63 292q60 99 157 122q46 -20 67 -63t26 -121
q-57 -137 -200 -223q-9 -52 -48 -293zM422 630q-7 63 -46 99q-30 -86 -62 -245q78 67 108 146z" />
    <glyph glyph-name="trademark" unicode="&#x2122;" horiz-adv-x="837" 
d="M769 739q30 9 63 9t48 -12l-45 -174q-15 -116 -27 -236q-22 -12 -60.5 -6.5t-46.5 22.5q43 154 57 252l-95 -163q-42 -17 -77 14q-30 66 -48 149q-7 -47 -31 -268q-21 -12 -60.5 -6.5t-48.5 22.5q43 142 62 281l7 109q27 16 58 16t52 -14q12 -110 42 -201l19 -32l69 104z
M412 667l-102 10l-36 -144q-2 -34 -8.5 -103t-9.5 -104q-23 -12 -62.5 -6.5t-48.5 22.5q42 134 62 260l3 74l-109 -12q-27 33 -8 67q167 12 327 5q9 -8 7.5 -29t-15.5 -40z" />
    <glyph glyph-name="Omega" unicode="&#x2126;" horiz-adv-x="914" 
d="M565 721q55 0 116 -50t98.5 -128t25 -151t-60 -151t-108.5 -139q92 6 174 41q59 -22 9 -118q-129 -43 -282 -23q-46 52 -34 93q82 80 125.5 146.5t66.5 144.5q-6 96 -40 157t-114 100q-112 -41 -187.5 -122.5t-90.5 -170.5q-6 -18 -2.5 -41.5t5 -39t11.5 -36t16 -33.5
t19 -31t20.5 -28t20 -25.5t18.5 -23.5q1 -26 -12 -50.5t-30 -35.5q-183 -34 -310 6q-13 43 -2 75t43 45q96 -37 171 -37q-47 58 -77.5 131.5t-21.5 125.5q18 89 86.5 175t163 140t183.5 54z" />
    <glyph glyph-name="estimated" unicode="&#x212e;" horiz-adv-x="630" 
d="M168 335h304v148q-52 60 -151 60t-153 -70v-138zM583 121q-113 -121 -247.5 -121t-215.5 76.5t-81 212.5t75.5 225t207 89t208.5 -81.5t77 -194.5v-53h-439v-144q64 -69 162 -69q61 0 111 26t102 78z" />
    <glyph glyph-name="partialdiff" unicode="&#x2202;" horiz-adv-x="554" 
d="M431.5 678q91.5 -109 91.5 -253t-64 -258t-199 -167q-105 13 -165 81t-59 164t81 185t202 112q50 -33 91 -102q-3 126 -55 227l-209 109q-6 48 35 60q159 -49 250.5 -158zM173 238q0 -109 82 -161q124 104 149 272q-43 76 -98 109q-66 -38 -99.5 -96t-33.5 -124z" />
    <glyph glyph-name="Delta" unicode="&#x2206;" horiz-adv-x="717" 
d="M496 702l159 -610q-16 -70 -68 -90l-528 -2q-34 18 -47 45.5t-4 52.5l332 619q84 29 156 -15zM107 95l120 -12l285 23l-121 537z" />
    <glyph glyph-name="product" unicode="&#x220f;" horiz-adv-x="652" 
d="M579 515q-22 -253 14 -525q-34 -41 -153 -26q-4 201 16 397.5t51 300.5l-189 13q-23 -133 -77.5 -351t-105.5 -361q-100 -11 -148 45q128 255 185 473l21 191l-67 -12q-18 39 -13.5 67t28.5 40l419 -28l133 23q33 -46 -13 -107l-54 2z" />
    <glyph glyph-name="summation" unicode="&#x2211;" horiz-adv-x="825" 
d="M287 131l-83 -76q175 -16 386 1q41 63 42 121q50 6 81 -3t52 -51q-8 -83 -126 -163q-265 -17 -478 1q-54 27 -71.5 64.5t8.5 81.5l205 143l112 115l-290 236q-1 50 25.5 91t59.5 49q278 18 490 9q38 -16 58 -35t31 -52q2 -42 -11.5 -83.5t-37.5 -67.5q-41 -7 -73 6
t-45 38q41 63 48 109q-203 17 -430 -1l256 -230q36 -65 -25 -145z" />
    <glyph glyph-name="minus" unicode="&#x2212;" horiz-adv-x="655" 
d="M606 382q13 -7 9 -33t-25 -51l-519 -9q-11 12 -7.5 34.5t20.5 45.5l261 -5z" />
    <glyph glyph-name="uni2215" unicode="&#x2215;" horiz-adv-x="380" 
d="M239 443l137 440q78 21 102 -29l-407 -943q-44 -7 -64.5 4t-27.5 37z" />
    <glyph glyph-name="uni2219" unicode="&#x2219;" horiz-adv-x="600" 
d="M340 216q-32 -20 -59.5 -20t-44.5 16.5t-19 42.5q6 39 35 71.5t64 36.5q24 0 49 -30.5t30 -64.5q-23 -32 -55 -52z" />
    <glyph glyph-name="radical" unicode="&#x221a;" horiz-adv-x="558" 
d="M434 521l82 417q58 13 78.5 9t37.5 -27l-376 -1138q-32 -18 -70.5 -13.5t-57.5 32.5q-40 103 -106 317q16 43 60 22q60 -164 106 -283z" />
    <glyph glyph-name="infinity" unicode="&#x221e;" horiz-adv-x="846" 
d="M698 509q56 0 108 -66.5t52 -135.5q0 -90 -76 -169t-199 -116q-102 52 -154 143q-147 -143 -241 -143q-72 0 -131 62t-57 135q1 90 89.5 175.5t199.5 110.5q112 -58 160 -189q81 84 125.5 124.5t72 54.5t51.5 14zM115 217q0 -75 68 -114q81 24 219 164q-54 107 -130 154
q-73 -40 -115 -94t-42 -110zM748 299q5 76 -56 121q-46 -33 -84.5 -71.5t-79.5 -81.5t-53 -55q50 -75 117 -101q59 25 106 80t50 108z" />
    <glyph glyph-name="integral" unicode="&#x222b;" horiz-adv-x="488" 
d="M364 816q-30 -534 -118 -905q-15 -17 -50.5 -29.5t-68.5 -9.5q-95 73 -116 155q12 25 33 39.5t48 -0.5q17 -75 58 -125l16 8q62 181 113 629l3 256q18 20 31 32q36 32 98 41q49 -9 85.5 -56.5t38.5 -101.5q-21 -17 -49 -21.5t-45 7.5q-1 42 -11 64.5t-34 39.5
q-9 1 -19 -6.5t-13 -16.5z" />
    <glyph glyph-name="approxequal" unicode="&#x2248;" horiz-adv-x="636" 
d="M121.5 297.5q48.5 25.5 88.5 25.5t133 -39t109 -43h5l72 82q71 9 76 -46q-18 -31 -66.5 -65t-90 -34t-130 41t-100 41t-25 -8.5t-23 -17.5t-27 -27t-23.5 -24q-73 11 -69 60q22 29 70.5 54.5zM144.5 469.5q48.5 25.5 88.5 25.5t134.5 -40t107.5 -43h5l72 83q71 8 76 -46
q-19 -31 -67 -65.5t-90 -34.5t-130 41.5t-99.5 41.5t-25 -8.5t-23 -17.5t-27 -27t-23.5 -24q-32 4 -51.5 19t-17.5 41q22 29 70.5 54.5z" />
    <glyph glyph-name="notequal" unicode="&#x2260;" horiz-adv-x="661" 
d="M610 401l-195 -3l-66 -118l244 17q13 -7 9 -33t-25 -51l-268 -5l-115 -206q-68 -8 -83 38l109 167l-162 -3q-11 12 -7.5 34.5t19.5 45.5l199 -4l67 103l6 13l-251 -4q-11 12 -7.5 35t19.5 45l262 -5l9 1l93 205q33 6 51.5 -1t33.5 -29l-95 -170l168 12q13 -7 9 -33
t-24 -51z" />
    <glyph glyph-name="lessequal" unicode="&#x2264;" horiz-adv-x="609" 
d="M520 153q11 -13 2.5 -36t-35.5 -41l-425 125q-6 21 2.5 41.5t30.5 32.5l216 -79zM485 485l-310 -78l379 -88q7 -20 -2.5 -42t-32.5 -38l-219 67l-208 48q-15 22 -10 52t24 43l463 152q20 -11 25.5 -33.5t-8.5 -52.5z" />
    <glyph glyph-name="greaterequal" unicode="&#x2265;" horiz-adv-x="631" 
d="M562 201l-465 -125q-22 18 -23 41t14 36l223 43l241 79q19 -12 21 -33t-11 -41zM85 319l409 88l-265 87l-127 27q-7 30 6 51t37 30l432 -153q14 -12 9.5 -43t-26.5 -52l-224 -48l-241 -67q-18 16 -20.5 38t10.5 42z" />
    <glyph glyph-name="lozenge" unicode="&#x25ca;" horiz-adv-x="580" 
d="M206 331l73 -183l134 179l-73 197zM496 316l-202 -273q-36 -4 -67 22l-106 278l204 286q36 6 68 -22z" />
    <glyph glyph-name="uni25CC" unicode="&#x25cc;" horiz-adv-x="660" 
d="M257 560q0 20 12.5 32t31.5 12t31.5 -12t12.5 -32t-12.5 -32t-31.5 -12t-31.5 12t-12.5 32zM396 514q-13 13 -13 31.5t12.5 31.5t32 13t31.5 -12.5t12 -31.5t-12.5 -32t-31 -13t-31.5 13zM478 477q0 19 12.5 32t31.5 13t31.5 -12.5t12.5 -32t-12.5 -32t-31.5 -12.5
t-31.5 12.5t-12.5 31.5zM528 359q0 19 12 31.5t31.5 12.5t32 -12.5t12.5 -31.5t-12.5 -31.5t-32 -12.5t-31.5 12.5t-12 31.5zM518 225q0 19 13 32t31.5 13t31 -13t12.5 -32t-12.5 -31.5t-31 -12.5t-31.5 12.5t-13 31.5zM445 127q0 19 12.5 31.5t31.5 12.5t32 -12.5t13 -31.5
t-13 -31.5t-32 -12.5t-31.5 12.5t-12.5 31.5zM324 74q0 20 12 32t32 12t32.5 -12.5t12.5 -31.5t-12.5 -31.5t-32.5 -12.5t-32 12t-12 32zM210 57q-13 13 -13 32t13 32t32 13t31.5 -13t12.5 -32t-12.5 -32t-31.5 -13t-32 13zM96 165q0 19 12.5 31.5t31.5 12.5t31.5 -12.5
t12.5 -31.5t-12.5 -31.5t-32 -12.5t-31.5 12.5t-12 31.5zM44 281q0 19 12.5 32t31.5 13t31.5 -12.5t12.5 -32t-12.5 -31.5t-31.5 -12t-31.5 12t-12.5 31zM57 407q0 19 13 31.5t32 12.5t32 -12.5t13 -31.5t-13 -31.5t-32 -12.5t-32 12.5t-13 31.5zM151.5 484.5
q-12.5 12.5 -12.5 32t12.5 32t31.5 12.5t31.5 -12.5t12.5 -32t-12.5 -32t-31.5 -12.5t-31.5 12.5z" />
    <glyph glyph-name="uF01B5" unicode="&#xf01b5;" horiz-adv-x="742" 
d="M222 -127l104 239l-8 6l-70 -94q-116 13 -192 69q-39 60 -38.5 117t38.5 89q106 39 186 89q-103 81 -107 157q-2 55 70 115.5t127.5 60.5t107 -59t51.5 -109q0 -72 -111 -164q21 -7 42 -7q76 0 144 57l29 130h-51l-16 15q12 26 30 39h49l7 30q107 8 142 -30h128l12 -13
q-7 -28 -26 -41h-123l-69 -138l-42 -420q-30 -16 -78 -7.5t-83 37.5l60 262l38 45l-8 11q-79 -48 -145 -48q-45 0 -103 30q-79 -56 -174 -101q-23 -23 -9 -73q47 -38 111 -53q37 34 81 114q75 12 121 -59q-38 -98 -100 -342q-43 -9 -79 5.5t-46 40.5zM237 537
q17 -64 67 -105q67 55 87 112q-4 29 -19 56t-38 39q-30 -4 -60 -36t-37 -66z" />
    <glyph glyph-name="uF01B6" unicode="&#xf01b6;" horiz-adv-x="671" 
d="M361 321q0 -46 -64 -87t-146 -47l-4 -5q66 -64 165 -90q19 -23 5 -51t-49 -41q-73 23 -144.5 73.5t-104.5 101.5q4 36 29.5 62.5t55.5 26.5q12 -17 26 -34q64 12 99.5 38t35.5 52.5t-23.5 38.5t-59.5 5q-28 28 -16.5 58.5t47.5 47.5q105 -34 172 -35q78 35 128 85l11 49
h-541l-15 15q10 26 30 39h538l7 30q107 8 142 -30h128l12 -13q-7 -28 -26 -41h-123l-69 -138l-42 -420q-30 -16 -78 -7.5t-83 37.5l82 359l43 53l-9 10q-68 -60 -129 -88q-37 -1 -76 11l-3 -7q49 -22 49 -58z" />
    <glyph glyph-name="uF01B7" unicode="&#xf01b7;" horiz-adv-x="607" 
d="M544 569l-97 -188l9 -7q22 22 63 65t59 61q76 6 118 -30t52 -90l-96 -56q2 38 -18.5 66.5t-51.5 28.5q-69 -61 -119 -109l-29 -299q-30 -16 -78 -7.5t-83 37.5l27 115l40 70l-10 9q-67 -68 -128 -140q-81 2 -131.5 40t-50.5 107q0 96 77 183.5t169 87.5q15 0 34.5 -16.5
t31 -30.5t32.5 -43l5 2l27 144h-400l-15 15q13 27 30 39h395l6 30q107 8 142 -30h214l12 -13q-7 -28 -27 -41h-209zM195 366q-37 -59 -37 -117t35 -76q71 64 148 143l9 36q-43 72 -75 83q-43 -10 -80 -69z" />
    <glyph glyph-name="uF01B8" unicode="&#xf01b8;" horiz-adv-x="603" 
d="M459 500q0 -80 -94 -149.5t-201 -79.5l-4 -8q105 -120 169 -132q63 2 190 62l-4 5q-42 2 -65.5 26.5t-23.5 60.5q0 70 61 149t138 79q39 0 68 -51t41 -122l-15 -53q-38 -77 -171 -154.5t-245 -95.5q-81 15 -156 74.5t-130 136.5q5 43 33 73t67 31l23 -26q88 14 147 59.5
t60 101.5q-2 15 -14.5 28.5t-32.5 13.5t-50.5 -14.5t-53.5 -38.5q-37 11 -56 34t-10 46q1 1 3.5 4t5 5t4.5 4h-137l-16 15q12 26 30 39h792l12 -13q-7 -28 -27 -41h-376q38 -38 38 -69zM541 287q0 -21 12.5 -35t32.5 -14t48 27.5t40 59.5l7 26q-11 76 -45 86
q-38 -8 -66.5 -58.5t-28.5 -91.5z" />
    <glyph glyph-name="uF01B9" unicode="&#xf01b9;" horiz-adv-x="367" 
d="M522 623l12 -13q-7 -28 -27 -41h-153q-22 -242 -80 -403q-18 -21 -53.5 -33t-70.5 -11q-45 8 -85.5 35t-61.5 65q0 65 37 85q105 45 182 82q6 45 6 91l-18 89h-205l-15 15q10 26 30 39h502zM163 204l10 7q20 47 35 105q-38 -20 -114 -56q25 -39 69 -56z" />
    <glyph glyph-name="uF01BA" unicode="&#xf01ba;" horiz-adv-x="401" 
d="M592 623l12 -13q-7 -28 -27 -41h-199q-147 -74 -219 -148l8 -10q54 11 121 36q39 -11 63 -38.5t20 -64.5q-111 -82 -172 -150l9 -11q79 26 154.5 82.5t125.5 119.5l52 -44q-47 -72 -160.5 -152.5t-190.5 -95.5q-51 13 -86.5 46t-35.5 70q15 27 48 52t78.5 51.5t67.5 43.5
l-6 6q-75 -26 -131 -34q-39 15 -66.5 46.5t-20.5 65.5q55 63 196 129h-227l-16 15q12 26 31 39h571z" />
    <glyph glyph-name="uF01BB" unicode="&#xf01bb;" horiz-adv-x="540" 
d="M640 623l12 -13q-7 -28 -27 -41h-238q34 -21 54 -44q8 -23 -3.5 -56.5t-36.5 -54.5q-40 -22 -85.5 -34.5t-83.5 -22t-55 -14.5l-3 -11q35 -17 125.5 -41t126.5 -40q22 -22 19 -62t-29 -80q-50 -36 -159.5 -65t-209.5 -34q-34 28 -41 61t15 52q90 1 178 18t141 52l-1 8
q-37 18 -132.5 44.5t-138.5 49.5q-16 34 -0.5 75.5t56.5 64.5q165 33 228 64l3 9q-21 25 -96 61h-253l-16 15q12 26 30 39h620zM438 390q17 17 41.5 17t41.5 -17t17 -41t-17 -41t-41.5 -17t-41.5 17t-17 41t17 41zM135 -19q75 -26 160.5 -84t140.5 -119q1 -30 -36 -50
q-151 104 -330 153q-8 91 65 100z" />
    <glyph glyph-name="uF01BC" unicode="&#xf01bc;" horiz-adv-x="440" 
d="M86 254q0 20 23 39.5t51.5 32t73.5 31t68 30.5l-4 8q-136 -21 -241 -27q-31 24 -36 64t17 53q153 -22 325 -11q28 -15 41 -49t1 -62q-133 -59 -165 -97q2 -14 20 -29t35 -16q54 11 121 60.5t114 114.5l39 -41q-60 -81 -146.5 -150.5t-163.5 -86.5q-60 5 -116.5 49.5
t-56.5 86.5zM628 569h-631l-16 15q12 26 31 39h630l12 -13q-7 -28 -26 -41z" />
    <glyph glyph-name="uF01BD" unicode="&#xf01bd;" horiz-adv-x="708" 
d="M813 623l12 -13q-7 -28 -27 -41h-414q-117 -57 -230 -170l7 -12q32 4 68 15t50 14q97 -36 79 -114q-39 -33 -83.5 -86.5t-64.5 -92.5l9 -9q132 28 258 135q-77 86 -73 173q19 31 50 56.5t65 30.5q55 -12 100.5 -49t47.5 -79q-6 -67 -83 -147.5t-180.5 -139.5t-186.5 -73
q-54 15 -90.5 46t-35.5 67q17 51 62 103t102 88l-6 8q-79 -27 -130 -36q-42 20 -68 59t-15 74q79 77 204 139h-231l-16 15q12 26 31 39h789zM498 404q-4 -55 28 -107q39 44 53 80q-9 16 -26.5 29.5t-31.5 18.5q-18 -7 -23 -21z" />
    <glyph glyph-name="uF01BE" unicode="&#xf01be;" horiz-adv-x="461" 
d="M155 490q40 1 64.5 -17.5t25.5 -50.5q-75 -59 -82 -123q-10 -82 41 -117q42 9 78 44t39 66q-4 18 -38 32q11 47 38 74t61 24q31 -37 54 -44q66 4 127 70l45 -43q-34 -42 -81 -70t-93 -29l-27 6l-5 -6l12 -29q-3 -45 -43 -88t-91.5 -66.5t-90.5 -21.5q-63 11 -108.5 74
t-43.5 138q7 46 38.5 96t79.5 81zM655 569h-652l-15 15q13 27 30 39h652l12 -13q-7 -28 -27 -41z" />
    <glyph glyph-name="uF01BF" unicode="&#xf01bf;" horiz-adv-x="517" 
d="M416 268q44 -22 44 -66t-58 -109q-94 -60 -206 -55q-32 14 -64 39l-7 -7q76 -74 149 -181q-1 -24 -32 -42t-78 -17q-30 65 -76.5 136.5t-93.5 124.5q20 48 55 76.5t72 19.5q30 -38 69 -59q49 2 91 22t65 49l-2 8q-24 17 -124.5 41.5t-143.5 51.5q-14 32 3 74t57 67
q147 26 221 57l3 7q-25 29 -94 64h-260l-16 15q12 26 30 39h661l12 -13q-7 -28 -26 -41h-272q29 -17 55 -45q7 -24 -4.5 -57.5t-35.5 -53.5q-62 -29 -220 -64l-5 -14q54 -29 147 -42q179 72 288 158l38 -50q-102 -74 -242 -133z" />
    <glyph glyph-name="uF01C0" unicode="&#xf01c0;" horiz-adv-x="415" 
d="M634 623l12 -13q-7 -28 -27 -41h-613l-16 15q12 26 30 39h614zM528 445l31 -70q-67 -51 -184 -97q-26 -72 -95.5 -126t-138.5 -53q-43 6 -80.5 48t-49.5 100q23 24 50 33t48 -2q13 -66 50 -92q39 16 71 52t38 84q5 75 -52 111q-52 -13 -97 -56q-39 17 -53 35t-9 43
q40 32 76.5 47t91.5 13t104.5 -53t54.5 -113q97 44 144 96z" />
    <glyph glyph-name="uF01C1" unicode="&#xf01c1;" horiz-adv-x="529" 
d="M13 235q0 77 98 151q159 50 237 102l3 8q-26 34 -99 73h-241l-16 15q12 26 31 39h634l12 -13q-7 -28 -27 -41h-275q37 -24 67 -58q6 -26 -5 -56t-32 -49q-63 -40 -208 -99q-54 -41 -53 -79q0 -72 97 -112q52 14 98 51t76 82q40 3 63 -19.5t24 -70.5q-52 -45 -125 -76
t-152 -32q-89 17 -148 71t-59 113zM162 9q75 -25 160 -84t141 -120q1 -30 -36 -50q-152 105 -330 153q-7 90 65 101z" />
    <glyph glyph-name="uF01C2" unicode="&#xf01c2;" horiz-adv-x="577" 
d="M77 112.5q-65 57.5 -65 130t113 153.5q116 39 161 59t66 37l3 9q-26 32 -90 68h-256l-15 15q10 26 30 39h673l12 -13q-7 -28 -27 -41h-302q37 -24 62 -55q5 -26 -6 -55.5t-34 -50.5l-11 -7q121 -48 164 -106q2 -101 -91.5 -176.5t-225.5 -79.5q-96 16 -161 73.5zM441 281
q-29 43 -112 85q-13 -7 -59 -30t-67 -35q-41 -24 -54 -40q-14 -29 -3 -66q22 -63 101 -96q80 17 135 70t59 112zM224 -19q76 -26 161 -84t140 -119q1 -31 -36 -50q-152 105 -330 153q-6 91 65 100z" />
    <glyph glyph-name="uF01C3" unicode="&#xf01c3;" horiz-adv-x="498" 
d="M640 623l12 -13q-7 -28 -27 -41h-238q34 -21 54 -44q8 -23 -3.5 -56.5t-36.5 -54.5q-40 -22 -85.5 -34.5t-83.5 -22t-55 -14.5l-3 -11q35 -17 125.5 -41t126.5 -40q22 -22 19 -62t-29 -80q-50 -36 -159.5 -65t-209.5 -34q-34 28 -41 61t15 52q90 1 178 18t141 52l-1 8
q-37 18 -132.5 44.5t-138.5 49.5q-16 34 -0.5 75.5t56.5 64.5q165 33 228 64l3 9q-21 25 -96 61h-253l-16 15q12 26 30 39h620zM130 -19q76 -26 161 -84t140 -119q1 -31 -36 -50q-152 105 -330 153q-6 91 65 100z" />
    <glyph glyph-name="uF01C4" unicode="&#xf01c4;" horiz-adv-x="594" 
d="M187 151l200 148q67 0 116.5 -35.5t49.5 -71t-49.5 -76.5t-114 -66.5t-109.5 -25.5q-83 3 -158 57.5t-103 128.5q0 66 42 102q31 18 150 77.5t158 89.5l4 10q-24 34 -100 80h-257l-16 15q12 26 31 39h695l12 -13q-7 -28 -26 -41h-319q51 -28 81 -58q16 -44 -28 -95
q-32 -28 -108 -68t-129.5 -72.5t-53.5 -56.5q0 -33 32 -68zM432 184q-15 23 -50 34q-26 -15 -153 -103q25 -17 52 -27q55 10 95.5 36t55.5 60zM206 -19q75 -26 160 -84t141 -119q1 -30 -36 -50q-152 105 -330 153q-8 91 65 100z" />
    <glyph glyph-name="uF01C5" unicode="&#xf01c5;" horiz-adv-x="458" 
d="M603 623l12 -13q-7 -28 -27 -41h-242q-7 -26 -19 -82q-6 -118 -23 -163q-10 -49 -39 -90.5t-51 -51.5q-11 10 -18 81q-11 54 -6 105q-2 42 14 95q7 50 21 106h-221l-15 15q13 27 30 39h584z" />
    <glyph glyph-name="uF01C6" unicode="&#xf01c6;" horiz-adv-x="313" 
d="M414 441l28 -53q-57 -40 -138.5 -75.5t-145.5 -52.5q-16 -17 -19 -40q21 -71 104 -160q3 -40 -59 -62q-138 106 -173 217q25 107 82 132q173 10 321 94zM520 569h-514l-16 15q12 26 30 39h515l12 -13q-7 -28 -27 -41z" />
    <glyph glyph-name="uF01C7" unicode="&#xf01c7;" horiz-adv-x="388" 
d="M610 623l12 -13q-7 -28 -26 -41h-127l-16 15q12 26 31 39h126zM371 202q-99 -73 -158 -73t-120.5 47t-61.5 98q0 23 34 49t93 60.5t90 59.5l-84 16q-67 44 -78 104q8 51 66 102.5t119 55.5q53 -6 97 -58t45 -97q-1 -43 -31.5 -88.5t-67 -76t-78 -65t-55.5 -51.5
q-3 -22 21 -42t50 -21q52 9 117 60.5t109 113.5l46 -39q-54 -82 -153 -155zM289 485q23 33 23 62.5t-12.5 52.5t-35.5 31q-24 -4 -52.5 -30t-28.5 -46t24 -44z" />
    <glyph glyph-name="uF01C8" unicode="&#xf01c8;" horiz-adv-x="541" 
d="M378 184q-32 -37 -121 -153q-103 12 -174 69.5t-71 129.5q0 44 41 81t93 59q157 66 207 119l4 8q-22 32 -92 72h-258l-15 15q13 27 30 39h636l12 -13q-7 -28 -26 -41h-262q41 -24 67 -55q10 -24 -1 -54.5t-37 -56.5q-24 -20 -130.5 -81t-138.5 -96q6 -31 34.5 -58.5
t63.5 -39.5q25 27 71.5 79t61.5 67q33 10 70.5 -6.5t60.5 -58.5q-55 -138 -115 -377q-49 -3 -82.5 13t-39.5 43q67 178 120 290zM144 -139q64 -16 139.5 -59t126.5 -90q4 -27 -28 -46q-130 75 -287 105q-12 77 49 90z" />
    <glyph glyph-name="uF01C9" unicode="&#xf01c9;" horiz-adv-x="411" 
d="M640 623l12 -13q-7 -28 -26 -41h-152l-15 15q10 26 31 39h150zM192 189l8 -11q74 24 163 86.5t135 122.5l49 -42q-47 -71 -165.5 -155t-199.5 -102q-52 13 -87 46.5t-35 70.5q14 27 46.5 51.5t79 51.5t70.5 46l-5 6q-67 -28 -129 -37q-46 21 -74 53t-26 68
q28 75 118.5 163t194.5 114q35 2 63 -27t34 -81q-21 -58 -96 -108t-152 -69l-53 15q-4 -10 -5 -15q1 -22 25 -42q61 11 121 40q38 -11 59 -37.5t19 -65.5q-91 -66 -158 -142zM152 492l24 4q51 11 100.5 47.5t63.5 74.5q-3 22 -21 25q-43 -22 -90.5 -65t-76.5 -86z" />
    <glyph glyph-name="uF01CA" unicode="&#xf01ca;" horiz-adv-x="364" 
d="M620 623l12 -13q-7 -28 -27 -41h-600l-15 15q10 26 30 39h600zM485 530l27 -45q-98 -56 -235 -128q28 -81 10 -181q-12 -20 -45 -35t-66 -17q-112 19 -159 91q-6 64 33 94q283 131 435 221zM175 302q-46 -27 -76 -43q26 -41 68 -58l11 7q11 45 -3 94z" />
    <glyph glyph-name="uF01CB" unicode="&#xf01cb;" horiz-adv-x="311" 
d="M471 623l12 -13q-7 -28 -26 -41h-178l-68 -117q-35 -125 -49 -206l10 -5q147 103 237 188l34 -38q-142 -136 -268 -242q-52 2 -95 23.5t-52 57.5q34 160 92 339h-115l-15 15q10 26 30 39h451z" />
    <glyph glyph-name="uF01CC" unicode="&#xf01cc;" horiz-adv-x="676" 
d="M808 394l-88 -51q2 38 -18.5 66.5t-51.5 28.5q-60 -48 -156 -132l-29 -295q-31 -16 -79 -7.5t-83 37.5l55 237l26 48l-8 7q-104 -98 -203 -181q-52 1 -95.5 22.5t-52.5 57.5q43 180 96 337h-116l-15 15q10 26 30 39h416l7 30q107 8 142 -30h169l12 -13q-7 -28 -27 -41
h-164l-68 -138l-31 -55l10 -10q69 63 160 153q73 4 112 -33t50 -92zM160 249l10 -5q119 79 219 171l35 154h-143l-68 -116q-37 -124 -53 -204z" />
    <glyph glyph-name="uF01CD" unicode="&#xf01cd;" horiz-adv-x="284" 
d="M509 623l12 -13q-7 -28 -26 -41h-489l-16 15q12 26 30 39h489zM395 291l-189 -201q-83 2 -133.5 41.5t-50.5 110.5q0 99 77.5 186t175.5 87q69 -10 134 -135l-39 -29q-42 76 -83 88q-31 -6 -63 -38q48 -61 105 -115l33 32zM159 246q0 -57 38 -78q63 55 96 86
q-62 57 -101 105q-33 -56 -33 -113z" />
    <glyph glyph-name="uF01CE" unicode="&#xf01ce;" horiz-adv-x="416" 
d="M662 623l12 -13q-7 -28 -27 -41h-159l-15 15q10 26 30 39h159zM536 530l27 -44q-115 -68 -192 -109q-27 -120 -57 -211q-22 -21 -59.5 -33t-69.5 -11q-45 8 -85.5 36t-61.5 66q2 59 39 75q91 37 183 82q7 29 11 49l21 30l-5 8l-102 -44q-43 10 -76.5 36t-42.5 53
q4 46 30 64q49 24 113 66.5t98 76.5q37 1 67.5 -12.5t44.5 -36.5q-10 -100 -34 -227q83 44 151 86zM300 611l-8 3q-56 -42 -132 -94q14 -27 34 -33l90 23q11 67 16 101zM198 204l10 6q19 54 32 97q-70 -36 -105 -53q23 -33 63 -50z" />
    <glyph glyph-name="uF01CF" unicode="&#xf01cf;" horiz-adv-x="378" 
d="M602 623l12 -13q-7 -28 -26 -41h-232q-5 -61 -15 -123q100 50 157 84l27 -44q-88 -51 -195 -106q-22 -130 -53 -211q-40 -47 -128 -47q-45 8 -85 35t-62 67q0 62 37 83q66 29 183 81q5 37 7 86l-20 95h-203l-16 15q12 26 30 39h582zM161 204l11 7q21 47 36 107
q-38 -18 -116 -56q27 -42 69 -58z" />
    <glyph glyph-name="uF01D0" unicode="&#xf01d0;" horiz-adv-x="385" 
d="M415 522q0 -41 -49 -89t-111.5 -93t-76.5 -64q-3 -21 21.5 -42.5t48.5 -21.5q50 14 117.5 66.5t108.5 113.5l42 -36q-47 -78 -152.5 -157t-158.5 -79t-116 49t-63 94q0 37 94 89q40 21 80 43.5t69.5 51.5t31.5 58q-14 22 -53 18t-91 -40q-40 10 -59 32t-8 47q5 5 9 7h-93
l-16 15q12 26 31 39h585l12 -13q-7 -28 -27 -41h-199q23 -23 23 -47z" />
    <glyph glyph-name="uF01D1" unicode="&#xf01d1;" horiz-adv-x="455" 
d="M311 531q-60 0 -125 -55q-37 11 -56 34t-10 46q12 10 17 13h-131l-16 15q12 26 30 39h578l12 -13q-7 -28 -27 -41h-150q41 -38 41 -69q-1 -56 -53 -110.5t-126 -87t-141 -32.5l-4 -8q8 -6 47 -36t59 -45q58 -43 115 -73q16 -27 -2.5 -61.5t-55.5 -47.5
q-74 35 -161.5 109.5t-141.5 141.5q6 43 32 72t65 30q18 -15 38 -25q77 10 144.5 58.5t71.5 104.5q-4 16 -18 28.5t-32 12.5zM96 -19q76 -26 161 -84t140 -119q1 -31 -36 -50q-152 105 -330 153q-6 91 65 100z" />
    <glyph glyph-name="uF01D2" unicode="&#xf01d2;" horiz-adv-x="457" 
d="M75.5 120.5q-51.5 75.5 -51.5 133t56 121t123 92.5q65 11 112 1q77 -30 85 -121q-19 -30 -33 -49l7 -6q107 75 188 168l32 -66q-121 -121 -225 -203q-47 5 -79 28.5t-33 49.5q32 36 41 66q-9 43 -53 53q-34 -13 -60.5 -52.5t-27.5 -79.5q18 -97 133 -161q9 -28 -15.5 -58
t-72.5 -39q-75 47 -126.5 122.5zM625 569h-619l-16 15q12 26 30 39h620l12 -13q-7 -28 -27 -41z" />
    <glyph glyph-name="uF01D3" unicode="&#xf01d3;" horiz-adv-x="280" 
d="M391 289q-175 -189 -179 -194q-85 2 -136.5 44t-51.5 111q0 98 77.5 180.5t175.5 82.5q52 2 129 -132l-41 -30q-39 74 -78 84q-51 -11 -87.5 -63.5t-36.5 -115t42 -83.5q144 138 152 146zM486 569h-481l-15 15q10 26 30 39h480l12 -13q-7 -28 -26 -41z" />
    <glyph glyph-name="uF01D4" unicode="&#xf01d4;" horiz-adv-x="460" 
d="M467 529q0 -94 -97 -175t-214 -84l-4 -8q9 -7 35 -29.5t42 -35t41 -31.5q49 -37 95 -58q16 -27 -2.5 -61.5t-55.5 -47.5q-74 38 -157.5 111.5t-136.5 139.5q6 44 32 72.5t65 29.5q19 -14 45 -25q50 7 95 35.5t73 69.5l-126 20q-30 20 -53.5 51t-27.5 60q8 50 70 102
t129 56q62 -11 107 -70.5t45 -121.5zM345 475q9 24 9 57t-14.5 62t-43.5 37q-23 -4 -48.5 -29.5t-25.5 -48t31 -53.5z" />
    <glyph glyph-name="uF01D5" unicode="&#xf01d5;" horiz-adv-x="311" 
d="M471 623l12 -13q-7 -28 -26 -41h-178l-27 -46q55 -69 118 -129q13 11 39 35l34 -38q-142 -136 -268 -242q-52 2 -95 23.5t-52 57.5q34 160 92 339h-115l-15 15q10 26 30 39h451zM162 246l10 -5q98 70 159 121q-62 56 -109 109l-11 -19q-35 -125 -49 -206z" />
    <glyph glyph-name="uF01D6" unicode="&#xf01d6;" horiz-adv-x="501" 
d="M473 500q0 -46 -37.5 -92.5t-97.5 -81.5q17 -5 29 -5q37 0 116.5 37.5t118.5 82.5l43 -52q-44 -49 -139 -91.5t-145 -42.5q-30 0 -100 34q-58 -20 -108 -19l-4 -8q116 -89 155 -114.5t67 -39.5q16 -27 -3 -61.5t-55 -47.5q-74 35 -162 110t-141 141q6 44 32 72.5t65 29.5
q18 -15 46 -25q76 14 140 61.5t67 98.5q-3 16 -16.5 30t-29.5 14q-64 0 -128 -55q-37 11 -56 34t-10 46q3 2 8 6.5t8 6.5h-130l-16 15q12 26 30 39h700l12 -13q-7 -28 -27 -41h-273q41 -38 41 -69z" />
    <glyph glyph-name="uF01D7" unicode="&#xf01d7;" horiz-adv-x="520" 
d="M390 259q0 -61 -49 -116q-35 -7 -63 6t-29 30q27 22 36 40q-3 18 -26 21q-41 -5 -84.5 -35t-59.5 -74q3 -37 33.5 -68t86.5 -48q83 16 138 73q28 -2 46 -21.5t19 -49.5q-76 -74 -213 -77q-84 11 -151.5 67.5t-67.5 121t70.5 113t162.5 50.5l3 7q-27 11 -106 55
q-13 25 -4 57t27 46q151 10 237 54l3 8q-20 26 -70 50h-285l-16 15q12 26 30 39h579l12 -13q-7 -28 -27 -41h-180q25 -16 37 -37q7 -26 -5.5 -57.5t-38.5 -52.5q-84 -39 -199 -51l-2 -7q75 -24 115.5 -47.5t40.5 -57.5zM117 -67q75 -26 160.5 -84.5t140.5 -119.5
q1 -30 -36 -50q-147 103 -330 154q-6 89 65 100z" />
    <glyph glyph-name="uF01D8" unicode="&#xf01d8;" horiz-adv-x="827" 
d="M969 623l12 -13q-7 -28 -26 -41h-950l-15 15q10 26 30 39h949zM656 449q33 0 80 -61q105 -138 -37 -290q-80 -86 -166 -98q-69 35 -129 119q-105 -95 -200 -119q-77 8 -132.5 64.5t-54 122.5t83 143.5t175.5 81.5q70 -88 120 -173q21 22 56.5 60.5t55.5 59.5t48 45
q51 45 100 45zM192 82q84 41 164 118q-50 73 -99 125q-49 -22 -85.5 -63.5t-42.5 -80.5q3 -69 63 -99zM633 156.5q36 49.5 40.5 100t-28.5 91.5q-27 -17 -56 -44.5t-75 -75t-66 -67.5q53 -64 96 -79q53 25 89 74.5z" />
    <glyph glyph-name="uF01D9" unicode="&#xf01d9;" horiz-adv-x="466" 
d="M222 -127l104 239l-8 6l-70 -94q-116 13 -192 69q-39 60 -38.5 117t38.5 89q106 39 186 89q-103 81 -107 157q-2 55 70 115.5t127.5 60.5t107 -59t51.5 -109q0 -72 -111 -164q21 -7 42 -7q76 0 144 57l35 -57q-99 -71 -181 -71q-45 0 -103 30q-79 -56 -174 -101
q-23 -23 -9 -73q47 -38 111 -53q37 34 81 114q75 12 121 -59q-38 -98 -100 -342q-43 -9 -79 5.5t-46 40.5zM237 537q17 -64 67 -105q67 55 87 112q-4 29 -19 56t-38 39q-30 -4 -60 -36t-37 -66z" />
    <glyph glyph-name="uF01DA" unicode="&#xf01da;" horiz-adv-x="395" 
d="M229.5 268q35.5 26 35.5 52.5t-23.5 38.5t-59.5 5q-28 28 -16.5 58.5t47.5 47.5q105 -34 172 -35q76 33 129 86l30 -34q-75 -77 -153 -112q-37 -1 -76 11l-3 -7q49 -22 49 -58q0 -46 -64 -87t-146 -47l-4 -5q66 -64 165 -90q19 -23 5 -51t-49 -41q-73 23 -144.5 73.5
t-104.5 101.5q4 36 29.5 62.5t55.5 26.5q12 -17 26 -34q64 12 99.5 38zM600 569h-617l-15 15q10 26 30 39h617l12 -13q-7 -28 -27 -41z" />
    <glyph glyph-name="uF01DB" unicode="&#xf01db;" horiz-adv-x="607" 
d="M544 569l-97 -188l9 -7q22 22 63 65t59 61q76 6 118 -30t52 -90l-96 -56q2 38 -18.5 66.5t-51.5 28.5q-69 -61 -119 -109l-29 -299q-30 -16 -78 -7.5t-83 37.5l27 115l40 70l-10 9q-67 -68 -128 -140q-81 2 -131.5 40t-50.5 107q0 96 77 183.5t169 87.5q15 0 34.5 -16.5
t31 -30.5t32.5 -43l5 2l27 144h-400l-15 15q13 27 30 39h395l6 30q107 8 142 -30h214l12 -13q-7 -28 -27 -41h-209zM195 366q-37 -59 -37 -117t35 -76q71 64 148 143l9 36q-43 72 -75 83q-43 -10 -80 -69zM50.5 56.5q18.5 18.5 45 18.5t44.5 -18.5t18 -44.5t-18 -44.5
t-44.5 -18.5t-45 18.5t-18.5 44.5t18.5 44.5z" />
    <glyph glyph-name="uF01DC" unicode="&#xf01dc;" horiz-adv-x="603" 
d="M459 500q0 -80 -94 -149.5t-201 -79.5l-4 -8q105 -120 169 -132q63 2 190 62l-4 5q-42 2 -65.5 26.5t-23.5 60.5q0 70 61 149t138 79q39 0 68 -51t41 -122l-15 -53q-38 -77 -171 -154.5t-245 -95.5q-81 15 -156 74.5t-130 136.5q5 43 33 73t67 31l23 -26q88 14 147 59.5
t60 101.5q-2 15 -14.5 28.5t-32.5 13.5t-50.5 -14.5t-53.5 -38.5q-37 11 -56 34t-10 46q1 1 3.5 4t5 5t4.5 4h-137l-16 15q12 26 30 39h792l12 -13q-7 -28 -27 -41h-376q38 -38 38 -69zM541 287q0 -21 12.5 -35t32.5 -14t48 27.5t40 59.5l7 26q-11 76 -45 86
q-38 -8 -66.5 -58.5t-28.5 -91.5zM31.5 55.5q18.5 18.5 45 18.5t44.5 -18.5t18 -44.5t-18 -44.5t-44.5 -18.5t-45 18.5t-18.5 44.5t18.5 44.5z" />
    <glyph glyph-name="uF01DD" unicode="&#xf01dd;" horiz-adv-x="367" 
d="M522 623l12 -13q-7 -28 -27 -41h-153q-22 -242 -80 -403q-18 -21 -53.5 -33t-70.5 -11q-45 8 -85.5 35t-61.5 65q0 65 37 85q105 45 182 82q6 45 6 91l-18 89h-205l-15 15q10 26 30 39h502zM163 204l10 7q20 47 35 105q-38 -20 -114 -56q25 -39 69 -56zM61.5 34
q18.5 19 44.5 19t44.5 -19t18.5 -44.5t-18.5 -44t-44.5 -18.5t-44.5 18t-18.5 44t18.5 45z" />
    <glyph glyph-name="uF01DE" unicode="&#xf01de;" horiz-adv-x="461" 
d="M180 -54.5q-18 -18.5 -44.5 -18.5t-45 18.5t-18.5 44.5t18.5 44.5t45 18.5t44.5 -18.5t18 -44.5t-18 -44.5zM155 490q40 1 64.5 -17.5t25.5 -50.5q-75 -59 -82 -123q-10 -82 41 -117q42 9 78 44t39 66q-4 18 -38 32q11 47 38 74t61 24q31 -37 54 -44q66 4 127 70l45 -43
q-34 -42 -81 -70t-93 -29l-27 6l-5 -6l12 -29q-3 -45 -43 -88t-91.5 -66.5t-90.5 -21.5q-63 11 -108.5 74t-43.5 138q7 46 38.5 96t79.5 81zM655 569h-652l-15 15q13 27 30 39h652l12 -13q-7 -28 -27 -41z" />
    <glyph glyph-name="uF01DF" unicode="&#xf01df;" horiz-adv-x="676" 
d="M808 394l-88 -51q2 38 -18.5 66.5t-51.5 28.5q-60 -48 -156 -132l-29 -295q-31 -16 -79 -7.5t-83 37.5l55 237l26 48l-8 7q-104 -98 -203 -181q-52 1 -95.5 22.5t-52.5 57.5q43 180 96 337h-116l-15 15q10 26 30 39h416l7 30q107 8 142 -30h169l12 -13q-7 -28 -27 -41
h-164l-68 -138l-31 -55l10 -10q69 63 160 153q73 4 112 -33t50 -92zM160 249l10 -5q119 79 219 171l35 154h-143l-68 -116q-37 -124 -53 -204zM67.5 87.5q18.5 18.5 45 18.5t45 -18.5t18.5 -44.5t-18.5 -44.5t-45 -18.5t-45 18.5t-18.5 44.5t18.5 44.5z" />
    <glyph glyph-name="uF01E0" unicode="&#xf01e0;" horiz-adv-x="1648" 
d="M1327 224v185h196v-185h-196zM1327 449v185h196v-185h-196zM1091 0v634h196v-634h-196zM855 449v185h196v-185h-196zM619 0v634h196v-634h-196zM383 449v185h196v-185h-196zM147 0v634h196v-634h-196z" />
    <glyph glyph-name="uF01E1" unicode="&#xf01e1;" 
d="M-177 849q22 53 52.5 83t78.5 40q108 -9 169 -70q8 -30 -11.5 -53.5t-64.5 -36.5q-46 55 -94 69l-12 -9q3 -68 41 -166q-7 -23 -53 -24q-34 73 -106 167z" />
    <glyph glyph-name="uF01E2" unicode="&#xf01e2;" horiz-adv-x="267" 
d="M128 213q-74 27 -105 70q13 88 103 80q15 -40 42 -82q68 11 157 47l22 -44q-88 -45 -219 -71zM395 569h-410l-16 15q12 26 31 39h409l12 -13q-7 -28 -26 -41z" />
    <glyph glyph-name="uF01E3" unicode="&#xf01e3;" 
d="M-144 -225q2 -44 -57 -52q-79 82 -79 184l-6 3q-71 -63 -111 -186q-47 -4 -70 13.5t-24 44.5q86 140 180 198q33 2 54 -5.5t45 -29.5q7 -62 20.5 -97t47.5 -73z" />
    <glyph glyph-name="uF01E4" unicode="&#xf01e4;" horiz-adv-x="777" 
d="M544 569l-97 -188l9 -7q22 22 63 65t59 61q83 16 137.5 -19.5t54.5 -110t-55.5 -139.5t-161.5 -137q-44 25 -40 47q71 55 101.5 104.5t30.5 104.5q0 29 -16.5 47t-46.5 22q-67 -59 -114 -104l-34 -304q-32 -15 -75 -8.5t-76 31.5l37 82l-9 6q-79 -86 -171 -157
q-75 30 -58 88q146 72 259 170l-10 17q-61 -39 -174 -108q-56 13 -88 49.5t-32 89.5q0 87 72.5 164.5t157.5 77.5q19 -4 30 -13l16.5 -13.5t13.5 -15t12 -15t13 -17t12 -16.5l5 2l27 144h-400l-15 15q13 27 30 39h395l6 30q107 8 142 -30h365l12 -13q-7 -28 -26 -41h-361z
M204 377q-30 -49 -30 -95t26 -66q48 24 136 82l14 54q-43 72 -75 83q-41 -9 -71 -58z" />
    <glyph glyph-name="uF01E5" unicode="&#xf01e5;" horiz-adv-x="882" 
d="M332.5 515.5q-12.5 13.5 -32.5 13.5t-50.5 -14.5t-53.5 -38.5q-37 11 -56 34t-10 46q1 1 3.5 4t5 5t4.5 4h-137l-16 15q12 26 30 39h724l6 30q108 8 143 -30h132l12 -13q-7 -28 -27 -41h-127l-69 -138l-42 -420q-31 -15 -74.5 -8.5t-76.5 31.5l46 108l-10 7
q-40 -46 -117 -103.5t-152 -100.5q-77 32 -57 87q226 82 347 207l-12 13q-53 -53 -174 -110.5t-212 -78.5q-75 16 -143.5 65.5t-119.5 119.5q5 43 33 73t67 31l23 -26q88 14 147 59.5t60 101.5q-2 15 -14.5 28.5zM576 391.5q-26 -37.5 -26 -65.5q0 -52 43 -52q22 0 48 17.5
t41 43.5l5 20q-15 71 -51 82q-34 -8 -60 -45.5zM459 500q0 -80 -94 -149.5t-201 -79.5l-4 -8q86 -92 146 -106q38 4 108 28t110 45l-4 5q-40 2 -62 25t-22 59q0 58 60.5 126t128.5 68q51 0 79 -82l5 2l25 136h-313q38 -38 38 -69z" />
    <glyph glyph-name="uF01E6" unicode="&#xf01e6;" horiz-adv-x="642" 
d="M784 623l12 -13q-7 -28 -27 -41h-122l-69 -138l-41 -420q-32 -15 -75 -8.5t-76 31.5l45 108l-9 7q-40 -46 -117.5 -103.5t-152.5 -100.5q-76 32 -57 87q83 31 173.5 86.5t150.5 113.5l77 337h-142q-8 -97 -29 -203.5t-47 -172.5q-35 -41 -119 -49q-114 23 -155 106
q4 62 40 84q89 36 180 81q4 29 4 65l-18 89h-205l-15 15q10 26 30 39h488l7 30q107 8 142 -30h127zM167 231l10 6q23 49 35 105q-19 -10 -112 -55q25 -39 67 -56z" />
    <glyph glyph-name="uF01E7" unicode="&#xf01e7;" horiz-adv-x="685" 
d="M819 623l12 -13q-7 -28 -27 -41h-123l-69 -138l-42 -420q-32 -15 -75 -8.5t-76 31.5l45 108l-9 7q-40 -46 -117.5 -103.5t-152.5 -100.5q-76 32 -56 87q118 42 217 107.5t147 137.5l-9 9q-65 -64 -148.5 -117t-141.5 -64q-54 14 -90 41.5t-36 62.5q14 27 47.5 52t80 53
t67.5 45l-6 7q-93 -31 -131 -35q-39 15 -66.5 47t-20.5 66q52 60 192 125h-225l-16 15q12 26 31 39h520l7 30q108 8 143 -30h128zM489 396l40 173h-151q-150 -79 -216 -145l6 -10q40 8 120 36q38 -10 60.5 -35.5t18.5 -64.5q-104 -77 -165 -143l8 -11q78 27 153 82.5
t126 117.5z" />
    <glyph glyph-name="uF01E8" unicode="&#xf01e8;" horiz-adv-x="521" 
d="M640 623l12 -13q-7 -28 -27 -41h-238q34 -21 54 -44q8 -23 -3.5 -56.5t-36.5 -54.5q-40 -22 -85.5 -34.5t-83.5 -22t-55 -14.5l-3 -11q35 -17 125.5 -41t126.5 -40q22 -22 19 -62t-29 -80q-50 -36 -159.5 -65t-209.5 -34q-34 28 -41 61t15 52q90 1 178 18t141 52l-1 8
q-37 18 -132.5 44.5t-138.5 49.5q-16 34 -0.5 75.5t56.5 64.5q165 33 228 64l3 9q-21 25 -96 61h-253l-16 15q12 26 30 39h620zM438 390q17 17 41.5 17t41.5 -17t17 -41t-17 -41t-41.5 -17t-41.5 17t-17 41t17 41zM212 -93l-7 3q-70 -63 -110 -186q-48 -4 -71 13.5t-23 44.5
q86 139 179 198q34 2 54 -5.5t45 -29.5q7 -62 20.5 -97t47.5 -73q2 -44 -57 -52q-80 83 -78 184z" />
    <glyph glyph-name="uF01E9" unicode="&#xf01e9;" horiz-adv-x="715" 
d="M91 267q0 22 33 42.5t92 44.5t84 38l-1 5q-151 -21 -239 -27q-31 25 -35.5 64t19.5 51q152 -22 321 -11q25 -11 37 -44.5t1 -58.5q-112 -53 -140 -77q-12 -10 -19 -19q1 -12 18 -26.5t33 -15.5q52 11 120.5 61.5t116.5 112.5l37 162h-572l-16 15q12 26 31 39h569l7 30
q107 8 142 -30h128l12 -13q-7 -28 -27 -41h-123l-69 -138l-41 -420q-32 -15 -75 -8.5t-76 31.5l45 108l-9 7q-40 -46 -117.5 -103.5t-152.5 -100.5q-76 32 -57 87q117 44 223.5 118.5t146.5 149.5l-14 13q-61 -66 -132.5 -115.5t-135.5 -64.5q-59 5 -112 49t-53 85z" />
    <glyph glyph-name="uF01EA" unicode="&#xf01ea;" horiz-adv-x="708" 
d="M813 623l12 -13q-7 -28 -27 -41h-404q-66 -29 -131.5 -77.5t-109.5 -92.5l8 -12q23 3 118 29q47 -19 67 -49.5t9 -67.5q-81 -63 -152 -160l10 -9q125 29 252 128q-61 97 -48 183q19 29 54.5 55t68.5 27q48 -16 92.5 -55t43.5 -76q-1 -56 -97 -148q52 -79 63 -123
q-21 -129 -121 -254q-46 -2 -70.5 16.5t-28.5 49.5q95 86 132 187q-11 24 -32 58q-42 -74 -126 -163.5t-157 -149.5q-83 17 -75 78q53 30 134.5 93.5t125.5 109.5l-6 6q-41 -32 -107 -68t-113 -50q-51 15 -85.5 46.5t-34.5 71.5q21 47 70 94.5t104 82.5l-5 8
q-78 -27 -131 -36q-42 21 -66.5 58t-13.5 71q75 75 200 139h-227l-16 15q12 26 31 39h789zM505 411q-1 -39 29 -98q42 43 49 75q-4 13 -20 26.5t-31 18.5q-18 -6 -27 -22z" />
    <glyph glyph-name="uF01EB" unicode="&#xf01eb;" horiz-adv-x="739" 
d="M150 308q0 -83 53 -117q39 9 71 43.5t33 64.5q-6 18 -41 33q6 46 32 73.5t60 24.5q35 -37 67 -45q35 2 75 22t67 49l25 113h-586l-16 15q12 26 30 39h584l7 30q107 8 142 -30h129l12 -13q-7 -28 -27 -41h-123l-69 -138l-42 -420q-32 -15 -75 -8.5t-76 31.5l45 108l-9 7
q-40 -46 -117.5 -103.5t-152.5 -100.5q-76 32 -56 87q190 77 302 185q25 39 39 70q21 34 40 73l-9 8q-76 -55 -146 -55l-22 6l-5 -6l10 -32q-4 -64 -75 -116t-133 -54q-64 11 -114.5 73t-55.5 138q2 45 26 92t68 79q40 1 66.5 -17.5t31.5 -50.5q-65 -55 -65 -117z" />
    <glyph glyph-name="uF01EC" unicode="&#xf01ec;" horiz-adv-x="793" 
d="M935 623l12 -13q-7 -28 -26 -41h-123l-70 -138l-41 -420q-32 -15 -75 -8.5t-76 31.5l45 108l-9 7q-38 -49 -106 -102.5t-143 -96.5q-76 32 -56 88q180 68 303 194l21 93l39 47l-8 10q-91 -58 -199 -103q22 -15 30 -34q6 -31 -11 -70q-20 -34 -90.5 -67.5t-125.5 -35.5
q-54 7 -95 40l-7 -7q22 -24 37.5 -47t23.5 -34.5t21 -33t18.5 -30.5t38.5 -64q-3 -24 -36 -38.5t-78 -7.5q-65 169 -152 281q24 46 61 71.5t73 13.5q31 -52 84 -63q36 4 72.5 23.5t58.5 44.5l-2 8q-26 15 -125 38t-143 50q-10 33 3.5 68t44.5 57q165 24 236 57v6
q-23 29 -94 64h-260l-16 15q12 26 30 39h638l7 30q107 8 142 -30h128zM621 457l25 112h-251q29 -17 55 -45q13 -47 -40 -94q-46 -22 -128.5 -41.5t-93.5 -22.5l-3 -11q23 -13 74 -27t91 -20q170 71 271 149z" />
    <glyph glyph-name="uF01ED" unicode="&#xf01ed;" horiz-adv-x="690" 
d="M833 623l12 -13q-7 -28 -27 -41h-123l-69 -138l-42 -420q-31 -15 -74.5 -8.5t-76.5 31.5l45 108l-9 7q-40 -46 -117 -103.5t-152 -100.5q-77 32 -57 87q177 69 312 194l32 67l34 39l-7 13q-63 -39 -139 -67q-26 -72 -95.5 -126t-138.5 -53q-43 6 -80.5 48t-49.5 100
q23 24 50 33t48 -2q13 -66 50 -92q39 16 71 52t38 84q5 75 -52 111q-52 -13 -97 -56q-39 17 -53 35t-9 43q40 32 76.5 47t91.5 13t104.5 -53t54.5 -113q82 37 127 79l32 141h-537l-16 15q12 26 30 39h535l7 30q108 8 143 -30h128z" />
    <glyph glyph-name="uF01EE" unicode="&#xf01ee;" horiz-adv-x="529" 
d="M13 235q0 77 98 151q159 50 237 102l3 8q-26 34 -99 73h-241l-16 15q12 26 31 39h634l12 -13q-7 -28 -27 -41h-275q37 -24 67 -58q6 -26 -5 -56t-32 -49q-63 -40 -208 -99q-54 -41 -53 -79q0 -72 97 -112q52 14 98 51t76 82q40 3 63 -19.5t24 -70.5q-52 -45 -125 -76
t-152 -32q-89 17 -148 71t-59 113zM247 -77l-6 3q-71 -63 -111 -186q-47 -4 -70 13.5t-24 44.5q86 140 180 198q34 1 54.5 -6t43.5 -29q8 -63 21.5 -98t46.5 -72q3 -44 -57 -52q-79 83 -78 184z" />
    <glyph glyph-name="uF01EF" unicode="&#xf01ef;" horiz-adv-x="577" 
d="M77 112.5q-65 57.5 -65 130t113 153.5q116 39 161 59t66 37l3 9q-26 32 -90 68h-256l-15 15q10 26 30 39h673l12 -13q-7 -28 -27 -41h-302q37 -24 62 -55q5 -26 -6 -55.5t-34 -50.5l-11 -7q121 -48 164 -106q2 -101 -91.5 -176.5t-225.5 -79.5q-96 16 -161 73.5zM441 281
q-29 43 -112 85q-13 -7 -59 -30t-67 -35q-41 -24 -54 -40q-14 -29 -3 -66q22 -63 101 -96q80 17 135 70t59 112zM258 -65l-7 3q-70 -63 -110 -186q-48 -4 -71 13.5t-24 44.5q86 140 180 198q33 2 54 -5.5t45 -29.5q7 -62 20.5 -97t47.5 -73q2 -44 -57 -52q-80 83 -78 184z
" />
    <glyph glyph-name="uF01F0" unicode="&#xf01f0;" horiz-adv-x="498" 
d="M640 623l12 -13q-7 -28 -27 -41h-238q34 -21 54 -44q8 -23 -3.5 -56.5t-36.5 -54.5q-40 -22 -85.5 -34.5t-83.5 -22t-55 -14.5l-3 -11q35 -17 125.5 -41t126.5 -40q22 -22 19 -62t-29 -80q-50 -36 -159.5 -65t-209.5 -34q-34 28 -41 61t15 52q90 1 178 18t141 52l-1 8
q-37 18 -132.5 44.5t-138.5 49.5q-16 34 -0.5 75.5t56.5 64.5q165 33 228 64l3 9q-21 25 -96 61h-253l-16 15q12 26 30 39h620zM207 -93l-7 4q-72 -65 -110 -186q-48 -4 -71 13.5t-24 44.5q86 141 180 197q34 2 54.5 -5t44.5 -29q7 -62 20.5 -97.5t47.5 -72.5q2 -43 -57 -53
q-80 83 -78 184z" />
    <glyph glyph-name="uF01F1" unicode="&#xf01f1;" horiz-adv-x="594" 
d="M187 151l200 148q67 0 116.5 -35.5t49.5 -71t-49.5 -76.5t-114 -66.5t-109.5 -25.5q-83 3 -158 57.5t-103 128.5q0 66 42 102q31 18 150 77.5t158 89.5l4 10q-24 34 -100 80h-257l-16 15q12 26 31 39h695l12 -13q-7 -28 -26 -41h-319q51 -28 81 -58q16 -44 -28 -95
q-32 -28 -108 -68t-129.5 -72.5t-53.5 -56.5q0 -33 32 -68zM432 184q-15 23 -50 34q-26 -15 -153 -103q25 -17 52 -27q55 10 95.5 36t55.5 60zM279 -101l-6 4q-71 -63 -111 -186q-47 -4 -70 13.5t-24 44.5q86 140 180 198q34 1 54.5 -6t44.5 -29q7 -63 20.5 -98t47.5 -72
q2 -44 -57 -52q-79 81 -79 183z" />
    <glyph glyph-name="uF01F2" unicode="&#xf01f2;" horiz-adv-x="733" 
d="M876 623l12 -13q-7 -28 -27 -41h-123l-69 -138l-41 -420q-32 -15 -75 -8.5t-76 31.5l45 108l-9 7q-40 -46 -117.5 -103.5t-152.5 -100.5q-76 32 -57 87q83 31 173.5 86.5t150.5 113.5l77 337h-240q-9 -37 -18 -78q-6 -126 -25 -171q-10 -48 -39 -88t-50 -50
q-12 10 -17 81q-12 52 -7 105q-2 42 14 95q7 50 21 106h-220l-16 15q12 26 30 39h579l7 30q107 8 142 -30h128z" />
    <glyph glyph-name="uF01F3" unicode="&#xf01f3;" horiz-adv-x="589" 
d="M110.5 481.5q37.5 22.5 73 22.5t95.5 -49.5t122 -125.5l10 10l-16 26l47 204h-436l-16 15q12 26 30 39h434l7 30q107 8 142 -30h128l12 -13q-7 -28 -26 -41h-123l-69 -138l-42 -420q-30 -16 -78 -7.5t-83 37.5l28 119l37 51l-11 10q-45 -48 -132 -112t-168 -109
q-43 15 -61 44t-2 56q198 62 346 190q-61 61 -146 111l-49 -66q-115 24 -113 91q22 33 59.5 55.5z" />
    <glyph glyph-name="uF01F4" unicode="&#xf01f4;" horiz-adv-x="664" 
d="M335 192.5q-72 -45.5 -124.5 -45.5t-114 46.5t-61.5 98.5q0 22 30 45t87 55t85 53q-35 5 -73 14q-67 44 -78 104q8 51 66 102.5t119 55.5q54 -6 97.5 -57t44.5 -98q-1 -41 -31 -83t-65.5 -70t-76.5 -60.5t-55 -49.5q-3 -22 21 -42.5t50 -20.5q51 9 115.5 59.5
t109.5 111.5l36 158h-48l-16 15q12 26 31 39h45l7 30q107 8 142 -30h128l12 -13q-7 -28 -26 -41h-124l-69 -138l-41 -420q-32 -15 -75 -8.5t-76 31.5l45 108l-9 7q-40 -46 -117.5 -103.5t-152.5 -100.5q-76 32 -57 87q85 32 174.5 85.5t148.5 109.5l40 65l-10 10
q-62 -64 -134 -109.5zM211.5 601q-28.5 -26 -28.5 -46t24 -44q28 -12 76 -24q29 34 29 63.5t-13.5 51.5t-34.5 29q-24 -4 -52.5 -30z" />
    </font>
</defs>
</svg>
