<?xml version="1.0" encoding="UTF-8"?>
<svg xmlns="http://www.w3.org/2000/svg" xmlns:xlink="http://www.w3.org/1999/xlink" viewBox="0 0 1054.35 1058.7">
  <defs>
    <style>
      .cls-1 {
        fill: url(#New_Gradient_Swatch_7-2);
      }

      .cls-1, .cls-2, .cls-3, .cls-4, .cls-5 {
        stroke-width: 0px;
      }

      .cls-2 {
        fill: url(#New_Gradient_Swatch_7-4);
      }

      .cls-3 {
        fill: none;
      }

      .cls-4 {
        fill: url(#New_Gradient_Swatch_7-3);
      }

      .cls-5 {
        fill: url(#New_Gradient_Swatch_7);
      }
    </style>
    <linearGradient id="New_Gradient_Swatch_7" data-name="New Gradient Swatch 7" x1="590.29" y1="-18.26" x2="1130.8" y2="1466.97" gradientTransform="translate(1054.35) rotate(-180) scale(1 -1)" gradientUnits="userSpaceOnUse">
      <stop offset="0" stop-color="#95c127"/>
      <stop offset=".55" stop-color="#008c39"/>
      <stop offset="1" stop-color="#0e6932"/>
    </linearGradient>
    <linearGradient id="New_Gradient_Swatch_7-2" data-name="New Gradient Swatch 7" x1="532.08" y1="2.92" x2="1072.59" y2="1488.16" xlink:href="#New_Gradient_Swatch_7"/>
    <linearGradient id="New_Gradient_Swatch_7-3" data-name="New Gradient Swatch 7" x1="136.7" y1="146.81" x2="677.22" y2="1632.04" xlink:href="#New_Gradient_Swatch_7"/>
    <linearGradient id="New_Gradient_Swatch_7-4" data-name="New Gradient Swatch 7" x1="327.33" y1="77.43" x2="867.85" y2="1562.67" xlink:href="#New_Gradient_Swatch_7"/>
  </defs>
  <g id="Background">
    <rect class="cls-3" x="0" y="0" width="1054.35" height="1058.7" transform="translate(1054.35 1058.7) rotate(-180)"/>
  </g>
  <g id="Layer_1" data-name="Layer 1">
    <g>
      <path class="cls-5" d="m175.96,1032.07c10.88-93.89,129.58-158.33,156.38-237.59,15.88-46.95-3.34-70.17-32.07-81.55-60.29-23.89-147.92,21.35-179.53-7.48-23.75-21.66-3.61-57.02-9.58-81.65-6.38-26.31-18.21-22.29-26.41-38.04-2.7-5.2,4.86-13.82,10.7-18.33,0,0-22.96-8.22-19.96-28.14,8.01-7.18,18.5-20.15,13.77-29.97-7.43-15.44-38.62-21.65-46.45-35.14-2.86-4.93-2.49-10.27,1.3-14.54,51.21-57.67,54.57-75.49,44.76-137.1-7.16-44.94-1-112.69,32.15-149.47-17.06,95.64,84.6,175.59,195.14,262.56,81.94,64.47,163.79,129.08,166.49,229.07,5.26,194.96-261.22,250.54-306.69,367.37Z"/>
      <path class="cls-1" d="m254.59,4.19c-43.08,31.28-103.39,141.77-30.55,258.48,22.9,36.69,62.54,70.8,112.9,110,67.38,52.46,146.68,117.53,179.26,202.52,29.88,77.94,20.04,173.8-65.01,267.1,256.91-207.57,74.41-497.38-93.99-599.2,0,0,150.39,53.26,204.43,180.15C586.44,140.48,185.93,148.84,254.59,4.19Z"/>
      <path class="cls-4" d="m612.7,455.32c113.16-95,354.93,4.22,409.24-45.39-105.95,240.78-315.45,53.45-431.84,87.2,60.57-42.82,156.09-40.39,206.28-17.91-45.97-35.87-129.52-42.66-183.67-23.9Z"/>
      <path class="cls-2" d="m636.56,381.5c105.23-42.85,27.29-155.77,38.37-209.36-31.45,16.84-54.02,46.5-65.01,80.45-10.99,33.94-6.33,77.49,9.29,109.57,0,0,27.81-44.87,29.37-85.33,11.36,52.44-12.02,104.68-12.02,104.68Z"/>
    </g>
  </g>
</svg>