<svg width="0" height="0" class="hidden">
    <symbol viewBox="0 0 16 14" fill="none" xmlns="http://www.w3.org/2000/svg" id="arrow">
        <path d="M9.3.3L7.9 1.7 12.2 6H0v2h12.2l-4.3 4.3 1.4 1.4L16 7 9.3.3z" fill="currentColor"></path>
    </symbol>
    <symbol id="twitter" fill="none" xmlns="http://www.w3.org/2000/svg"><path d="M24 2.6c-.9.4-1.8.7-2.8.8 1-.6 1.8-1.6 2.2-2.7-1 .6-2 1-3.1 1.2-.9-1-2.2-1.6-3.6-1.6-2.7 0-4.9 2.2-4.9 4.9 0 .4 0 .8.1 1.1-4.2-.2-7.8-2.2-10.2-5.2-.5.8-.7 1.6-.7 2.5 0 1.7.9 3.2 2.2 4.1-.8 0-1.6-.2-2.2-.6v.1c0 2.4 1.7 4.4 3.9 4.8-.4.1-.8.2-1.3.2-.3 0-.6 0-.9-.1.6 2 2.4 3.4 4.6 3.4-1.7 1.3-3.8 2.1-6.1 2.1-.4 0-.8 0-1.2-.1 2.2 1.4 4.8 2.2 7.5 2.2 9.1 0 14-7.5 14-14v-.6c1-.7 1.8-1.6 2.5-2.5z" fill="currentColor"/></symbol>
    <symbol id="instagram" fill="none" xmlns="http://www.w3.org/2000/svg" viewBox="0 0 24 24"><path d="M12 2.162c3.204 0 3.584.012 4.849.07 1.366.062 2.633.336 3.608 1.311.975.975 1.249 2.242 1.311 3.608.058 1.265.07 1.645.07 4.849s-.012 3.584-.07 4.849c-.062 1.366-.336 2.633-1.311 3.608-.975.975-2.242 1.249-3.608 1.311-1.265.058-1.645.07-4.849.07s-3.584-.012-4.849-.07c-1.366-.062-2.633-.336-3.608-1.311-.975-.975-1.249-2.242-1.311-3.608-.058-1.265-.07-1.645-.07-4.849s.012-3.584.07-4.849c.062-1.366.336-2.633 1.311-3.608.975-.975 2.242-1.249 3.608-1.311 1.265-.058 1.645-.07 4.849-.07zM12 0C8.741 0 8.332.014 7.052.072c-1.95.089-3.663.567-5.038 1.942C.639 3.389.161 5.102.072 7.052.014 8.332 0 8.741 0 12c0 3.259.014 3.668.072 4.948.089 1.95.567 3.663 1.942 5.038 1.375 1.375 3.088 1.853 5.038 1.942C8.332 23.986 8.741 24 12 24c3.259 0 3.668-.014 4.948-.072 1.95-.089 3.663-.567 5.038-1.942 1.375-1.375 1.853-3.088 1.942-5.038.058-1.28.072-1.689.072-4.948 0-3.259-.014-3.668-.072-4.948-.089-1.95-.567-3.663-1.942-5.038C20.611.639 18.898.161 16.948.072 15.668.014 15.259 0 12 0z" fill="currentColor"/><path d="M12 5.838a6.162 6.162 0 100 12.324 6.162 6.162 0 000-12.324zM12 16a4 4 0 110-8 4 4 0 010 8zM18.406 7.034a1.44 1.44 0 100-2.88 1.44 1.44 0 000 2.88z" fill="currentColor"/></symbol>
    <symbol id="facebook" fill="none" xmlns="http://www.w3.org/2000/svg" viewBox="0 0 14 23"><path d="M4.032 22.063L4 12.39H0V8.52h4V6.105C4 2.514 6.298.784 9.61.784c1.585 0 2.948.115 3.345.166V4.7l-2.296.001c-1.8 0-2.15.828-2.15 2.042v1.778h5.241l-2 3.869H8.51v9.671H4.032z" fill="currentColor"/></symbol>
    <symbol id="burger" fill="none" xmlns="http://www.w3.org/2000/svg" viewBox="0 0 73 55"><defs><style>.cls-1{fill:#f400ff;}.cls-2{opacity:.5;}.cls-3{fill:#e4bfff;}</style></defs><path class="cls-3" d="M59.02,10.94c2.78,0,5.04,2.26,5.04,5.04v26.05c0,2.78-2.26,5.04-5.04,5.04H12.98c-2.78,0-5.04-2.26-5.04-5.04V15.98c0-2.78,2.26-5.04,5.04-5.04h46.05m0-1.94H12.98c-3.85,0-6.98,3.12-6.98,6.98v26.05c0,3.85,3.12,6.98,6.98,6.98h46.05c3.85,0,6.98-3.12,6.98-6.98V15.98c0-3.85-3.12-6.98-6.98-6.98h0Z"/><g class="cls-2"><path class="cls-1" d="M12.68,19.26c15.12-.07,30.24-.14,45.36-.21,1.29,0,1.3-2.02,0-2.01-15.12.07-30.24.14-45.36.21-1.29,0-1.3,2.02,0,2.01h0Z"/></g><g class="cls-2"><path class="cls-1" d="M13.12,41.05c15.12-.07,30.24-.14,45.36-.21,1.29,0,1.3-2.02,0-2.01-15.12.07-30.24.14-45.36.21-1.29,0-1.3,2.02,0,2.01h0Z"/></g><g class="cls-2"><path class="cls-1" d="M13.12,30.05c15.12-.07,30.24-.14,45.36-.21,1.29,0,1.3-2.02,0-2.01-15.12.07-30.24.14-45.36.21-1.29,0-1.3,2.02,0,2.01h0Z"/></g></symbol>
    <symbol id="tiktok" fill="none" xmlns="http://www.w3.org/2000/svg" viewBox="0 0 500 500"><path d="M150.13,393.72c.08-.24-.1-.5-.36-.5h-50.19v13.97h16.4v52.84h16.26v-52.84h13.23c.16,0,.31-.11.36-.26l4.29-13.21Z" fill="currentColor"/><path d="M283.58,393.72c.08-.24-.1-.5-.36-.5h-50.19v13.97h16.4v52.84h16.26v-52.84h13.23c.16,0,.31-.11.36-.26l4.29-13.21Z" fill="currentColor"/><path d="M206.69,428.17l19.07-18.64c.24-.24.07-.65-.26-.65h-18.21l-15.26,15.45v-31.11h-16.26v66.81h16.26v-17.03l3.89-4.3c.16-.18.45-.16.59.04l14.91,21.14c.07.1.19.16.31.16h16.92c.31,0,.49-.35.31-.6l-22.26-31.25Z" fill="currentColor"/><path d="M377.96,428.17l19.07-18.64c.24-.24.07-.65-.26-.65h-18.21l-15.26,15.45v-31.11h-16.26v66.81h16.26v-17.03l3.89-4.3c.16-.18.45-.16.59.04l14.91,21.14c.07.1.19.16.31.16h16.92c.31,0,.49-.35.31-.6l-22.26-31.25Z" fill="currentColor"/><path d="M310.01,405.34c15.55,0,28.16,12.24,28.16,27.34s-12.61,27.34-28.16,27.34c17.92,0,32.44-12.24,32.44-27.34s-14.53-27.34-32.44-27.34Z" fill="currentColor"/><path d="M281.85,432.68c0-15.1,12.61-27.34,28.16-27.34-17.92,0-32.44,12.24-32.44,27.34s14.52,27.34,32.44,27.34c-15.55,0-28.16-12.24-28.16-27.34Z" fill="currentColor"/><path d="M310.01,405.34c-15.55,0-28.16,12.24-28.16,27.34s12.61,27.34,28.16,27.34,28.16-12.24,28.16-27.34-12.61-27.34-28.16-27.34Zm0,41.22c-7.47,0-13.52-6.05-13.52-13.52s6.05-13.52,13.52-13.52,13.52,6.05,13.52,13.52-6.05,13.52-13.52,13.52Z" fill="currentColor"/><path d="M217.58,172.85c13.14-.06,13.58.67,16.02,1.33v56.56c-4.35-1.31-8.97-2.02-13.75-2.02-26.14,0-47.34,21.11-47.34,47.15s21.19,47.14,47.34,47.14c.58,0,1.16-.01,1.74-.03,25.16-.9,44.82-22.13,44.82-47.3V53.42h56.16c0,4.36-.74,67.99,78.19,78.63v55.28s-39.61,2.81-78.19-24.83v109.67c0,83.06-68.43,106.92-105.68,106.92s-97.84-25.33-101.39-106.32c-1.96-44.6,39.46-98.29,102.08-99.91Z" fill="currentColor"/><path d="M200.73,158.66c13.14-.06,13.58.67,16.02,1.33v56.56c-4.35-1.31-8.97-2.02-13.75-2.02-26.14,0-47.34,21.11-47.34,47.15s21.19,47.14,47.34,47.14c.58,0,1.16-.01,1.74-.03,25.16-.9,44.82-22.13,44.82-47.3V39.23h56.16c0,4.36-.74,67.99,78.19,78.63v55.28s-39.61,2.81-78.19-24.83v109.67c0,83.06-68.43,106.92-105.68,106.92s-97.84-25.33-101.39-106.32c-1.96-44.6,39.46-98.29,102.08-99.91Z" fill="currentColor"/><path d="M383.91,128.7v-10.84c-18.08-2.44-31.97-7.66-42.65-14.31,9.08,10.34,22.59,19.72,42.65,25.14Z" fill="currentColor"/><path d="M203,308.82c-7.66,0-14.89-1.82-21.29-5.04,8.62,11.66,22.49,19.23,38.14,19.23.58,0,1.16-.01,1.74-.03,25.16-.9,44.82-22.13,44.82-47.3V53.42h40.72c-1.46-7.56-1.4-13.02-1.4-14.19h-56.16v222.26c0,25.17-19.67,46.4-44.82,47.3-.58.02-1.15.03-1.74.03Z" fill="currentColor"/><path d="M115.5,272.76c-1.95-44.4,39.1-97.8,101.24-99.88v-12.89c-2.44-.67-2.88-1.39-16.02-1.33-62.61,1.63-104.03,55.31-102.08,99.91,2,45.74,21.64,73.73,45.38,89.43-15.62-16.64-27.03-40.95-28.53-75.24Z" fill="currentColor"/></symbol>
    <symbol fill="none" xmlns="http://www.w3.org/2000/svg" viewBox="0 0 16 16" id="search"><path d="M14.213 13.352l-4.058-4.058c.63-.814.97-1.81.97-2.857a4.66 4.66 0 00-1.373-3.314A4.653 4.653 0 006.437 1.75a4.66 4.66 0 00-3.314 1.373A4.65 4.65 0 001.75 6.437c0 1.252.49 2.43 1.373 3.315a4.65 4.65 0 003.314 1.373c1.047 0 2.041-.34 2.855-.969l4.058 4.056a.129.129 0 00.181 0l.681-.68a.129.129 0 000-.18zm-5.3-4.44a3.481 3.481 0 01-2.476 1.025 3.481 3.481 0 01-2.475-1.024 3.481 3.481 0 01-1.025-2.476c0-.934.365-1.814 1.026-2.475a3.481 3.481 0 012.474-1.025c.935 0 1.815.363 2.475 1.026a3.481 3.481 0 011.025 2.474c0 .935-.364 1.815-1.024 2.475z" fill="currentColor"/></symbol>
</svg>
 